G04 #@! TF.GenerationSoftware,KiCad,Pcbnew,(5.1.9)-1*
G04 #@! TF.CreationDate,2021-08-22T22:13:52+01:00*
G04 #@! TF.ProjectId,Simple Mixer Front Panel,53696d70-6c65-4204-9d69-786572204672,rev?*
G04 #@! TF.SameCoordinates,Original*
G04 #@! TF.FileFunction,Other,Fab,Top*
%FSLAX46Y46*%
G04 Gerber Fmt 4.6, Leading zero omitted, Abs format (unit mm)*
G04 Created by KiCad (PCBNEW (5.1.9)-1) date 2021-08-22 22:13:52*
%MOMM*%
%LPD*%
G01*
G04 APERTURE LIST*
%ADD10C,0.150000*%
G04 APERTURE END LIST*
D10*
X40166666Y-194082380D02*
X39833333Y-193606190D01*
X39595238Y-194082380D02*
X39595238Y-193082380D01*
X39976190Y-193082380D01*
X40071428Y-193130000D01*
X40119047Y-193177619D01*
X40166666Y-193272857D01*
X40166666Y-193415714D01*
X40119047Y-193510952D01*
X40071428Y-193558571D01*
X39976190Y-193606190D01*
X39595238Y-193606190D01*
X40595238Y-193558571D02*
X40928571Y-193558571D01*
X41071428Y-194082380D02*
X40595238Y-194082380D01*
X40595238Y-193082380D01*
X41071428Y-193082380D01*
X41833333Y-193558571D02*
X41500000Y-193558571D01*
X41500000Y-194082380D02*
X41500000Y-193082380D01*
X41976190Y-193082380D01*
X42500000Y-193082380D02*
X42500000Y-193320476D01*
X42261904Y-193225238D02*
X42500000Y-193320476D01*
X42738095Y-193225238D01*
X42357142Y-193510952D02*
X42500000Y-193320476D01*
X42642857Y-193510952D01*
X43261904Y-193082380D02*
X43261904Y-193320476D01*
X43023809Y-193225238D02*
X43261904Y-193320476D01*
X43500000Y-193225238D01*
X43119047Y-193510952D02*
X43261904Y-193320476D01*
X43404761Y-193510952D01*
X38976190Y-192082380D02*
X38785714Y-192082380D01*
X38690476Y-192130000D01*
X38642857Y-192177619D01*
X38547619Y-192320476D01*
X38500000Y-192510952D01*
X38500000Y-192891904D01*
X38547619Y-192987142D01*
X38595238Y-193034761D01*
X38690476Y-193082380D01*
X38880952Y-193082380D01*
X38976190Y-193034761D01*
X39023809Y-192987142D01*
X39071428Y-192891904D01*
X39071428Y-192653809D01*
X39023809Y-192558571D01*
X38976190Y-192510952D01*
X38880952Y-192463333D01*
X38690476Y-192463333D01*
X38595238Y-192510952D01*
X38547619Y-192558571D01*
X38500000Y-192653809D01*
X39500000Y-192701428D02*
X40261904Y-192701428D01*
X39880952Y-193082380D02*
X39880952Y-192320476D01*
X41261904Y-193082380D02*
X40690476Y-193082380D01*
X40976190Y-193082380D02*
X40976190Y-192082380D01*
X40880952Y-192225238D01*
X40785714Y-192320476D01*
X40690476Y-192368095D01*
X41833333Y-193082380D02*
X41738095Y-193034761D01*
X41690476Y-192939523D01*
X41690476Y-192082380D01*
X42357142Y-193082380D02*
X42261904Y-193034761D01*
X42214285Y-192987142D01*
X42166666Y-192891904D01*
X42166666Y-192606190D01*
X42214285Y-192510952D01*
X42261904Y-192463333D01*
X42357142Y-192415714D01*
X42500000Y-192415714D01*
X42595238Y-192463333D01*
X42642857Y-192510952D01*
X42690476Y-192606190D01*
X42690476Y-192891904D01*
X42642857Y-192987142D01*
X42595238Y-193034761D01*
X42500000Y-193082380D01*
X42357142Y-193082380D01*
X43547619Y-192415714D02*
X43547619Y-193225238D01*
X43500000Y-193320476D01*
X43452380Y-193368095D01*
X43357142Y-193415714D01*
X43214285Y-193415714D01*
X43119047Y-193368095D01*
X43547619Y-193034761D02*
X43452380Y-193082380D01*
X43261904Y-193082380D01*
X43166666Y-193034761D01*
X43119047Y-192987142D01*
X43071428Y-192891904D01*
X43071428Y-192606190D01*
X43119047Y-192510952D01*
X43166666Y-192463333D01*
X43261904Y-192415714D01*
X43452380Y-192415714D01*
X43547619Y-192463333D01*
X44166666Y-193082380D02*
X44071428Y-193034761D01*
X44023809Y-192987142D01*
X43976190Y-192891904D01*
X43976190Y-192606190D01*
X44023809Y-192510952D01*
X44071428Y-192463333D01*
X44166666Y-192415714D01*
X44309523Y-192415714D01*
X44404761Y-192463333D01*
X44452380Y-192510952D01*
X44500000Y-192606190D01*
X44500000Y-192891904D01*
X44452380Y-192987142D01*
X44404761Y-193034761D01*
X44309523Y-193082380D01*
X44166666Y-193082380D01*
X50680952Y-93792380D02*
X50204761Y-93792380D01*
X50204761Y-92792380D01*
X51395238Y-93744761D02*
X51300000Y-93792380D01*
X51109523Y-93792380D01*
X51014285Y-93744761D01*
X50966666Y-93649523D01*
X50966666Y-93268571D01*
X51014285Y-93173333D01*
X51109523Y-93125714D01*
X51300000Y-93125714D01*
X51395238Y-93173333D01*
X51442857Y-93268571D01*
X51442857Y-93363809D01*
X50966666Y-93459047D01*
X52300000Y-93792380D02*
X52300000Y-92792380D01*
X52300000Y-93744761D02*
X52204761Y-93792380D01*
X52014285Y-93792380D01*
X51919047Y-93744761D01*
X51871428Y-93697142D01*
X51823809Y-93601904D01*
X51823809Y-93316190D01*
X51871428Y-93220952D01*
X51919047Y-93173333D01*
X52014285Y-93125714D01*
X52204761Y-93125714D01*
X52300000Y-93173333D01*
X52538095Y-93887619D02*
X53300000Y-93887619D01*
X53538095Y-93792380D02*
X53538095Y-92792380D01*
X53538095Y-93268571D02*
X54109523Y-93268571D01*
X54109523Y-93792380D02*
X54109523Y-92792380D01*
X54728571Y-93792380D02*
X54633333Y-93744761D01*
X54585714Y-93697142D01*
X54538095Y-93601904D01*
X54538095Y-93316190D01*
X54585714Y-93220952D01*
X54633333Y-93173333D01*
X54728571Y-93125714D01*
X54871428Y-93125714D01*
X54966666Y-93173333D01*
X55014285Y-93220952D01*
X55061904Y-93316190D01*
X55061904Y-93601904D01*
X55014285Y-93697142D01*
X54966666Y-93744761D01*
X54871428Y-93792380D01*
X54728571Y-93792380D01*
X55633333Y-93792380D02*
X55538095Y-93744761D01*
X55490476Y-93649523D01*
X55490476Y-92792380D01*
X56395238Y-93744761D02*
X56300000Y-93792380D01*
X56109523Y-93792380D01*
X56014285Y-93744761D01*
X55966666Y-93649523D01*
X55966666Y-93268571D01*
X56014285Y-93173333D01*
X56109523Y-93125714D01*
X56300000Y-93125714D01*
X56395238Y-93173333D01*
X56442857Y-93268571D01*
X56442857Y-93363809D01*
X55966666Y-93459047D01*
X52838095Y-87792380D02*
X52838095Y-86792380D01*
X52838095Y-87268571D02*
X53409523Y-87268571D01*
X53409523Y-87792380D02*
X53409523Y-86792380D01*
X54361904Y-86792380D02*
X53885714Y-86792380D01*
X53838095Y-87268571D01*
X53885714Y-87220952D01*
X53980952Y-87173333D01*
X54219047Y-87173333D01*
X54314285Y-87220952D01*
X54361904Y-87268571D01*
X54409523Y-87363809D01*
X54409523Y-87601904D01*
X54361904Y-87697142D01*
X54314285Y-87744761D01*
X54219047Y-87792380D01*
X53980952Y-87792380D01*
X53885714Y-87744761D01*
X53838095Y-87697142D01*
X50409523Y-196062380D02*
X50409523Y-196776666D01*
X50361904Y-196919523D01*
X50266666Y-197014761D01*
X50123809Y-197062380D01*
X50028571Y-197062380D01*
X51314285Y-197062380D02*
X51314285Y-196538571D01*
X51266666Y-196443333D01*
X51171428Y-196395714D01*
X50980952Y-196395714D01*
X50885714Y-196443333D01*
X51314285Y-197014761D02*
X51219047Y-197062380D01*
X50980952Y-197062380D01*
X50885714Y-197014761D01*
X50838095Y-196919523D01*
X50838095Y-196824285D01*
X50885714Y-196729047D01*
X50980952Y-196681428D01*
X51219047Y-196681428D01*
X51314285Y-196633809D01*
X52219047Y-197014761D02*
X52123809Y-197062380D01*
X51933333Y-197062380D01*
X51838095Y-197014761D01*
X51790476Y-196967142D01*
X51742857Y-196871904D01*
X51742857Y-196586190D01*
X51790476Y-196490952D01*
X51838095Y-196443333D01*
X51933333Y-196395714D01*
X52123809Y-196395714D01*
X52219047Y-196443333D01*
X52647619Y-197062380D02*
X52647619Y-196062380D01*
X52742857Y-196681428D02*
X53028571Y-197062380D01*
X53028571Y-196395714D02*
X52647619Y-196776666D01*
X53219047Y-197157619D02*
X53980952Y-197157619D01*
X54219047Y-197062380D02*
X54219047Y-196062380D01*
X54219047Y-196538571D02*
X54790476Y-196538571D01*
X54790476Y-197062380D02*
X54790476Y-196062380D01*
X55409523Y-197062380D02*
X55314285Y-197014761D01*
X55266666Y-196967142D01*
X55219047Y-196871904D01*
X55219047Y-196586190D01*
X55266666Y-196490952D01*
X55314285Y-196443333D01*
X55409523Y-196395714D01*
X55552380Y-196395714D01*
X55647619Y-196443333D01*
X55695238Y-196490952D01*
X55742857Y-196586190D01*
X55742857Y-196871904D01*
X55695238Y-196967142D01*
X55647619Y-197014761D01*
X55552380Y-197062380D01*
X55409523Y-197062380D01*
X56314285Y-197062380D02*
X56219047Y-197014761D01*
X56171428Y-196919523D01*
X56171428Y-196062380D01*
X57076190Y-197014761D02*
X56980952Y-197062380D01*
X56790476Y-197062380D01*
X56695238Y-197014761D01*
X56647619Y-196919523D01*
X56647619Y-196538571D01*
X56695238Y-196443333D01*
X56790476Y-196395714D01*
X56980952Y-196395714D01*
X57076190Y-196443333D01*
X57123809Y-196538571D01*
X57123809Y-196633809D01*
X56647619Y-196729047D01*
X52661904Y-186062380D02*
X52661904Y-185062380D01*
X52661904Y-185538571D02*
X53233333Y-185538571D01*
X53233333Y-186062380D02*
X53233333Y-185062380D01*
X54233333Y-186062380D02*
X53661904Y-186062380D01*
X53947619Y-186062380D02*
X53947619Y-185062380D01*
X53852380Y-185205238D01*
X53757142Y-185300476D01*
X53661904Y-185348095D01*
X54614285Y-185157619D02*
X54661904Y-185110000D01*
X54757142Y-185062380D01*
X54995238Y-185062380D01*
X55090476Y-185110000D01*
X55138095Y-185157619D01*
X55185714Y-185252857D01*
X55185714Y-185348095D01*
X55138095Y-185490952D01*
X54566666Y-186062380D01*
X55185714Y-186062380D01*
X17252857Y-209282380D02*
X17252857Y-208282380D01*
X17633809Y-208282380D01*
X17729047Y-208330000D01*
X17776666Y-208377619D01*
X17824285Y-208472857D01*
X17824285Y-208615714D01*
X17776666Y-208710952D01*
X17729047Y-208758571D01*
X17633809Y-208806190D01*
X17252857Y-208806190D01*
X18681428Y-209282380D02*
X18681428Y-208758571D01*
X18633809Y-208663333D01*
X18538571Y-208615714D01*
X18348095Y-208615714D01*
X18252857Y-208663333D01*
X18681428Y-209234761D02*
X18586190Y-209282380D01*
X18348095Y-209282380D01*
X18252857Y-209234761D01*
X18205238Y-209139523D01*
X18205238Y-209044285D01*
X18252857Y-208949047D01*
X18348095Y-208901428D01*
X18586190Y-208901428D01*
X18681428Y-208853809D01*
X19157619Y-208615714D02*
X19157619Y-209282380D01*
X19157619Y-208710952D02*
X19205238Y-208663333D01*
X19300476Y-208615714D01*
X19443333Y-208615714D01*
X19538571Y-208663333D01*
X19586190Y-208758571D01*
X19586190Y-209282380D01*
X20443333Y-209234761D02*
X20348095Y-209282380D01*
X20157619Y-209282380D01*
X20062380Y-209234761D01*
X20014761Y-209139523D01*
X20014761Y-208758571D01*
X20062380Y-208663333D01*
X20157619Y-208615714D01*
X20348095Y-208615714D01*
X20443333Y-208663333D01*
X20490952Y-208758571D01*
X20490952Y-208853809D01*
X20014761Y-208949047D01*
X21062380Y-209282380D02*
X20967142Y-209234761D01*
X20919523Y-209139523D01*
X20919523Y-208282380D01*
X18171904Y-205082380D02*
X18171904Y-204082380D01*
X18171904Y-204558571D02*
X18743333Y-204558571D01*
X18743333Y-205082380D02*
X18743333Y-204082380D01*
X19743333Y-205082380D02*
X19171904Y-205082380D01*
X19457619Y-205082380D02*
X19457619Y-204082380D01*
X19362380Y-204225238D01*
X19267142Y-204320476D01*
X19171904Y-204368095D01*
X20600476Y-204415714D02*
X20600476Y-205082380D01*
X20362380Y-204034761D02*
X20124285Y-204749047D01*
X20743333Y-204749047D01*
X50562380Y-115072380D02*
X50562380Y-114072380D01*
X50943333Y-114072380D01*
X51038571Y-114120000D01*
X51086190Y-114167619D01*
X51133809Y-114262857D01*
X51133809Y-114405714D01*
X51086190Y-114500952D01*
X51038571Y-114548571D01*
X50943333Y-114596190D01*
X50562380Y-114596190D01*
X51705238Y-115072380D02*
X51610000Y-115024761D01*
X51562380Y-114977142D01*
X51514761Y-114881904D01*
X51514761Y-114596190D01*
X51562380Y-114500952D01*
X51610000Y-114453333D01*
X51705238Y-114405714D01*
X51848095Y-114405714D01*
X51943333Y-114453333D01*
X51990952Y-114500952D01*
X52038571Y-114596190D01*
X52038571Y-114881904D01*
X51990952Y-114977142D01*
X51943333Y-115024761D01*
X51848095Y-115072380D01*
X51705238Y-115072380D01*
X52324285Y-114405714D02*
X52705238Y-114405714D01*
X52467142Y-114072380D02*
X52467142Y-114929523D01*
X52514761Y-115024761D01*
X52610000Y-115072380D01*
X52705238Y-115072380D01*
X52800476Y-115167619D02*
X53562380Y-115167619D01*
X53800476Y-115072380D02*
X53800476Y-114072380D01*
X53800476Y-114548571D02*
X54371904Y-114548571D01*
X54371904Y-115072380D02*
X54371904Y-114072380D01*
X54990952Y-115072380D02*
X54895714Y-115024761D01*
X54848095Y-114977142D01*
X54800476Y-114881904D01*
X54800476Y-114596190D01*
X54848095Y-114500952D01*
X54895714Y-114453333D01*
X54990952Y-114405714D01*
X55133809Y-114405714D01*
X55229047Y-114453333D01*
X55276666Y-114500952D01*
X55324285Y-114596190D01*
X55324285Y-114881904D01*
X55276666Y-114977142D01*
X55229047Y-115024761D01*
X55133809Y-115072380D01*
X54990952Y-115072380D01*
X55895714Y-115072380D02*
X55800476Y-115024761D01*
X55752857Y-114929523D01*
X55752857Y-114072380D01*
X56657619Y-115024761D02*
X56562380Y-115072380D01*
X56371904Y-115072380D01*
X56276666Y-115024761D01*
X56229047Y-114929523D01*
X56229047Y-114548571D01*
X56276666Y-114453333D01*
X56371904Y-114405714D01*
X56562380Y-114405714D01*
X56657619Y-114453333D01*
X56705238Y-114548571D01*
X56705238Y-114643809D01*
X56229047Y-114739047D01*
X52671904Y-108072380D02*
X52671904Y-107072380D01*
X52671904Y-107548571D02*
X53243333Y-107548571D01*
X53243333Y-108072380D02*
X53243333Y-107072380D01*
X54243333Y-108072380D02*
X53671904Y-108072380D01*
X53957619Y-108072380D02*
X53957619Y-107072380D01*
X53862380Y-107215238D01*
X53767142Y-107310476D01*
X53671904Y-107358095D01*
X55148095Y-107072380D02*
X54671904Y-107072380D01*
X54624285Y-107548571D01*
X54671904Y-107500952D01*
X54767142Y-107453333D01*
X55005238Y-107453333D01*
X55100476Y-107500952D01*
X55148095Y-107548571D01*
X55195714Y-107643809D01*
X55195714Y-107881904D01*
X55148095Y-107977142D01*
X55100476Y-108024761D01*
X55005238Y-108072380D01*
X54767142Y-108072380D01*
X54671904Y-108024761D01*
X54624285Y-107977142D01*
X25419523Y-196082380D02*
X25419523Y-196796666D01*
X25371904Y-196939523D01*
X25276666Y-197034761D01*
X25133809Y-197082380D01*
X25038571Y-197082380D01*
X26324285Y-197082380D02*
X26324285Y-196558571D01*
X26276666Y-196463333D01*
X26181428Y-196415714D01*
X25990952Y-196415714D01*
X25895714Y-196463333D01*
X26324285Y-197034761D02*
X26229047Y-197082380D01*
X25990952Y-197082380D01*
X25895714Y-197034761D01*
X25848095Y-196939523D01*
X25848095Y-196844285D01*
X25895714Y-196749047D01*
X25990952Y-196701428D01*
X26229047Y-196701428D01*
X26324285Y-196653809D01*
X27229047Y-197034761D02*
X27133809Y-197082380D01*
X26943333Y-197082380D01*
X26848095Y-197034761D01*
X26800476Y-196987142D01*
X26752857Y-196891904D01*
X26752857Y-196606190D01*
X26800476Y-196510952D01*
X26848095Y-196463333D01*
X26943333Y-196415714D01*
X27133809Y-196415714D01*
X27229047Y-196463333D01*
X27657619Y-197082380D02*
X27657619Y-196082380D01*
X27752857Y-196701428D02*
X28038571Y-197082380D01*
X28038571Y-196415714D02*
X27657619Y-196796666D01*
X28229047Y-197177619D02*
X28990952Y-197177619D01*
X29229047Y-197082380D02*
X29229047Y-196082380D01*
X29229047Y-196558571D02*
X29800476Y-196558571D01*
X29800476Y-197082380D02*
X29800476Y-196082380D01*
X30419523Y-197082380D02*
X30324285Y-197034761D01*
X30276666Y-196987142D01*
X30229047Y-196891904D01*
X30229047Y-196606190D01*
X30276666Y-196510952D01*
X30324285Y-196463333D01*
X30419523Y-196415714D01*
X30562380Y-196415714D01*
X30657619Y-196463333D01*
X30705238Y-196510952D01*
X30752857Y-196606190D01*
X30752857Y-196891904D01*
X30705238Y-196987142D01*
X30657619Y-197034761D01*
X30562380Y-197082380D01*
X30419523Y-197082380D01*
X31324285Y-197082380D02*
X31229047Y-197034761D01*
X31181428Y-196939523D01*
X31181428Y-196082380D01*
X32086190Y-197034761D02*
X31990952Y-197082380D01*
X31800476Y-197082380D01*
X31705238Y-197034761D01*
X31657619Y-196939523D01*
X31657619Y-196558571D01*
X31705238Y-196463333D01*
X31800476Y-196415714D01*
X31990952Y-196415714D01*
X32086190Y-196463333D01*
X32133809Y-196558571D01*
X32133809Y-196653809D01*
X31657619Y-196749047D01*
X27671904Y-186082380D02*
X27671904Y-185082380D01*
X27671904Y-185558571D02*
X28243333Y-185558571D01*
X28243333Y-186082380D02*
X28243333Y-185082380D01*
X29243333Y-186082380D02*
X28671904Y-186082380D01*
X28957619Y-186082380D02*
X28957619Y-185082380D01*
X28862380Y-185225238D01*
X28767142Y-185320476D01*
X28671904Y-185368095D01*
X30100476Y-185082380D02*
X29910000Y-185082380D01*
X29814761Y-185130000D01*
X29767142Y-185177619D01*
X29671904Y-185320476D01*
X29624285Y-185510952D01*
X29624285Y-185891904D01*
X29671904Y-185987142D01*
X29719523Y-186034761D01*
X29814761Y-186082380D01*
X30005238Y-186082380D01*
X30100476Y-186034761D01*
X30148095Y-185987142D01*
X30195714Y-185891904D01*
X30195714Y-185653809D01*
X30148095Y-185558571D01*
X30100476Y-185510952D01*
X30005238Y-185463333D01*
X29814761Y-185463333D01*
X29719523Y-185510952D01*
X29671904Y-185558571D01*
X29624285Y-185653809D01*
X61252857Y-209302380D02*
X61252857Y-208302380D01*
X61633809Y-208302380D01*
X61729047Y-208350000D01*
X61776666Y-208397619D01*
X61824285Y-208492857D01*
X61824285Y-208635714D01*
X61776666Y-208730952D01*
X61729047Y-208778571D01*
X61633809Y-208826190D01*
X61252857Y-208826190D01*
X62681428Y-209302380D02*
X62681428Y-208778571D01*
X62633809Y-208683333D01*
X62538571Y-208635714D01*
X62348095Y-208635714D01*
X62252857Y-208683333D01*
X62681428Y-209254761D02*
X62586190Y-209302380D01*
X62348095Y-209302380D01*
X62252857Y-209254761D01*
X62205238Y-209159523D01*
X62205238Y-209064285D01*
X62252857Y-208969047D01*
X62348095Y-208921428D01*
X62586190Y-208921428D01*
X62681428Y-208873809D01*
X63157619Y-208635714D02*
X63157619Y-209302380D01*
X63157619Y-208730952D02*
X63205238Y-208683333D01*
X63300476Y-208635714D01*
X63443333Y-208635714D01*
X63538571Y-208683333D01*
X63586190Y-208778571D01*
X63586190Y-209302380D01*
X64443333Y-209254761D02*
X64348095Y-209302380D01*
X64157619Y-209302380D01*
X64062380Y-209254761D01*
X64014761Y-209159523D01*
X64014761Y-208778571D01*
X64062380Y-208683333D01*
X64157619Y-208635714D01*
X64348095Y-208635714D01*
X64443333Y-208683333D01*
X64490952Y-208778571D01*
X64490952Y-208873809D01*
X64014761Y-208969047D01*
X65062380Y-209302380D02*
X64967142Y-209254761D01*
X64919523Y-209159523D01*
X64919523Y-208302380D01*
X62171904Y-205102380D02*
X62171904Y-204102380D01*
X62171904Y-204578571D02*
X62743333Y-204578571D01*
X62743333Y-205102380D02*
X62743333Y-204102380D01*
X63743333Y-205102380D02*
X63171904Y-205102380D01*
X63457619Y-205102380D02*
X63457619Y-204102380D01*
X63362380Y-204245238D01*
X63267142Y-204340476D01*
X63171904Y-204388095D01*
X64076666Y-204102380D02*
X64743333Y-204102380D01*
X64314761Y-205102380D01*
X50562380Y-75082380D02*
X50562380Y-74082380D01*
X50943333Y-74082380D01*
X51038571Y-74130000D01*
X51086190Y-74177619D01*
X51133809Y-74272857D01*
X51133809Y-74415714D01*
X51086190Y-74510952D01*
X51038571Y-74558571D01*
X50943333Y-74606190D01*
X50562380Y-74606190D01*
X51705238Y-75082380D02*
X51610000Y-75034761D01*
X51562380Y-74987142D01*
X51514761Y-74891904D01*
X51514761Y-74606190D01*
X51562380Y-74510952D01*
X51610000Y-74463333D01*
X51705238Y-74415714D01*
X51848095Y-74415714D01*
X51943333Y-74463333D01*
X51990952Y-74510952D01*
X52038571Y-74606190D01*
X52038571Y-74891904D01*
X51990952Y-74987142D01*
X51943333Y-75034761D01*
X51848095Y-75082380D01*
X51705238Y-75082380D01*
X52324285Y-74415714D02*
X52705238Y-74415714D01*
X52467142Y-74082380D02*
X52467142Y-74939523D01*
X52514761Y-75034761D01*
X52610000Y-75082380D01*
X52705238Y-75082380D01*
X52800476Y-75177619D02*
X53562380Y-75177619D01*
X53800476Y-75082380D02*
X53800476Y-74082380D01*
X53800476Y-74558571D02*
X54371904Y-74558571D01*
X54371904Y-75082380D02*
X54371904Y-74082380D01*
X54990952Y-75082380D02*
X54895714Y-75034761D01*
X54848095Y-74987142D01*
X54800476Y-74891904D01*
X54800476Y-74606190D01*
X54848095Y-74510952D01*
X54895714Y-74463333D01*
X54990952Y-74415714D01*
X55133809Y-74415714D01*
X55229047Y-74463333D01*
X55276666Y-74510952D01*
X55324285Y-74606190D01*
X55324285Y-74891904D01*
X55276666Y-74987142D01*
X55229047Y-75034761D01*
X55133809Y-75082380D01*
X54990952Y-75082380D01*
X55895714Y-75082380D02*
X55800476Y-75034761D01*
X55752857Y-74939523D01*
X55752857Y-74082380D01*
X56657619Y-75034761D02*
X56562380Y-75082380D01*
X56371904Y-75082380D01*
X56276666Y-75034761D01*
X56229047Y-74939523D01*
X56229047Y-74558571D01*
X56276666Y-74463333D01*
X56371904Y-74415714D01*
X56562380Y-74415714D01*
X56657619Y-74463333D01*
X56705238Y-74558571D01*
X56705238Y-74653809D01*
X56229047Y-74749047D01*
X52671904Y-68082380D02*
X52671904Y-67082380D01*
X52671904Y-67558571D02*
X53243333Y-67558571D01*
X53243333Y-68082380D02*
X53243333Y-67082380D01*
X54243333Y-68082380D02*
X53671904Y-68082380D01*
X53957619Y-68082380D02*
X53957619Y-67082380D01*
X53862380Y-67225238D01*
X53767142Y-67320476D01*
X53671904Y-67368095D01*
X54814761Y-67510952D02*
X54719523Y-67463333D01*
X54671904Y-67415714D01*
X54624285Y-67320476D01*
X54624285Y-67272857D01*
X54671904Y-67177619D01*
X54719523Y-67130000D01*
X54814761Y-67082380D01*
X55005238Y-67082380D01*
X55100476Y-67130000D01*
X55148095Y-67177619D01*
X55195714Y-67272857D01*
X55195714Y-67320476D01*
X55148095Y-67415714D01*
X55100476Y-67463333D01*
X55005238Y-67510952D01*
X54814761Y-67510952D01*
X54719523Y-67558571D01*
X54671904Y-67606190D01*
X54624285Y-67701428D01*
X54624285Y-67891904D01*
X54671904Y-67987142D01*
X54719523Y-68034761D01*
X54814761Y-68082380D01*
X55005238Y-68082380D01*
X55100476Y-68034761D01*
X55148095Y-67987142D01*
X55195714Y-67891904D01*
X55195714Y-67701428D01*
X55148095Y-67606190D01*
X55100476Y-67558571D01*
X55005238Y-67510952D01*
X50409523Y-174102380D02*
X50409523Y-174816666D01*
X50361904Y-174959523D01*
X50266666Y-175054761D01*
X50123809Y-175102380D01*
X50028571Y-175102380D01*
X51314285Y-175102380D02*
X51314285Y-174578571D01*
X51266666Y-174483333D01*
X51171428Y-174435714D01*
X50980952Y-174435714D01*
X50885714Y-174483333D01*
X51314285Y-175054761D02*
X51219047Y-175102380D01*
X50980952Y-175102380D01*
X50885714Y-175054761D01*
X50838095Y-174959523D01*
X50838095Y-174864285D01*
X50885714Y-174769047D01*
X50980952Y-174721428D01*
X51219047Y-174721428D01*
X51314285Y-174673809D01*
X52219047Y-175054761D02*
X52123809Y-175102380D01*
X51933333Y-175102380D01*
X51838095Y-175054761D01*
X51790476Y-175007142D01*
X51742857Y-174911904D01*
X51742857Y-174626190D01*
X51790476Y-174530952D01*
X51838095Y-174483333D01*
X51933333Y-174435714D01*
X52123809Y-174435714D01*
X52219047Y-174483333D01*
X52647619Y-175102380D02*
X52647619Y-174102380D01*
X52742857Y-174721428D02*
X53028571Y-175102380D01*
X53028571Y-174435714D02*
X52647619Y-174816666D01*
X53219047Y-175197619D02*
X53980952Y-175197619D01*
X54219047Y-175102380D02*
X54219047Y-174102380D01*
X54219047Y-174578571D02*
X54790476Y-174578571D01*
X54790476Y-175102380D02*
X54790476Y-174102380D01*
X55409523Y-175102380D02*
X55314285Y-175054761D01*
X55266666Y-175007142D01*
X55219047Y-174911904D01*
X55219047Y-174626190D01*
X55266666Y-174530952D01*
X55314285Y-174483333D01*
X55409523Y-174435714D01*
X55552380Y-174435714D01*
X55647619Y-174483333D01*
X55695238Y-174530952D01*
X55742857Y-174626190D01*
X55742857Y-174911904D01*
X55695238Y-175007142D01*
X55647619Y-175054761D01*
X55552380Y-175102380D01*
X55409523Y-175102380D01*
X56314285Y-175102380D02*
X56219047Y-175054761D01*
X56171428Y-174959523D01*
X56171428Y-174102380D01*
X57076190Y-175054761D02*
X56980952Y-175102380D01*
X56790476Y-175102380D01*
X56695238Y-175054761D01*
X56647619Y-174959523D01*
X56647619Y-174578571D01*
X56695238Y-174483333D01*
X56790476Y-174435714D01*
X56980952Y-174435714D01*
X57076190Y-174483333D01*
X57123809Y-174578571D01*
X57123809Y-174673809D01*
X56647619Y-174769047D01*
X52661904Y-164102380D02*
X52661904Y-163102380D01*
X52661904Y-163578571D02*
X53233333Y-163578571D01*
X53233333Y-164102380D02*
X53233333Y-163102380D01*
X53661904Y-163197619D02*
X53709523Y-163150000D01*
X53804761Y-163102380D01*
X54042857Y-163102380D01*
X54138095Y-163150000D01*
X54185714Y-163197619D01*
X54233333Y-163292857D01*
X54233333Y-163388095D01*
X54185714Y-163530952D01*
X53614285Y-164102380D01*
X54233333Y-164102380D01*
X54852380Y-163102380D02*
X54947619Y-163102380D01*
X55042857Y-163150000D01*
X55090476Y-163197619D01*
X55138095Y-163292857D01*
X55185714Y-163483333D01*
X55185714Y-163721428D01*
X55138095Y-163911904D01*
X55090476Y-164007142D01*
X55042857Y-164054761D01*
X54947619Y-164102380D01*
X54852380Y-164102380D01*
X54757142Y-164054761D01*
X54709523Y-164007142D01*
X54661904Y-163911904D01*
X54614285Y-163721428D01*
X54614285Y-163483333D01*
X54661904Y-163292857D01*
X54709523Y-163197619D01*
X54757142Y-163150000D01*
X54852380Y-163102380D01*
X25562380Y-115072380D02*
X25562380Y-114072380D01*
X25943333Y-114072380D01*
X26038571Y-114120000D01*
X26086190Y-114167619D01*
X26133809Y-114262857D01*
X26133809Y-114405714D01*
X26086190Y-114500952D01*
X26038571Y-114548571D01*
X25943333Y-114596190D01*
X25562380Y-114596190D01*
X26705238Y-115072380D02*
X26610000Y-115024761D01*
X26562380Y-114977142D01*
X26514761Y-114881904D01*
X26514761Y-114596190D01*
X26562380Y-114500952D01*
X26610000Y-114453333D01*
X26705238Y-114405714D01*
X26848095Y-114405714D01*
X26943333Y-114453333D01*
X26990952Y-114500952D01*
X27038571Y-114596190D01*
X27038571Y-114881904D01*
X26990952Y-114977142D01*
X26943333Y-115024761D01*
X26848095Y-115072380D01*
X26705238Y-115072380D01*
X27324285Y-114405714D02*
X27705238Y-114405714D01*
X27467142Y-114072380D02*
X27467142Y-114929523D01*
X27514761Y-115024761D01*
X27610000Y-115072380D01*
X27705238Y-115072380D01*
X27800476Y-115167619D02*
X28562380Y-115167619D01*
X28800476Y-115072380D02*
X28800476Y-114072380D01*
X28800476Y-114548571D02*
X29371904Y-114548571D01*
X29371904Y-115072380D02*
X29371904Y-114072380D01*
X29990952Y-115072380D02*
X29895714Y-115024761D01*
X29848095Y-114977142D01*
X29800476Y-114881904D01*
X29800476Y-114596190D01*
X29848095Y-114500952D01*
X29895714Y-114453333D01*
X29990952Y-114405714D01*
X30133809Y-114405714D01*
X30229047Y-114453333D01*
X30276666Y-114500952D01*
X30324285Y-114596190D01*
X30324285Y-114881904D01*
X30276666Y-114977142D01*
X30229047Y-115024761D01*
X30133809Y-115072380D01*
X29990952Y-115072380D01*
X30895714Y-115072380D02*
X30800476Y-115024761D01*
X30752857Y-114929523D01*
X30752857Y-114072380D01*
X31657619Y-115024761D02*
X31562380Y-115072380D01*
X31371904Y-115072380D01*
X31276666Y-115024761D01*
X31229047Y-114929523D01*
X31229047Y-114548571D01*
X31276666Y-114453333D01*
X31371904Y-114405714D01*
X31562380Y-114405714D01*
X31657619Y-114453333D01*
X31705238Y-114548571D01*
X31705238Y-114643809D01*
X31229047Y-114739047D01*
X27671904Y-108072380D02*
X27671904Y-107072380D01*
X27671904Y-107548571D02*
X28243333Y-107548571D01*
X28243333Y-108072380D02*
X28243333Y-107072380D01*
X28671904Y-107167619D02*
X28719523Y-107120000D01*
X28814761Y-107072380D01*
X29052857Y-107072380D01*
X29148095Y-107120000D01*
X29195714Y-107167619D01*
X29243333Y-107262857D01*
X29243333Y-107358095D01*
X29195714Y-107500952D01*
X28624285Y-108072380D01*
X29243333Y-108072380D01*
X30195714Y-108072380D02*
X29624285Y-108072380D01*
X29910000Y-108072380D02*
X29910000Y-107072380D01*
X29814761Y-107215238D01*
X29719523Y-107310476D01*
X29624285Y-107358095D01*
X25409523Y-174052380D02*
X25409523Y-174766666D01*
X25361904Y-174909523D01*
X25266666Y-175004761D01*
X25123809Y-175052380D01*
X25028571Y-175052380D01*
X26314285Y-175052380D02*
X26314285Y-174528571D01*
X26266666Y-174433333D01*
X26171428Y-174385714D01*
X25980952Y-174385714D01*
X25885714Y-174433333D01*
X26314285Y-175004761D02*
X26219047Y-175052380D01*
X25980952Y-175052380D01*
X25885714Y-175004761D01*
X25838095Y-174909523D01*
X25838095Y-174814285D01*
X25885714Y-174719047D01*
X25980952Y-174671428D01*
X26219047Y-174671428D01*
X26314285Y-174623809D01*
X27219047Y-175004761D02*
X27123809Y-175052380D01*
X26933333Y-175052380D01*
X26838095Y-175004761D01*
X26790476Y-174957142D01*
X26742857Y-174861904D01*
X26742857Y-174576190D01*
X26790476Y-174480952D01*
X26838095Y-174433333D01*
X26933333Y-174385714D01*
X27123809Y-174385714D01*
X27219047Y-174433333D01*
X27647619Y-175052380D02*
X27647619Y-174052380D01*
X27742857Y-174671428D02*
X28028571Y-175052380D01*
X28028571Y-174385714D02*
X27647619Y-174766666D01*
X28219047Y-175147619D02*
X28980952Y-175147619D01*
X29219047Y-175052380D02*
X29219047Y-174052380D01*
X29219047Y-174528571D02*
X29790476Y-174528571D01*
X29790476Y-175052380D02*
X29790476Y-174052380D01*
X30409523Y-175052380D02*
X30314285Y-175004761D01*
X30266666Y-174957142D01*
X30219047Y-174861904D01*
X30219047Y-174576190D01*
X30266666Y-174480952D01*
X30314285Y-174433333D01*
X30409523Y-174385714D01*
X30552380Y-174385714D01*
X30647619Y-174433333D01*
X30695238Y-174480952D01*
X30742857Y-174576190D01*
X30742857Y-174861904D01*
X30695238Y-174957142D01*
X30647619Y-175004761D01*
X30552380Y-175052380D01*
X30409523Y-175052380D01*
X31314285Y-175052380D02*
X31219047Y-175004761D01*
X31171428Y-174909523D01*
X31171428Y-174052380D01*
X32076190Y-175004761D02*
X31980952Y-175052380D01*
X31790476Y-175052380D01*
X31695238Y-175004761D01*
X31647619Y-174909523D01*
X31647619Y-174528571D01*
X31695238Y-174433333D01*
X31790476Y-174385714D01*
X31980952Y-174385714D01*
X32076190Y-174433333D01*
X32123809Y-174528571D01*
X32123809Y-174623809D01*
X31647619Y-174719047D01*
X27661904Y-164052380D02*
X27661904Y-163052380D01*
X27661904Y-163528571D02*
X28233333Y-163528571D01*
X28233333Y-164052380D02*
X28233333Y-163052380D01*
X28661904Y-163147619D02*
X28709523Y-163100000D01*
X28804761Y-163052380D01*
X29042857Y-163052380D01*
X29138095Y-163100000D01*
X29185714Y-163147619D01*
X29233333Y-163242857D01*
X29233333Y-163338095D01*
X29185714Y-163480952D01*
X28614285Y-164052380D01*
X29233333Y-164052380D01*
X29566666Y-163052380D02*
X30185714Y-163052380D01*
X29852380Y-163433333D01*
X29995238Y-163433333D01*
X30090476Y-163480952D01*
X30138095Y-163528571D01*
X30185714Y-163623809D01*
X30185714Y-163861904D01*
X30138095Y-163957142D01*
X30090476Y-164004761D01*
X29995238Y-164052380D01*
X29709523Y-164052380D01*
X29614285Y-164004761D01*
X29566666Y-163957142D01*
X25572380Y-75082380D02*
X25572380Y-74082380D01*
X25953333Y-74082380D01*
X26048571Y-74130000D01*
X26096190Y-74177619D01*
X26143809Y-74272857D01*
X26143809Y-74415714D01*
X26096190Y-74510952D01*
X26048571Y-74558571D01*
X25953333Y-74606190D01*
X25572380Y-74606190D01*
X26715238Y-75082380D02*
X26620000Y-75034761D01*
X26572380Y-74987142D01*
X26524761Y-74891904D01*
X26524761Y-74606190D01*
X26572380Y-74510952D01*
X26620000Y-74463333D01*
X26715238Y-74415714D01*
X26858095Y-74415714D01*
X26953333Y-74463333D01*
X27000952Y-74510952D01*
X27048571Y-74606190D01*
X27048571Y-74891904D01*
X27000952Y-74987142D01*
X26953333Y-75034761D01*
X26858095Y-75082380D01*
X26715238Y-75082380D01*
X27334285Y-74415714D02*
X27715238Y-74415714D01*
X27477142Y-74082380D02*
X27477142Y-74939523D01*
X27524761Y-75034761D01*
X27620000Y-75082380D01*
X27715238Y-75082380D01*
X27810476Y-75177619D02*
X28572380Y-75177619D01*
X28810476Y-75082380D02*
X28810476Y-74082380D01*
X28810476Y-74558571D02*
X29381904Y-74558571D01*
X29381904Y-75082380D02*
X29381904Y-74082380D01*
X30000952Y-75082380D02*
X29905714Y-75034761D01*
X29858095Y-74987142D01*
X29810476Y-74891904D01*
X29810476Y-74606190D01*
X29858095Y-74510952D01*
X29905714Y-74463333D01*
X30000952Y-74415714D01*
X30143809Y-74415714D01*
X30239047Y-74463333D01*
X30286666Y-74510952D01*
X30334285Y-74606190D01*
X30334285Y-74891904D01*
X30286666Y-74987142D01*
X30239047Y-75034761D01*
X30143809Y-75082380D01*
X30000952Y-75082380D01*
X30905714Y-75082380D02*
X30810476Y-75034761D01*
X30762857Y-74939523D01*
X30762857Y-74082380D01*
X31667619Y-75034761D02*
X31572380Y-75082380D01*
X31381904Y-75082380D01*
X31286666Y-75034761D01*
X31239047Y-74939523D01*
X31239047Y-74558571D01*
X31286666Y-74463333D01*
X31381904Y-74415714D01*
X31572380Y-74415714D01*
X31667619Y-74463333D01*
X31715238Y-74558571D01*
X31715238Y-74653809D01*
X31239047Y-74749047D01*
X27681904Y-68082380D02*
X27681904Y-67082380D01*
X27681904Y-67558571D02*
X28253333Y-67558571D01*
X28253333Y-68082380D02*
X28253333Y-67082380D01*
X28681904Y-67177619D02*
X28729523Y-67130000D01*
X28824761Y-67082380D01*
X29062857Y-67082380D01*
X29158095Y-67130000D01*
X29205714Y-67177619D01*
X29253333Y-67272857D01*
X29253333Y-67368095D01*
X29205714Y-67510952D01*
X28634285Y-68082380D01*
X29253333Y-68082380D01*
X30110476Y-67415714D02*
X30110476Y-68082380D01*
X29872380Y-67034761D02*
X29634285Y-67749047D01*
X30253333Y-67749047D01*
X50379523Y-152102380D02*
X50379523Y-152816666D01*
X50331904Y-152959523D01*
X50236666Y-153054761D01*
X50093809Y-153102380D01*
X49998571Y-153102380D01*
X51284285Y-153102380D02*
X51284285Y-152578571D01*
X51236666Y-152483333D01*
X51141428Y-152435714D01*
X50950952Y-152435714D01*
X50855714Y-152483333D01*
X51284285Y-153054761D02*
X51189047Y-153102380D01*
X50950952Y-153102380D01*
X50855714Y-153054761D01*
X50808095Y-152959523D01*
X50808095Y-152864285D01*
X50855714Y-152769047D01*
X50950952Y-152721428D01*
X51189047Y-152721428D01*
X51284285Y-152673809D01*
X52189047Y-153054761D02*
X52093809Y-153102380D01*
X51903333Y-153102380D01*
X51808095Y-153054761D01*
X51760476Y-153007142D01*
X51712857Y-152911904D01*
X51712857Y-152626190D01*
X51760476Y-152530952D01*
X51808095Y-152483333D01*
X51903333Y-152435714D01*
X52093809Y-152435714D01*
X52189047Y-152483333D01*
X52617619Y-153102380D02*
X52617619Y-152102380D01*
X52712857Y-152721428D02*
X52998571Y-153102380D01*
X52998571Y-152435714D02*
X52617619Y-152816666D01*
X53189047Y-153197619D02*
X53950952Y-153197619D01*
X54189047Y-153102380D02*
X54189047Y-152102380D01*
X54189047Y-152578571D02*
X54760476Y-152578571D01*
X54760476Y-153102380D02*
X54760476Y-152102380D01*
X55379523Y-153102380D02*
X55284285Y-153054761D01*
X55236666Y-153007142D01*
X55189047Y-152911904D01*
X55189047Y-152626190D01*
X55236666Y-152530952D01*
X55284285Y-152483333D01*
X55379523Y-152435714D01*
X55522380Y-152435714D01*
X55617619Y-152483333D01*
X55665238Y-152530952D01*
X55712857Y-152626190D01*
X55712857Y-152911904D01*
X55665238Y-153007142D01*
X55617619Y-153054761D01*
X55522380Y-153102380D01*
X55379523Y-153102380D01*
X56284285Y-153102380D02*
X56189047Y-153054761D01*
X56141428Y-152959523D01*
X56141428Y-152102380D01*
X57046190Y-153054761D02*
X56950952Y-153102380D01*
X56760476Y-153102380D01*
X56665238Y-153054761D01*
X56617619Y-152959523D01*
X56617619Y-152578571D01*
X56665238Y-152483333D01*
X56760476Y-152435714D01*
X56950952Y-152435714D01*
X57046190Y-152483333D01*
X57093809Y-152578571D01*
X57093809Y-152673809D01*
X56617619Y-152769047D01*
X52631904Y-142102380D02*
X52631904Y-141102380D01*
X52631904Y-141578571D02*
X53203333Y-141578571D01*
X53203333Y-142102380D02*
X53203333Y-141102380D01*
X53631904Y-141197619D02*
X53679523Y-141150000D01*
X53774761Y-141102380D01*
X54012857Y-141102380D01*
X54108095Y-141150000D01*
X54155714Y-141197619D01*
X54203333Y-141292857D01*
X54203333Y-141388095D01*
X54155714Y-141530952D01*
X53584285Y-142102380D01*
X54203333Y-142102380D01*
X55108095Y-141102380D02*
X54631904Y-141102380D01*
X54584285Y-141578571D01*
X54631904Y-141530952D01*
X54727142Y-141483333D01*
X54965238Y-141483333D01*
X55060476Y-141530952D01*
X55108095Y-141578571D01*
X55155714Y-141673809D01*
X55155714Y-141911904D01*
X55108095Y-142007142D01*
X55060476Y-142054761D01*
X54965238Y-142102380D01*
X54727142Y-142102380D01*
X54631904Y-142054761D01*
X54584285Y-142007142D01*
X50562380Y-35072380D02*
X50562380Y-34072380D01*
X50943333Y-34072380D01*
X51038571Y-34120000D01*
X51086190Y-34167619D01*
X51133809Y-34262857D01*
X51133809Y-34405714D01*
X51086190Y-34500952D01*
X51038571Y-34548571D01*
X50943333Y-34596190D01*
X50562380Y-34596190D01*
X51705238Y-35072380D02*
X51610000Y-35024761D01*
X51562380Y-34977142D01*
X51514761Y-34881904D01*
X51514761Y-34596190D01*
X51562380Y-34500952D01*
X51610000Y-34453333D01*
X51705238Y-34405714D01*
X51848095Y-34405714D01*
X51943333Y-34453333D01*
X51990952Y-34500952D01*
X52038571Y-34596190D01*
X52038571Y-34881904D01*
X51990952Y-34977142D01*
X51943333Y-35024761D01*
X51848095Y-35072380D01*
X51705238Y-35072380D01*
X52324285Y-34405714D02*
X52705238Y-34405714D01*
X52467142Y-34072380D02*
X52467142Y-34929523D01*
X52514761Y-35024761D01*
X52610000Y-35072380D01*
X52705238Y-35072380D01*
X52800476Y-35167619D02*
X53562380Y-35167619D01*
X53800476Y-35072380D02*
X53800476Y-34072380D01*
X53800476Y-34548571D02*
X54371904Y-34548571D01*
X54371904Y-35072380D02*
X54371904Y-34072380D01*
X54990952Y-35072380D02*
X54895714Y-35024761D01*
X54848095Y-34977142D01*
X54800476Y-34881904D01*
X54800476Y-34596190D01*
X54848095Y-34500952D01*
X54895714Y-34453333D01*
X54990952Y-34405714D01*
X55133809Y-34405714D01*
X55229047Y-34453333D01*
X55276666Y-34500952D01*
X55324285Y-34596190D01*
X55324285Y-34881904D01*
X55276666Y-34977142D01*
X55229047Y-35024761D01*
X55133809Y-35072380D01*
X54990952Y-35072380D01*
X55895714Y-35072380D02*
X55800476Y-35024761D01*
X55752857Y-34929523D01*
X55752857Y-34072380D01*
X56657619Y-35024761D02*
X56562380Y-35072380D01*
X56371904Y-35072380D01*
X56276666Y-35024761D01*
X56229047Y-34929523D01*
X56229047Y-34548571D01*
X56276666Y-34453333D01*
X56371904Y-34405714D01*
X56562380Y-34405714D01*
X56657619Y-34453333D01*
X56705238Y-34548571D01*
X56705238Y-34643809D01*
X56229047Y-34739047D01*
X52671904Y-28072380D02*
X52671904Y-27072380D01*
X52671904Y-27548571D02*
X53243333Y-27548571D01*
X53243333Y-28072380D02*
X53243333Y-27072380D01*
X53671904Y-27167619D02*
X53719523Y-27120000D01*
X53814761Y-27072380D01*
X54052857Y-27072380D01*
X54148095Y-27120000D01*
X54195714Y-27167619D01*
X54243333Y-27262857D01*
X54243333Y-27358095D01*
X54195714Y-27500952D01*
X53624285Y-28072380D01*
X54243333Y-28072380D01*
X55100476Y-27072380D02*
X54910000Y-27072380D01*
X54814761Y-27120000D01*
X54767142Y-27167619D01*
X54671904Y-27310476D01*
X54624285Y-27500952D01*
X54624285Y-27881904D01*
X54671904Y-27977142D01*
X54719523Y-28024761D01*
X54814761Y-28072380D01*
X55005238Y-28072380D01*
X55100476Y-28024761D01*
X55148095Y-27977142D01*
X55195714Y-27881904D01*
X55195714Y-27643809D01*
X55148095Y-27548571D01*
X55100476Y-27500952D01*
X55005238Y-27453333D01*
X54814761Y-27453333D01*
X54719523Y-27500952D01*
X54671904Y-27548571D01*
X54624285Y-27643809D01*
X25429523Y-152082380D02*
X25429523Y-152796666D01*
X25381904Y-152939523D01*
X25286666Y-153034761D01*
X25143809Y-153082380D01*
X25048571Y-153082380D01*
X26334285Y-153082380D02*
X26334285Y-152558571D01*
X26286666Y-152463333D01*
X26191428Y-152415714D01*
X26000952Y-152415714D01*
X25905714Y-152463333D01*
X26334285Y-153034761D02*
X26239047Y-153082380D01*
X26000952Y-153082380D01*
X25905714Y-153034761D01*
X25858095Y-152939523D01*
X25858095Y-152844285D01*
X25905714Y-152749047D01*
X26000952Y-152701428D01*
X26239047Y-152701428D01*
X26334285Y-152653809D01*
X27239047Y-153034761D02*
X27143809Y-153082380D01*
X26953333Y-153082380D01*
X26858095Y-153034761D01*
X26810476Y-152987142D01*
X26762857Y-152891904D01*
X26762857Y-152606190D01*
X26810476Y-152510952D01*
X26858095Y-152463333D01*
X26953333Y-152415714D01*
X27143809Y-152415714D01*
X27239047Y-152463333D01*
X27667619Y-153082380D02*
X27667619Y-152082380D01*
X27762857Y-152701428D02*
X28048571Y-153082380D01*
X28048571Y-152415714D02*
X27667619Y-152796666D01*
X28239047Y-153177619D02*
X29000952Y-153177619D01*
X29239047Y-153082380D02*
X29239047Y-152082380D01*
X29239047Y-152558571D02*
X29810476Y-152558571D01*
X29810476Y-153082380D02*
X29810476Y-152082380D01*
X30429523Y-153082380D02*
X30334285Y-153034761D01*
X30286666Y-152987142D01*
X30239047Y-152891904D01*
X30239047Y-152606190D01*
X30286666Y-152510952D01*
X30334285Y-152463333D01*
X30429523Y-152415714D01*
X30572380Y-152415714D01*
X30667619Y-152463333D01*
X30715238Y-152510952D01*
X30762857Y-152606190D01*
X30762857Y-152891904D01*
X30715238Y-152987142D01*
X30667619Y-153034761D01*
X30572380Y-153082380D01*
X30429523Y-153082380D01*
X31334285Y-153082380D02*
X31239047Y-153034761D01*
X31191428Y-152939523D01*
X31191428Y-152082380D01*
X32096190Y-153034761D02*
X32000952Y-153082380D01*
X31810476Y-153082380D01*
X31715238Y-153034761D01*
X31667619Y-152939523D01*
X31667619Y-152558571D01*
X31715238Y-152463333D01*
X31810476Y-152415714D01*
X32000952Y-152415714D01*
X32096190Y-152463333D01*
X32143809Y-152558571D01*
X32143809Y-152653809D01*
X31667619Y-152749047D01*
X27681904Y-142082380D02*
X27681904Y-141082380D01*
X27681904Y-141558571D02*
X28253333Y-141558571D01*
X28253333Y-142082380D02*
X28253333Y-141082380D01*
X28681904Y-141177619D02*
X28729523Y-141130000D01*
X28824761Y-141082380D01*
X29062857Y-141082380D01*
X29158095Y-141130000D01*
X29205714Y-141177619D01*
X29253333Y-141272857D01*
X29253333Y-141368095D01*
X29205714Y-141510952D01*
X28634285Y-142082380D01*
X29253333Y-142082380D01*
X29586666Y-141082380D02*
X30253333Y-141082380D01*
X29824761Y-142082380D01*
X25572380Y-35082380D02*
X25572380Y-34082380D01*
X25953333Y-34082380D01*
X26048571Y-34130000D01*
X26096190Y-34177619D01*
X26143809Y-34272857D01*
X26143809Y-34415714D01*
X26096190Y-34510952D01*
X26048571Y-34558571D01*
X25953333Y-34606190D01*
X25572380Y-34606190D01*
X26715238Y-35082380D02*
X26620000Y-35034761D01*
X26572380Y-34987142D01*
X26524761Y-34891904D01*
X26524761Y-34606190D01*
X26572380Y-34510952D01*
X26620000Y-34463333D01*
X26715238Y-34415714D01*
X26858095Y-34415714D01*
X26953333Y-34463333D01*
X27000952Y-34510952D01*
X27048571Y-34606190D01*
X27048571Y-34891904D01*
X27000952Y-34987142D01*
X26953333Y-35034761D01*
X26858095Y-35082380D01*
X26715238Y-35082380D01*
X27334285Y-34415714D02*
X27715238Y-34415714D01*
X27477142Y-34082380D02*
X27477142Y-34939523D01*
X27524761Y-35034761D01*
X27620000Y-35082380D01*
X27715238Y-35082380D01*
X27810476Y-35177619D02*
X28572380Y-35177619D01*
X28810476Y-35082380D02*
X28810476Y-34082380D01*
X28810476Y-34558571D02*
X29381904Y-34558571D01*
X29381904Y-35082380D02*
X29381904Y-34082380D01*
X30000952Y-35082380D02*
X29905714Y-35034761D01*
X29858095Y-34987142D01*
X29810476Y-34891904D01*
X29810476Y-34606190D01*
X29858095Y-34510952D01*
X29905714Y-34463333D01*
X30000952Y-34415714D01*
X30143809Y-34415714D01*
X30239047Y-34463333D01*
X30286666Y-34510952D01*
X30334285Y-34606190D01*
X30334285Y-34891904D01*
X30286666Y-34987142D01*
X30239047Y-35034761D01*
X30143809Y-35082380D01*
X30000952Y-35082380D01*
X30905714Y-35082380D02*
X30810476Y-35034761D01*
X30762857Y-34939523D01*
X30762857Y-34082380D01*
X31667619Y-35034761D02*
X31572380Y-35082380D01*
X31381904Y-35082380D01*
X31286666Y-35034761D01*
X31239047Y-34939523D01*
X31239047Y-34558571D01*
X31286666Y-34463333D01*
X31381904Y-34415714D01*
X31572380Y-34415714D01*
X31667619Y-34463333D01*
X31715238Y-34558571D01*
X31715238Y-34653809D01*
X31239047Y-34749047D01*
X27681904Y-28082380D02*
X27681904Y-27082380D01*
X27681904Y-27558571D02*
X28253333Y-27558571D01*
X28253333Y-28082380D02*
X28253333Y-27082380D01*
X28681904Y-27177619D02*
X28729523Y-27130000D01*
X28824761Y-27082380D01*
X29062857Y-27082380D01*
X29158095Y-27130000D01*
X29205714Y-27177619D01*
X29253333Y-27272857D01*
X29253333Y-27368095D01*
X29205714Y-27510952D01*
X28634285Y-28082380D01*
X29253333Y-28082380D01*
X29824761Y-27510952D02*
X29729523Y-27463333D01*
X29681904Y-27415714D01*
X29634285Y-27320476D01*
X29634285Y-27272857D01*
X29681904Y-27177619D01*
X29729523Y-27130000D01*
X29824761Y-27082380D01*
X30015238Y-27082380D01*
X30110476Y-27130000D01*
X30158095Y-27177619D01*
X30205714Y-27272857D01*
X30205714Y-27320476D01*
X30158095Y-27415714D01*
X30110476Y-27463333D01*
X30015238Y-27510952D01*
X29824761Y-27510952D01*
X29729523Y-27558571D01*
X29681904Y-27606190D01*
X29634285Y-27701428D01*
X29634285Y-27891904D01*
X29681904Y-27987142D01*
X29729523Y-28034761D01*
X29824761Y-28082380D01*
X30015238Y-28082380D01*
X30110476Y-28034761D01*
X30158095Y-27987142D01*
X30205714Y-27891904D01*
X30205714Y-27701428D01*
X30158095Y-27606190D01*
X30110476Y-27558571D01*
X30015238Y-27510952D01*
M02*
