G04 #@! TF.GenerationSoftware,KiCad,Pcbnew,(5.1.9)-1*
G04 #@! TF.CreationDate,2021-08-22T22:13:52+01:00*
G04 #@! TF.ProjectId,Simple Mixer Front Panel,53696d70-6c65-4204-9d69-786572204672,rev?*
G04 #@! TF.SameCoordinates,Original*
G04 #@! TF.FileFunction,Legend,Top*
G04 #@! TF.FilePolarity,Positive*
%FSLAX46Y46*%
G04 Gerber Fmt 4.6, Leading zero omitted, Abs format (unit mm)*
G04 Created by KiCad (PCBNEW (5.1.9)-1) date 2021-08-22 22:13:52*
%MOMM*%
%LPD*%
G01*
G04 APERTURE LIST*
%ADD10C,0.312500*%
%ADD11C,0.625000*%
%ADD12C,0.002000*%
%ADD13C,0.100000*%
G04 APERTURE END LIST*
D10*
X53961057Y-57632928D02*
X53961057Y-59299595D01*
X53425342Y-56680547D02*
X52889628Y-58466262D01*
X54282485Y-58466262D01*
X29350267Y-173190952D02*
X28278839Y-173190952D01*
X28171696Y-174381428D01*
X28278839Y-174262380D01*
X28493125Y-174143333D01*
X29028839Y-174143333D01*
X29243125Y-174262380D01*
X29350267Y-174381428D01*
X29457410Y-174619523D01*
X29457410Y-175214761D01*
X29350267Y-175452857D01*
X29243125Y-175571904D01*
X29028839Y-175690952D01*
X28493125Y-175690952D01*
X28278839Y-175571904D01*
X28171696Y-175452857D01*
X50529785Y-96799595D02*
X50958357Y-96799595D01*
X51172642Y-96918643D01*
X51386928Y-97156738D01*
X51494071Y-97632928D01*
X51494071Y-98466262D01*
X51386928Y-98942452D01*
X51172642Y-99180547D01*
X50958357Y-99299595D01*
X50529785Y-99299595D01*
X50315500Y-99180547D01*
X50101214Y-98942452D01*
X49994071Y-98466262D01*
X49994071Y-97632928D01*
X50101214Y-97156738D01*
X50315500Y-96918643D01*
X50529785Y-96799595D01*
X52458357Y-96799595D02*
X52458357Y-98823404D01*
X52565500Y-99061500D01*
X52672642Y-99180547D01*
X52886928Y-99299595D01*
X53315500Y-99299595D01*
X53529785Y-99180547D01*
X53636928Y-99061500D01*
X53744071Y-98823404D01*
X53744071Y-96799595D01*
X54494071Y-96799595D02*
X55779785Y-96799595D01*
X55136928Y-99299595D02*
X55136928Y-96799595D01*
X29068199Y-96799595D02*
X27996771Y-96799595D01*
X27889628Y-97990071D01*
X27996771Y-97871023D01*
X28211057Y-97751976D01*
X28746771Y-97751976D01*
X28961057Y-97871023D01*
X29068199Y-97990071D01*
X29175342Y-98228166D01*
X29175342Y-98823404D01*
X29068199Y-99061500D01*
X28961057Y-99180547D01*
X28746771Y-99299595D01*
X28211057Y-99299595D01*
X27996771Y-99180547D01*
X27889628Y-99061500D01*
X54521092Y-152024285D02*
X54521092Y-153690952D01*
X53985377Y-151071904D02*
X53449663Y-152857619D01*
X54842520Y-152857619D01*
X50484350Y-173190952D02*
X50912922Y-173190952D01*
X51127207Y-173310000D01*
X51341493Y-173548095D01*
X51448636Y-174024285D01*
X51448636Y-174857619D01*
X51341493Y-175333809D01*
X51127207Y-175571904D01*
X50912922Y-175690952D01*
X50484350Y-175690952D01*
X50270065Y-175571904D01*
X50055779Y-175333809D01*
X49948636Y-174857619D01*
X49948636Y-174024285D01*
X50055779Y-173548095D01*
X50270065Y-173310000D01*
X50484350Y-173190952D01*
X52412922Y-173190952D02*
X52412922Y-175214761D01*
X52520065Y-175452857D01*
X52627207Y-175571904D01*
X52841493Y-175690952D01*
X53270065Y-175690952D01*
X53484350Y-175571904D01*
X53591493Y-175452857D01*
X53698636Y-175214761D01*
X53698636Y-173190952D01*
X54448636Y-173190952D02*
X55734350Y-173190952D01*
X55091493Y-175690952D02*
X55091493Y-173190952D01*
D11*
X37345248Y-16253486D02*
X37345248Y-11253486D01*
X38845248Y-14824915D01*
X40345248Y-11253486D01*
X40345248Y-16253486D01*
X42488105Y-16253486D02*
X42488105Y-11253486D01*
X44202391Y-11253486D02*
X47202391Y-16253486D01*
X47202391Y-11253486D02*
X44202391Y-16253486D01*
D10*
X29175342Y-19299595D02*
X27889628Y-19299595D01*
X28532485Y-19299595D02*
X28532485Y-16799595D01*
X28318199Y-17156738D01*
X28103914Y-17394833D01*
X27889628Y-17513881D01*
X29457410Y-131690952D02*
X28171696Y-131690952D01*
X28814553Y-131690952D02*
X28814553Y-129190952D01*
X28600267Y-129548095D01*
X28385982Y-129786190D01*
X28171696Y-129905238D01*
X28064553Y-151190952D02*
X29457410Y-151190952D01*
X28707410Y-152143333D01*
X29028839Y-152143333D01*
X29243125Y-152262380D01*
X29350267Y-152381428D01*
X29457410Y-152619523D01*
X29457410Y-153214761D01*
X29350267Y-153452857D01*
X29243125Y-153571904D01*
X29028839Y-153690952D01*
X28385982Y-153690952D01*
X28171696Y-153571904D01*
X28064553Y-153452857D01*
X53449663Y-129429047D02*
X53556806Y-129310000D01*
X53771092Y-129190952D01*
X54306806Y-129190952D01*
X54521092Y-129310000D01*
X54628234Y-129429047D01*
X54735377Y-129667142D01*
X54735377Y-129905238D01*
X54628234Y-130262380D01*
X53342520Y-131690952D01*
X54735377Y-131690952D01*
X27782485Y-56799595D02*
X29175342Y-56799595D01*
X28425342Y-57751976D01*
X28746771Y-57751976D01*
X28961057Y-57871023D01*
X29068199Y-57990071D01*
X29175342Y-58228166D01*
X29175342Y-58823404D01*
X29068199Y-59061500D01*
X28961057Y-59180547D01*
X28746771Y-59299595D01*
X28103914Y-59299595D01*
X27889628Y-59180547D01*
X27782485Y-59061500D01*
X52889628Y-17037690D02*
X52996771Y-16918643D01*
X53211057Y-16799595D01*
X53746771Y-16799595D01*
X53961057Y-16918643D01*
X54068199Y-17037690D01*
X54175342Y-17275785D01*
X54175342Y-17513881D01*
X54068199Y-17871023D01*
X52782485Y-19299595D01*
X54175342Y-19299595D01*
D12*
X31133847Y-203490699D02*
G75*
G02*
X31181650Y-203514263I0J-60270D01*
G01*
X30738526Y-203790700D02*
G75*
G02*
X30775693Y-203862603I-352208J-227614D01*
G01*
X30648651Y-203928237D02*
G75*
G02*
X30641589Y-203840699I538978J87537D01*
G01*
X30670065Y-204026011D02*
G75*
G02*
X30648652Y-203928237I883899J244807D01*
G01*
X30817097Y-204274384D02*
G75*
G02*
X30792542Y-204268677I-8921J17296D01*
G01*
X30701359Y-204118796D02*
G75*
G02*
X30670064Y-204026012I825219J330007D01*
G01*
X30833006Y-204249556D02*
G75*
G02*
X30817097Y-204274383I-29400J1329D01*
G01*
X40611292Y-203898146D02*
G75*
G02*
X40625573Y-203920075I-59981J-54677D01*
G01*
X40475986Y-204061324D02*
G75*
G02*
X40472875Y-204028909I47411J20907D01*
G01*
X40497130Y-204082870D02*
G75*
G02*
X40475987Y-204061324I17994J38804D01*
G01*
X30659956Y-203707014D02*
G75*
G02*
X30684512Y-203712722I8921J-17297D01*
G01*
X40625573Y-203920075D02*
G75*
G02*
X40635292Y-203952415I-125533J-55357D01*
G01*
X31261978Y-203628172D02*
G75*
G02*
X31349944Y-203779391I-1573417J-1016470D01*
G01*
X40488527Y-203990700D02*
G75*
G02*
X40515426Y-203952422I337497J-208585D01*
G01*
X40515426Y-203952422D02*
G75*
G02*
X40545129Y-203920075I241481J-191928D01*
G01*
X40545129Y-203920074D02*
G75*
G02*
X40573356Y-203897253I162318J-171899D01*
G01*
X40532625Y-204090700D02*
G75*
G02*
X40497130Y-204082871I0J84378D01*
G01*
X30738527Y-204190699D02*
G75*
G02*
X30701360Y-204118796I352208J227614D01*
G01*
X30644047Y-203731843D02*
G75*
G02*
X30659956Y-203707016I29400J-1329D01*
G01*
X40573355Y-203897253D02*
G75*
G02*
X40594428Y-203890699I21073J-30601D01*
G01*
X40594427Y-203890699D02*
G75*
G02*
X40611291Y-203898145I1J-22819D01*
G01*
X40635292Y-203952414D02*
G75*
G02*
X40638527Y-203990699I-224963J-38286D01*
G01*
X40472876Y-204028909D02*
G75*
G02*
X40488527Y-203990699I122695J-27947D01*
G01*
X40638526Y-203990700D02*
G75*
G02*
X40630420Y-204028855I-93851J1D01*
G01*
X40573050Y-204083087D02*
G75*
G02*
X40532625Y-204090699I-40425J103535D01*
G01*
X30806989Y-203955387D02*
G75*
G02*
X30828402Y-204053162I-883900J-244808D01*
G01*
X40630421Y-204028855D02*
G75*
G02*
X40607418Y-204061324I-92552J41184D01*
G01*
X40607418Y-204061325D02*
G75*
G02*
X40573050Y-204083087I-73086J77400D01*
G01*
X30775694Y-203862603D02*
G75*
G02*
X30806989Y-203955387I-825219J-330007D01*
G01*
X30828402Y-204053161D02*
G75*
G02*
X30835464Y-204140699I-538978J-87538D01*
G01*
X33292208Y-202898926D02*
G75*
G02*
X33316495Y-202934881I-100028J-93750D01*
G01*
X35538036Y-199883251D02*
G75*
G02*
X35494125Y-200027598I-161391J-29757D01*
G01*
X32580915Y-203852148D02*
G75*
G02*
X32344225Y-203462066I842343J777960D01*
G01*
X32962146Y-204132079D02*
G75*
G02*
X32580915Y-203852148I530361J1121844D01*
G01*
X33401497Y-204230700D02*
G75*
G02*
X32962146Y-204132079I1J1027959D01*
G01*
X33456919Y-199542564D02*
G75*
G02*
X33850013Y-199433551I585448J-1347840D01*
G01*
X35083519Y-200198802D02*
G75*
G02*
X35123141Y-200157365I117288J-72488D01*
G01*
X31599709Y-204522292D02*
G75*
G02*
X31518416Y-204515417I-38271J31528D01*
G01*
X31619436Y-204398398D02*
G75*
G02*
X31599709Y-204522291I-115307J-45157D01*
G01*
X36031057Y-203283353D02*
G75*
G02*
X36038527Y-203340699I-216396J-57346D01*
G01*
X35976662Y-203202256D02*
G75*
G02*
X36009152Y-203234762I-65125J-97582D01*
G01*
X33850013Y-199433552D02*
G75*
G02*
X34376456Y-199399051I524866J-3975221D01*
G01*
X32370636Y-202921891D02*
G75*
G02*
X32474044Y-202859832I132199J-103096D01*
G01*
X34376456Y-199399050D02*
G75*
G02*
X34892276Y-199433014I-1558J-3957674D01*
G01*
X36009151Y-203234762D02*
G75*
G02*
X36031057Y-203283354I-135427J-90286D01*
G01*
X35938526Y-203190699D02*
G75*
G02*
X35976662Y-203202256I0J-68699D01*
G01*
X34516210Y-200362997D02*
G75*
G02*
X34551890Y-200268940I143510J-643D01*
G01*
X35187721Y-200122454D02*
G75*
G02*
X35265227Y-200098713I162597J-392435D01*
G01*
X35845996Y-203283354D02*
G75*
G02*
X35867902Y-203234762I157333J-41694D01*
G01*
X35900391Y-203202256D02*
G75*
G02*
X35938527Y-203190699I38136J-57142D01*
G01*
X35243493Y-199543268D02*
G75*
G02*
X35443494Y-199695143I-336562J-650839D01*
G01*
X35838527Y-203340700D02*
G75*
G02*
X35845996Y-203283354I223865J1D01*
G01*
X32344225Y-203462066D02*
G75*
G02*
X32312063Y-203051103I735183J264276D01*
G01*
X33656717Y-203598373D02*
G75*
G02*
X33861528Y-203899352I-1788030J-1436898D01*
G01*
X33357424Y-203130629D02*
G75*
G02*
X33338527Y-203046563I177546J84066D01*
G01*
X35265226Y-200098713D02*
G75*
G02*
X35344428Y-200090699I79202J-387369D01*
G01*
X35040627Y-200235896D02*
G75*
G02*
X34966101Y-200257522I-122305J282261D01*
G01*
X33263526Y-202885239D02*
G75*
G02*
X33292208Y-202898926I-3169J-43539D01*
G01*
X34966100Y-200257522D02*
G75*
G02*
X34874033Y-200261854I-65840J418766D01*
G01*
X33861528Y-203899352D02*
G75*
G02*
X33874101Y-204086101I-186597J-106360D01*
G01*
X35867901Y-203234762D02*
G75*
G02*
X35900391Y-203202256I97615J-65076D01*
G01*
X36009152Y-203446637D02*
G75*
G02*
X35976662Y-203479143I-97615J65076D01*
G01*
X31070900Y-203520968D02*
G75*
G02*
X31133847Y-203490699I62947J-50317D01*
G01*
X31056964Y-203588038D02*
G75*
G02*
X31070900Y-203520968I73071J19800D01*
G01*
X31112956Y-203736612D02*
G75*
G02*
X31056965Y-203588038I745260J365693D01*
G01*
X35494124Y-200027598D02*
G75*
G02*
X35344428Y-200090699I-149696J146014D01*
G01*
X34635723Y-200230319D02*
G75*
G02*
X34777617Y-200246897I7344J-552667D01*
G01*
X35845996Y-203398045D02*
G75*
G02*
X35838527Y-203340699I216396J57345D01*
G01*
X35867902Y-203446637D02*
G75*
G02*
X35845996Y-203398045I135427J90286D01*
G01*
X35938527Y-203490700D02*
G75*
G02*
X35900391Y-203479143I0J68699D01*
G01*
X33332999Y-202986511D02*
G75*
G02*
X33338527Y-203046563I-323429J-60052D01*
G01*
X35976662Y-203479142D02*
G75*
G02*
X35938527Y-203490699I-38136J57141D01*
G01*
X33874101Y-204086101D02*
G75*
G02*
X33737152Y-204198769I-171902J69383D01*
G01*
X35123141Y-200157365D02*
G75*
G02*
X35187721Y-200122455I201521J-295604D01*
G01*
X33316496Y-202934880D02*
G75*
G02*
X33332999Y-202986511I-195877J-91064D01*
G01*
X32474044Y-202859832D02*
G75*
G02*
X32682484Y-202847704I156960J-900390D01*
G01*
X35083518Y-200198802D02*
G75*
G02*
X35040627Y-200235897I-80530J49770D01*
G01*
X35900392Y-203479142D02*
G75*
G02*
X35867902Y-203446637I65124J97581D01*
G01*
X34530774Y-200527967D02*
G75*
G02*
X34516211Y-200362997I881692J160960D01*
G01*
X34892277Y-199433013D02*
G75*
G02*
X35243493Y-199543267I-139723J-1059626D01*
G01*
X34874033Y-200261855D02*
G75*
G02*
X34777617Y-200246897I32856J530018D01*
G01*
X34551890Y-200268941D02*
G75*
G02*
X34635723Y-200230319I85342J-74949D01*
G01*
X36038526Y-203340699D02*
G75*
G02*
X36031057Y-203398045I-223865J-1D01*
G01*
X36031058Y-203398045D02*
G75*
G02*
X36009152Y-203446637I-157334J41694D01*
G01*
X35443495Y-199695142D02*
G75*
G02*
X35538036Y-199883251I-275691J-256372D01*
G01*
X33737152Y-204198768D02*
G75*
G02*
X33401498Y-204230699I-335653J1748217D01*
G01*
X32312063Y-203051102D02*
G75*
G02*
X32370637Y-202921891I297082J-56792D01*
G01*
X34234412Y-201562801D02*
G75*
G02*
X34333382Y-201546410I138655J-530216D01*
G01*
X34969865Y-201732693D02*
G75*
G02*
X35037115Y-201763447I-87377J-279972D01*
G01*
X33372477Y-201423197D02*
G75*
G02*
X33431719Y-201479685I-78452J-141587D01*
G01*
X33482130Y-201536836D02*
G75*
G02*
X33431719Y-201479685I142030J176087D01*
G01*
X33539764Y-201559617D02*
G75*
G02*
X33482130Y-201536836I7704J103785D01*
G01*
X34442865Y-201546212D02*
G75*
G02*
X34546039Y-201560906I-49443J-716739D01*
G01*
X35057125Y-201970795D02*
G75*
G02*
X35055817Y-201949250I19289J11983D01*
G01*
X32478723Y-201109657D02*
G75*
G02*
X32706316Y-200822564I848092J-438567D01*
G01*
X32389978Y-201532595D02*
G75*
G02*
X32345386Y-201476546I14679J57441D01*
G01*
X32488526Y-201526862D02*
G75*
G02*
X32389978Y-201532595I-58276J151865D01*
G01*
X34546038Y-201560907D02*
G75*
G02*
X34625049Y-201589748I-65912J-303205D01*
G01*
X34062537Y-201553508D02*
G75*
G02*
X34078791Y-201506452I112861J-12650D01*
G01*
X32545922Y-201512896D02*
G75*
G02*
X32594464Y-201518253I12344J-110745D01*
G01*
X32664435Y-201610808D02*
G75*
G02*
X32638527Y-201578383I7337J32425D01*
G01*
X36238527Y-203469610D02*
G75*
G02*
X36177859Y-203702855I-478702J0D01*
G01*
X35094040Y-201855184D02*
G75*
G02*
X35079414Y-201905444I-97977J1254D01*
G01*
X32845618Y-201581909D02*
G75*
G02*
X32733995Y-201612679I-208810J539637D01*
G01*
X33296574Y-201407052D02*
G75*
G02*
X33372477Y-201423197I11518J-132346D01*
G01*
X33900290Y-201418455D02*
G75*
G02*
X34033667Y-201394925I127957J-335528D01*
G01*
X34079055Y-201580099D02*
G75*
G02*
X34062536Y-201553508I8609J23774D01*
G01*
X34333382Y-201546410D02*
G75*
G02*
X34442865Y-201546213I56133J-773168D01*
G01*
X35080105Y-201806018D02*
G75*
G02*
X35094040Y-201855184I-75723J-48019D01*
G01*
X35111640Y-201957316D02*
G75*
G02*
X35073936Y-201976318I-128097J207264D01*
G01*
X35947718Y-204069752D02*
G75*
G02*
X35639522Y-204462813I-3827687J2683900D01*
G01*
X35111640Y-201957316D02*
G75*
G02*
X35252626Y-201981889I56656J-91673D01*
G01*
X35639522Y-204462813D02*
G75*
G02*
X35296744Y-204812750I-3256516J2847047D01*
G01*
X33719235Y-201501024D02*
G75*
G02*
X33900289Y-201418456I739484J-1381736D01*
G01*
X34530773Y-200527967D02*
G75*
G02*
X34522858Y-200555598I-31872J-5819D01*
G01*
X34522858Y-200555598D02*
G75*
G02*
X34494194Y-200571246I-36986J33675D01*
G01*
X34494194Y-200571246D02*
G75*
G02*
X34445218Y-200570510I-22491J133309D01*
G01*
X32345386Y-201476546D02*
G75*
G02*
X32371183Y-201339899I333320J7832D01*
G01*
X32488526Y-201526862D02*
G75*
G02*
X32545922Y-201512895I83086J-216518D01*
G01*
X34445218Y-200570510D02*
G75*
G02*
X34383874Y-200552751I74016J370500D01*
G01*
X35037115Y-201763447D02*
G75*
G02*
X35080105Y-201806017I-71433J-115131D01*
G01*
X34296303Y-200524664D02*
G75*
G02*
X34383874Y-200552751I-206605J-794696D01*
G01*
X32706316Y-200822565D02*
G75*
G02*
X33064140Y-200585195I1149144J-1343897D01*
G01*
X32594464Y-201518253D02*
G75*
G02*
X32626384Y-201541616I-21671J-63095D01*
G01*
X34086473Y-201432610D02*
G75*
G02*
X34078791Y-201506452I-80290J-28968D01*
G01*
X34132429Y-201584845D02*
G75*
G02*
X34079056Y-201580099I-17718J103217D01*
G01*
X32733995Y-201612679D02*
G75*
G02*
X32664435Y-201610809I-30062J176436D01*
G01*
X33719235Y-201501025D02*
G75*
G02*
X33614025Y-201548854I-421627J787817D01*
G01*
X35055817Y-201949250D02*
G75*
G02*
X35079414Y-201905444I379710J-176285D01*
G01*
X35073935Y-201976319D02*
G75*
G02*
X35057124Y-201970796I-5110J12792D01*
G01*
X33469569Y-200440641D02*
G75*
G02*
X33838625Y-200429116I214525J-954859D01*
G01*
X36177859Y-203702855D02*
G75*
G02*
X35947718Y-204069752I-3688434J2057989D01*
G01*
X32626384Y-201541616D02*
G75*
G02*
X32638527Y-201578383I-49592J-36767D01*
G01*
X34033666Y-201394925D02*
G75*
G02*
X34086473Y-201432610I-861J-57048D01*
G01*
X36157458Y-203204813D02*
G75*
G02*
X36238527Y-203469610I-391919J-264797D01*
G01*
X33064140Y-200585195D02*
G75*
G02*
X33469569Y-200440640I794658J-1587933D01*
G01*
X33614025Y-201548853D02*
G75*
G02*
X33539765Y-201559617I-61422J162212D01*
G01*
X33184153Y-201434105D02*
G75*
G02*
X33296573Y-201407052I146114J-360083D01*
G01*
X46103753Y-201515072D02*
G75*
G02*
X46094273Y-201653405I-390343J-42743D01*
G01*
X44429931Y-201270261D02*
G75*
G02*
X44519796Y-201316660I-60763J-227911D01*
G01*
X44610800Y-201359005D02*
G75*
G02*
X44519796Y-201316660I35003J194186D01*
G01*
X35083295Y-204987633D02*
G75*
G02*
X34879180Y-205113924I-892952J1215119D01*
G01*
X34879180Y-205113924D02*
G75*
G02*
X34669607Y-205199737I-603846J1175904D01*
G01*
X33002413Y-199768216D02*
G75*
G02*
X33456919Y-199542564I2435146J-4334275D01*
G01*
X31288445Y-205150061D02*
G75*
G02*
X30954585Y-204782720I1453051J1656002D01*
G01*
X30472499Y-203250375D02*
G75*
G02*
X30503227Y-202981182I1842043J-73919D01*
G01*
X33245610Y-205563832D02*
G75*
G02*
X32678798Y-205585364I-442240J4170273D01*
G01*
X42022438Y-198638752D02*
G75*
G02*
X42143714Y-198600256I130562J-201037D01*
G01*
X31669697Y-205396155D02*
G75*
G02*
X31288445Y-205150061I640306J1410338D01*
G01*
X30695353Y-204327676D02*
G75*
G02*
X30534716Y-203822342I2361961J1029026D01*
G01*
X46048936Y-201446948D02*
G75*
G02*
X46103753Y-201515072I-25908J-76964D01*
G01*
X30583015Y-202618689D02*
G75*
G02*
X30763629Y-202026774I5997240J-1506454D01*
G01*
X30990280Y-201507006D02*
G75*
G02*
X31256083Y-201071886I3141270J-1620172D01*
G01*
X42466892Y-198690699D02*
G75*
G02*
X42538138Y-198956858I-2209991J-734194D01*
G01*
X42885531Y-200985853D02*
G75*
G02*
X42863916Y-200931987I144268J89163D01*
G01*
X42437930Y-198622567D02*
G75*
G02*
X42466892Y-198690699I-404100J-212003D01*
G01*
X35296743Y-204812750D02*
G75*
G02*
X35083295Y-204987633I-1765497J1937123D01*
G01*
X34669607Y-205199736D02*
G75*
G02*
X34440188Y-205252604I-460069J1472260D01*
G01*
X42214982Y-198643135D02*
G75*
G02*
X42245555Y-198765699I-280469J-135057D01*
G01*
X32107952Y-205529612D02*
G75*
G02*
X31669696Y-205396155I288954J1735215D01*
G01*
X30954584Y-204782721D02*
G75*
G02*
X30695352Y-204327676I1989440J1434718D01*
G01*
X33668400Y-205455554D02*
G75*
G02*
X33824160Y-205398880I682729J-1634003D01*
G01*
X33668399Y-205455554D02*
G75*
G02*
X33245610Y-205563832I-581982J1392884D01*
G01*
X32678798Y-205585365D02*
G75*
G02*
X32107953Y-205529611I126031J4240660D01*
G01*
X31554597Y-200734934D02*
G75*
G02*
X31902920Y-200456600I2241157J-2447588D01*
G01*
X30482851Y-203506554D02*
G75*
G02*
X30472499Y-203250375I1582707J192254D01*
G01*
X30763629Y-202026774D02*
G75*
G02*
X30990280Y-201507006I4107072J-1481635D01*
G01*
X42932864Y-201019802D02*
G75*
G02*
X42885531Y-200985853I17044J73736D01*
G01*
X42410446Y-198612133D02*
G75*
G02*
X42437929Y-198622568I7850J-20735D01*
G01*
X31256083Y-201071886D02*
G75*
G02*
X31554597Y-200734934I1756945J-1255811D01*
G01*
X41822155Y-198782114D02*
G75*
G02*
X42022438Y-198638752I1682528J-2138987D01*
G01*
X42143713Y-198600255D02*
G75*
G02*
X42214982Y-198643135I2938J-75784D01*
G01*
X42266184Y-198872887D02*
G75*
G02*
X42251518Y-198862691I-3124J11153D01*
G01*
X42286108Y-198855559D02*
G75*
G02*
X42266184Y-198872888I-28234J12343D01*
G01*
X42379947Y-198639990D02*
G75*
G02*
X42410446Y-198612133I50300J-24446D01*
G01*
X45897095Y-201421308D02*
G75*
G02*
X46048936Y-201446948I-4834J-491055D01*
G01*
X43038513Y-203990692D02*
G75*
G02*
X43089250Y-204029308I-173063J-280022D01*
G01*
X42925913Y-204633452D02*
G75*
G02*
X42887200Y-204788646I-1408004J268802D01*
G01*
X41578133Y-206239771D02*
G75*
G02*
X41551410Y-206236726I-10956J22629D01*
G01*
X42660037Y-205299042D02*
G75*
G02*
X42639069Y-205283328I-4596J15714D01*
G01*
X43006589Y-204180661D02*
G75*
G02*
X43049203Y-204134101I103484J-51931D01*
G01*
X43082519Y-203398713D02*
G75*
G02*
X43269330Y-203223478I585615J-437107D01*
G01*
X42167742Y-205943534D02*
G75*
G02*
X42225536Y-205939394I42668J-190165D01*
G01*
X42010564Y-206045737D02*
G75*
G02*
X41962345Y-206045215I-22748J126177D01*
G01*
X42938527Y-204500120D02*
G75*
G02*
X42946686Y-204381180I870955J1D01*
G01*
X42962599Y-203748785D02*
G75*
G02*
X42982749Y-203617005I1030598J-90152D01*
G01*
X42450223Y-205877159D02*
G75*
G02*
X42400357Y-205932476I-170268J103352D01*
G01*
X41621363Y-206207718D02*
G75*
G02*
X41578133Y-206239771I-106267J98147D01*
G01*
X42965905Y-203857354D02*
G75*
G02*
X42962599Y-203748785I457451J68264D01*
G01*
X42938526Y-204500120D02*
G75*
G02*
X42925913Y-204633452I-711016J1D01*
G01*
X42639069Y-205283328D02*
G75*
G02*
X42652322Y-205237575I85604J0D01*
G01*
X41388527Y-206090700D02*
G75*
G02*
X41445829Y-206099682I0J-187269D01*
G01*
X41673356Y-206144534D02*
G75*
G02*
X41732958Y-206078958I336996J-246419D01*
G01*
X41494464Y-206125689D02*
G75*
G02*
X41526978Y-206164386I-78761J-99185D01*
G01*
X42889137Y-205242730D02*
G75*
G02*
X42934040Y-205292992I-1383J-46424D01*
G01*
X42763798Y-205264027D02*
G75*
G02*
X42889138Y-205242730I115716J-301550D01*
G01*
X41864912Y-206015418D02*
G75*
G02*
X41916446Y-206027053I8868J-80670D01*
G01*
X42885078Y-205390219D02*
G75*
G02*
X42745299Y-205487075I-490765J558967D01*
G01*
X42118193Y-205963545D02*
G75*
G02*
X42167742Y-205943535I85571J-140536D01*
G01*
X42342444Y-205957920D02*
G75*
G02*
X42282695Y-205952299I-19821J109671D01*
G01*
X42934040Y-205292992D02*
G75*
G02*
X42885078Y-205390219I-144875J12015D01*
G01*
X46094274Y-201653405D02*
G75*
G02*
X46044248Y-201773203I-422233J105974D01*
G01*
X42589501Y-205621016D02*
G75*
G02*
X42666492Y-205541828I555400J-462968D01*
G01*
X42982748Y-203617005D02*
G75*
G02*
X43082519Y-203398713I555768J-122067D01*
G01*
X43093713Y-204098252D02*
G75*
G02*
X43049203Y-204134101I-165537J159976D01*
G01*
X42486265Y-205797825D02*
G75*
G02*
X42450222Y-205877158I-349472J110917D01*
G01*
X42084819Y-205996698D02*
G75*
G02*
X42053583Y-206028671I-87055J53803D01*
G01*
X45611543Y-202327654D02*
G75*
G02*
X45284219Y-202607363I-1650826J1600470D01*
G01*
X45284219Y-202607363D02*
G75*
G02*
X44930243Y-202800504I-1021406J1451020D01*
G01*
X44930243Y-202800504D02*
G75*
G02*
X44489847Y-202932631I-919863J2266010D01*
G01*
X42991549Y-203939103D02*
G75*
G02*
X42965905Y-203857355I247342J122486D01*
G01*
X43089251Y-204029308D02*
G75*
G02*
X43106038Y-204064167I-35962J-38790D01*
G01*
X43106038Y-204064166D02*
G75*
G02*
X43093713Y-204098253I-44188J-3294D01*
G01*
X42486265Y-205797826D02*
G75*
G02*
X42525577Y-205710868I388760J-123387D01*
G01*
X42400357Y-205932476D02*
G75*
G02*
X42342444Y-205957920I-82055J108135D01*
G01*
X42053583Y-206028672D02*
G75*
G02*
X42010563Y-206045736I-63760J97981D01*
G01*
X41445829Y-206099682D02*
G75*
G02*
X41494464Y-206125689I-47113J-146583D01*
G01*
X42666492Y-205541827D02*
G75*
G02*
X42745299Y-205487075I274735J-311344D01*
G01*
X41551410Y-206236725D02*
G75*
G02*
X41538527Y-206209812I21668J26913D01*
G01*
X42525576Y-205710867D02*
G75*
G02*
X42589501Y-205621015I617928J-371952D01*
G01*
X42084820Y-205996698D02*
G75*
G02*
X42118193Y-205963545I85877J-53075D01*
G01*
X41962345Y-206045215D02*
G75*
G02*
X41916446Y-206027053I27879J137537D01*
G01*
X43540615Y-203098119D02*
G75*
G02*
X43888527Y-203027094I580766J-1957207D01*
G01*
X43269330Y-203223477D02*
G75*
G02*
X43540615Y-203098119I566663J-870080D01*
G01*
X42887199Y-204788646D02*
G75*
G02*
X42830736Y-204940600I-1395985J432259D01*
G01*
X42946686Y-204381180D02*
G75*
G02*
X42971038Y-204269835I721520J-99464D01*
G01*
X42225536Y-205939394D02*
G75*
G02*
X42282695Y-205952299I-15807J-203051D01*
G01*
X41800381Y-206033964D02*
G75*
G02*
X41864913Y-206015419I86171J-178302D01*
G01*
X42971038Y-204269835D02*
G75*
G02*
X43006589Y-204180662I536571J-162247D01*
G01*
X41673356Y-206144535D02*
G75*
G02*
X41621363Y-206207719I-578047J422679D01*
G01*
X41732958Y-206078959D02*
G75*
G02*
X41800381Y-206033964I195359J-219726D01*
G01*
X42830737Y-204940600D02*
G75*
G02*
X42763798Y-205064406I-765283J333767D01*
G01*
X43038514Y-203990691D02*
G75*
G02*
X42991549Y-203939102I66658J107855D01*
G01*
X41526978Y-206164385D02*
G75*
G02*
X41538527Y-206209812I-83569J-45428D01*
G01*
X40708215Y-204475288D02*
G75*
G02*
X40723256Y-204542125I-166431J-72563D01*
G01*
X40769058Y-205161528D02*
G75*
G02*
X40741459Y-204994511I1438692J323528D01*
G01*
X40583875Y-203340733D02*
G75*
G02*
X40571377Y-203344241I-7182J1571D01*
G01*
X41012212Y-203638973D02*
G75*
G02*
X40959238Y-204099427I-3859634J210769D01*
G01*
X38215466Y-202216401D02*
G75*
G02*
X38126854Y-202326266I-813464J565436D01*
G01*
X38163625Y-202892579D02*
G75*
G02*
X37974735Y-202775538I38938J273785D01*
G01*
X40634561Y-203137323D02*
G75*
G02*
X40679081Y-203055385I445832J-189171D01*
G01*
X40851061Y-205348446D02*
G75*
G02*
X40806843Y-205293430I55601J89965D01*
G01*
X40913696Y-205029348D02*
G75*
G02*
X40901182Y-204842216I1527646J196138D01*
G01*
X38804312Y-203041297D02*
G75*
G02*
X38784216Y-203021738I931J21059D01*
G01*
X38795699Y-202938582D02*
G75*
G02*
X38794047Y-202981767I-38951J-20134D01*
G01*
X38523322Y-202902532D02*
G75*
G02*
X38163625Y-202892579I-136230J1581228D01*
G01*
X37974735Y-202775538D02*
G75*
G02*
X37957417Y-202580572I163980J112818D01*
G01*
X38758777Y-202908155D02*
G75*
G02*
X38795700Y-202938582I-17074J-58337D01*
G01*
X41123875Y-205964985D02*
G75*
G02*
X41034879Y-205887052I543455J710384D01*
G01*
X41388527Y-206090699D02*
G75*
G02*
X41316849Y-206076740I0J191006D01*
G01*
X41222768Y-206030878D02*
G75*
G02*
X41123875Y-205964985I454497J789265D01*
G01*
X38989322Y-202990397D02*
G75*
G02*
X39132052Y-202951864I264105J-694652D01*
G01*
X38784216Y-203021738D02*
G75*
G02*
X38794047Y-202981767I66791J4767D01*
G01*
X40925096Y-205309399D02*
G75*
G02*
X40896165Y-205349385I-57772J11340D01*
G01*
X40793536Y-205728821D02*
G75*
G02*
X40866504Y-205758398I-108524J-372533D01*
G01*
X40747659Y-205735055D02*
G75*
G02*
X40793536Y-205728821I29946J-48453D01*
G01*
X40931396Y-205206986D02*
G75*
G02*
X40925096Y-205309398I-387691J-27551D01*
G01*
X40685584Y-204475822D02*
G75*
G02*
X40708216Y-204475289I11425J-4353D01*
G01*
X38251625Y-202037116D02*
G75*
G02*
X38254283Y-202126280I-184235J-50114D01*
G01*
X38209146Y-201932411D02*
G75*
G02*
X38251624Y-202037116I-413617J-228769D01*
G01*
X40896165Y-205349385D02*
G75*
G02*
X40851060Y-205348446I-21756J38718D01*
G01*
X40733804Y-202990046D02*
G75*
G02*
X40790696Y-202953704I117153J-120697D01*
G01*
X40790696Y-202953703D02*
G75*
G02*
X40916484Y-203002514I35980J-93765D01*
G01*
X38668833Y-202895654D02*
G75*
G02*
X38758777Y-202908156I2646J-310774D01*
G01*
X40741459Y-204994512D02*
G75*
G02*
X40729931Y-204809798I2091474J223248D01*
G01*
X40916484Y-203002514D02*
G75*
G02*
X40994401Y-203249941I-732448J-366636D01*
G01*
X40311616Y-202896067D02*
G75*
G02*
X40455583Y-202926912I-10296J-399453D01*
G01*
X40679080Y-203055385D02*
G75*
G02*
X40733804Y-202990046I343164J-231826D01*
G01*
X41316849Y-206076740D02*
G75*
G02*
X41222768Y-206030878I285275J704640D01*
G01*
X40950783Y-205812852D02*
G75*
G02*
X41034879Y-205887052I-551410J-709705D01*
G01*
X40523924Y-203002681D02*
G75*
G02*
X40552145Y-203165699I-651026J-196655D01*
G01*
X40806844Y-205293430D02*
G75*
G02*
X40769059Y-205161529I1120967J392477D01*
G01*
X40571377Y-203344241D02*
G75*
G02*
X40560644Y-203319661I28210J26951D01*
G01*
X38867988Y-203032809D02*
G75*
G02*
X38804313Y-203041298I-55608J174061D01*
G01*
X40866503Y-205758398D02*
G75*
G02*
X40950783Y-205812852I-270385J-510933D01*
G01*
X40747659Y-205735055D02*
G75*
G02*
X40666180Y-205698737I-28372J45906D01*
G01*
X40613833Y-205317199D02*
G75*
G02*
X40596322Y-204898867I3991232J376604D01*
G01*
X40607992Y-203224155D02*
G75*
G02*
X40634561Y-203137324I427849J-83435D01*
G01*
X40596322Y-204898867D02*
G75*
G02*
X40641137Y-204606137I1049838J-10927D01*
G01*
X37957417Y-202580571D02*
G75*
G02*
X38126854Y-202326266I861295J-390261D01*
G01*
X40455583Y-202926912D02*
G75*
G02*
X40523924Y-203002682I-46188J-110365D01*
G01*
X40994401Y-203249941D02*
G75*
G02*
X41012212Y-203638973I-1923815J-283003D01*
G01*
X38254283Y-202126280D02*
G75*
G02*
X38215466Y-202216402I-240876J50329D01*
G01*
X51480910Y-198538855D02*
G75*
G02*
X51525107Y-198637898I-161647J-131515D01*
G01*
X41150371Y-199653262D02*
G75*
G02*
X41053713Y-199650085I-45559J85858D01*
G01*
X52082500Y-203912581D02*
G75*
G02*
X52122795Y-204089971I-1262828J-380130D01*
G01*
X41419115Y-198980436D02*
G75*
G02*
X41291381Y-199007114I-212381J697730D01*
G01*
X40986045Y-199249964D02*
G75*
G02*
X40968790Y-199163077I37431J52590D01*
G01*
X52122795Y-204089970D02*
G75*
G02*
X52135346Y-204261650I-1046365J-162796D01*
G01*
X41378296Y-199436074D02*
G75*
G02*
X41282525Y-199558195I-462040J263731D01*
G01*
X41330419Y-199328742D02*
G75*
G02*
X41367098Y-199352604I-38017J-98558D01*
G01*
X41113526Y-199290699D02*
G75*
G02*
X41191441Y-199295261I0J-667694D01*
G01*
X51339422Y-198526658D02*
G75*
G02*
X51283060Y-198497237I15374J98148D01*
G01*
X41267076Y-199308884D02*
G75*
G02*
X41330419Y-199328742I-122418J-501442D01*
G01*
X51939686Y-203611650D02*
G75*
G02*
X52019689Y-203747174I-636577J-467159D01*
G01*
X41113527Y-199290700D02*
G75*
G02*
X40986045Y-199249964I0J219845D01*
G01*
X51238818Y-198425894D02*
G75*
G02*
X51205762Y-198308330I797627J287707D01*
G01*
X40968790Y-199163077D02*
G75*
G02*
X41089550Y-199060332I223178J-139969D01*
G01*
X51586670Y-202341145D02*
G75*
G02*
X51528466Y-201177604I13264576J1246763D01*
G01*
X51407978Y-198519399D02*
G75*
G02*
X51480910Y-198538854I23043J-60046D01*
G01*
X41016728Y-199664372D02*
G75*
G02*
X41053713Y-199650085I23907J-6873D01*
G01*
X51407978Y-198519397D02*
G75*
G02*
X51339422Y-198526658I-47876J124763D01*
G01*
X41367098Y-199352604D02*
G75*
G02*
X41378296Y-199436073I-49069J-49069D01*
G01*
X38147124Y-201817889D02*
G75*
G02*
X38148803Y-201796442I17733J9401D01*
G01*
X41708040Y-198857890D02*
G75*
G02*
X41565861Y-198927166I-730958J1319648D01*
G01*
X50930731Y-197785595D02*
G75*
G02*
X51019736Y-197872237I-269435J-365818D01*
G01*
X51714057Y-203121596D02*
G75*
G02*
X51586670Y-202341145I5659508J1324378D01*
G01*
X41822155Y-198782114D02*
G75*
G02*
X41708039Y-198857890I-527637J670780D01*
G01*
X50730626Y-197794878D02*
G75*
G02*
X50846889Y-197762296I147396J-302240D01*
G01*
X51175189Y-198193532D02*
G75*
G02*
X51205762Y-198308330I-968993J-319533D01*
G01*
X38148803Y-201796441D02*
G75*
G02*
X38166275Y-201794110I9881J-7414D01*
G01*
X41191441Y-199295261D02*
G75*
G02*
X41267076Y-199308884I-73263J-623536D01*
G01*
X38343446Y-201923097D02*
G75*
G02*
X38257998Y-201867304I217458J426366D01*
G01*
X38395703Y-201917888D02*
G75*
G02*
X38343446Y-201923097I-30183J38070D01*
G01*
X38434102Y-201859559D02*
G75*
G02*
X38395704Y-201917887I-107732J29119D01*
G01*
X51939686Y-203611650D02*
G75*
G02*
X51714057Y-203121596I1086025J796992D01*
G01*
X38472166Y-201697499D02*
G75*
G02*
X38585063Y-201485188I410463J-82093D01*
G01*
X38585064Y-201485189D02*
G75*
G02*
X38799732Y-201361602I332034J-328507D01*
G01*
X40664178Y-201282754D02*
G75*
G02*
X40480537Y-201311959I-370389J1737030D01*
G01*
X51283061Y-198497238D02*
G75*
G02*
X51238819Y-198425894I146146J140018D01*
G01*
X51525108Y-198637898D02*
G75*
G02*
X51543184Y-198865454I-1461965J-230629D01*
G01*
X51019736Y-197872236D02*
G75*
G02*
X51073985Y-197955864I-456444J-355509D01*
G01*
X41282525Y-199558195D02*
G75*
G02*
X41150371Y-199653263I-414057J436195D01*
G01*
X40743403Y-201234823D02*
G75*
G02*
X40664178Y-201282754I-108678J90194D01*
G01*
X40783929Y-201152699D02*
G75*
G02*
X40743403Y-201234824I-192283J43822D01*
G01*
X41089551Y-199060333D02*
G75*
G02*
X41291381Y-199007114I287723J-681858D01*
G01*
X52019689Y-203747174D02*
G75*
G02*
X52082500Y-203912580I-1139230J-527240D01*
G01*
X38799731Y-201361601D02*
G75*
G02*
X39187454Y-201310769I398384J-1534583D01*
G01*
X40480537Y-201311958D02*
G75*
G02*
X40232168Y-201326338I-275397J2604642D01*
G01*
X41565861Y-198927166D02*
G75*
G02*
X41419115Y-198980435I-577984J1363459D01*
G01*
X50846889Y-197762296D02*
G75*
G02*
X50930731Y-197785595I11322J-121761D01*
G01*
X51282230Y-205143013D02*
G75*
G02*
X51440705Y-205053257I579700J-838743D01*
G01*
X51237509Y-205227363D02*
G75*
G02*
X51282230Y-205143014I103662J-930D01*
G01*
X49395107Y-200607440D02*
G75*
G02*
X49514933Y-200569990I287091J-708146D01*
G01*
X48138527Y-201392732D02*
G75*
G02*
X48130885Y-201430117I-95271J0D01*
G01*
X51237509Y-205227362D02*
G75*
G02*
X51150581Y-205371605I-165603J1486D01*
G01*
X48479996Y-200040507D02*
G75*
G02*
X48625279Y-199786831I2131893J-1052514D01*
G01*
X49752312Y-204913803D02*
G75*
G02*
X49824250Y-204945954I-34754J-174318D01*
G01*
X50077984Y-205202819D02*
G75*
G02*
X50124788Y-205284384I-578861J-386379D01*
G01*
X48422452Y-200312619D02*
G75*
G02*
X48365089Y-200455590I-1639084J574644D01*
G01*
X48038528Y-201490700D02*
G75*
G02*
X47956096Y-201428235I-1J85622D01*
G01*
X49514933Y-200569990D02*
G75*
G02*
X49613199Y-200557476I115486J-514791D01*
G01*
X48438527Y-200218183D02*
G75*
G02*
X48422452Y-200312619I-285438J0D01*
G01*
X51150581Y-205371605D02*
G75*
G02*
X50813829Y-205522679I-1196693J2216639D01*
G01*
X49666282Y-200578454D02*
G75*
G02*
X49694489Y-200649862I-68223J-68225D01*
G01*
X48130885Y-201430116D02*
G75*
G02*
X48109152Y-201461921I-90873J38768D01*
G01*
X48138527Y-201392732D02*
G75*
G02*
X48160146Y-201342403I69392J0D01*
G01*
X50454852Y-205623533D02*
G75*
G02*
X50272877Y-205577712I-43078J213181D01*
G01*
X49696492Y-204925331D02*
G75*
G02*
X49752312Y-204913803I41526J-60169D01*
G01*
X49932422Y-205035174D02*
G75*
G02*
X50011301Y-205115567I-637173J-704070D01*
G01*
X50813829Y-205522679D02*
G75*
G02*
X50454853Y-205623532I-855142J2354494D01*
G01*
X49602993Y-198562570D02*
G75*
G02*
X49846544Y-198328408I1872477J-1703817D01*
G01*
X50221471Y-205526014D02*
G75*
G02*
X50177992Y-205463051I357995J293707D01*
G01*
X49846544Y-198328408D02*
G75*
G02*
X50109347Y-198137838I1460525J-1737630D01*
G01*
X48076694Y-201483227D02*
G75*
G02*
X48038527Y-201490699I-38168J93747D01*
G01*
X52135346Y-204261650D02*
G75*
G02*
X52104307Y-204529302I-1260730J10577D01*
G01*
X50124788Y-205284384D02*
G75*
G02*
X50138527Y-205343954I-122275J-59570D01*
G01*
X49646295Y-204978129D02*
G75*
G02*
X49499926Y-204946154I-67556J41752D01*
G01*
X48109151Y-201461922D02*
G75*
G02*
X48076693Y-201483228I-70379J71841D01*
G01*
X51625957Y-204989106D02*
G75*
G02*
X51774763Y-204983630I87635J-356816D01*
G01*
X48160146Y-201342403D02*
G75*
G02*
X48258549Y-201256851I1027361J-1082324D01*
G01*
X50272877Y-205577712D02*
G75*
G02*
X50221471Y-205526014I244139J294169D01*
G01*
X48438527Y-200218183D02*
G75*
G02*
X48479997Y-200040507I401355J0D01*
G01*
X50148173Y-205398842D02*
G75*
G02*
X50138527Y-205343954I151345J54888D01*
G01*
X48365090Y-200455590D02*
G75*
G02*
X48284218Y-200614926I-1860220J843967D01*
G01*
X47956096Y-201428234D02*
G75*
G02*
X47950694Y-201271414I318513J89476D01*
G01*
X50011300Y-205115567D02*
G75*
G02*
X50077983Y-205202819I-647443J-563919D01*
G01*
X49499926Y-204946154D02*
G75*
G02*
X49443293Y-204136360I7519175J932732D01*
G01*
X48258549Y-201256852D02*
G75*
G02*
X48390602Y-201161834I1050463J-1320632D01*
G01*
X49268995Y-200667582D02*
G75*
G02*
X49395107Y-200607440I565092J-1022660D01*
G01*
X50177992Y-205463052D02*
G75*
G02*
X50148172Y-205398842I353761J203323D01*
G01*
X49646295Y-204978130D02*
G75*
G02*
X49696492Y-204925331I151074J-93368D01*
G01*
X52104307Y-204529303D02*
G75*
G02*
X52017235Y-204773236I-1052134J238055D01*
G01*
X52017234Y-204773235D02*
G75*
G02*
X51898758Y-204942262I-625492J312392D01*
G01*
X49824250Y-204945955D02*
G75*
G02*
X49932422Y-205035175I-917513J-1222589D01*
G01*
X47950694Y-201271413D02*
G75*
G02*
X48032048Y-201036612I948904J-197283D01*
G01*
X48032048Y-201036612D02*
G75*
G02*
X48188527Y-200769218I2059446J-1025705D01*
G01*
X51898759Y-204942263D02*
G75*
G02*
X51774763Y-204983630I-100844J95753D01*
G01*
X49613199Y-200557475D02*
G75*
G02*
X49666282Y-200578455I2342J-71721D01*
G01*
X51440705Y-205053257D02*
G75*
G02*
X51625958Y-204989106I438279J-966088D01*
G01*
D13*
G36*
X34892277Y-199433014D02*
G01*
X35243492Y-199543268D01*
X35443495Y-199695143D01*
X35538036Y-199883251D01*
X35494124Y-200027598D01*
X35344428Y-200090699D01*
X35187721Y-200122455D01*
X35002988Y-200149032D01*
X35083519Y-200198802D01*
X35040627Y-200235897D01*
X34966101Y-200257522D01*
X34874033Y-200261855D01*
X34777617Y-200246897D01*
X34635723Y-200230319D01*
X34551890Y-200268941D01*
X34530773Y-200527967D01*
X34522858Y-200555598D01*
X34445218Y-200570510D01*
X34296303Y-200524664D01*
X33996977Y-200457115D01*
X33838625Y-200429116D01*
X33469569Y-200440640D01*
X33064140Y-200585195D01*
X32706316Y-200822564D01*
X32478723Y-201109658D01*
X32371183Y-201339899D01*
X32345386Y-201476546D01*
X32389978Y-201532595D01*
X32488526Y-201526862D01*
X32545922Y-201512896D01*
X32626384Y-201541616D01*
X32664435Y-201610808D01*
X32733995Y-201612679D01*
X33184152Y-201434105D01*
X33296573Y-201407052D01*
X33372477Y-201423197D01*
X33482130Y-201536836D01*
X33614025Y-201548854D01*
X33719235Y-201501024D01*
X34033666Y-201394925D01*
X34086473Y-201432610D01*
X34078791Y-201506452D01*
X34079055Y-201580100D01*
X34175398Y-201566158D01*
X34333382Y-201546410D01*
X34442865Y-201546213D01*
X34625049Y-201589748D01*
X34793773Y-201667358D01*
X34969865Y-201732693D01*
X35080105Y-201806017D01*
X35094040Y-201855184D01*
X35055817Y-201949250D01*
X35057125Y-201970796D01*
X35111640Y-201957316D01*
X35252626Y-201981889D01*
X36157458Y-203204813D01*
X33260357Y-202928778D01*
X33263526Y-202885240D01*
X32474044Y-202859832D01*
X30534716Y-203822342D01*
X30482851Y-203506554D01*
X30472499Y-203250375D01*
X30503227Y-202981182D01*
X30583015Y-202618689D01*
X30990280Y-201507006D01*
X31256083Y-201071887D01*
X31554597Y-200734934D01*
X31902920Y-200456600D01*
X32438267Y-200103236D01*
X33002414Y-199768217D01*
X33456919Y-199542564D01*
X33850013Y-199433551D01*
X34376456Y-199399051D01*
X34892277Y-199433014D01*
G37*
X34892277Y-199433014D02*
X35243492Y-199543268D01*
X35443495Y-199695143D01*
X35538036Y-199883251D01*
X35494124Y-200027598D01*
X35344428Y-200090699D01*
X35187721Y-200122455D01*
X35002988Y-200149032D01*
X35083519Y-200198802D01*
X35040627Y-200235897D01*
X34966101Y-200257522D01*
X34874033Y-200261855D01*
X34777617Y-200246897D01*
X34635723Y-200230319D01*
X34551890Y-200268941D01*
X34530773Y-200527967D01*
X34522858Y-200555598D01*
X34445218Y-200570510D01*
X34296303Y-200524664D01*
X33996977Y-200457115D01*
X33838625Y-200429116D01*
X33469569Y-200440640D01*
X33064140Y-200585195D01*
X32706316Y-200822564D01*
X32478723Y-201109658D01*
X32371183Y-201339899D01*
X32345386Y-201476546D01*
X32389978Y-201532595D01*
X32488526Y-201526862D01*
X32545922Y-201512896D01*
X32626384Y-201541616D01*
X32664435Y-201610808D01*
X32733995Y-201612679D01*
X33184152Y-201434105D01*
X33296573Y-201407052D01*
X33372477Y-201423197D01*
X33482130Y-201536836D01*
X33614025Y-201548854D01*
X33719235Y-201501024D01*
X34033666Y-201394925D01*
X34086473Y-201432610D01*
X34078791Y-201506452D01*
X34079055Y-201580100D01*
X34175398Y-201566158D01*
X34333382Y-201546410D01*
X34442865Y-201546213D01*
X34625049Y-201589748D01*
X34793773Y-201667358D01*
X34969865Y-201732693D01*
X35080105Y-201806017D01*
X35094040Y-201855184D01*
X35055817Y-201949250D01*
X35057125Y-201970796D01*
X35111640Y-201957316D01*
X35252626Y-201981889D01*
X36157458Y-203204813D01*
X33260357Y-202928778D01*
X33263526Y-202885240D01*
X32474044Y-202859832D01*
X30534716Y-203822342D01*
X30482851Y-203506554D01*
X30472499Y-203250375D01*
X30503227Y-202981182D01*
X30583015Y-202618689D01*
X30990280Y-201507006D01*
X31256083Y-201071887D01*
X31554597Y-200734934D01*
X31902920Y-200456600D01*
X32438267Y-200103236D01*
X33002414Y-199768217D01*
X33456919Y-199542564D01*
X33850013Y-199433551D01*
X34376456Y-199399051D01*
X34892277Y-199433014D01*
G36*
X35947718Y-204069752D02*
G01*
X35639522Y-204462813D01*
X35296743Y-204812750D01*
X35083295Y-204987633D01*
X34879180Y-205113924D01*
X34669607Y-205199737D01*
X34244897Y-205288415D01*
X34028535Y-205340190D01*
X33824160Y-205398880D01*
X33668399Y-205455554D01*
X33245610Y-205563832D01*
X33874101Y-204086101D01*
X35938527Y-203490700D01*
X35947718Y-204069752D01*
G37*
X35947718Y-204069752D02*
X35639522Y-204462813D01*
X35296743Y-204812750D01*
X35083295Y-204987633D01*
X34879180Y-205113924D01*
X34669607Y-205199737D01*
X34244897Y-205288415D01*
X34028535Y-205340190D01*
X33824160Y-205398880D01*
X33668399Y-205455554D01*
X33245610Y-205563832D01*
X33874101Y-204086101D01*
X35938527Y-203490700D01*
X35947718Y-204069752D01*
G36*
X32370637Y-202921892D02*
G01*
X32312063Y-203051103D01*
X32344225Y-203462066D01*
X32580916Y-203852147D01*
X32962146Y-204132079D01*
X33401497Y-204230700D01*
X33737152Y-204198768D01*
X33874101Y-204086101D01*
X33245610Y-205563832D01*
X32678798Y-205585364D01*
X32107952Y-205529611D01*
X31669697Y-205396155D01*
X31288445Y-205150061D01*
X30954584Y-204782721D01*
X30695352Y-204327676D01*
X30792542Y-204268677D01*
X31518416Y-204515417D01*
X31599709Y-204522291D01*
X31619436Y-204398397D01*
X31436183Y-203958692D01*
X31349944Y-203779391D01*
X31181650Y-203514263D01*
X31134479Y-203491011D01*
X32474044Y-202859832D01*
X32370637Y-202921892D01*
G37*
X32370637Y-202921892D02*
X32312063Y-203051103D01*
X32344225Y-203462066D01*
X32580916Y-203852147D01*
X32962146Y-204132079D01*
X33401497Y-204230700D01*
X33737152Y-204198768D01*
X33874101Y-204086101D01*
X33245610Y-205563832D01*
X32678798Y-205585364D01*
X32107952Y-205529611D01*
X31669697Y-205396155D01*
X31288445Y-205150061D01*
X30954584Y-204782721D01*
X30695352Y-204327676D01*
X30792542Y-204268677D01*
X31518416Y-204515417D01*
X31599709Y-204522291D01*
X31619436Y-204398397D01*
X31436183Y-203958692D01*
X31349944Y-203779391D01*
X31181650Y-203514263D01*
X31134479Y-203491011D01*
X32474044Y-202859832D01*
X32370637Y-202921892D01*
G36*
X31056964Y-203588038D02*
G01*
X31112956Y-203736613D01*
X31518416Y-204515417D01*
X30817097Y-204274384D01*
X30817097Y-204274383D01*
X30833006Y-204249556D01*
X30835464Y-204140699D01*
X30828402Y-204053161D01*
X30806989Y-203955387D01*
X30775693Y-203862603D01*
X30738526Y-203790700D01*
X30659956Y-203707016D01*
X31070900Y-203520968D01*
X31056964Y-203588038D01*
G37*
X31056964Y-203588038D02*
X31112956Y-203736613D01*
X31518416Y-204515417D01*
X30817097Y-204274384D01*
X30817097Y-204274383D01*
X30833006Y-204249556D01*
X30835464Y-204140699D01*
X30828402Y-204053161D01*
X30806989Y-203955387D01*
X30775693Y-203862603D01*
X30738526Y-203790700D01*
X30659956Y-203707016D01*
X31070900Y-203520968D01*
X31056964Y-203588038D01*
G36*
X30644047Y-203731843D02*
G01*
X30641589Y-203840699D01*
X30648652Y-203928237D01*
X30670065Y-204026012D01*
X30701359Y-204118796D01*
X30792542Y-204268677D01*
X30817097Y-204274383D01*
X30695352Y-204327676D01*
X30534716Y-203822342D01*
X30659956Y-203707016D01*
X30644047Y-203731843D01*
G37*
X30644047Y-203731843D02*
X30641589Y-203840699D01*
X30648652Y-203928237D01*
X30670065Y-204026012D01*
X30701359Y-204118796D01*
X30792542Y-204268677D01*
X30817097Y-204274383D01*
X30695352Y-204327676D01*
X30534716Y-203822342D01*
X30659956Y-203707016D01*
X30644047Y-203731843D01*
G36*
X35938527Y-203190699D02*
G01*
X35867902Y-203234762D01*
X35845996Y-203283354D01*
X35838527Y-203340699D01*
X35845996Y-203398045D01*
X35867902Y-203446637D01*
X35900391Y-203479143D01*
X33874101Y-204086101D01*
X33861528Y-203899352D01*
X33656717Y-203598373D01*
X33534901Y-203435353D01*
X33431995Y-203272951D01*
X33357424Y-203130629D01*
X33338527Y-203046563D01*
X33332999Y-202986511D01*
X33316495Y-202934881D01*
X33292208Y-202898926D01*
X35938527Y-203190699D01*
G37*
X35938527Y-203190699D02*
X35867902Y-203234762D01*
X35845996Y-203283354D01*
X35838527Y-203340699D01*
X35845996Y-203398045D01*
X35867902Y-203446637D01*
X35900391Y-203479143D01*
X33874101Y-204086101D01*
X33861528Y-203899352D01*
X33656717Y-203598373D01*
X33534901Y-203435353D01*
X33431995Y-203272951D01*
X33357424Y-203130629D01*
X33338527Y-203046563D01*
X33332999Y-202986511D01*
X33316495Y-202934881D01*
X33292208Y-202898926D01*
X35938527Y-203190699D01*
G36*
X36157457Y-203204814D02*
G01*
X36238527Y-203469610D01*
X36177859Y-203702855D01*
X35947718Y-204069752D01*
X35938527Y-203490700D01*
X35976662Y-203479142D01*
X36009152Y-203446637D01*
X36031058Y-203398045D01*
X36038526Y-203340699D01*
X36031057Y-203283353D01*
X36009152Y-203234762D01*
X35976662Y-203202256D01*
X35938527Y-203190699D01*
X36157457Y-203204814D01*
G37*
X36157457Y-203204814D02*
X36238527Y-203469610D01*
X36177859Y-203702855D01*
X35947718Y-204069752D01*
X35938527Y-203490700D01*
X35976662Y-203479142D01*
X36009152Y-203446637D01*
X36031058Y-203398045D01*
X36038526Y-203340699D01*
X36031057Y-203283353D01*
X36009152Y-203234762D01*
X35976662Y-203202256D01*
X35938527Y-203190699D01*
X36157457Y-203204814D01*
G36*
X50930731Y-197785595D02*
G01*
X51019736Y-197872237D01*
X51073985Y-197955864D01*
X51128505Y-198069830D01*
X51175189Y-198193533D01*
X51205762Y-198308330D01*
X51238819Y-198425894D01*
X51283061Y-198497238D01*
X51339422Y-198526658D01*
X51407978Y-198519399D01*
X51480910Y-198538855D01*
X51525107Y-198637898D01*
X51543184Y-198865454D01*
X51539288Y-199351767D01*
X51528466Y-201177604D01*
X51586670Y-202341145D01*
X51714057Y-203121596D01*
X51939686Y-203611651D01*
X52082500Y-203912581D01*
X52122795Y-204089971D01*
X52135346Y-204261650D01*
X52104308Y-204529303D01*
X52017235Y-204773236D01*
X51898758Y-204942262D01*
X51774763Y-204983630D01*
X51625958Y-204989106D01*
X51282230Y-205143014D01*
X51237510Y-205227363D01*
X51150581Y-205371605D01*
X50813829Y-205522679D01*
X50454852Y-205623533D01*
X50272877Y-205577712D01*
X50177992Y-205463052D01*
X50148172Y-205398842D01*
X50124788Y-205284384D01*
X50077983Y-205202819D01*
X50011301Y-205115567D01*
X49932422Y-205035175D01*
X49824250Y-204945955D01*
X49752312Y-204913803D01*
X49696492Y-204925331D01*
X49646295Y-204978129D01*
X49499926Y-204946154D01*
X49443293Y-204136360D01*
X49471840Y-202977117D01*
X49594400Y-201780011D01*
X49679813Y-200966058D01*
X49615541Y-200629196D01*
X49666282Y-200578455D01*
X49613199Y-200557476D01*
X49514933Y-200569990D01*
X49395108Y-200607440D01*
X49120000Y-200750000D01*
X48726425Y-200968166D01*
X48547113Y-201067732D01*
X48390602Y-201161834D01*
X48258549Y-201256852D01*
X48160146Y-201342403D01*
X48109152Y-201461921D01*
X48038527Y-201490699D01*
X47956097Y-201428234D01*
X47950694Y-201271414D01*
X48032048Y-201036612D01*
X48188527Y-200769218D01*
X48284218Y-200614926D01*
X48422452Y-200312619D01*
X48438527Y-200218183D01*
X48479997Y-200040507D01*
X48625279Y-199786831D01*
X48876303Y-199437722D01*
X49288527Y-198925401D01*
X49602993Y-198562570D01*
X49846544Y-198328408D01*
X50109347Y-198137838D01*
X50482019Y-197922237D01*
X50730626Y-197794877D01*
X50846889Y-197762296D01*
X50930731Y-197785595D01*
G37*
X50930731Y-197785595D02*
X51019736Y-197872237D01*
X51073985Y-197955864D01*
X51128505Y-198069830D01*
X51175189Y-198193533D01*
X51205762Y-198308330D01*
X51238819Y-198425894D01*
X51283061Y-198497238D01*
X51339422Y-198526658D01*
X51407978Y-198519399D01*
X51480910Y-198538855D01*
X51525107Y-198637898D01*
X51543184Y-198865454D01*
X51539288Y-199351767D01*
X51528466Y-201177604D01*
X51586670Y-202341145D01*
X51714057Y-203121596D01*
X51939686Y-203611651D01*
X52082500Y-203912581D01*
X52122795Y-204089971D01*
X52135346Y-204261650D01*
X52104308Y-204529303D01*
X52017235Y-204773236D01*
X51898758Y-204942262D01*
X51774763Y-204983630D01*
X51625958Y-204989106D01*
X51282230Y-205143014D01*
X51237510Y-205227363D01*
X51150581Y-205371605D01*
X50813829Y-205522679D01*
X50454852Y-205623533D01*
X50272877Y-205577712D01*
X50177992Y-205463052D01*
X50148172Y-205398842D01*
X50124788Y-205284384D01*
X50077983Y-205202819D01*
X50011301Y-205115567D01*
X49932422Y-205035175D01*
X49824250Y-204945955D01*
X49752312Y-204913803D01*
X49696492Y-204925331D01*
X49646295Y-204978129D01*
X49499926Y-204946154D01*
X49443293Y-204136360D01*
X49471840Y-202977117D01*
X49594400Y-201780011D01*
X49679813Y-200966058D01*
X49615541Y-200629196D01*
X49666282Y-200578455D01*
X49613199Y-200557476D01*
X49514933Y-200569990D01*
X49395108Y-200607440D01*
X49120000Y-200750000D01*
X48726425Y-200968166D01*
X48547113Y-201067732D01*
X48390602Y-201161834D01*
X48258549Y-201256852D01*
X48160146Y-201342403D01*
X48109152Y-201461921D01*
X48038527Y-201490699D01*
X47956097Y-201428234D01*
X47950694Y-201271414D01*
X48032048Y-201036612D01*
X48188527Y-200769218D01*
X48284218Y-200614926D01*
X48422452Y-200312619D01*
X48438527Y-200218183D01*
X48479997Y-200040507D01*
X48625279Y-199786831D01*
X48876303Y-199437722D01*
X49288527Y-198925401D01*
X49602993Y-198562570D01*
X49846544Y-198328408D01*
X50109347Y-198137838D01*
X50482019Y-197922237D01*
X50730626Y-197794877D01*
X50846889Y-197762296D01*
X50930731Y-197785595D01*
G36*
X40611291Y-203898145D02*
G01*
X40611292Y-203898146D01*
X40625573Y-203920075D01*
X40635292Y-203952415D01*
X40638526Y-203990700D01*
X40630420Y-204028855D01*
X40607418Y-204061324D01*
X40573050Y-204083087D01*
X40532625Y-204090700D01*
X40497130Y-204082871D01*
X40475986Y-204061324D01*
X40472876Y-204028909D01*
X40488527Y-203990699D01*
X40515426Y-203952422D01*
X40545129Y-203920074D01*
X40594427Y-203890699D01*
X40611291Y-203898145D01*
G37*
X40611291Y-203898145D02*
X40611292Y-203898146D01*
X40625573Y-203920075D01*
X40635292Y-203952415D01*
X40638526Y-203990700D01*
X40630420Y-204028855D01*
X40607418Y-204061324D01*
X40573050Y-204083087D01*
X40532625Y-204090700D01*
X40497130Y-204082871D01*
X40475986Y-204061324D01*
X40472876Y-204028909D01*
X40488527Y-203990699D01*
X40515426Y-203952422D01*
X40545129Y-203920074D01*
X40594427Y-203890699D01*
X40611291Y-203898145D01*
G36*
X42214982Y-198643135D02*
G01*
X42245555Y-198765699D01*
X42251518Y-198862691D01*
X42266184Y-198872888D01*
X42286107Y-198855559D01*
X42334822Y-198740699D01*
X42379947Y-198639990D01*
X42410446Y-198612133D01*
X42466892Y-198690699D01*
X42538138Y-198956858D01*
X42635687Y-199459613D01*
X42726384Y-199992565D01*
X42783976Y-200423992D01*
X42770000Y-200750000D01*
X42932864Y-201019801D01*
X43379132Y-201102918D01*
X44213466Y-201218677D01*
X44519796Y-201316660D01*
X44833247Y-201392110D01*
X45402527Y-201420538D01*
X46103752Y-201515072D01*
X45927839Y-201949610D01*
X45611542Y-202327654D01*
X45284219Y-202607363D01*
X44930243Y-202800504D01*
X44489847Y-202932631D01*
X43888527Y-203027094D01*
X43540615Y-203098119D01*
X43269330Y-203223478D01*
X43082519Y-203398713D01*
X42982749Y-203617005D01*
X42962599Y-203748785D01*
X42991549Y-203939102D01*
X43089250Y-204029308D01*
X43110073Y-204232592D01*
X43049203Y-204134101D01*
X42946686Y-204381180D01*
X42925913Y-204633452D01*
X42887200Y-204788646D01*
X42830736Y-204940600D01*
X42763798Y-205064406D01*
X42652322Y-205237575D01*
X42639069Y-205283328D01*
X42724673Y-205283328D01*
X42763798Y-205264026D01*
X42889137Y-205242730D01*
X42934040Y-205292992D01*
X42885078Y-205390219D01*
X42745299Y-205487075D01*
X42589501Y-205621015D01*
X42525577Y-205710868D01*
X42486265Y-205797826D01*
X42450222Y-205877159D01*
X42400357Y-205932476D01*
X42342444Y-205957920D01*
X42225536Y-205939394D01*
X42167742Y-205943535D01*
X42118193Y-205963545D01*
X42084819Y-205996698D01*
X42053583Y-206028671D01*
X42010563Y-206045736D01*
X41962345Y-206045215D01*
X41916446Y-206027053D01*
X41800381Y-206033964D01*
X41732958Y-206078959D01*
X41673356Y-206144534D01*
X41621363Y-206207719D01*
X41578133Y-206239771D01*
X41551410Y-206236725D01*
X41538527Y-206209812D01*
X41526978Y-206164386D01*
X41494464Y-206125689D01*
X41445829Y-206099682D01*
X41388527Y-206090699D01*
X41316849Y-206076740D01*
X41222768Y-206030878D01*
X41123875Y-205964985D01*
X40950783Y-205812852D01*
X40866503Y-205758398D01*
X40793536Y-205728821D01*
X40747658Y-205735055D01*
X40666180Y-205698737D01*
X40613833Y-205317199D01*
X40596322Y-204898867D01*
X40641137Y-204606137D01*
X40685584Y-204475822D01*
X40708216Y-204475288D01*
X40723256Y-204542125D01*
X40729931Y-204809798D01*
X40741459Y-204994512D01*
X40769059Y-205161529D01*
X40806843Y-205293430D01*
X40851060Y-205348446D01*
X40896165Y-205349385D01*
X40925096Y-205309399D01*
X40931396Y-205206986D01*
X40913695Y-205029348D01*
X40901182Y-204842216D01*
X40906490Y-204595866D01*
X40926330Y-204335104D01*
X40959238Y-204099427D01*
X41012212Y-203638973D01*
X40994401Y-203249941D01*
X40916484Y-203002514D01*
X40790696Y-202953704D01*
X40733804Y-202990046D01*
X40679080Y-203055385D01*
X40634561Y-203137323D01*
X40607992Y-203224155D01*
X40576693Y-203339162D01*
X40560644Y-203319661D01*
X40552145Y-203165699D01*
X40523924Y-203002682D01*
X40455583Y-202926912D01*
X40311616Y-202896067D01*
X39895037Y-202890699D01*
X39363543Y-202919986D01*
X38989322Y-202990398D01*
X38867987Y-203032809D01*
X38804313Y-203041298D01*
X38784216Y-203021738D01*
X38794047Y-202981767D01*
X38795699Y-202938582D01*
X38758777Y-202908156D01*
X38668833Y-202895655D01*
X38523322Y-202902533D01*
X38163625Y-202892579D01*
X37974735Y-202775537D01*
X37957417Y-202580571D01*
X38126854Y-202326266D01*
X38215466Y-202216401D01*
X38254283Y-202126280D01*
X38251625Y-202037116D01*
X38209146Y-201932410D01*
X38147124Y-201817889D01*
X38148804Y-201796441D01*
X38166275Y-201794110D01*
X38257998Y-201867304D01*
X38343446Y-201923097D01*
X38395704Y-201917887D01*
X38434102Y-201859560D01*
X38472167Y-201697499D01*
X38585064Y-201485189D01*
X38799732Y-201361602D01*
X39187454Y-201310769D01*
X39918372Y-201322057D01*
X40232168Y-201326338D01*
X40480537Y-201311959D01*
X40664178Y-201282754D01*
X40743403Y-201234824D01*
X40783928Y-201152699D01*
X40829542Y-200930071D01*
X40871369Y-200658523D01*
X40902977Y-200358425D01*
X40933843Y-200070012D01*
X40973816Y-199836147D01*
X41016728Y-199664372D01*
X41053713Y-199650085D01*
X41150371Y-199653263D01*
X41282525Y-199558195D01*
X41378296Y-199436073D01*
X41367097Y-199352604D01*
X41191968Y-199303046D01*
X41113527Y-199290700D01*
X40986045Y-199249964D01*
X40968790Y-199163077D01*
X41089550Y-199060332D01*
X41291381Y-199007114D01*
X41419115Y-198980435D01*
X41708040Y-198857890D01*
X41822154Y-198782114D01*
X42022438Y-198638752D01*
X42143713Y-198600255D01*
X42214982Y-198643135D01*
G37*
X42214982Y-198643135D02*
X42245555Y-198765699D01*
X42251518Y-198862691D01*
X42266184Y-198872888D01*
X42286107Y-198855559D01*
X42334822Y-198740699D01*
X42379947Y-198639990D01*
X42410446Y-198612133D01*
X42466892Y-198690699D01*
X42538138Y-198956858D01*
X42635687Y-199459613D01*
X42726384Y-199992565D01*
X42783976Y-200423992D01*
X42770000Y-200750000D01*
X42932864Y-201019801D01*
X43379132Y-201102918D01*
X44213466Y-201218677D01*
X44519796Y-201316660D01*
X44833247Y-201392110D01*
X45402527Y-201420538D01*
X46103752Y-201515072D01*
X45927839Y-201949610D01*
X45611542Y-202327654D01*
X45284219Y-202607363D01*
X44930243Y-202800504D01*
X44489847Y-202932631D01*
X43888527Y-203027094D01*
X43540615Y-203098119D01*
X43269330Y-203223478D01*
X43082519Y-203398713D01*
X42982749Y-203617005D01*
X42962599Y-203748785D01*
X42991549Y-203939102D01*
X43089250Y-204029308D01*
X43110073Y-204232592D01*
X43049203Y-204134101D01*
X42946686Y-204381180D01*
X42925913Y-204633452D01*
X42887200Y-204788646D01*
X42830736Y-204940600D01*
X42763798Y-205064406D01*
X42652322Y-205237575D01*
X42639069Y-205283328D01*
X42724673Y-205283328D01*
X42763798Y-205264026D01*
X42889137Y-205242730D01*
X42934040Y-205292992D01*
X42885078Y-205390219D01*
X42745299Y-205487075D01*
X42589501Y-205621015D01*
X42525577Y-205710868D01*
X42486265Y-205797826D01*
X42450222Y-205877159D01*
X42400357Y-205932476D01*
X42342444Y-205957920D01*
X42225536Y-205939394D01*
X42167742Y-205943535D01*
X42118193Y-205963545D01*
X42084819Y-205996698D01*
X42053583Y-206028671D01*
X42010563Y-206045736D01*
X41962345Y-206045215D01*
X41916446Y-206027053D01*
X41800381Y-206033964D01*
X41732958Y-206078959D01*
X41673356Y-206144534D01*
X41621363Y-206207719D01*
X41578133Y-206239771D01*
X41551410Y-206236725D01*
X41538527Y-206209812D01*
X41526978Y-206164386D01*
X41494464Y-206125689D01*
X41445829Y-206099682D01*
X41388527Y-206090699D01*
X41316849Y-206076740D01*
X41222768Y-206030878D01*
X41123875Y-205964985D01*
X40950783Y-205812852D01*
X40866503Y-205758398D01*
X40793536Y-205728821D01*
X40747658Y-205735055D01*
X40666180Y-205698737D01*
X40613833Y-205317199D01*
X40596322Y-204898867D01*
X40641137Y-204606137D01*
X40685584Y-204475822D01*
X40708216Y-204475288D01*
X40723256Y-204542125D01*
X40729931Y-204809798D01*
X40741459Y-204994512D01*
X40769059Y-205161529D01*
X40806843Y-205293430D01*
X40851060Y-205348446D01*
X40896165Y-205349385D01*
X40925096Y-205309399D01*
X40931396Y-205206986D01*
X40913695Y-205029348D01*
X40901182Y-204842216D01*
X40906490Y-204595866D01*
X40926330Y-204335104D01*
X40959238Y-204099427D01*
X41012212Y-203638973D01*
X40994401Y-203249941D01*
X40916484Y-203002514D01*
X40790696Y-202953704D01*
X40733804Y-202990046D01*
X40679080Y-203055385D01*
X40634561Y-203137323D01*
X40607992Y-203224155D01*
X40576693Y-203339162D01*
X40560644Y-203319661D01*
X40552145Y-203165699D01*
X40523924Y-203002682D01*
X40455583Y-202926912D01*
X40311616Y-202896067D01*
X39895037Y-202890699D01*
X39363543Y-202919986D01*
X38989322Y-202990398D01*
X38867987Y-203032809D01*
X38804313Y-203041298D01*
X38784216Y-203021738D01*
X38794047Y-202981767D01*
X38795699Y-202938582D01*
X38758777Y-202908156D01*
X38668833Y-202895655D01*
X38523322Y-202902533D01*
X38163625Y-202892579D01*
X37974735Y-202775537D01*
X37957417Y-202580571D01*
X38126854Y-202326266D01*
X38215466Y-202216401D01*
X38254283Y-202126280D01*
X38251625Y-202037116D01*
X38209146Y-201932410D01*
X38147124Y-201817889D01*
X38148804Y-201796441D01*
X38166275Y-201794110D01*
X38257998Y-201867304D01*
X38343446Y-201923097D01*
X38395704Y-201917887D01*
X38434102Y-201859560D01*
X38472167Y-201697499D01*
X38585064Y-201485189D01*
X38799732Y-201361602D01*
X39187454Y-201310769D01*
X39918372Y-201322057D01*
X40232168Y-201326338D01*
X40480537Y-201311959D01*
X40664178Y-201282754D01*
X40743403Y-201234824D01*
X40783928Y-201152699D01*
X40829542Y-200930071D01*
X40871369Y-200658523D01*
X40902977Y-200358425D01*
X40933843Y-200070012D01*
X40973816Y-199836147D01*
X41016728Y-199664372D01*
X41053713Y-199650085D01*
X41150371Y-199653263D01*
X41282525Y-199558195D01*
X41378296Y-199436073D01*
X41367097Y-199352604D01*
X41191968Y-199303046D01*
X41113527Y-199290700D01*
X40986045Y-199249964D01*
X40968790Y-199163077D01*
X41089550Y-199060332D01*
X41291381Y-199007114D01*
X41419115Y-198980435D01*
X41708040Y-198857890D01*
X41822154Y-198782114D01*
X42022438Y-198638752D01*
X42143713Y-198600255D01*
X42214982Y-198643135D01*
D12*
X31181650Y-203514263D02*
X31261978Y-203628172D01*
X30835464Y-204140699D02*
X30833006Y-204249556D01*
X31349944Y-203779391D02*
X31436183Y-203958692D01*
X30684512Y-203712722D02*
X30738527Y-203790699D01*
X30641589Y-203840699D02*
X30644047Y-203731843D01*
X30792542Y-204268677D02*
X30738527Y-204190699D01*
X31304108Y-204119024D02*
X31112956Y-203736613D01*
X33357423Y-203130629D02*
X33431995Y-203272951D01*
X31518416Y-204515417D02*
X31304108Y-204119024D01*
X31436183Y-203958692D02*
X31619436Y-204398397D01*
X33431995Y-203272951D02*
X33534901Y-203435353D01*
X32682484Y-202847704D02*
X33263527Y-202885240D01*
X33534901Y-203435353D02*
X33656717Y-203598373D01*
X33996977Y-200457115D02*
X34156539Y-200490659D01*
X33838625Y-200429116D02*
X33996977Y-200457115D01*
X33184153Y-201434104D02*
X32994436Y-201517742D01*
X34700744Y-201626923D02*
X34625049Y-201589748D01*
X34888577Y-201704783D02*
X34793773Y-201667358D01*
X36157457Y-203204814D02*
X35722292Y-202591755D01*
X34156539Y-200490659D02*
X34296303Y-200524664D01*
X34234412Y-201562801D02*
X34132429Y-201584846D01*
X32994436Y-201517742D02*
X32845617Y-201581909D01*
X34793773Y-201667358D02*
X34700744Y-201626923D01*
X35722292Y-202591755D02*
X35252626Y-201981889D01*
X32371183Y-201339899D02*
X32478723Y-201109658D01*
X34969865Y-201732693D02*
X34888577Y-201704783D01*
X42334822Y-198740699D02*
X42286107Y-198855559D01*
X42726384Y-199992565D02*
X42635687Y-199459613D01*
X43379132Y-201102918D02*
X43133445Y-201062389D01*
X42835669Y-200788397D02*
X42807819Y-200614822D01*
X43949382Y-201171480D02*
X43661307Y-201136073D01*
X45897095Y-201421308D02*
X45402527Y-201420538D01*
X43661307Y-201136073D02*
X43379132Y-201102918D01*
X44833247Y-201392110D02*
X44610800Y-201359005D01*
X45105160Y-201414511D02*
X44833247Y-201392110D01*
X34244897Y-205288415D02*
X34440188Y-205252604D01*
X34028535Y-205340190D02*
X34244897Y-205288415D01*
X42863916Y-200931987D02*
X42835669Y-200788397D01*
X45402527Y-201420538D02*
X45105160Y-201414511D01*
X33824160Y-205398880D02*
X34028535Y-205340190D01*
X30482851Y-203506554D02*
X30534716Y-203822342D01*
X30583015Y-202618689D02*
X30503227Y-202981182D01*
X42251518Y-198862691D02*
X42245555Y-198765699D01*
X44213466Y-201218677D02*
X43949382Y-201171480D01*
X43133445Y-201062389D02*
X42932864Y-201019801D01*
X32438267Y-200103236D02*
X31902920Y-200456600D01*
X33002414Y-199768217D02*
X32438267Y-200103236D01*
X42635687Y-199459613D02*
X42538138Y-198956858D01*
X42783976Y-200423992D02*
X42726384Y-199992565D01*
X42379947Y-198639990D02*
X42334822Y-198740699D01*
X44429932Y-201270262D02*
X44213466Y-201218677D01*
X42807819Y-200614822D02*
X42783976Y-200423992D01*
X42763798Y-205264026D02*
X42660037Y-205299042D01*
X45927839Y-201949610D02*
X46044248Y-201773203D01*
X45611542Y-202327654D02*
X45777853Y-202143146D01*
X43888527Y-203027094D02*
X44489847Y-202932631D01*
X45777853Y-202143146D02*
X45927839Y-201949610D01*
X42652322Y-205237575D02*
X42763798Y-205064406D01*
X40959238Y-204099427D02*
X40926330Y-204335104D01*
X38867987Y-203032809D02*
X38989322Y-202990397D01*
X39629443Y-202898026D02*
X39895037Y-202890699D01*
X40729931Y-204809798D02*
X40723256Y-204542125D01*
X40926330Y-204335104D02*
X40906490Y-204595866D01*
X38523322Y-202902532D02*
X38668833Y-202895655D01*
X40552145Y-203165699D02*
X40560644Y-203319661D01*
X39895037Y-202890699D02*
X40311616Y-202896067D01*
X40906490Y-204595866D02*
X40901182Y-204842216D01*
X40613833Y-205317199D02*
X40666180Y-205698737D01*
X39363543Y-202919986D02*
X39629443Y-202898026D01*
X40583876Y-203340734D02*
X40607992Y-203224155D01*
X40685584Y-204475822D02*
X40641137Y-204606137D01*
X40913695Y-205029348D02*
X40931396Y-205206987D01*
X39132052Y-202951864D02*
X39363543Y-202919986D01*
X40829542Y-200930071D02*
X40783928Y-201152699D01*
X40933843Y-200070012D02*
X40902977Y-200358425D01*
X41016728Y-199664372D02*
X40973816Y-199836147D01*
X51175189Y-198193532D02*
X51128505Y-198069830D01*
X51128505Y-198069830D02*
X51073985Y-197955864D01*
X39918372Y-201322057D02*
X39187454Y-201310769D01*
X38147124Y-201817889D02*
X38209146Y-201932410D01*
X38257998Y-201867304D02*
X38166275Y-201794110D01*
X38472167Y-201697499D02*
X38434102Y-201859560D01*
X40871369Y-200658523D02*
X40829542Y-200930071D01*
X40902977Y-200358425D02*
X40871369Y-200658523D01*
X50730626Y-197794877D02*
X50482019Y-197922237D01*
X51539288Y-199351767D02*
X51543184Y-198865454D01*
X40973816Y-199836147D02*
X40933843Y-200070012D01*
X51528466Y-201177604D02*
X51539288Y-199351767D01*
X40232168Y-201326338D02*
X39918372Y-201322057D01*
X49471840Y-202977117D02*
X49443293Y-204136360D01*
X49288527Y-198925401D02*
X48876303Y-199437722D01*
X48547113Y-201067732D02*
X48726425Y-200968166D01*
X48284218Y-200614926D02*
X48188527Y-200769218D01*
X48927707Y-200856537D02*
X49120000Y-200750000D01*
X49648051Y-201345654D02*
X49594400Y-201780011D01*
X48390602Y-201161834D02*
X48547113Y-201067732D01*
X49602993Y-198562570D02*
X49288527Y-198925401D01*
X48726425Y-200968166D02*
X48927707Y-200856537D01*
X48876303Y-199437722D02*
X48625279Y-199786831D01*
X49594400Y-201780011D02*
X49471840Y-202977117D01*
X49679813Y-200966058D02*
X49648051Y-201345654D01*
X49694489Y-200649862D02*
X49679813Y-200966058D01*
X50482019Y-197922237D02*
X50109347Y-198137838D01*
X49120000Y-200750000D02*
X49268995Y-200667582D01*
M02*
