G04 #@! TF.GenerationSoftware,KiCad,Pcbnew,(5.1.9)-1*
G04 #@! TF.CreationDate,2021-08-22T22:13:52+01:00*
G04 #@! TF.ProjectId,Simple Mixer Front Panel,53696d70-6c65-4204-9d69-786572204672,rev?*
G04 #@! TF.SameCoordinates,Original*
G04 #@! TF.FileFunction,Copper,L2,Bot*
G04 #@! TF.FilePolarity,Positive*
%FSLAX46Y46*%
G04 Gerber Fmt 4.6, Leading zero omitted, Abs format (unit mm)*
G04 Created by KiCad (PCBNEW (5.1.9)-1) date 2021-08-22 22:13:52*
%MOMM*%
%LPD*%
G01*
G04 APERTURE LIST*
G04 #@! TA.AperFunction,ComponentPad*
%ADD10C,5.500000*%
G04 #@! TD*
G04 #@! TA.AperFunction,ComponentPad*
%ADD11C,14.000000*%
G04 #@! TD*
G04 #@! TA.AperFunction,ComponentPad*
%ADD12C,4.000000*%
G04 #@! TD*
G04 #@! TA.AperFunction,ComponentPad*
%ADD13C,9.000000*%
G04 #@! TD*
G04 #@! TA.AperFunction,Conductor*
%ADD14C,0.254000*%
G04 #@! TD*
G04 #@! TA.AperFunction,Conductor*
%ADD15C,0.100000*%
G04 #@! TD*
G04 APERTURE END LIST*
D10*
X53300000Y-87340000D03*
D11*
X53600000Y-185610000D03*
D12*
X19110000Y-10630000D03*
X19110000Y-204630000D03*
D13*
X53610000Y-107620000D03*
D11*
X28610000Y-185630000D03*
D12*
X63110000Y-204650000D03*
X63110000Y-10650000D03*
D13*
X53610000Y-67630000D03*
D11*
X53600000Y-163650000D03*
D13*
X28610000Y-107620000D03*
D11*
X28600000Y-163600000D03*
D13*
X28620000Y-67630000D03*
D11*
X53570000Y-141650000D03*
D13*
X53610000Y-27620000D03*
D11*
X28620000Y-141630000D03*
D13*
X28620000Y-27630000D03*
D14*
X17658228Y-8415742D02*
X17442106Y-8782501D01*
X19110000Y-10450395D01*
X20777894Y-8782501D01*
X20561772Y-8415742D01*
X20311958Y-8285000D01*
X61940249Y-8285000D01*
X61658228Y-8435742D01*
X61442106Y-8802501D01*
X63110000Y-10470395D01*
X64777894Y-8802501D01*
X64561772Y-8435742D01*
X64273743Y-8285000D01*
X65415001Y-8285000D01*
X65415001Y-9367997D01*
X65324258Y-9198228D01*
X64957499Y-8982106D01*
X63289605Y-10650000D01*
X64957499Y-12317894D01*
X65324258Y-12101772D01*
X65415001Y-11928386D01*
X65415000Y-203367996D01*
X65324258Y-203198228D01*
X64957499Y-202982106D01*
X63289605Y-204650000D01*
X64957499Y-206317894D01*
X65324258Y-206101772D01*
X65415000Y-205928388D01*
X65415000Y-206915000D01*
X64466840Y-206915000D01*
X64561772Y-206864258D01*
X64777894Y-206497499D01*
X63110000Y-204829605D01*
X61442106Y-206497499D01*
X61658228Y-206864258D01*
X61755183Y-206915000D01*
X20429422Y-206915000D01*
X20561772Y-206844258D01*
X20777894Y-206477499D01*
X19110000Y-204809605D01*
X17442106Y-206477499D01*
X17658228Y-206844258D01*
X17793398Y-206915000D01*
X16785000Y-206915000D01*
X16785000Y-205874587D01*
X16895742Y-206081772D01*
X17262501Y-206297894D01*
X18930395Y-204630000D01*
X19289605Y-204630000D01*
X20957499Y-206297894D01*
X21324258Y-206081772D01*
X21564938Y-205621895D01*
X21711275Y-205123902D01*
X21751714Y-204673071D01*
X60462352Y-204673071D01*
X60517727Y-205189159D01*
X60672721Y-205684526D01*
X60895742Y-206101772D01*
X61262501Y-206317894D01*
X62930395Y-204650000D01*
X61262501Y-202982106D01*
X60895742Y-203198228D01*
X60655062Y-203658105D01*
X60508725Y-204156098D01*
X60462352Y-204673071D01*
X21751714Y-204673071D01*
X21757648Y-204606929D01*
X21702273Y-204090841D01*
X21547279Y-203595474D01*
X21324258Y-203178228D01*
X20957499Y-202962106D01*
X19289605Y-204630000D01*
X18930395Y-204630000D01*
X17262501Y-202962106D01*
X16895742Y-203178228D01*
X16785000Y-203389827D01*
X16785000Y-202782501D01*
X17442106Y-202782501D01*
X19110000Y-204450395D01*
X20757894Y-202802501D01*
X61442106Y-202802501D01*
X63110000Y-204470395D01*
X64777894Y-202802501D01*
X64561772Y-202435742D01*
X64101895Y-202195062D01*
X63603902Y-202048725D01*
X63086929Y-202002352D01*
X62570841Y-202057727D01*
X62075474Y-202212721D01*
X61658228Y-202435742D01*
X61442106Y-202802501D01*
X20757894Y-202802501D01*
X20777894Y-202782501D01*
X20561772Y-202415742D01*
X20101895Y-202175062D01*
X19603902Y-202028725D01*
X19086929Y-201982352D01*
X18570841Y-202037727D01*
X18075474Y-202192721D01*
X17658228Y-202415742D01*
X17442106Y-202782501D01*
X16785000Y-202782501D01*
X16785000Y-191031674D01*
X23387932Y-191031674D01*
X24203908Y-191910530D01*
X25513840Y-192649437D01*
X26942756Y-193118591D01*
X28435743Y-193299963D01*
X29935428Y-193186583D01*
X31384176Y-192782807D01*
X32726314Y-192104153D01*
X33016092Y-191910530D01*
X33832068Y-191031674D01*
X33812069Y-191011674D01*
X48377932Y-191011674D01*
X49193908Y-191890530D01*
X50503840Y-192629437D01*
X51932756Y-193098591D01*
X53425743Y-193279963D01*
X54925428Y-193166583D01*
X56374176Y-192762807D01*
X57716314Y-192084153D01*
X58006092Y-191890530D01*
X58822068Y-191011674D01*
X53600000Y-185789605D01*
X48377932Y-191011674D01*
X33812069Y-191011674D01*
X28610000Y-185809605D01*
X23387932Y-191031674D01*
X16785000Y-191031674D01*
X16785000Y-185455743D01*
X20940037Y-185455743D01*
X21053417Y-186955428D01*
X21457193Y-188404176D01*
X22135847Y-189746314D01*
X22329470Y-190036092D01*
X23208326Y-190852068D01*
X28430395Y-185630000D01*
X28789605Y-185630000D01*
X34011674Y-190852068D01*
X34890530Y-190036092D01*
X35629437Y-188726160D01*
X36098591Y-187297244D01*
X36279963Y-185804257D01*
X36252103Y-185435743D01*
X45930037Y-185435743D01*
X46043417Y-186935428D01*
X46447193Y-188384176D01*
X47125847Y-189726314D01*
X47319470Y-190016092D01*
X48198326Y-190832068D01*
X53420395Y-185610000D01*
X53779605Y-185610000D01*
X59001674Y-190832068D01*
X59880530Y-190016092D01*
X60619437Y-188706160D01*
X61088591Y-187277244D01*
X61269963Y-185784257D01*
X61156583Y-184284572D01*
X60752807Y-182835824D01*
X60074153Y-181493686D01*
X59880530Y-181203908D01*
X59001674Y-180387932D01*
X53779605Y-185610000D01*
X53420395Y-185610000D01*
X48198326Y-180387932D01*
X47319470Y-181203908D01*
X46580563Y-182513840D01*
X46111409Y-183942756D01*
X45930037Y-185435743D01*
X36252103Y-185435743D01*
X36166583Y-184304572D01*
X35762807Y-182855824D01*
X35084153Y-181513686D01*
X34890530Y-181223908D01*
X34011674Y-180407932D01*
X28789605Y-185630000D01*
X28430395Y-185630000D01*
X23208326Y-180407932D01*
X22329470Y-181223908D01*
X21590563Y-182533840D01*
X21121409Y-183962756D01*
X20940037Y-185455743D01*
X16785000Y-185455743D01*
X16785000Y-180228326D01*
X23387932Y-180228326D01*
X28610000Y-185450395D01*
X33832068Y-180228326D01*
X33813499Y-180208326D01*
X48377932Y-180208326D01*
X53600000Y-185430395D01*
X58822068Y-180208326D01*
X58006092Y-179329470D01*
X56696160Y-178590563D01*
X55267244Y-178121409D01*
X53774257Y-177940037D01*
X52274572Y-178053417D01*
X50825824Y-178457193D01*
X49483686Y-179135847D01*
X49193908Y-179329470D01*
X48377932Y-180208326D01*
X33813499Y-180208326D01*
X33016092Y-179349470D01*
X31706160Y-178610563D01*
X30277244Y-178141409D01*
X28784257Y-177960037D01*
X27284572Y-178073417D01*
X25835824Y-178477193D01*
X24493686Y-179155847D01*
X24203908Y-179349470D01*
X23387932Y-180228326D01*
X16785000Y-180228326D01*
X16785000Y-169001674D01*
X23377932Y-169001674D01*
X24193908Y-169880530D01*
X25503840Y-170619437D01*
X26932756Y-171088591D01*
X28425743Y-171269963D01*
X29925428Y-171156583D01*
X31374176Y-170752807D01*
X32716314Y-170074153D01*
X33006092Y-169880530D01*
X33775645Y-169051674D01*
X48377932Y-169051674D01*
X49193908Y-169930530D01*
X50503840Y-170669437D01*
X51932756Y-171138591D01*
X53425743Y-171319963D01*
X54925428Y-171206583D01*
X56374176Y-170802807D01*
X57716314Y-170124153D01*
X58006092Y-169930530D01*
X58822068Y-169051674D01*
X53600000Y-163829605D01*
X48377932Y-169051674D01*
X33775645Y-169051674D01*
X33822068Y-169001674D01*
X28600000Y-163779605D01*
X23377932Y-169001674D01*
X16785000Y-169001674D01*
X16785000Y-163425743D01*
X20930037Y-163425743D01*
X21043417Y-164925428D01*
X21447193Y-166374176D01*
X22125847Y-167716314D01*
X22319470Y-168006092D01*
X23198326Y-168822068D01*
X28420395Y-163600000D01*
X28779605Y-163600000D01*
X34001674Y-168822068D01*
X34880530Y-168006092D01*
X35619437Y-166696160D01*
X36088591Y-165267244D01*
X36269963Y-163774257D01*
X36247395Y-163475743D01*
X45930037Y-163475743D01*
X46043417Y-164975428D01*
X46447193Y-166424176D01*
X47125847Y-167766314D01*
X47319470Y-168056092D01*
X48198326Y-168872068D01*
X53420395Y-163650000D01*
X53779605Y-163650000D01*
X59001674Y-168872068D01*
X59880530Y-168056092D01*
X60619437Y-166746160D01*
X61088591Y-165317244D01*
X61269963Y-163824257D01*
X61156583Y-162324572D01*
X60752807Y-160875824D01*
X60074153Y-159533686D01*
X59880530Y-159243908D01*
X59001674Y-158427932D01*
X53779605Y-163650000D01*
X53420395Y-163650000D01*
X48198326Y-158427932D01*
X47319470Y-159243908D01*
X46580563Y-160553840D01*
X46111409Y-161982756D01*
X45930037Y-163475743D01*
X36247395Y-163475743D01*
X36156583Y-162274572D01*
X35752807Y-160825824D01*
X35074153Y-159483686D01*
X34880530Y-159193908D01*
X34001674Y-158377932D01*
X28779605Y-163600000D01*
X28420395Y-163600000D01*
X23198326Y-158377932D01*
X22319470Y-159193908D01*
X21580563Y-160503840D01*
X21111409Y-161932756D01*
X20930037Y-163425743D01*
X16785000Y-163425743D01*
X16785000Y-158198326D01*
X23377932Y-158198326D01*
X28600000Y-163420395D01*
X33772068Y-158248326D01*
X48377932Y-158248326D01*
X53600000Y-163470395D01*
X58822068Y-158248326D01*
X58006092Y-157369470D01*
X56696160Y-156630563D01*
X55267244Y-156161409D01*
X53774257Y-155980037D01*
X52274572Y-156093417D01*
X50825824Y-156497193D01*
X49483686Y-157175847D01*
X49193908Y-157369470D01*
X48377932Y-158248326D01*
X33772068Y-158248326D01*
X33822068Y-158198326D01*
X33006092Y-157319470D01*
X31696160Y-156580563D01*
X30267244Y-156111409D01*
X28774257Y-155930037D01*
X27274572Y-156043417D01*
X25825824Y-156447193D01*
X24483686Y-157125847D01*
X24193908Y-157319470D01*
X23377932Y-158198326D01*
X16785000Y-158198326D01*
X16785000Y-147031674D01*
X23397932Y-147031674D01*
X24213908Y-147910530D01*
X25523840Y-148649437D01*
X26952756Y-149118591D01*
X28445743Y-149299963D01*
X29945428Y-149186583D01*
X31394176Y-148782807D01*
X32736314Y-148104153D01*
X33026092Y-147910530D01*
X33823498Y-147051674D01*
X48347932Y-147051674D01*
X49163908Y-147930530D01*
X50473840Y-148669437D01*
X51902756Y-149138591D01*
X53395743Y-149319963D01*
X54895428Y-149206583D01*
X56344176Y-148802807D01*
X57686314Y-148124153D01*
X57976092Y-147930530D01*
X58792068Y-147051674D01*
X53570000Y-141829605D01*
X48347932Y-147051674D01*
X33823498Y-147051674D01*
X33842068Y-147031674D01*
X28620000Y-141809605D01*
X23397932Y-147031674D01*
X16785000Y-147031674D01*
X16785000Y-141455743D01*
X20950037Y-141455743D01*
X21063417Y-142955428D01*
X21467193Y-144404176D01*
X22145847Y-145746314D01*
X22339470Y-146036092D01*
X23218326Y-146852068D01*
X28440395Y-141630000D01*
X28799605Y-141630000D01*
X34021674Y-146852068D01*
X34900530Y-146036092D01*
X35639437Y-144726160D01*
X36108591Y-143297244D01*
X36289963Y-141804257D01*
X36265127Y-141475743D01*
X45900037Y-141475743D01*
X46013417Y-142975428D01*
X46417193Y-144424176D01*
X47095847Y-145766314D01*
X47289470Y-146056092D01*
X48168326Y-146872068D01*
X53390395Y-141650000D01*
X53749605Y-141650000D01*
X58971674Y-146872068D01*
X59850530Y-146056092D01*
X60589437Y-144746160D01*
X61058591Y-143317244D01*
X61239963Y-141824257D01*
X61126583Y-140324572D01*
X60722807Y-138875824D01*
X60044153Y-137533686D01*
X59850530Y-137243908D01*
X58971674Y-136427932D01*
X53749605Y-141650000D01*
X53390395Y-141650000D01*
X48168326Y-136427932D01*
X47289470Y-137243908D01*
X46550563Y-138553840D01*
X46081409Y-139982756D01*
X45900037Y-141475743D01*
X36265127Y-141475743D01*
X36176583Y-140304572D01*
X35772807Y-138855824D01*
X35094153Y-137513686D01*
X34900530Y-137223908D01*
X34021674Y-136407932D01*
X28799605Y-141630000D01*
X28440395Y-141630000D01*
X23218326Y-136407932D01*
X22339470Y-137223908D01*
X21600563Y-138533840D01*
X21131409Y-139962756D01*
X20950037Y-141455743D01*
X16785000Y-141455743D01*
X16785000Y-136228326D01*
X23397932Y-136228326D01*
X28620000Y-141450395D01*
X33822068Y-136248326D01*
X48347932Y-136248326D01*
X53570000Y-141470395D01*
X58792068Y-136248326D01*
X57976092Y-135369470D01*
X56666160Y-134630563D01*
X55237244Y-134161409D01*
X53744257Y-133980037D01*
X52244572Y-134093417D01*
X50795824Y-134497193D01*
X49453686Y-135175847D01*
X49163908Y-135369470D01*
X48347932Y-136248326D01*
X33822068Y-136248326D01*
X33842068Y-136228326D01*
X33026092Y-135349470D01*
X31716160Y-134610563D01*
X30287244Y-134141409D01*
X28794257Y-133960037D01*
X27294572Y-134073417D01*
X25845824Y-134477193D01*
X24503686Y-135155847D01*
X24213908Y-135349470D01*
X23397932Y-136228326D01*
X16785000Y-136228326D01*
X16785000Y-111244971D01*
X25164634Y-111244971D01*
X25680783Y-111867788D01*
X26565768Y-112357630D01*
X27529314Y-112665407D01*
X28534389Y-112779293D01*
X29542370Y-112694910D01*
X30514520Y-112415501D01*
X31413481Y-111951803D01*
X31539217Y-111867788D01*
X32055366Y-111244971D01*
X50164634Y-111244971D01*
X50680783Y-111867788D01*
X51565768Y-112357630D01*
X52529314Y-112665407D01*
X53534389Y-112779293D01*
X54542370Y-112694910D01*
X55514520Y-112415501D01*
X56413481Y-111951803D01*
X56539217Y-111867788D01*
X57055366Y-111244971D01*
X53610000Y-107799605D01*
X50164634Y-111244971D01*
X32055366Y-111244971D01*
X28610000Y-107799605D01*
X25164634Y-111244971D01*
X16785000Y-111244971D01*
X16785000Y-107544389D01*
X23450707Y-107544389D01*
X23535090Y-108552370D01*
X23814499Y-109524520D01*
X24278197Y-110423481D01*
X24362212Y-110549217D01*
X24985029Y-111065366D01*
X28430395Y-107620000D01*
X28789605Y-107620000D01*
X32234971Y-111065366D01*
X32857788Y-110549217D01*
X33347630Y-109664232D01*
X33655407Y-108700686D01*
X33769293Y-107695611D01*
X33756634Y-107544389D01*
X48450707Y-107544389D01*
X48535090Y-108552370D01*
X48814499Y-109524520D01*
X49278197Y-110423481D01*
X49362212Y-110549217D01*
X49985029Y-111065366D01*
X53430395Y-107620000D01*
X53789605Y-107620000D01*
X57234971Y-111065366D01*
X57857788Y-110549217D01*
X58347630Y-109664232D01*
X58655407Y-108700686D01*
X58769293Y-107695611D01*
X58684910Y-106687630D01*
X58405501Y-105715480D01*
X57941803Y-104816519D01*
X57857788Y-104690783D01*
X57234971Y-104174634D01*
X53789605Y-107620000D01*
X53430395Y-107620000D01*
X49985029Y-104174634D01*
X49362212Y-104690783D01*
X48872370Y-105575768D01*
X48564593Y-106539314D01*
X48450707Y-107544389D01*
X33756634Y-107544389D01*
X33684910Y-106687630D01*
X33405501Y-105715480D01*
X32941803Y-104816519D01*
X32857788Y-104690783D01*
X32234971Y-104174634D01*
X28789605Y-107620000D01*
X28430395Y-107620000D01*
X24985029Y-104174634D01*
X24362212Y-104690783D01*
X23872370Y-105575768D01*
X23564593Y-106539314D01*
X23450707Y-107544389D01*
X16785000Y-107544389D01*
X16785000Y-103995029D01*
X25164634Y-103995029D01*
X28610000Y-107440395D01*
X32055366Y-103995029D01*
X50164634Y-103995029D01*
X53610000Y-107440395D01*
X57055366Y-103995029D01*
X56539217Y-103372212D01*
X55654232Y-102882370D01*
X54690686Y-102574593D01*
X53685611Y-102460707D01*
X52677630Y-102545090D01*
X51705480Y-102824499D01*
X50806519Y-103288197D01*
X50680783Y-103372212D01*
X50164634Y-103995029D01*
X32055366Y-103995029D01*
X31539217Y-103372212D01*
X30654232Y-102882370D01*
X29690686Y-102574593D01*
X28685611Y-102460707D01*
X27677630Y-102545090D01*
X26705480Y-102824499D01*
X25806519Y-103288197D01*
X25680783Y-103372212D01*
X25164634Y-103995029D01*
X16785000Y-103995029D01*
X16785000Y-87006607D01*
X49915000Y-87006607D01*
X49915000Y-87673393D01*
X50045083Y-88327368D01*
X50300252Y-88943399D01*
X50670698Y-89497812D01*
X51142188Y-89969302D01*
X51696601Y-90339748D01*
X52312632Y-90594917D01*
X52966607Y-90725000D01*
X53633393Y-90725000D01*
X54287368Y-90594917D01*
X54903399Y-90339748D01*
X55457812Y-89969302D01*
X55929302Y-89497812D01*
X56299748Y-88943399D01*
X56554917Y-88327368D01*
X56685000Y-87673393D01*
X56685000Y-87006607D01*
X56554917Y-86352632D01*
X56299748Y-85736601D01*
X55929302Y-85182188D01*
X55457812Y-84710698D01*
X54903399Y-84340252D01*
X54287368Y-84085083D01*
X53633393Y-83955000D01*
X52966607Y-83955000D01*
X52312632Y-84085083D01*
X51696601Y-84340252D01*
X51142188Y-84710698D01*
X50670698Y-85182188D01*
X50300252Y-85736601D01*
X50045083Y-86352632D01*
X49915000Y-87006607D01*
X16785000Y-87006607D01*
X16785000Y-71254971D01*
X25174634Y-71254971D01*
X25690783Y-71877788D01*
X26575768Y-72367630D01*
X27539314Y-72675407D01*
X28544389Y-72789293D01*
X29552370Y-72704910D01*
X30524520Y-72425501D01*
X31423481Y-71961803D01*
X31549217Y-71877788D01*
X32065366Y-71254971D01*
X50164634Y-71254971D01*
X50680783Y-71877788D01*
X51565768Y-72367630D01*
X52529314Y-72675407D01*
X53534389Y-72789293D01*
X54542370Y-72704910D01*
X55514520Y-72425501D01*
X56413481Y-71961803D01*
X56539217Y-71877788D01*
X57055366Y-71254971D01*
X53610000Y-67809605D01*
X50164634Y-71254971D01*
X32065366Y-71254971D01*
X28620000Y-67809605D01*
X25174634Y-71254971D01*
X16785000Y-71254971D01*
X16785000Y-67554389D01*
X23460707Y-67554389D01*
X23545090Y-68562370D01*
X23824499Y-69534520D01*
X24288197Y-70433481D01*
X24372212Y-70559217D01*
X24995029Y-71075366D01*
X28440395Y-67630000D01*
X28799605Y-67630000D01*
X32244971Y-71075366D01*
X32867788Y-70559217D01*
X33357630Y-69674232D01*
X33665407Y-68710686D01*
X33779293Y-67705611D01*
X33766634Y-67554389D01*
X48450707Y-67554389D01*
X48535090Y-68562370D01*
X48814499Y-69534520D01*
X49278197Y-70433481D01*
X49362212Y-70559217D01*
X49985029Y-71075366D01*
X53430395Y-67630000D01*
X53789605Y-67630000D01*
X57234971Y-71075366D01*
X57857788Y-70559217D01*
X58347630Y-69674232D01*
X58655407Y-68710686D01*
X58769293Y-67705611D01*
X58684910Y-66697630D01*
X58405501Y-65725480D01*
X57941803Y-64826519D01*
X57857788Y-64700783D01*
X57234971Y-64184634D01*
X53789605Y-67630000D01*
X53430395Y-67630000D01*
X49985029Y-64184634D01*
X49362212Y-64700783D01*
X48872370Y-65585768D01*
X48564593Y-66549314D01*
X48450707Y-67554389D01*
X33766634Y-67554389D01*
X33694910Y-66697630D01*
X33415501Y-65725480D01*
X32951803Y-64826519D01*
X32867788Y-64700783D01*
X32244971Y-64184634D01*
X28799605Y-67630000D01*
X28440395Y-67630000D01*
X24995029Y-64184634D01*
X24372212Y-64700783D01*
X23882370Y-65585768D01*
X23574593Y-66549314D01*
X23460707Y-67554389D01*
X16785000Y-67554389D01*
X16785000Y-64005029D01*
X25174634Y-64005029D01*
X28620000Y-67450395D01*
X32065366Y-64005029D01*
X50164634Y-64005029D01*
X53610000Y-67450395D01*
X57055366Y-64005029D01*
X56539217Y-63382212D01*
X55654232Y-62892370D01*
X54690686Y-62584593D01*
X53685611Y-62470707D01*
X52677630Y-62555090D01*
X51705480Y-62834499D01*
X50806519Y-63298197D01*
X50680783Y-63382212D01*
X50164634Y-64005029D01*
X32065366Y-64005029D01*
X31549217Y-63382212D01*
X30664232Y-62892370D01*
X29700686Y-62584593D01*
X28695611Y-62470707D01*
X27687630Y-62555090D01*
X26715480Y-62834499D01*
X25816519Y-63298197D01*
X25690783Y-63382212D01*
X25174634Y-64005029D01*
X16785000Y-64005029D01*
X16785000Y-31254971D01*
X25174634Y-31254971D01*
X25690783Y-31877788D01*
X26575768Y-32367630D01*
X27539314Y-32675407D01*
X28544389Y-32789293D01*
X29552370Y-32704910D01*
X30524520Y-32425501D01*
X31423481Y-31961803D01*
X31549217Y-31877788D01*
X32065366Y-31254971D01*
X32055366Y-31244971D01*
X50164634Y-31244971D01*
X50680783Y-31867788D01*
X51565768Y-32357630D01*
X52529314Y-32665407D01*
X53534389Y-32779293D01*
X54542370Y-32694910D01*
X55514520Y-32415501D01*
X56413481Y-31951803D01*
X56539217Y-31867788D01*
X57055366Y-31244971D01*
X53610000Y-27799605D01*
X50164634Y-31244971D01*
X32055366Y-31244971D01*
X28620000Y-27809605D01*
X25174634Y-31254971D01*
X16785000Y-31254971D01*
X16785000Y-27554389D01*
X23460707Y-27554389D01*
X23545090Y-28562370D01*
X23824499Y-29534520D01*
X24288197Y-30433481D01*
X24372212Y-30559217D01*
X24995029Y-31075366D01*
X28440395Y-27630000D01*
X28799605Y-27630000D01*
X32244971Y-31075366D01*
X32867788Y-30559217D01*
X33357630Y-29674232D01*
X33665407Y-28710686D01*
X33779293Y-27705611D01*
X33765797Y-27544389D01*
X48450707Y-27544389D01*
X48535090Y-28552370D01*
X48814499Y-29524520D01*
X49278197Y-30423481D01*
X49362212Y-30549217D01*
X49985029Y-31065366D01*
X53430395Y-27620000D01*
X53789605Y-27620000D01*
X57234971Y-31065366D01*
X57857788Y-30549217D01*
X58347630Y-29664232D01*
X58655407Y-28700686D01*
X58769293Y-27695611D01*
X58684910Y-26687630D01*
X58405501Y-25715480D01*
X57941803Y-24816519D01*
X57857788Y-24690783D01*
X57234971Y-24174634D01*
X53789605Y-27620000D01*
X53430395Y-27620000D01*
X49985029Y-24174634D01*
X49362212Y-24690783D01*
X48872370Y-25575768D01*
X48564593Y-26539314D01*
X48450707Y-27544389D01*
X33765797Y-27544389D01*
X33694910Y-26697630D01*
X33415501Y-25725480D01*
X32951803Y-24826519D01*
X32867788Y-24700783D01*
X32244971Y-24184634D01*
X28799605Y-27630000D01*
X28440395Y-27630000D01*
X24995029Y-24184634D01*
X24372212Y-24700783D01*
X23882370Y-25585768D01*
X23574593Y-26549314D01*
X23460707Y-27554389D01*
X16785000Y-27554389D01*
X16785000Y-24005029D01*
X25174634Y-24005029D01*
X28620000Y-27450395D01*
X32065366Y-24005029D01*
X32057079Y-23995029D01*
X50164634Y-23995029D01*
X53610000Y-27440395D01*
X57055366Y-23995029D01*
X56539217Y-23372212D01*
X55654232Y-22882370D01*
X54690686Y-22574593D01*
X53685611Y-22460707D01*
X52677630Y-22545090D01*
X51705480Y-22824499D01*
X50806519Y-23288197D01*
X50680783Y-23372212D01*
X50164634Y-23995029D01*
X32057079Y-23995029D01*
X31549217Y-23382212D01*
X30664232Y-22892370D01*
X29700686Y-22584593D01*
X28695611Y-22470707D01*
X27687630Y-22555090D01*
X26715480Y-22834499D01*
X25816519Y-23298197D01*
X25690783Y-23382212D01*
X25174634Y-24005029D01*
X16785000Y-24005029D01*
X16785000Y-12477499D01*
X17442106Y-12477499D01*
X17658228Y-12844258D01*
X18118105Y-13084938D01*
X18616098Y-13231275D01*
X19133071Y-13277648D01*
X19649159Y-13222273D01*
X20144526Y-13067279D01*
X20561772Y-12844258D01*
X20766108Y-12497499D01*
X61442106Y-12497499D01*
X61658228Y-12864258D01*
X62118105Y-13104938D01*
X62616098Y-13251275D01*
X63133071Y-13297648D01*
X63649159Y-13242273D01*
X64144526Y-13087279D01*
X64561772Y-12864258D01*
X64777894Y-12497499D01*
X63110000Y-10829605D01*
X61442106Y-12497499D01*
X20766108Y-12497499D01*
X20777894Y-12477499D01*
X19110000Y-10809605D01*
X17442106Y-12477499D01*
X16785000Y-12477499D01*
X16785000Y-11874587D01*
X16895742Y-12081772D01*
X17262501Y-12297894D01*
X18930395Y-10630000D01*
X19289605Y-10630000D01*
X20957499Y-12297894D01*
X21324258Y-12081772D01*
X21564938Y-11621895D01*
X21711275Y-11123902D01*
X21751714Y-10673071D01*
X60462352Y-10673071D01*
X60517727Y-11189159D01*
X60672721Y-11684526D01*
X60895742Y-12101772D01*
X61262501Y-12317894D01*
X62930395Y-10650000D01*
X61262501Y-8982106D01*
X60895742Y-9198228D01*
X60655062Y-9658105D01*
X60508725Y-10156098D01*
X60462352Y-10673071D01*
X21751714Y-10673071D01*
X21757648Y-10606929D01*
X21702273Y-10090841D01*
X21547279Y-9595474D01*
X21324258Y-9178228D01*
X20957499Y-8962106D01*
X19289605Y-10630000D01*
X18930395Y-10630000D01*
X17262501Y-8962106D01*
X16895742Y-9178228D01*
X16785000Y-9389827D01*
X16785000Y-8285000D01*
X17902831Y-8285000D01*
X17658228Y-8415742D01*
G04 #@! TA.AperFunction,Conductor*
D15*
G36*
X17658228Y-8415742D02*
G01*
X17442106Y-8782501D01*
X19110000Y-10450395D01*
X20777894Y-8782501D01*
X20561772Y-8415742D01*
X20311958Y-8285000D01*
X61940249Y-8285000D01*
X61658228Y-8435742D01*
X61442106Y-8802501D01*
X63110000Y-10470395D01*
X64777894Y-8802501D01*
X64561772Y-8435742D01*
X64273743Y-8285000D01*
X65415001Y-8285000D01*
X65415001Y-9367997D01*
X65324258Y-9198228D01*
X64957499Y-8982106D01*
X63289605Y-10650000D01*
X64957499Y-12317894D01*
X65324258Y-12101772D01*
X65415001Y-11928386D01*
X65415000Y-203367996D01*
X65324258Y-203198228D01*
X64957499Y-202982106D01*
X63289605Y-204650000D01*
X64957499Y-206317894D01*
X65324258Y-206101772D01*
X65415000Y-205928388D01*
X65415000Y-206915000D01*
X64466840Y-206915000D01*
X64561772Y-206864258D01*
X64777894Y-206497499D01*
X63110000Y-204829605D01*
X61442106Y-206497499D01*
X61658228Y-206864258D01*
X61755183Y-206915000D01*
X20429422Y-206915000D01*
X20561772Y-206844258D01*
X20777894Y-206477499D01*
X19110000Y-204809605D01*
X17442106Y-206477499D01*
X17658228Y-206844258D01*
X17793398Y-206915000D01*
X16785000Y-206915000D01*
X16785000Y-205874587D01*
X16895742Y-206081772D01*
X17262501Y-206297894D01*
X18930395Y-204630000D01*
X19289605Y-204630000D01*
X20957499Y-206297894D01*
X21324258Y-206081772D01*
X21564938Y-205621895D01*
X21711275Y-205123902D01*
X21751714Y-204673071D01*
X60462352Y-204673071D01*
X60517727Y-205189159D01*
X60672721Y-205684526D01*
X60895742Y-206101772D01*
X61262501Y-206317894D01*
X62930395Y-204650000D01*
X61262501Y-202982106D01*
X60895742Y-203198228D01*
X60655062Y-203658105D01*
X60508725Y-204156098D01*
X60462352Y-204673071D01*
X21751714Y-204673071D01*
X21757648Y-204606929D01*
X21702273Y-204090841D01*
X21547279Y-203595474D01*
X21324258Y-203178228D01*
X20957499Y-202962106D01*
X19289605Y-204630000D01*
X18930395Y-204630000D01*
X17262501Y-202962106D01*
X16895742Y-203178228D01*
X16785000Y-203389827D01*
X16785000Y-202782501D01*
X17442106Y-202782501D01*
X19110000Y-204450395D01*
X20757894Y-202802501D01*
X61442106Y-202802501D01*
X63110000Y-204470395D01*
X64777894Y-202802501D01*
X64561772Y-202435742D01*
X64101895Y-202195062D01*
X63603902Y-202048725D01*
X63086929Y-202002352D01*
X62570841Y-202057727D01*
X62075474Y-202212721D01*
X61658228Y-202435742D01*
X61442106Y-202802501D01*
X20757894Y-202802501D01*
X20777894Y-202782501D01*
X20561772Y-202415742D01*
X20101895Y-202175062D01*
X19603902Y-202028725D01*
X19086929Y-201982352D01*
X18570841Y-202037727D01*
X18075474Y-202192721D01*
X17658228Y-202415742D01*
X17442106Y-202782501D01*
X16785000Y-202782501D01*
X16785000Y-191031674D01*
X23387932Y-191031674D01*
X24203908Y-191910530D01*
X25513840Y-192649437D01*
X26942756Y-193118591D01*
X28435743Y-193299963D01*
X29935428Y-193186583D01*
X31384176Y-192782807D01*
X32726314Y-192104153D01*
X33016092Y-191910530D01*
X33832068Y-191031674D01*
X33812069Y-191011674D01*
X48377932Y-191011674D01*
X49193908Y-191890530D01*
X50503840Y-192629437D01*
X51932756Y-193098591D01*
X53425743Y-193279963D01*
X54925428Y-193166583D01*
X56374176Y-192762807D01*
X57716314Y-192084153D01*
X58006092Y-191890530D01*
X58822068Y-191011674D01*
X53600000Y-185789605D01*
X48377932Y-191011674D01*
X33812069Y-191011674D01*
X28610000Y-185809605D01*
X23387932Y-191031674D01*
X16785000Y-191031674D01*
X16785000Y-185455743D01*
X20940037Y-185455743D01*
X21053417Y-186955428D01*
X21457193Y-188404176D01*
X22135847Y-189746314D01*
X22329470Y-190036092D01*
X23208326Y-190852068D01*
X28430395Y-185630000D01*
X28789605Y-185630000D01*
X34011674Y-190852068D01*
X34890530Y-190036092D01*
X35629437Y-188726160D01*
X36098591Y-187297244D01*
X36279963Y-185804257D01*
X36252103Y-185435743D01*
X45930037Y-185435743D01*
X46043417Y-186935428D01*
X46447193Y-188384176D01*
X47125847Y-189726314D01*
X47319470Y-190016092D01*
X48198326Y-190832068D01*
X53420395Y-185610000D01*
X53779605Y-185610000D01*
X59001674Y-190832068D01*
X59880530Y-190016092D01*
X60619437Y-188706160D01*
X61088591Y-187277244D01*
X61269963Y-185784257D01*
X61156583Y-184284572D01*
X60752807Y-182835824D01*
X60074153Y-181493686D01*
X59880530Y-181203908D01*
X59001674Y-180387932D01*
X53779605Y-185610000D01*
X53420395Y-185610000D01*
X48198326Y-180387932D01*
X47319470Y-181203908D01*
X46580563Y-182513840D01*
X46111409Y-183942756D01*
X45930037Y-185435743D01*
X36252103Y-185435743D01*
X36166583Y-184304572D01*
X35762807Y-182855824D01*
X35084153Y-181513686D01*
X34890530Y-181223908D01*
X34011674Y-180407932D01*
X28789605Y-185630000D01*
X28430395Y-185630000D01*
X23208326Y-180407932D01*
X22329470Y-181223908D01*
X21590563Y-182533840D01*
X21121409Y-183962756D01*
X20940037Y-185455743D01*
X16785000Y-185455743D01*
X16785000Y-180228326D01*
X23387932Y-180228326D01*
X28610000Y-185450395D01*
X33832068Y-180228326D01*
X33813499Y-180208326D01*
X48377932Y-180208326D01*
X53600000Y-185430395D01*
X58822068Y-180208326D01*
X58006092Y-179329470D01*
X56696160Y-178590563D01*
X55267244Y-178121409D01*
X53774257Y-177940037D01*
X52274572Y-178053417D01*
X50825824Y-178457193D01*
X49483686Y-179135847D01*
X49193908Y-179329470D01*
X48377932Y-180208326D01*
X33813499Y-180208326D01*
X33016092Y-179349470D01*
X31706160Y-178610563D01*
X30277244Y-178141409D01*
X28784257Y-177960037D01*
X27284572Y-178073417D01*
X25835824Y-178477193D01*
X24493686Y-179155847D01*
X24203908Y-179349470D01*
X23387932Y-180228326D01*
X16785000Y-180228326D01*
X16785000Y-169001674D01*
X23377932Y-169001674D01*
X24193908Y-169880530D01*
X25503840Y-170619437D01*
X26932756Y-171088591D01*
X28425743Y-171269963D01*
X29925428Y-171156583D01*
X31374176Y-170752807D01*
X32716314Y-170074153D01*
X33006092Y-169880530D01*
X33775645Y-169051674D01*
X48377932Y-169051674D01*
X49193908Y-169930530D01*
X50503840Y-170669437D01*
X51932756Y-171138591D01*
X53425743Y-171319963D01*
X54925428Y-171206583D01*
X56374176Y-170802807D01*
X57716314Y-170124153D01*
X58006092Y-169930530D01*
X58822068Y-169051674D01*
X53600000Y-163829605D01*
X48377932Y-169051674D01*
X33775645Y-169051674D01*
X33822068Y-169001674D01*
X28600000Y-163779605D01*
X23377932Y-169001674D01*
X16785000Y-169001674D01*
X16785000Y-163425743D01*
X20930037Y-163425743D01*
X21043417Y-164925428D01*
X21447193Y-166374176D01*
X22125847Y-167716314D01*
X22319470Y-168006092D01*
X23198326Y-168822068D01*
X28420395Y-163600000D01*
X28779605Y-163600000D01*
X34001674Y-168822068D01*
X34880530Y-168006092D01*
X35619437Y-166696160D01*
X36088591Y-165267244D01*
X36269963Y-163774257D01*
X36247395Y-163475743D01*
X45930037Y-163475743D01*
X46043417Y-164975428D01*
X46447193Y-166424176D01*
X47125847Y-167766314D01*
X47319470Y-168056092D01*
X48198326Y-168872068D01*
X53420395Y-163650000D01*
X53779605Y-163650000D01*
X59001674Y-168872068D01*
X59880530Y-168056092D01*
X60619437Y-166746160D01*
X61088591Y-165317244D01*
X61269963Y-163824257D01*
X61156583Y-162324572D01*
X60752807Y-160875824D01*
X60074153Y-159533686D01*
X59880530Y-159243908D01*
X59001674Y-158427932D01*
X53779605Y-163650000D01*
X53420395Y-163650000D01*
X48198326Y-158427932D01*
X47319470Y-159243908D01*
X46580563Y-160553840D01*
X46111409Y-161982756D01*
X45930037Y-163475743D01*
X36247395Y-163475743D01*
X36156583Y-162274572D01*
X35752807Y-160825824D01*
X35074153Y-159483686D01*
X34880530Y-159193908D01*
X34001674Y-158377932D01*
X28779605Y-163600000D01*
X28420395Y-163600000D01*
X23198326Y-158377932D01*
X22319470Y-159193908D01*
X21580563Y-160503840D01*
X21111409Y-161932756D01*
X20930037Y-163425743D01*
X16785000Y-163425743D01*
X16785000Y-158198326D01*
X23377932Y-158198326D01*
X28600000Y-163420395D01*
X33772068Y-158248326D01*
X48377932Y-158248326D01*
X53600000Y-163470395D01*
X58822068Y-158248326D01*
X58006092Y-157369470D01*
X56696160Y-156630563D01*
X55267244Y-156161409D01*
X53774257Y-155980037D01*
X52274572Y-156093417D01*
X50825824Y-156497193D01*
X49483686Y-157175847D01*
X49193908Y-157369470D01*
X48377932Y-158248326D01*
X33772068Y-158248326D01*
X33822068Y-158198326D01*
X33006092Y-157319470D01*
X31696160Y-156580563D01*
X30267244Y-156111409D01*
X28774257Y-155930037D01*
X27274572Y-156043417D01*
X25825824Y-156447193D01*
X24483686Y-157125847D01*
X24193908Y-157319470D01*
X23377932Y-158198326D01*
X16785000Y-158198326D01*
X16785000Y-147031674D01*
X23397932Y-147031674D01*
X24213908Y-147910530D01*
X25523840Y-148649437D01*
X26952756Y-149118591D01*
X28445743Y-149299963D01*
X29945428Y-149186583D01*
X31394176Y-148782807D01*
X32736314Y-148104153D01*
X33026092Y-147910530D01*
X33823498Y-147051674D01*
X48347932Y-147051674D01*
X49163908Y-147930530D01*
X50473840Y-148669437D01*
X51902756Y-149138591D01*
X53395743Y-149319963D01*
X54895428Y-149206583D01*
X56344176Y-148802807D01*
X57686314Y-148124153D01*
X57976092Y-147930530D01*
X58792068Y-147051674D01*
X53570000Y-141829605D01*
X48347932Y-147051674D01*
X33823498Y-147051674D01*
X33842068Y-147031674D01*
X28620000Y-141809605D01*
X23397932Y-147031674D01*
X16785000Y-147031674D01*
X16785000Y-141455743D01*
X20950037Y-141455743D01*
X21063417Y-142955428D01*
X21467193Y-144404176D01*
X22145847Y-145746314D01*
X22339470Y-146036092D01*
X23218326Y-146852068D01*
X28440395Y-141630000D01*
X28799605Y-141630000D01*
X34021674Y-146852068D01*
X34900530Y-146036092D01*
X35639437Y-144726160D01*
X36108591Y-143297244D01*
X36289963Y-141804257D01*
X36265127Y-141475743D01*
X45900037Y-141475743D01*
X46013417Y-142975428D01*
X46417193Y-144424176D01*
X47095847Y-145766314D01*
X47289470Y-146056092D01*
X48168326Y-146872068D01*
X53390395Y-141650000D01*
X53749605Y-141650000D01*
X58971674Y-146872068D01*
X59850530Y-146056092D01*
X60589437Y-144746160D01*
X61058591Y-143317244D01*
X61239963Y-141824257D01*
X61126583Y-140324572D01*
X60722807Y-138875824D01*
X60044153Y-137533686D01*
X59850530Y-137243908D01*
X58971674Y-136427932D01*
X53749605Y-141650000D01*
X53390395Y-141650000D01*
X48168326Y-136427932D01*
X47289470Y-137243908D01*
X46550563Y-138553840D01*
X46081409Y-139982756D01*
X45900037Y-141475743D01*
X36265127Y-141475743D01*
X36176583Y-140304572D01*
X35772807Y-138855824D01*
X35094153Y-137513686D01*
X34900530Y-137223908D01*
X34021674Y-136407932D01*
X28799605Y-141630000D01*
X28440395Y-141630000D01*
X23218326Y-136407932D01*
X22339470Y-137223908D01*
X21600563Y-138533840D01*
X21131409Y-139962756D01*
X20950037Y-141455743D01*
X16785000Y-141455743D01*
X16785000Y-136228326D01*
X23397932Y-136228326D01*
X28620000Y-141450395D01*
X33822068Y-136248326D01*
X48347932Y-136248326D01*
X53570000Y-141470395D01*
X58792068Y-136248326D01*
X57976092Y-135369470D01*
X56666160Y-134630563D01*
X55237244Y-134161409D01*
X53744257Y-133980037D01*
X52244572Y-134093417D01*
X50795824Y-134497193D01*
X49453686Y-135175847D01*
X49163908Y-135369470D01*
X48347932Y-136248326D01*
X33822068Y-136248326D01*
X33842068Y-136228326D01*
X33026092Y-135349470D01*
X31716160Y-134610563D01*
X30287244Y-134141409D01*
X28794257Y-133960037D01*
X27294572Y-134073417D01*
X25845824Y-134477193D01*
X24503686Y-135155847D01*
X24213908Y-135349470D01*
X23397932Y-136228326D01*
X16785000Y-136228326D01*
X16785000Y-111244971D01*
X25164634Y-111244971D01*
X25680783Y-111867788D01*
X26565768Y-112357630D01*
X27529314Y-112665407D01*
X28534389Y-112779293D01*
X29542370Y-112694910D01*
X30514520Y-112415501D01*
X31413481Y-111951803D01*
X31539217Y-111867788D01*
X32055366Y-111244971D01*
X50164634Y-111244971D01*
X50680783Y-111867788D01*
X51565768Y-112357630D01*
X52529314Y-112665407D01*
X53534389Y-112779293D01*
X54542370Y-112694910D01*
X55514520Y-112415501D01*
X56413481Y-111951803D01*
X56539217Y-111867788D01*
X57055366Y-111244971D01*
X53610000Y-107799605D01*
X50164634Y-111244971D01*
X32055366Y-111244971D01*
X28610000Y-107799605D01*
X25164634Y-111244971D01*
X16785000Y-111244971D01*
X16785000Y-107544389D01*
X23450707Y-107544389D01*
X23535090Y-108552370D01*
X23814499Y-109524520D01*
X24278197Y-110423481D01*
X24362212Y-110549217D01*
X24985029Y-111065366D01*
X28430395Y-107620000D01*
X28789605Y-107620000D01*
X32234971Y-111065366D01*
X32857788Y-110549217D01*
X33347630Y-109664232D01*
X33655407Y-108700686D01*
X33769293Y-107695611D01*
X33756634Y-107544389D01*
X48450707Y-107544389D01*
X48535090Y-108552370D01*
X48814499Y-109524520D01*
X49278197Y-110423481D01*
X49362212Y-110549217D01*
X49985029Y-111065366D01*
X53430395Y-107620000D01*
X53789605Y-107620000D01*
X57234971Y-111065366D01*
X57857788Y-110549217D01*
X58347630Y-109664232D01*
X58655407Y-108700686D01*
X58769293Y-107695611D01*
X58684910Y-106687630D01*
X58405501Y-105715480D01*
X57941803Y-104816519D01*
X57857788Y-104690783D01*
X57234971Y-104174634D01*
X53789605Y-107620000D01*
X53430395Y-107620000D01*
X49985029Y-104174634D01*
X49362212Y-104690783D01*
X48872370Y-105575768D01*
X48564593Y-106539314D01*
X48450707Y-107544389D01*
X33756634Y-107544389D01*
X33684910Y-106687630D01*
X33405501Y-105715480D01*
X32941803Y-104816519D01*
X32857788Y-104690783D01*
X32234971Y-104174634D01*
X28789605Y-107620000D01*
X28430395Y-107620000D01*
X24985029Y-104174634D01*
X24362212Y-104690783D01*
X23872370Y-105575768D01*
X23564593Y-106539314D01*
X23450707Y-107544389D01*
X16785000Y-107544389D01*
X16785000Y-103995029D01*
X25164634Y-103995029D01*
X28610000Y-107440395D01*
X32055366Y-103995029D01*
X50164634Y-103995029D01*
X53610000Y-107440395D01*
X57055366Y-103995029D01*
X56539217Y-103372212D01*
X55654232Y-102882370D01*
X54690686Y-102574593D01*
X53685611Y-102460707D01*
X52677630Y-102545090D01*
X51705480Y-102824499D01*
X50806519Y-103288197D01*
X50680783Y-103372212D01*
X50164634Y-103995029D01*
X32055366Y-103995029D01*
X31539217Y-103372212D01*
X30654232Y-102882370D01*
X29690686Y-102574593D01*
X28685611Y-102460707D01*
X27677630Y-102545090D01*
X26705480Y-102824499D01*
X25806519Y-103288197D01*
X25680783Y-103372212D01*
X25164634Y-103995029D01*
X16785000Y-103995029D01*
X16785000Y-87006607D01*
X49915000Y-87006607D01*
X49915000Y-87673393D01*
X50045083Y-88327368D01*
X50300252Y-88943399D01*
X50670698Y-89497812D01*
X51142188Y-89969302D01*
X51696601Y-90339748D01*
X52312632Y-90594917D01*
X52966607Y-90725000D01*
X53633393Y-90725000D01*
X54287368Y-90594917D01*
X54903399Y-90339748D01*
X55457812Y-89969302D01*
X55929302Y-89497812D01*
X56299748Y-88943399D01*
X56554917Y-88327368D01*
X56685000Y-87673393D01*
X56685000Y-87006607D01*
X56554917Y-86352632D01*
X56299748Y-85736601D01*
X55929302Y-85182188D01*
X55457812Y-84710698D01*
X54903399Y-84340252D01*
X54287368Y-84085083D01*
X53633393Y-83955000D01*
X52966607Y-83955000D01*
X52312632Y-84085083D01*
X51696601Y-84340252D01*
X51142188Y-84710698D01*
X50670698Y-85182188D01*
X50300252Y-85736601D01*
X50045083Y-86352632D01*
X49915000Y-87006607D01*
X16785000Y-87006607D01*
X16785000Y-71254971D01*
X25174634Y-71254971D01*
X25690783Y-71877788D01*
X26575768Y-72367630D01*
X27539314Y-72675407D01*
X28544389Y-72789293D01*
X29552370Y-72704910D01*
X30524520Y-72425501D01*
X31423481Y-71961803D01*
X31549217Y-71877788D01*
X32065366Y-71254971D01*
X50164634Y-71254971D01*
X50680783Y-71877788D01*
X51565768Y-72367630D01*
X52529314Y-72675407D01*
X53534389Y-72789293D01*
X54542370Y-72704910D01*
X55514520Y-72425501D01*
X56413481Y-71961803D01*
X56539217Y-71877788D01*
X57055366Y-71254971D01*
X53610000Y-67809605D01*
X50164634Y-71254971D01*
X32065366Y-71254971D01*
X28620000Y-67809605D01*
X25174634Y-71254971D01*
X16785000Y-71254971D01*
X16785000Y-67554389D01*
X23460707Y-67554389D01*
X23545090Y-68562370D01*
X23824499Y-69534520D01*
X24288197Y-70433481D01*
X24372212Y-70559217D01*
X24995029Y-71075366D01*
X28440395Y-67630000D01*
X28799605Y-67630000D01*
X32244971Y-71075366D01*
X32867788Y-70559217D01*
X33357630Y-69674232D01*
X33665407Y-68710686D01*
X33779293Y-67705611D01*
X33766634Y-67554389D01*
X48450707Y-67554389D01*
X48535090Y-68562370D01*
X48814499Y-69534520D01*
X49278197Y-70433481D01*
X49362212Y-70559217D01*
X49985029Y-71075366D01*
X53430395Y-67630000D01*
X53789605Y-67630000D01*
X57234971Y-71075366D01*
X57857788Y-70559217D01*
X58347630Y-69674232D01*
X58655407Y-68710686D01*
X58769293Y-67705611D01*
X58684910Y-66697630D01*
X58405501Y-65725480D01*
X57941803Y-64826519D01*
X57857788Y-64700783D01*
X57234971Y-64184634D01*
X53789605Y-67630000D01*
X53430395Y-67630000D01*
X49985029Y-64184634D01*
X49362212Y-64700783D01*
X48872370Y-65585768D01*
X48564593Y-66549314D01*
X48450707Y-67554389D01*
X33766634Y-67554389D01*
X33694910Y-66697630D01*
X33415501Y-65725480D01*
X32951803Y-64826519D01*
X32867788Y-64700783D01*
X32244971Y-64184634D01*
X28799605Y-67630000D01*
X28440395Y-67630000D01*
X24995029Y-64184634D01*
X24372212Y-64700783D01*
X23882370Y-65585768D01*
X23574593Y-66549314D01*
X23460707Y-67554389D01*
X16785000Y-67554389D01*
X16785000Y-64005029D01*
X25174634Y-64005029D01*
X28620000Y-67450395D01*
X32065366Y-64005029D01*
X50164634Y-64005029D01*
X53610000Y-67450395D01*
X57055366Y-64005029D01*
X56539217Y-63382212D01*
X55654232Y-62892370D01*
X54690686Y-62584593D01*
X53685611Y-62470707D01*
X52677630Y-62555090D01*
X51705480Y-62834499D01*
X50806519Y-63298197D01*
X50680783Y-63382212D01*
X50164634Y-64005029D01*
X32065366Y-64005029D01*
X31549217Y-63382212D01*
X30664232Y-62892370D01*
X29700686Y-62584593D01*
X28695611Y-62470707D01*
X27687630Y-62555090D01*
X26715480Y-62834499D01*
X25816519Y-63298197D01*
X25690783Y-63382212D01*
X25174634Y-64005029D01*
X16785000Y-64005029D01*
X16785000Y-31254971D01*
X25174634Y-31254971D01*
X25690783Y-31877788D01*
X26575768Y-32367630D01*
X27539314Y-32675407D01*
X28544389Y-32789293D01*
X29552370Y-32704910D01*
X30524520Y-32425501D01*
X31423481Y-31961803D01*
X31549217Y-31877788D01*
X32065366Y-31254971D01*
X32055366Y-31244971D01*
X50164634Y-31244971D01*
X50680783Y-31867788D01*
X51565768Y-32357630D01*
X52529314Y-32665407D01*
X53534389Y-32779293D01*
X54542370Y-32694910D01*
X55514520Y-32415501D01*
X56413481Y-31951803D01*
X56539217Y-31867788D01*
X57055366Y-31244971D01*
X53610000Y-27799605D01*
X50164634Y-31244971D01*
X32055366Y-31244971D01*
X28620000Y-27809605D01*
X25174634Y-31254971D01*
X16785000Y-31254971D01*
X16785000Y-27554389D01*
X23460707Y-27554389D01*
X23545090Y-28562370D01*
X23824499Y-29534520D01*
X24288197Y-30433481D01*
X24372212Y-30559217D01*
X24995029Y-31075366D01*
X28440395Y-27630000D01*
X28799605Y-27630000D01*
X32244971Y-31075366D01*
X32867788Y-30559217D01*
X33357630Y-29674232D01*
X33665407Y-28710686D01*
X33779293Y-27705611D01*
X33765797Y-27544389D01*
X48450707Y-27544389D01*
X48535090Y-28552370D01*
X48814499Y-29524520D01*
X49278197Y-30423481D01*
X49362212Y-30549217D01*
X49985029Y-31065366D01*
X53430395Y-27620000D01*
X53789605Y-27620000D01*
X57234971Y-31065366D01*
X57857788Y-30549217D01*
X58347630Y-29664232D01*
X58655407Y-28700686D01*
X58769293Y-27695611D01*
X58684910Y-26687630D01*
X58405501Y-25715480D01*
X57941803Y-24816519D01*
X57857788Y-24690783D01*
X57234971Y-24174634D01*
X53789605Y-27620000D01*
X53430395Y-27620000D01*
X49985029Y-24174634D01*
X49362212Y-24690783D01*
X48872370Y-25575768D01*
X48564593Y-26539314D01*
X48450707Y-27544389D01*
X33765797Y-27544389D01*
X33694910Y-26697630D01*
X33415501Y-25725480D01*
X32951803Y-24826519D01*
X32867788Y-24700783D01*
X32244971Y-24184634D01*
X28799605Y-27630000D01*
X28440395Y-27630000D01*
X24995029Y-24184634D01*
X24372212Y-24700783D01*
X23882370Y-25585768D01*
X23574593Y-26549314D01*
X23460707Y-27554389D01*
X16785000Y-27554389D01*
X16785000Y-24005029D01*
X25174634Y-24005029D01*
X28620000Y-27450395D01*
X32065366Y-24005029D01*
X32057079Y-23995029D01*
X50164634Y-23995029D01*
X53610000Y-27440395D01*
X57055366Y-23995029D01*
X56539217Y-23372212D01*
X55654232Y-22882370D01*
X54690686Y-22574593D01*
X53685611Y-22460707D01*
X52677630Y-22545090D01*
X51705480Y-22824499D01*
X50806519Y-23288197D01*
X50680783Y-23372212D01*
X50164634Y-23995029D01*
X32057079Y-23995029D01*
X31549217Y-23382212D01*
X30664232Y-22892370D01*
X29700686Y-22584593D01*
X28695611Y-22470707D01*
X27687630Y-22555090D01*
X26715480Y-22834499D01*
X25816519Y-23298197D01*
X25690783Y-23382212D01*
X25174634Y-24005029D01*
X16785000Y-24005029D01*
X16785000Y-12477499D01*
X17442106Y-12477499D01*
X17658228Y-12844258D01*
X18118105Y-13084938D01*
X18616098Y-13231275D01*
X19133071Y-13277648D01*
X19649159Y-13222273D01*
X20144526Y-13067279D01*
X20561772Y-12844258D01*
X20766108Y-12497499D01*
X61442106Y-12497499D01*
X61658228Y-12864258D01*
X62118105Y-13104938D01*
X62616098Y-13251275D01*
X63133071Y-13297648D01*
X63649159Y-13242273D01*
X64144526Y-13087279D01*
X64561772Y-12864258D01*
X64777894Y-12497499D01*
X63110000Y-10829605D01*
X61442106Y-12497499D01*
X20766108Y-12497499D01*
X20777894Y-12477499D01*
X19110000Y-10809605D01*
X17442106Y-12477499D01*
X16785000Y-12477499D01*
X16785000Y-11874587D01*
X16895742Y-12081772D01*
X17262501Y-12297894D01*
X18930395Y-10630000D01*
X19289605Y-10630000D01*
X20957499Y-12297894D01*
X21324258Y-12081772D01*
X21564938Y-11621895D01*
X21711275Y-11123902D01*
X21751714Y-10673071D01*
X60462352Y-10673071D01*
X60517727Y-11189159D01*
X60672721Y-11684526D01*
X60895742Y-12101772D01*
X61262501Y-12317894D01*
X62930395Y-10650000D01*
X61262501Y-8982106D01*
X60895742Y-9198228D01*
X60655062Y-9658105D01*
X60508725Y-10156098D01*
X60462352Y-10673071D01*
X21751714Y-10673071D01*
X21757648Y-10606929D01*
X21702273Y-10090841D01*
X21547279Y-9595474D01*
X21324258Y-9178228D01*
X20957499Y-8962106D01*
X19289605Y-10630000D01*
X18930395Y-10630000D01*
X17262501Y-8962106D01*
X16895742Y-9178228D01*
X16785000Y-9389827D01*
X16785000Y-8285000D01*
X17902831Y-8285000D01*
X17658228Y-8415742D01*
G37*
G04 #@! TD.AperFunction*
M02*
