G04 #@! TF.GenerationSoftware,KiCad,Pcbnew,(5.1.9)-1*
G04 #@! TF.CreationDate,2021-08-22T22:13:52+01:00*
G04 #@! TF.ProjectId,Simple Mixer Front Panel,53696d70-6c65-4204-9d69-786572204672,rev?*
G04 #@! TF.SameCoordinates,Original*
G04 #@! TF.FileFunction,OtherDrawing,Comment*
%FSLAX46Y46*%
G04 Gerber Fmt 4.6, Leading zero omitted, Abs format (unit mm)*
G04 Created by KiCad (PCBNEW (5.1.9)-1) date 2021-08-22 22:13:52*
%MOMM*%
%LPD*%
G01*
G04 APERTURE LIST*
%ADD10C,0.200000*%
%ADD11C,0.312500*%
%ADD12C,0.625000*%
G04 APERTURE END LIST*
D10*
X64710556Y-10632161D02*
G75*
G03*
X64710556Y-10632161I-1600000J0D01*
G01*
X35406856Y-117282160D02*
X35574255Y-118982160D01*
X51580555Y-118048160D02*
X49880555Y-118216161D01*
X48106855Y-117282160D02*
X48274255Y-118982160D01*
X43026855Y-117282160D02*
X43194255Y-118982160D01*
X57110556Y-27632161D02*
G75*
G03*
X57110556Y-27632161I-3500000J0D01*
G01*
X53272356Y-24198760D02*
X53948755Y-31065560D01*
X32043955Y-107293960D02*
X25177155Y-107970360D01*
X45566855Y-117282160D02*
X45734255Y-118982160D01*
X57043955Y-107293960D02*
X50177155Y-107970360D01*
X32110556Y-107632161D02*
G75*
G03*
X32110556Y-107632161I-3500000J0D01*
G01*
X37946856Y-117282160D02*
X38114255Y-118982160D01*
X64710556Y-204632161D02*
G75*
G03*
X64710556Y-204632161I-1600000J0D01*
G01*
X50858022Y-87607529D02*
X55724522Y-87141253D01*
X57043955Y-27293960D02*
X50177155Y-27970360D01*
X55796855Y-87373856D02*
G75*
G03*
X55796855Y-87373856I-2500000J0D01*
G01*
X57110556Y-67632161D02*
G75*
G03*
X57110556Y-67632161I-3500000J0D01*
G01*
X19110556Y-203032160D02*
X19110556Y-206232160D01*
X43960556Y-118048160D02*
X42260555Y-118216161D01*
X57043955Y-67293960D02*
X50177155Y-67970360D01*
X61510556Y-204632161D02*
X64710556Y-204632161D01*
X20710556Y-204632161D02*
G75*
G03*
X20710556Y-204632161I-1600000J0D01*
G01*
X20710556Y-10632161D02*
G75*
G03*
X20710556Y-10632161I-1600000J0D01*
G01*
X57110556Y-107632161D02*
G75*
G03*
X57110556Y-107632161I-3500000J0D01*
G01*
X38880555Y-118048160D02*
X37180556Y-118216161D01*
X63110556Y-203032160D02*
X63110556Y-206232160D01*
X53272356Y-64198760D02*
X53948755Y-71065560D01*
X61510556Y-10632161D02*
X64710556Y-10632161D01*
X17510556Y-204632161D02*
X20710556Y-204632161D01*
X40486855Y-117282160D02*
X40654256Y-118982160D01*
X36340556Y-118048160D02*
X34640556Y-118216161D01*
X33800555Y-118048160D02*
X32100555Y-118216161D01*
X32866855Y-117282160D02*
X33034255Y-118982160D01*
X53272356Y-104198760D02*
X53948755Y-111065560D01*
X49040555Y-118048160D02*
X47340555Y-118216161D01*
X17510556Y-10632161D02*
X20710556Y-10632161D01*
X50646855Y-117282160D02*
X50814255Y-118982160D01*
X41420556Y-118048160D02*
X39720555Y-118216161D01*
X19110556Y-9032160D02*
X19110556Y-12232160D01*
X46500555Y-118048160D02*
X44800555Y-118216161D01*
X53057022Y-84939129D02*
X53535422Y-89795729D01*
X63110556Y-9032160D02*
X63110556Y-12232160D01*
X49040555Y-115048160D02*
X47340555Y-115216161D01*
X16110556Y-207632161D02*
X66110556Y-207632161D01*
X40486855Y-114282160D02*
X40654256Y-115982160D01*
X41420556Y-115048160D02*
X39720555Y-115216161D01*
X64110556Y-195632161D02*
X64110556Y-109314000D01*
X66110556Y-207632161D02*
X66110556Y-7632161D01*
X51580555Y-115048160D02*
X49880555Y-115216161D01*
X63110556Y-9032160D02*
X63110556Y-12232160D01*
X53610556Y-180632161D02*
X53610556Y-190632161D01*
X28610556Y-180632161D02*
X28610556Y-190632161D01*
X16110556Y-7632161D02*
X16110556Y-207632161D01*
X18110556Y-109314000D02*
X18110556Y-195632161D01*
X18110556Y-195632161D02*
X64110556Y-195632161D01*
X19110556Y-9032160D02*
X19110556Y-12232160D01*
X48106855Y-114282160D02*
X48274255Y-115982160D01*
X64710556Y-10632161D02*
G75*
G03*
X64710556Y-10632161I-1600000J0D01*
G01*
X45566855Y-114282160D02*
X45734255Y-115982160D01*
X28272356Y-104198760D02*
X28948755Y-111065560D01*
X32110556Y-67632161D02*
G75*
G03*
X32110556Y-67632161I-3500000J0D01*
G01*
X48610556Y-141632161D02*
X58610556Y-141632161D01*
X32043955Y-67293960D02*
X25177155Y-67970360D01*
X28272356Y-64198760D02*
X28948755Y-71065560D01*
X18110556Y-19632161D02*
X18110556Y-119632161D01*
X17510556Y-10632161D02*
X20710556Y-10632161D01*
X58610556Y-163632161D02*
G75*
G03*
X58610556Y-163632161I-5000000J0D01*
G01*
X60727601Y-193604707D02*
X45989280Y-193604707D01*
X48610556Y-185632161D02*
X58610556Y-185632161D01*
X63110556Y-203032160D02*
X63110556Y-206232160D01*
X17510556Y-204632161D02*
X20710556Y-204632161D01*
X38880555Y-115048160D02*
X37180556Y-115216161D01*
X53610556Y-158632161D02*
X53610556Y-168632161D01*
X43026855Y-114282160D02*
X43194255Y-115982160D01*
X61510556Y-10632161D02*
X64710556Y-10632161D01*
X53610556Y-136632161D02*
X53610556Y-146632161D01*
X64710556Y-204632161D02*
G75*
G03*
X64710556Y-204632161I-1600000J0D01*
G01*
X32110556Y-27632161D02*
G75*
G03*
X32110556Y-27632161I-3500000J0D01*
G01*
X20710556Y-204632161D02*
G75*
G03*
X20710556Y-204632161I-1600000J0D01*
G01*
X64110556Y-109314000D02*
X18110556Y-109314000D01*
X32043955Y-27293960D02*
X25177155Y-27970360D01*
X28272356Y-24198760D02*
X28948755Y-31065560D01*
X45989280Y-193604707D02*
X45989280Y-171852196D01*
X60727601Y-171852196D02*
X60727601Y-193604707D01*
X19110556Y-203032160D02*
X19110556Y-206232160D01*
X43960556Y-115048160D02*
X42260555Y-115216161D01*
X46500555Y-115048160D02*
X44800555Y-115216161D01*
X45989280Y-171852196D02*
X60727601Y-171852196D01*
X28610556Y-136632161D02*
X28610556Y-146632161D01*
X33610556Y-141632161D02*
G75*
G03*
X33610556Y-141632161I-5000000J0D01*
G01*
X61510556Y-204632161D02*
X64710556Y-204632161D01*
X20710556Y-10632161D02*
G75*
G03*
X20710556Y-10632161I-1600000J0D01*
G01*
X64110556Y-19632161D02*
X18110556Y-19632161D01*
X33610556Y-185632161D02*
G75*
G03*
X33610556Y-185632161I-5000000J0D01*
G01*
X23610556Y-141632161D02*
X33610556Y-141632161D01*
X58610556Y-141632161D02*
G75*
G03*
X58610556Y-141632161I-5000000J0D01*
G01*
X23610556Y-163632161D02*
X33610556Y-163632161D01*
X50646855Y-114282160D02*
X50814255Y-115982160D01*
X48610556Y-163632161D02*
X58610556Y-163632161D01*
X23610556Y-185632161D02*
X33610556Y-185632161D01*
X66110556Y-7632161D02*
X16110556Y-7632161D01*
X28610556Y-158632161D02*
X28610556Y-168632161D01*
X33610556Y-163632161D02*
G75*
G03*
X33610556Y-163632161I-5000000J0D01*
G01*
X58610556Y-185632161D02*
G75*
G03*
X58610556Y-185632161I-5000000J0D01*
G01*
X64110556Y-119632161D02*
X64110556Y-19632161D01*
X18110556Y-122632161D02*
X64110556Y-122632161D01*
X33610556Y-185632161D02*
G75*
G03*
X33610556Y-185632161I-5000000J0D01*
G01*
X32043955Y-67293960D02*
X25177155Y-67970360D01*
X32110556Y-27632161D02*
G75*
G03*
X32110556Y-27632161I-3500000J0D01*
G01*
X18110556Y-195632161D02*
X64110556Y-195632161D01*
X45989280Y-193604707D02*
X45989280Y-171852196D01*
X53610556Y-180632161D02*
X53610556Y-190632161D01*
X64110556Y-195632161D02*
X64110556Y-109314000D01*
X66110556Y-207632161D02*
X66110556Y-7632161D01*
X60727601Y-193604707D02*
X45989280Y-193604707D01*
X28610556Y-136632161D02*
X28610556Y-146632161D01*
X18110556Y-109314000D02*
X18110556Y-195632161D01*
X23610556Y-163632161D02*
X33610556Y-163632161D01*
X33610556Y-141632161D02*
G75*
G03*
X33610556Y-141632161I-5000000J0D01*
G01*
X48610556Y-163632161D02*
X58610556Y-163632161D01*
X48610556Y-185632161D02*
X58610556Y-185632161D01*
X64110556Y-19632161D02*
X18110556Y-19632161D01*
X16110556Y-207632161D02*
X66110556Y-207632161D01*
X37946856Y-114282160D02*
X38114255Y-115982160D01*
X36340556Y-115048160D02*
X34640556Y-115216161D01*
X57110556Y-67632161D02*
G75*
G03*
X57110556Y-67632161I-3500000J0D01*
G01*
X18110556Y-19632161D02*
X18110556Y-119632161D01*
X32110556Y-107632161D02*
G75*
G03*
X32110556Y-107632161I-3500000J0D01*
G01*
X28272356Y-24198760D02*
X28948755Y-31065560D01*
X58610556Y-185632161D02*
G75*
G03*
X58610556Y-185632161I-5000000J0D01*
G01*
X58610556Y-141632161D02*
G75*
G03*
X58610556Y-141632161I-5000000J0D01*
G01*
X35406856Y-114282160D02*
X35574255Y-115982160D01*
X33800555Y-115048160D02*
X32100555Y-115216161D01*
X53272356Y-104198760D02*
X53948755Y-111065560D01*
X57043955Y-67293960D02*
X50177155Y-67970360D01*
X18110556Y-119632161D02*
X64110556Y-119632161D01*
X53610556Y-136632161D02*
X53610556Y-146632161D01*
X66110556Y-7632161D02*
X16110556Y-7632161D01*
X45989280Y-171852196D02*
X60727601Y-171852196D01*
X16110556Y-7632161D02*
X16110556Y-207632161D01*
X32866855Y-114282160D02*
X33034255Y-115982160D01*
X55796855Y-87373856D02*
G75*
G03*
X55796855Y-87373856I-2500000J0D01*
G01*
X58610556Y-163632161D02*
G75*
G03*
X58610556Y-163632161I-5000000J0D01*
G01*
X50858022Y-87607529D02*
X55724522Y-87141253D01*
X53057022Y-84939129D02*
X53535422Y-89795729D01*
X57110556Y-107632161D02*
G75*
G03*
X57110556Y-107632161I-3500000J0D01*
G01*
X57043955Y-107293960D02*
X50177155Y-107970360D01*
X53272356Y-64198760D02*
X53948755Y-71065560D01*
X28272356Y-64198760D02*
X28948755Y-71065560D01*
X32043955Y-27293960D02*
X25177155Y-27970360D01*
X57110556Y-27632161D02*
G75*
G03*
X57110556Y-27632161I-3500000J0D01*
G01*
X60727601Y-171852196D02*
X60727601Y-193604707D01*
X64110556Y-119632161D02*
X64110556Y-19632161D01*
X28610556Y-180632161D02*
X28610556Y-190632161D01*
X53610556Y-158632161D02*
X53610556Y-168632161D01*
X57043955Y-27293960D02*
X50177155Y-27970360D01*
X53272356Y-24198760D02*
X53948755Y-31065560D01*
X23610556Y-141632161D02*
X33610556Y-141632161D01*
X48610556Y-141632161D02*
X58610556Y-141632161D01*
X33610556Y-163632161D02*
G75*
G03*
X33610556Y-163632161I-5000000J0D01*
G01*
X64110556Y-109314000D02*
X18110556Y-109314000D01*
X32043955Y-107293960D02*
X25177155Y-107970360D01*
X28272356Y-104198760D02*
X28948755Y-111065560D01*
X32110556Y-67632161D02*
G75*
G03*
X32110556Y-67632161I-3500000J0D01*
G01*
X23610556Y-185632161D02*
X33610556Y-185632161D01*
X28610556Y-158632161D02*
X28610556Y-168632161D01*
D11*
X50484350Y-173190952D02*
X50912922Y-173190952D01*
X51127207Y-173310000D01*
X51341493Y-173548095D01*
X51448636Y-174024285D01*
X51448636Y-174857619D01*
X51341493Y-175333809D01*
X51127207Y-175571904D01*
X50912922Y-175690952D01*
X50484350Y-175690952D01*
X50270065Y-175571904D01*
X50055779Y-175333809D01*
X49948636Y-174857619D01*
X49948636Y-174024285D01*
X50055779Y-173548095D01*
X50270065Y-173310000D01*
X50484350Y-173190952D01*
X52412922Y-173190952D02*
X52412922Y-175214761D01*
X52520065Y-175452857D01*
X52627207Y-175571904D01*
X52841493Y-175690952D01*
X53270065Y-175690952D01*
X53484350Y-175571904D01*
X53591493Y-175452857D01*
X53698636Y-175214761D01*
X53698636Y-173190952D01*
X54448636Y-173190952D02*
X55734350Y-173190952D01*
X55091493Y-175690952D02*
X55091493Y-173190952D01*
D12*
X37345248Y-16253486D02*
X37345248Y-11253486D01*
X38845248Y-14824915D01*
X40345248Y-11253486D01*
X40345248Y-16253486D01*
X42488105Y-16253486D02*
X42488105Y-11253486D01*
X44202391Y-11253486D02*
X47202391Y-16253486D01*
X47202391Y-11253486D02*
X44202391Y-16253486D01*
D11*
X29068199Y-96799595D02*
X27996771Y-96799595D01*
X27889628Y-97990071D01*
X27996771Y-97871023D01*
X28211057Y-97751976D01*
X28746771Y-97751976D01*
X28961057Y-97871023D01*
X29068199Y-97990071D01*
X29175342Y-98228166D01*
X29175342Y-98823404D01*
X29068199Y-99061500D01*
X28961057Y-99180547D01*
X28746771Y-99299595D01*
X28211057Y-99299595D01*
X27996771Y-99180547D01*
X27889628Y-99061500D01*
X50529785Y-96799595D02*
X50958357Y-96799595D01*
X51172642Y-96918643D01*
X51386928Y-97156738D01*
X51494071Y-97632928D01*
X51494071Y-98466262D01*
X51386928Y-98942452D01*
X51172642Y-99180547D01*
X50958357Y-99299595D01*
X50529785Y-99299595D01*
X50315500Y-99180547D01*
X50101214Y-98942452D01*
X49994071Y-98466262D01*
X49994071Y-97632928D01*
X50101214Y-97156738D01*
X50315500Y-96918643D01*
X50529785Y-96799595D01*
X52458357Y-96799595D02*
X52458357Y-98823404D01*
X52565500Y-99061500D01*
X52672642Y-99180547D01*
X52886928Y-99299595D01*
X53315500Y-99299595D01*
X53529785Y-99180547D01*
X53636928Y-99061500D01*
X53744071Y-98823404D01*
X53744071Y-96799595D01*
X54494071Y-96799595D02*
X55779785Y-96799595D01*
X55136928Y-99299595D02*
X55136928Y-96799595D01*
X29175342Y-19299595D02*
X27889628Y-19299595D01*
X28532485Y-19299595D02*
X28532485Y-16799595D01*
X28318199Y-17156738D01*
X28103914Y-17394833D01*
X27889628Y-17513881D01*
X54521092Y-152024285D02*
X54521092Y-153690952D01*
X53985377Y-151071904D02*
X53449663Y-152857619D01*
X54842520Y-152857619D01*
X53961057Y-57632928D02*
X53961057Y-59299595D01*
X53425342Y-56680547D02*
X52889628Y-58466262D01*
X54282485Y-58466262D01*
X53449663Y-129429047D02*
X53556806Y-129310000D01*
X53771092Y-129190952D01*
X54306806Y-129190952D01*
X54521092Y-129310000D01*
X54628234Y-129429047D01*
X54735377Y-129667142D01*
X54735377Y-129905238D01*
X54628234Y-130262380D01*
X53342520Y-131690952D01*
X54735377Y-131690952D01*
X52889628Y-17037690D02*
X52996771Y-16918643D01*
X53211057Y-16799595D01*
X53746771Y-16799595D01*
X53961057Y-16918643D01*
X54068199Y-17037690D01*
X54175342Y-17275785D01*
X54175342Y-17513881D01*
X54068199Y-17871023D01*
X52782485Y-19299595D01*
X54175342Y-19299595D01*
X29350267Y-173190952D02*
X28278839Y-173190952D01*
X28171696Y-174381428D01*
X28278839Y-174262380D01*
X28493125Y-174143333D01*
X29028839Y-174143333D01*
X29243125Y-174262380D01*
X29350267Y-174381428D01*
X29457410Y-174619523D01*
X29457410Y-175214761D01*
X29350267Y-175452857D01*
X29243125Y-175571904D01*
X29028839Y-175690952D01*
X28493125Y-175690952D01*
X28278839Y-175571904D01*
X28171696Y-175452857D01*
X27782485Y-56799595D02*
X29175342Y-56799595D01*
X28425342Y-57751976D01*
X28746771Y-57751976D01*
X28961057Y-57871023D01*
X29068199Y-57990071D01*
X29175342Y-58228166D01*
X29175342Y-58823404D01*
X29068199Y-59061500D01*
X28961057Y-59180547D01*
X28746771Y-59299595D01*
X28103914Y-59299595D01*
X27889628Y-59180547D01*
X27782485Y-59061500D01*
X28064553Y-151190952D02*
X29457410Y-151190952D01*
X28707410Y-152143333D01*
X29028839Y-152143333D01*
X29243125Y-152262380D01*
X29350267Y-152381428D01*
X29457410Y-152619523D01*
X29457410Y-153214761D01*
X29350267Y-153452857D01*
X29243125Y-153571904D01*
X29028839Y-153690952D01*
X28385982Y-153690952D01*
X28171696Y-153571904D01*
X28064553Y-153452857D01*
X29457410Y-131690952D02*
X28171696Y-131690952D01*
X28814553Y-131690952D02*
X28814553Y-129190952D01*
X28600267Y-129548095D01*
X28385982Y-129786190D01*
X28171696Y-129905238D01*
M02*
