%TF.GenerationSoftware,KiCad,Pcbnew,(5.1.9)-1*%
%TF.CreationDate,2021-08-22T20:59:49+01:00*%
%TF.ProjectId,KOSMOS Simple Mixer,4b4f534d-4f53-4205-9369-6d706c65204d,rev?*%
%TF.SameCoordinates,Original*%
%TF.FileFunction,Other,Fab,Bot*%
%FSLAX46Y46*%
G04 Gerber Fmt 4.6, Leading zero omitted, Abs format (unit mm)*
G04 Created by KiCad (PCBNEW (5.1.9)-1) date 2021-08-22 20:59:49*
%MOMM*%
%LPD*%
G01*
G04 APERTURE LIST*
%ADD10C,0.100000*%
%ADD11C,0.150000*%
%ADD12C,0.090000*%
G04 APERTURE END LIST*
D10*
%TO.C,C1*%
X48010000Y-55410000D02*
X48010000Y-53810000D01*
X48010000Y-53810000D02*
X51010000Y-53810000D01*
X51010000Y-53810000D02*
X51010000Y-55410000D01*
X51010000Y-55410000D02*
X48010000Y-55410000D01*
%TO.C,C2*%
X28960000Y-57950000D02*
X28960000Y-56350000D01*
X28960000Y-56350000D02*
X31960000Y-56350000D01*
X31960000Y-56350000D02*
X31960000Y-57950000D01*
X31960000Y-57950000D02*
X28960000Y-57950000D01*
%TO.C,C3*%
X46021028Y-104618500D02*
X46021028Y-103988500D01*
X45706028Y-104303500D02*
X46336028Y-104303500D01*
X51550000Y-102930000D02*
G75*
G03*
X51550000Y-102930000I-3150000J0D01*
G01*
%TO.C,C4*%
X61760000Y-102990000D02*
G75*
G03*
X61760000Y-102990000I-3150000J0D01*
G01*
X55916028Y-104363500D02*
X56546028Y-104363500D01*
X56231028Y-104678500D02*
X56231028Y-104048500D01*
%TO.C,C5*%
X31960000Y-52870000D02*
X28960000Y-52870000D01*
X31960000Y-51270000D02*
X31960000Y-52870000D01*
X28960000Y-51270000D02*
X31960000Y-51270000D01*
X28960000Y-52870000D02*
X28960000Y-51270000D01*
%TO.C,C6*%
X48050000Y-58890000D02*
X51050000Y-58890000D01*
X48050000Y-60490000D02*
X48050000Y-58890000D01*
X51050000Y-60490000D02*
X48050000Y-60490000D01*
X51050000Y-58890000D02*
X51050000Y-60490000D01*
%TO.C,D1*%
X37480000Y-90480000D02*
X37480000Y-93180000D01*
X37280000Y-90480000D02*
X37280000Y-93180000D01*
X37380000Y-90480000D02*
X37380000Y-93180000D01*
X30480000Y-91830000D02*
X32960000Y-91830000D01*
X40640000Y-91830000D02*
X38160000Y-91830000D01*
X32960000Y-90480000D02*
X38160000Y-90480000D01*
X32960000Y-93180000D02*
X32960000Y-90480000D01*
X38160000Y-93180000D02*
X32960000Y-93180000D01*
X38160000Y-90480000D02*
X38160000Y-93180000D01*
%TO.C,D2*%
X32960000Y-88980000D02*
X32960000Y-86280000D01*
X32960000Y-86280000D02*
X38160000Y-86280000D01*
X38160000Y-86280000D02*
X38160000Y-88980000D01*
X38160000Y-88980000D02*
X32960000Y-88980000D01*
X30480000Y-87630000D02*
X32960000Y-87630000D01*
X40640000Y-87630000D02*
X38160000Y-87630000D01*
X33740000Y-88980000D02*
X33740000Y-86280000D01*
X33840000Y-88980000D02*
X33840000Y-86280000D01*
X33640000Y-88980000D02*
X33640000Y-86280000D01*
%TO.C,J2*%
X42010000Y-95535000D02*
X41450000Y-96085000D01*
X21650000Y-95535000D02*
X22190000Y-96085000D01*
X42010000Y-104385000D02*
X41450000Y-103835000D01*
X21650000Y-104385000D02*
X22190000Y-103835000D01*
X41450000Y-103835000D02*
X41450000Y-96085000D01*
X42010000Y-104385000D02*
X42010000Y-95535000D01*
X22190000Y-103835000D02*
X22190000Y-96085000D01*
X21650000Y-104385000D02*
X21650000Y-95535000D01*
X34080000Y-96085000D02*
X34080000Y-95535000D01*
X29580000Y-96085000D02*
X29580000Y-95535000D01*
X34080000Y-96085000D02*
X41450000Y-96085000D01*
X22190000Y-96085000D02*
X29580000Y-96085000D01*
X21650000Y-95535000D02*
X42010000Y-95535000D01*
X22190000Y-103835000D02*
X41450000Y-103835000D01*
X21650000Y-104385000D02*
X42010000Y-104385000D01*
%TO.C,Q1*%
X59210000Y-95720000D02*
X59210000Y-92220000D01*
X59206375Y-92226375D02*
G75*
G02*
X63440000Y-93980000I1753625J-1753625D01*
G01*
X59206375Y-95733625D02*
G75*
G03*
X63440000Y-93980000I1753625J1753625D01*
G01*
%TO.C,R1*%
X39350000Y-39980000D02*
X36850000Y-39980000D01*
X36850000Y-39980000D02*
X36850000Y-33680000D01*
X36850000Y-33680000D02*
X39350000Y-33680000D01*
X39350000Y-33680000D02*
X39350000Y-39980000D01*
X38100000Y-41910000D02*
X38100000Y-39980000D01*
X38100000Y-31750000D02*
X38100000Y-33680000D01*
%TO.C,R2*%
X44430000Y-39980000D02*
X41930000Y-39980000D01*
X41930000Y-39980000D02*
X41930000Y-33680000D01*
X41930000Y-33680000D02*
X44430000Y-33680000D01*
X44430000Y-33680000D02*
X44430000Y-39980000D01*
X43180000Y-41910000D02*
X43180000Y-39980000D01*
X43180000Y-31750000D02*
X43180000Y-33680000D01*
%TO.C,R3*%
X38100000Y-81280000D02*
X38100000Y-79350000D01*
X38100000Y-71120000D02*
X38100000Y-73050000D01*
X36850000Y-79350000D02*
X36850000Y-73050000D01*
X39350000Y-79350000D02*
X36850000Y-79350000D01*
X39350000Y-73050000D02*
X39350000Y-79350000D01*
X36850000Y-73050000D02*
X39350000Y-73050000D01*
%TO.C,R4*%
X44450000Y-81280000D02*
X44450000Y-79350000D01*
X44450000Y-71120000D02*
X44450000Y-73050000D01*
X43200000Y-79350000D02*
X43200000Y-73050000D01*
X45700000Y-79350000D02*
X43200000Y-79350000D01*
X45700000Y-73050000D02*
X45700000Y-79350000D01*
X43200000Y-73050000D02*
X45700000Y-73050000D01*
%TO.C,R5*%
X40660000Y-112420000D02*
X43160000Y-112420000D01*
X43160000Y-112420000D02*
X43160000Y-118720000D01*
X43160000Y-118720000D02*
X40660000Y-118720000D01*
X40660000Y-118720000D02*
X40660000Y-112420000D01*
X41910000Y-110490000D02*
X41910000Y-112420000D01*
X41910000Y-120650000D02*
X41910000Y-118720000D01*
%TO.C,R6*%
X59030000Y-86380000D02*
X59030000Y-88880000D01*
X59030000Y-88880000D02*
X52730000Y-88880000D01*
X52730000Y-88880000D02*
X52730000Y-86380000D01*
X52730000Y-86380000D02*
X59030000Y-86380000D01*
X60960000Y-87630000D02*
X59030000Y-87630000D01*
X50800000Y-87630000D02*
X52730000Y-87630000D01*
%TO.C,R7*%
X58420000Y-52070000D02*
X56490000Y-52070000D01*
X48260000Y-52070000D02*
X50190000Y-52070000D01*
X56490000Y-53320000D02*
X50190000Y-53320000D01*
X56490000Y-50820000D02*
X56490000Y-53320000D01*
X50190000Y-50820000D02*
X56490000Y-50820000D01*
X50190000Y-53320000D02*
X50190000Y-50820000D01*
%TO.C,R8*%
X29820000Y-62250000D02*
X29820000Y-64750000D01*
X29820000Y-64750000D02*
X23520000Y-64750000D01*
X23520000Y-64750000D02*
X23520000Y-62250000D01*
X23520000Y-62250000D02*
X29820000Y-62250000D01*
X31750000Y-63500000D02*
X29820000Y-63500000D01*
X21590000Y-63500000D02*
X23520000Y-63500000D01*
%TO.C,R9*%
X31750000Y-59690000D02*
X29820000Y-59690000D01*
X21590000Y-59690000D02*
X23520000Y-59690000D01*
X29820000Y-60940000D02*
X23520000Y-60940000D01*
X29820000Y-58440000D02*
X29820000Y-60940000D01*
X23520000Y-58440000D02*
X29820000Y-58440000D01*
X23520000Y-60940000D02*
X23520000Y-58440000D01*
%TO.C,R10*%
X23520000Y-55860000D02*
X23520000Y-53360000D01*
X23520000Y-53360000D02*
X29820000Y-53360000D01*
X29820000Y-53360000D02*
X29820000Y-55860000D01*
X29820000Y-55860000D02*
X23520000Y-55860000D01*
X21590000Y-54610000D02*
X23520000Y-54610000D01*
X31750000Y-54610000D02*
X29820000Y-54610000D01*
%TO.C,R11*%
X46990000Y-97790000D02*
X46990000Y-95860000D01*
X46990000Y-87630000D02*
X46990000Y-89560000D01*
X45740000Y-95860000D02*
X45740000Y-89560000D01*
X48240000Y-95860000D02*
X45740000Y-95860000D01*
X48240000Y-89560000D02*
X48240000Y-95860000D01*
X45740000Y-89560000D02*
X48240000Y-89560000D01*
%TO.C,U1*%
X42815000Y-50800000D02*
X37465000Y-50800000D01*
X37465000Y-50800000D02*
X37465000Y-60960000D01*
X37465000Y-60960000D02*
X43815000Y-60960000D01*
X43815000Y-60960000D02*
X43815000Y-51800000D01*
X43815000Y-51800000D02*
X42815000Y-50800000D01*
X45720000Y-50740000D02*
X45720000Y-61020000D01*
X45720000Y-61020000D02*
X35560000Y-61020000D01*
X35560000Y-61020000D02*
X35560000Y-50740000D01*
X35560000Y-50740000D02*
X45720000Y-50740000D01*
%TD*%
%TO.C,C1*%
D11*
X50629047Y-53012380D02*
X51200476Y-53012380D01*
X50914761Y-53012380D02*
X50914761Y-52012380D01*
X51010000Y-52155238D01*
X51105238Y-52250476D01*
X51200476Y-52298095D01*
X50010000Y-52012380D02*
X49914761Y-52012380D01*
X49819523Y-52060000D01*
X49771904Y-52107619D01*
X49724285Y-52202857D01*
X49676666Y-52393333D01*
X49676666Y-52631428D01*
X49724285Y-52821904D01*
X49771904Y-52917142D01*
X49819523Y-52964761D01*
X49914761Y-53012380D01*
X50010000Y-53012380D01*
X50105238Y-52964761D01*
X50152857Y-52917142D01*
X50200476Y-52821904D01*
X50248095Y-52631428D01*
X50248095Y-52393333D01*
X50200476Y-52202857D01*
X50152857Y-52107619D01*
X50105238Y-52060000D01*
X50010000Y-52012380D01*
X49057619Y-52012380D02*
X48962380Y-52012380D01*
X48867142Y-52060000D01*
X48819523Y-52107619D01*
X48771904Y-52202857D01*
X48724285Y-52393333D01*
X48724285Y-52631428D01*
X48771904Y-52821904D01*
X48819523Y-52917142D01*
X48867142Y-52964761D01*
X48962380Y-53012380D01*
X49057619Y-53012380D01*
X49152857Y-52964761D01*
X49200476Y-52917142D01*
X49248095Y-52821904D01*
X49295714Y-52631428D01*
X49295714Y-52393333D01*
X49248095Y-52202857D01*
X49200476Y-52107619D01*
X49152857Y-52060000D01*
X49057619Y-52012380D01*
X48295714Y-52345714D02*
X48295714Y-53345714D01*
X48295714Y-52393333D02*
X48200476Y-52345714D01*
X48010000Y-52345714D01*
X47914761Y-52393333D01*
X47867142Y-52440952D01*
X47819523Y-52536190D01*
X47819523Y-52821904D01*
X47867142Y-52917142D01*
X47914761Y-52964761D01*
X48010000Y-53012380D01*
X48200476Y-53012380D01*
X48295714Y-52964761D01*
D12*
X49610000Y-54824285D02*
X49638571Y-54852857D01*
X49724285Y-54881428D01*
X49781428Y-54881428D01*
X49867142Y-54852857D01*
X49924285Y-54795714D01*
X49952857Y-54738571D01*
X49981428Y-54624285D01*
X49981428Y-54538571D01*
X49952857Y-54424285D01*
X49924285Y-54367142D01*
X49867142Y-54310000D01*
X49781428Y-54281428D01*
X49724285Y-54281428D01*
X49638571Y-54310000D01*
X49610000Y-54338571D01*
X49038571Y-54881428D02*
X49381428Y-54881428D01*
X49210000Y-54881428D02*
X49210000Y-54281428D01*
X49267142Y-54367142D01*
X49324285Y-54424285D01*
X49381428Y-54452857D01*
%TO.C,C2*%
D11*
X31579047Y-55552380D02*
X32150476Y-55552380D01*
X31864761Y-55552380D02*
X31864761Y-54552380D01*
X31960000Y-54695238D01*
X32055238Y-54790476D01*
X32150476Y-54838095D01*
X30960000Y-54552380D02*
X30864761Y-54552380D01*
X30769523Y-54600000D01*
X30721904Y-54647619D01*
X30674285Y-54742857D01*
X30626666Y-54933333D01*
X30626666Y-55171428D01*
X30674285Y-55361904D01*
X30721904Y-55457142D01*
X30769523Y-55504761D01*
X30864761Y-55552380D01*
X30960000Y-55552380D01*
X31055238Y-55504761D01*
X31102857Y-55457142D01*
X31150476Y-55361904D01*
X31198095Y-55171428D01*
X31198095Y-54933333D01*
X31150476Y-54742857D01*
X31102857Y-54647619D01*
X31055238Y-54600000D01*
X30960000Y-54552380D01*
X30007619Y-54552380D02*
X29912380Y-54552380D01*
X29817142Y-54600000D01*
X29769523Y-54647619D01*
X29721904Y-54742857D01*
X29674285Y-54933333D01*
X29674285Y-55171428D01*
X29721904Y-55361904D01*
X29769523Y-55457142D01*
X29817142Y-55504761D01*
X29912380Y-55552380D01*
X30007619Y-55552380D01*
X30102857Y-55504761D01*
X30150476Y-55457142D01*
X30198095Y-55361904D01*
X30245714Y-55171428D01*
X30245714Y-54933333D01*
X30198095Y-54742857D01*
X30150476Y-54647619D01*
X30102857Y-54600000D01*
X30007619Y-54552380D01*
X29245714Y-54885714D02*
X29245714Y-55885714D01*
X29245714Y-54933333D02*
X29150476Y-54885714D01*
X28960000Y-54885714D01*
X28864761Y-54933333D01*
X28817142Y-54980952D01*
X28769523Y-55076190D01*
X28769523Y-55361904D01*
X28817142Y-55457142D01*
X28864761Y-55504761D01*
X28960000Y-55552380D01*
X29150476Y-55552380D01*
X29245714Y-55504761D01*
D12*
X30560000Y-57364285D02*
X30588571Y-57392857D01*
X30674285Y-57421428D01*
X30731428Y-57421428D01*
X30817142Y-57392857D01*
X30874285Y-57335714D01*
X30902857Y-57278571D01*
X30931428Y-57164285D01*
X30931428Y-57078571D01*
X30902857Y-56964285D01*
X30874285Y-56907142D01*
X30817142Y-56850000D01*
X30731428Y-56821428D01*
X30674285Y-56821428D01*
X30588571Y-56850000D01*
X30560000Y-56878571D01*
X30331428Y-56878571D02*
X30302857Y-56850000D01*
X30245714Y-56821428D01*
X30102857Y-56821428D01*
X30045714Y-56850000D01*
X30017142Y-56878571D01*
X29988571Y-56935714D01*
X29988571Y-56992857D01*
X30017142Y-57078571D01*
X30360000Y-57421428D01*
X29988571Y-57421428D01*
%TO.C,C3*%
D11*
X49471428Y-98982380D02*
X50042857Y-98982380D01*
X49757142Y-98982380D02*
X49757142Y-97982380D01*
X49852380Y-98125238D01*
X49947619Y-98220476D01*
X50042857Y-98268095D01*
X48852380Y-97982380D02*
X48757142Y-97982380D01*
X48661904Y-98030000D01*
X48614285Y-98077619D01*
X48566666Y-98172857D01*
X48519047Y-98363333D01*
X48519047Y-98601428D01*
X48566666Y-98791904D01*
X48614285Y-98887142D01*
X48661904Y-98934761D01*
X48757142Y-98982380D01*
X48852380Y-98982380D01*
X48947619Y-98934761D01*
X48995238Y-98887142D01*
X49042857Y-98791904D01*
X49090476Y-98601428D01*
X49090476Y-98363333D01*
X49042857Y-98172857D01*
X48995238Y-98077619D01*
X48947619Y-98030000D01*
X48852380Y-97982380D01*
X47661904Y-98315714D02*
X47661904Y-98982380D01*
X48090476Y-98315714D02*
X48090476Y-98839523D01*
X48042857Y-98934761D01*
X47947619Y-98982380D01*
X47804761Y-98982380D01*
X47709523Y-98934761D01*
X47661904Y-98887142D01*
X46852380Y-98458571D02*
X47185714Y-98458571D01*
X47185714Y-98982380D02*
X47185714Y-97982380D01*
X46709523Y-97982380D01*
X48566666Y-103287142D02*
X48614285Y-103334761D01*
X48757142Y-103382380D01*
X48852380Y-103382380D01*
X48995238Y-103334761D01*
X49090476Y-103239523D01*
X49138095Y-103144285D01*
X49185714Y-102953809D01*
X49185714Y-102810952D01*
X49138095Y-102620476D01*
X49090476Y-102525238D01*
X48995238Y-102430000D01*
X48852380Y-102382380D01*
X48757142Y-102382380D01*
X48614285Y-102430000D01*
X48566666Y-102477619D01*
X48233333Y-102382380D02*
X47614285Y-102382380D01*
X47947619Y-102763333D01*
X47804761Y-102763333D01*
X47709523Y-102810952D01*
X47661904Y-102858571D01*
X47614285Y-102953809D01*
X47614285Y-103191904D01*
X47661904Y-103287142D01*
X47709523Y-103334761D01*
X47804761Y-103382380D01*
X48090476Y-103382380D01*
X48185714Y-103334761D01*
X48233333Y-103287142D01*
%TO.C,C4*%
X59681428Y-99042380D02*
X60252857Y-99042380D01*
X59967142Y-99042380D02*
X59967142Y-98042380D01*
X60062380Y-98185238D01*
X60157619Y-98280476D01*
X60252857Y-98328095D01*
X59062380Y-98042380D02*
X58967142Y-98042380D01*
X58871904Y-98090000D01*
X58824285Y-98137619D01*
X58776666Y-98232857D01*
X58729047Y-98423333D01*
X58729047Y-98661428D01*
X58776666Y-98851904D01*
X58824285Y-98947142D01*
X58871904Y-98994761D01*
X58967142Y-99042380D01*
X59062380Y-99042380D01*
X59157619Y-98994761D01*
X59205238Y-98947142D01*
X59252857Y-98851904D01*
X59300476Y-98661428D01*
X59300476Y-98423333D01*
X59252857Y-98232857D01*
X59205238Y-98137619D01*
X59157619Y-98090000D01*
X59062380Y-98042380D01*
X57871904Y-98375714D02*
X57871904Y-99042380D01*
X58300476Y-98375714D02*
X58300476Y-98899523D01*
X58252857Y-98994761D01*
X58157619Y-99042380D01*
X58014761Y-99042380D01*
X57919523Y-98994761D01*
X57871904Y-98947142D01*
X57062380Y-98518571D02*
X57395714Y-98518571D01*
X57395714Y-99042380D02*
X57395714Y-98042380D01*
X56919523Y-98042380D01*
X58776666Y-103347142D02*
X58824285Y-103394761D01*
X58967142Y-103442380D01*
X59062380Y-103442380D01*
X59205238Y-103394761D01*
X59300476Y-103299523D01*
X59348095Y-103204285D01*
X59395714Y-103013809D01*
X59395714Y-102870952D01*
X59348095Y-102680476D01*
X59300476Y-102585238D01*
X59205238Y-102490000D01*
X59062380Y-102442380D01*
X58967142Y-102442380D01*
X58824285Y-102490000D01*
X58776666Y-102537619D01*
X57919523Y-102775714D02*
X57919523Y-103442380D01*
X58157619Y-102394761D02*
X58395714Y-103109047D01*
X57776666Y-103109047D01*
%TO.C,C5*%
X32102857Y-49472380D02*
X32007619Y-49472380D01*
X31912380Y-49520000D01*
X31864761Y-49567619D01*
X31817142Y-49662857D01*
X31769523Y-49853333D01*
X31769523Y-50091428D01*
X31817142Y-50281904D01*
X31864761Y-50377142D01*
X31912380Y-50424761D01*
X32007619Y-50472380D01*
X32102857Y-50472380D01*
X32198095Y-50424761D01*
X32245714Y-50377142D01*
X32293333Y-50281904D01*
X32340952Y-50091428D01*
X32340952Y-49853333D01*
X32293333Y-49662857D01*
X32245714Y-49567619D01*
X32198095Y-49520000D01*
X32102857Y-49472380D01*
X31340952Y-50377142D02*
X31293333Y-50424761D01*
X31340952Y-50472380D01*
X31388571Y-50424761D01*
X31340952Y-50377142D01*
X31340952Y-50472380D01*
X30340952Y-50472380D02*
X30912380Y-50472380D01*
X30626666Y-50472380D02*
X30626666Y-49472380D01*
X30721904Y-49615238D01*
X30817142Y-49710476D01*
X30912380Y-49758095D01*
X29483809Y-49805714D02*
X29483809Y-50472380D01*
X29912380Y-49805714D02*
X29912380Y-50329523D01*
X29864761Y-50424761D01*
X29769523Y-50472380D01*
X29626666Y-50472380D01*
X29531428Y-50424761D01*
X29483809Y-50377142D01*
X28674285Y-49948571D02*
X29007619Y-49948571D01*
X29007619Y-50472380D02*
X29007619Y-49472380D01*
X28531428Y-49472380D01*
D12*
X30560000Y-52284285D02*
X30588571Y-52312857D01*
X30674285Y-52341428D01*
X30731428Y-52341428D01*
X30817142Y-52312857D01*
X30874285Y-52255714D01*
X30902857Y-52198571D01*
X30931428Y-52084285D01*
X30931428Y-51998571D01*
X30902857Y-51884285D01*
X30874285Y-51827142D01*
X30817142Y-51770000D01*
X30731428Y-51741428D01*
X30674285Y-51741428D01*
X30588571Y-51770000D01*
X30560000Y-51798571D01*
X30017142Y-51741428D02*
X30302857Y-51741428D01*
X30331428Y-52027142D01*
X30302857Y-51998571D01*
X30245714Y-51970000D01*
X30102857Y-51970000D01*
X30045714Y-51998571D01*
X30017142Y-52027142D01*
X29988571Y-52084285D01*
X29988571Y-52227142D01*
X30017142Y-52284285D01*
X30045714Y-52312857D01*
X30102857Y-52341428D01*
X30245714Y-52341428D01*
X30302857Y-52312857D01*
X30331428Y-52284285D01*
%TO.C,C6*%
D11*
X51192857Y-61192380D02*
X51097619Y-61192380D01*
X51002380Y-61240000D01*
X50954761Y-61287619D01*
X50907142Y-61382857D01*
X50859523Y-61573333D01*
X50859523Y-61811428D01*
X50907142Y-62001904D01*
X50954761Y-62097142D01*
X51002380Y-62144761D01*
X51097619Y-62192380D01*
X51192857Y-62192380D01*
X51288095Y-62144761D01*
X51335714Y-62097142D01*
X51383333Y-62001904D01*
X51430952Y-61811428D01*
X51430952Y-61573333D01*
X51383333Y-61382857D01*
X51335714Y-61287619D01*
X51288095Y-61240000D01*
X51192857Y-61192380D01*
X50430952Y-62097142D02*
X50383333Y-62144761D01*
X50430952Y-62192380D01*
X50478571Y-62144761D01*
X50430952Y-62097142D01*
X50430952Y-62192380D01*
X49430952Y-62192380D02*
X50002380Y-62192380D01*
X49716666Y-62192380D02*
X49716666Y-61192380D01*
X49811904Y-61335238D01*
X49907142Y-61430476D01*
X50002380Y-61478095D01*
X48573809Y-61525714D02*
X48573809Y-62192380D01*
X49002380Y-61525714D02*
X49002380Y-62049523D01*
X48954761Y-62144761D01*
X48859523Y-62192380D01*
X48716666Y-62192380D01*
X48621428Y-62144761D01*
X48573809Y-62097142D01*
X47764285Y-61668571D02*
X48097619Y-61668571D01*
X48097619Y-62192380D02*
X48097619Y-61192380D01*
X47621428Y-61192380D01*
D12*
X49650000Y-59904285D02*
X49678571Y-59932857D01*
X49764285Y-59961428D01*
X49821428Y-59961428D01*
X49907142Y-59932857D01*
X49964285Y-59875714D01*
X49992857Y-59818571D01*
X50021428Y-59704285D01*
X50021428Y-59618571D01*
X49992857Y-59504285D01*
X49964285Y-59447142D01*
X49907142Y-59390000D01*
X49821428Y-59361428D01*
X49764285Y-59361428D01*
X49678571Y-59390000D01*
X49650000Y-59418571D01*
X49135714Y-59361428D02*
X49250000Y-59361428D01*
X49307142Y-59390000D01*
X49335714Y-59418571D01*
X49392857Y-59504285D01*
X49421428Y-59618571D01*
X49421428Y-59847142D01*
X49392857Y-59904285D01*
X49364285Y-59932857D01*
X49307142Y-59961428D01*
X49192857Y-59961428D01*
X49135714Y-59932857D01*
X49107142Y-59904285D01*
X49078571Y-59847142D01*
X49078571Y-59704285D01*
X49107142Y-59647142D01*
X49135714Y-59618571D01*
X49192857Y-59590000D01*
X49307142Y-59590000D01*
X49364285Y-59618571D01*
X49392857Y-59647142D01*
X49421428Y-59704285D01*
%TO.C,D1*%
D11*
X37702857Y-94752380D02*
X38274285Y-94752380D01*
X37988571Y-94752380D02*
X37988571Y-93752380D01*
X38083809Y-93895238D01*
X38179047Y-93990476D01*
X38274285Y-94038095D01*
X37274285Y-94752380D02*
X37274285Y-93752380D01*
X36702857Y-94752380D01*
X36702857Y-93752380D01*
X35750476Y-93752380D02*
X36226666Y-93752380D01*
X36274285Y-94228571D01*
X36226666Y-94180952D01*
X36131428Y-94133333D01*
X35893333Y-94133333D01*
X35798095Y-94180952D01*
X35750476Y-94228571D01*
X35702857Y-94323809D01*
X35702857Y-94561904D01*
X35750476Y-94657142D01*
X35798095Y-94704761D01*
X35893333Y-94752380D01*
X36131428Y-94752380D01*
X36226666Y-94704761D01*
X36274285Y-94657142D01*
X35131428Y-94180952D02*
X35226666Y-94133333D01*
X35274285Y-94085714D01*
X35321904Y-93990476D01*
X35321904Y-93942857D01*
X35274285Y-93847619D01*
X35226666Y-93800000D01*
X35131428Y-93752380D01*
X34940952Y-93752380D01*
X34845714Y-93800000D01*
X34798095Y-93847619D01*
X34750476Y-93942857D01*
X34750476Y-93990476D01*
X34798095Y-94085714D01*
X34845714Y-94133333D01*
X34940952Y-94180952D01*
X35131428Y-94180952D01*
X35226666Y-94228571D01*
X35274285Y-94276190D01*
X35321904Y-94371428D01*
X35321904Y-94561904D01*
X35274285Y-94657142D01*
X35226666Y-94704761D01*
X35131428Y-94752380D01*
X34940952Y-94752380D01*
X34845714Y-94704761D01*
X34798095Y-94657142D01*
X34750476Y-94561904D01*
X34750476Y-94371428D01*
X34798095Y-94276190D01*
X34845714Y-94228571D01*
X34940952Y-94180952D01*
X33798095Y-94752380D02*
X34369523Y-94752380D01*
X34083809Y-94752380D02*
X34083809Y-93752380D01*
X34179047Y-93895238D01*
X34274285Y-93990476D01*
X34369523Y-94038095D01*
X33464761Y-93752380D02*
X32798095Y-93752380D01*
X33226666Y-94752380D01*
X35908095Y-92282380D02*
X35908095Y-91282380D01*
X35670000Y-91282380D01*
X35527142Y-91330000D01*
X35431904Y-91425238D01*
X35384285Y-91520476D01*
X35336666Y-91710952D01*
X35336666Y-91853809D01*
X35384285Y-92044285D01*
X35431904Y-92139523D01*
X35527142Y-92234761D01*
X35670000Y-92282380D01*
X35908095Y-92282380D01*
X34384285Y-92282380D02*
X34955714Y-92282380D01*
X34670000Y-92282380D02*
X34670000Y-91282380D01*
X34765238Y-91425238D01*
X34860476Y-91520476D01*
X34955714Y-91568095D01*
X40241904Y-91942380D02*
X40241904Y-90942380D01*
X39670476Y-91942380D02*
X40099047Y-91370952D01*
X39670476Y-90942380D02*
X40241904Y-91513809D01*
%TO.C,D2*%
X37702857Y-85612380D02*
X38274285Y-85612380D01*
X37988571Y-85612380D02*
X37988571Y-84612380D01*
X38083809Y-84755238D01*
X38179047Y-84850476D01*
X38274285Y-84898095D01*
X37274285Y-85612380D02*
X37274285Y-84612380D01*
X36702857Y-85612380D01*
X36702857Y-84612380D01*
X35750476Y-84612380D02*
X36226666Y-84612380D01*
X36274285Y-85088571D01*
X36226666Y-85040952D01*
X36131428Y-84993333D01*
X35893333Y-84993333D01*
X35798095Y-85040952D01*
X35750476Y-85088571D01*
X35702857Y-85183809D01*
X35702857Y-85421904D01*
X35750476Y-85517142D01*
X35798095Y-85564761D01*
X35893333Y-85612380D01*
X36131428Y-85612380D01*
X36226666Y-85564761D01*
X36274285Y-85517142D01*
X35131428Y-85040952D02*
X35226666Y-84993333D01*
X35274285Y-84945714D01*
X35321904Y-84850476D01*
X35321904Y-84802857D01*
X35274285Y-84707619D01*
X35226666Y-84660000D01*
X35131428Y-84612380D01*
X34940952Y-84612380D01*
X34845714Y-84660000D01*
X34798095Y-84707619D01*
X34750476Y-84802857D01*
X34750476Y-84850476D01*
X34798095Y-84945714D01*
X34845714Y-84993333D01*
X34940952Y-85040952D01*
X35131428Y-85040952D01*
X35226666Y-85088571D01*
X35274285Y-85136190D01*
X35321904Y-85231428D01*
X35321904Y-85421904D01*
X35274285Y-85517142D01*
X35226666Y-85564761D01*
X35131428Y-85612380D01*
X34940952Y-85612380D01*
X34845714Y-85564761D01*
X34798095Y-85517142D01*
X34750476Y-85421904D01*
X34750476Y-85231428D01*
X34798095Y-85136190D01*
X34845714Y-85088571D01*
X34940952Y-85040952D01*
X33798095Y-85612380D02*
X34369523Y-85612380D01*
X34083809Y-85612380D02*
X34083809Y-84612380D01*
X34179047Y-84755238D01*
X34274285Y-84850476D01*
X34369523Y-84898095D01*
X33464761Y-84612380D02*
X32798095Y-84612380D01*
X33226666Y-85612380D01*
X30851904Y-88082380D02*
X30851904Y-87082380D01*
X30280476Y-88082380D02*
X30709047Y-87510952D01*
X30280476Y-87082380D02*
X30851904Y-87653809D01*
X36688095Y-88082380D02*
X36688095Y-87082380D01*
X36450000Y-87082380D01*
X36307142Y-87130000D01*
X36211904Y-87225238D01*
X36164285Y-87320476D01*
X36116666Y-87510952D01*
X36116666Y-87653809D01*
X36164285Y-87844285D01*
X36211904Y-87939523D01*
X36307142Y-88034761D01*
X36450000Y-88082380D01*
X36688095Y-88082380D01*
X35735714Y-87177619D02*
X35688095Y-87130000D01*
X35592857Y-87082380D01*
X35354761Y-87082380D01*
X35259523Y-87130000D01*
X35211904Y-87177619D01*
X35164285Y-87272857D01*
X35164285Y-87368095D01*
X35211904Y-87510952D01*
X35783333Y-88082380D01*
X35164285Y-88082380D01*
%TO.C,J2*%
X45447142Y-92317142D02*
X45494761Y-92269523D01*
X45542380Y-92126666D01*
X45542380Y-92031428D01*
X45494761Y-91888571D01*
X45399523Y-91793333D01*
X45304285Y-91745714D01*
X45113809Y-91698095D01*
X44970952Y-91698095D01*
X44780476Y-91745714D01*
X44685238Y-91793333D01*
X44590000Y-91888571D01*
X44542380Y-92031428D01*
X44542380Y-92126666D01*
X44590000Y-92269523D01*
X44637619Y-92317142D01*
X45542380Y-92888571D02*
X45494761Y-92793333D01*
X45447142Y-92745714D01*
X45351904Y-92698095D01*
X45066190Y-92698095D01*
X44970952Y-92745714D01*
X44923333Y-92793333D01*
X44875714Y-92888571D01*
X44875714Y-93031428D01*
X44923333Y-93126666D01*
X44970952Y-93174285D01*
X45066190Y-93221904D01*
X45351904Y-93221904D01*
X45447142Y-93174285D01*
X45494761Y-93126666D01*
X45542380Y-93031428D01*
X45542380Y-92888571D01*
X44875714Y-93650476D02*
X45542380Y-93650476D01*
X44970952Y-93650476D02*
X44923333Y-93698095D01*
X44875714Y-93793333D01*
X44875714Y-93936190D01*
X44923333Y-94031428D01*
X45018571Y-94079047D01*
X45542380Y-94079047D01*
X44875714Y-94555238D02*
X45542380Y-94555238D01*
X44970952Y-94555238D02*
X44923333Y-94602857D01*
X44875714Y-94698095D01*
X44875714Y-94840952D01*
X44923333Y-94936190D01*
X45018571Y-94983809D01*
X45542380Y-94983809D01*
X45637619Y-95221904D02*
X45637619Y-95983809D01*
X44542380Y-96412380D02*
X44542380Y-96507619D01*
X44590000Y-96602857D01*
X44637619Y-96650476D01*
X44732857Y-96698095D01*
X44923333Y-96745714D01*
X45161428Y-96745714D01*
X45351904Y-96698095D01*
X45447142Y-96650476D01*
X45494761Y-96602857D01*
X45542380Y-96507619D01*
X45542380Y-96412380D01*
X45494761Y-96317142D01*
X45447142Y-96269523D01*
X45351904Y-96221904D01*
X45161428Y-96174285D01*
X44923333Y-96174285D01*
X44732857Y-96221904D01*
X44637619Y-96269523D01*
X44590000Y-96317142D01*
X44542380Y-96412380D01*
X44637619Y-97126666D02*
X44590000Y-97174285D01*
X44542380Y-97269523D01*
X44542380Y-97507619D01*
X44590000Y-97602857D01*
X44637619Y-97650476D01*
X44732857Y-97698095D01*
X44828095Y-97698095D01*
X44970952Y-97650476D01*
X45542380Y-97079047D01*
X45542380Y-97698095D01*
X45542380Y-98031428D02*
X44875714Y-98555238D01*
X44875714Y-98031428D02*
X45542380Y-98555238D01*
X44542380Y-99126666D02*
X44542380Y-99221904D01*
X44590000Y-99317142D01*
X44637619Y-99364761D01*
X44732857Y-99412380D01*
X44923333Y-99460000D01*
X45161428Y-99460000D01*
X45351904Y-99412380D01*
X45447142Y-99364761D01*
X45494761Y-99317142D01*
X45542380Y-99221904D01*
X45542380Y-99126666D01*
X45494761Y-99031428D01*
X45447142Y-98983809D01*
X45351904Y-98936190D01*
X45161428Y-98888571D01*
X44923333Y-98888571D01*
X44732857Y-98936190D01*
X44637619Y-98983809D01*
X44590000Y-99031428D01*
X44542380Y-99126666D01*
X44542380Y-100364761D02*
X44542380Y-99888571D01*
X45018571Y-99840952D01*
X44970952Y-99888571D01*
X44923333Y-99983809D01*
X44923333Y-100221904D01*
X44970952Y-100317142D01*
X45018571Y-100364761D01*
X45113809Y-100412380D01*
X45351904Y-100412380D01*
X45447142Y-100364761D01*
X45494761Y-100317142D01*
X45542380Y-100221904D01*
X45542380Y-99983809D01*
X45494761Y-99888571D01*
X45447142Y-99840952D01*
X45637619Y-100602857D02*
X45637619Y-101364761D01*
X44542380Y-101793333D02*
X44542380Y-101983809D01*
X44590000Y-102079047D01*
X44685238Y-102174285D01*
X44875714Y-102221904D01*
X45209047Y-102221904D01*
X45399523Y-102174285D01*
X45494761Y-102079047D01*
X45542380Y-101983809D01*
X45542380Y-101793333D01*
X45494761Y-101698095D01*
X45399523Y-101602857D01*
X45209047Y-101555238D01*
X44875714Y-101555238D01*
X44685238Y-101602857D01*
X44590000Y-101698095D01*
X44542380Y-101793333D01*
X45542380Y-103079047D02*
X44542380Y-103079047D01*
X45494761Y-103079047D02*
X45542380Y-102983809D01*
X45542380Y-102793333D01*
X45494761Y-102698095D01*
X45447142Y-102650476D01*
X45351904Y-102602857D01*
X45066190Y-102602857D01*
X44970952Y-102650476D01*
X44923333Y-102698095D01*
X44875714Y-102793333D01*
X44875714Y-102983809D01*
X44923333Y-103079047D01*
X45542380Y-103983809D02*
X44542380Y-103983809D01*
X45494761Y-103983809D02*
X45542380Y-103888571D01*
X45542380Y-103698095D01*
X45494761Y-103602857D01*
X45447142Y-103555238D01*
X45351904Y-103507619D01*
X45066190Y-103507619D01*
X44970952Y-103555238D01*
X44923333Y-103602857D01*
X44875714Y-103698095D01*
X44875714Y-103888571D01*
X44923333Y-103983809D01*
X45637619Y-104221904D02*
X45637619Y-104983809D01*
X45018571Y-105221904D02*
X45018571Y-105555238D01*
X45542380Y-105698095D02*
X45542380Y-105221904D01*
X44542380Y-105221904D01*
X44542380Y-105698095D01*
X44875714Y-106031428D02*
X45542380Y-106269523D01*
X44875714Y-106507619D01*
X45494761Y-107269523D02*
X45542380Y-107174285D01*
X45542380Y-106983809D01*
X45494761Y-106888571D01*
X45399523Y-106840952D01*
X45018571Y-106840952D01*
X44923333Y-106888571D01*
X44875714Y-106983809D01*
X44875714Y-107174285D01*
X44923333Y-107269523D01*
X45018571Y-107317142D01*
X45113809Y-107317142D01*
X45209047Y-106840952D01*
X44875714Y-107745714D02*
X45542380Y-107745714D01*
X44970952Y-107745714D02*
X44923333Y-107793333D01*
X44875714Y-107888571D01*
X44875714Y-108031428D01*
X44923333Y-108126666D01*
X45018571Y-108174285D01*
X45542380Y-108174285D01*
X31282380Y-99626666D02*
X31996666Y-99626666D01*
X32139523Y-99579047D01*
X32234761Y-99483809D01*
X32282380Y-99340952D01*
X32282380Y-99245714D01*
X31377619Y-100055238D02*
X31330000Y-100102857D01*
X31282380Y-100198095D01*
X31282380Y-100436190D01*
X31330000Y-100531428D01*
X31377619Y-100579047D01*
X31472857Y-100626666D01*
X31568095Y-100626666D01*
X31710952Y-100579047D01*
X32282380Y-100007619D01*
X32282380Y-100626666D01*
%TO.C,Q1*%
X57717619Y-91265714D02*
X57670000Y-91313333D01*
X57622380Y-91408571D01*
X57622380Y-91646666D01*
X57670000Y-91741904D01*
X57717619Y-91789523D01*
X57812857Y-91837142D01*
X57908095Y-91837142D01*
X58050952Y-91789523D01*
X58622380Y-91218095D01*
X58622380Y-91837142D01*
X58622380Y-92265714D02*
X57622380Y-92265714D01*
X58622380Y-92837142D01*
X57622380Y-92837142D01*
X57622380Y-93218095D02*
X57622380Y-93837142D01*
X58003333Y-93503809D01*
X58003333Y-93646666D01*
X58050952Y-93741904D01*
X58098571Y-93789523D01*
X58193809Y-93837142D01*
X58431904Y-93837142D01*
X58527142Y-93789523D01*
X58574761Y-93741904D01*
X58622380Y-93646666D01*
X58622380Y-93360952D01*
X58574761Y-93265714D01*
X58527142Y-93218095D01*
X58622380Y-94313333D02*
X58622380Y-94503809D01*
X58574761Y-94599047D01*
X58527142Y-94646666D01*
X58384285Y-94741904D01*
X58193809Y-94789523D01*
X57812857Y-94789523D01*
X57717619Y-94741904D01*
X57670000Y-94694285D01*
X57622380Y-94599047D01*
X57622380Y-94408571D01*
X57670000Y-94313333D01*
X57717619Y-94265714D01*
X57812857Y-94218095D01*
X58050952Y-94218095D01*
X58146190Y-94265714D01*
X58193809Y-94313333D01*
X58241428Y-94408571D01*
X58241428Y-94599047D01*
X58193809Y-94694285D01*
X58146190Y-94741904D01*
X58050952Y-94789523D01*
X57622380Y-95408571D02*
X57622380Y-95503809D01*
X57670000Y-95599047D01*
X57717619Y-95646666D01*
X57812857Y-95694285D01*
X58003333Y-95741904D01*
X58241428Y-95741904D01*
X58431904Y-95694285D01*
X58527142Y-95646666D01*
X58574761Y-95599047D01*
X58622380Y-95503809D01*
X58622380Y-95408571D01*
X58574761Y-95313333D01*
X58527142Y-95265714D01*
X58431904Y-95218095D01*
X58241428Y-95170476D01*
X58003333Y-95170476D01*
X57812857Y-95218095D01*
X57717619Y-95265714D01*
X57670000Y-95313333D01*
X57622380Y-95408571D01*
X57955714Y-96599047D02*
X58622380Y-96599047D01*
X57574761Y-96360952D02*
X58289047Y-96122857D01*
X58289047Y-96741904D01*
X65067619Y-93884761D02*
X65020000Y-93789523D01*
X64924761Y-93694285D01*
X64781904Y-93551428D01*
X64734285Y-93456190D01*
X64734285Y-93360952D01*
X64972380Y-93408571D02*
X64924761Y-93313333D01*
X64829523Y-93218095D01*
X64639047Y-93170476D01*
X64305714Y-93170476D01*
X64115238Y-93218095D01*
X64020000Y-93313333D01*
X63972380Y-93408571D01*
X63972380Y-93599047D01*
X64020000Y-93694285D01*
X64115238Y-93789523D01*
X64305714Y-93837142D01*
X64639047Y-93837142D01*
X64829523Y-93789523D01*
X64924761Y-93694285D01*
X64972380Y-93599047D01*
X64972380Y-93408571D01*
X64972380Y-94789523D02*
X64972380Y-94218095D01*
X64972380Y-94503809D02*
X63972380Y-94503809D01*
X64115238Y-94408571D01*
X64210476Y-94313333D01*
X64258095Y-94218095D01*
%TO.C,R1*%
X36182380Y-35758571D02*
X36182380Y-35187142D01*
X36182380Y-35472857D02*
X35182380Y-35472857D01*
X35325238Y-35377619D01*
X35420476Y-35282380D01*
X35468095Y-35187142D01*
X35182380Y-36377619D02*
X35182380Y-36472857D01*
X35230000Y-36568095D01*
X35277619Y-36615714D01*
X35372857Y-36663333D01*
X35563333Y-36710952D01*
X35801428Y-36710952D01*
X35991904Y-36663333D01*
X36087142Y-36615714D01*
X36134761Y-36568095D01*
X36182380Y-36472857D01*
X36182380Y-36377619D01*
X36134761Y-36282380D01*
X36087142Y-36234761D01*
X35991904Y-36187142D01*
X35801428Y-36139523D01*
X35563333Y-36139523D01*
X35372857Y-36187142D01*
X35277619Y-36234761D01*
X35230000Y-36282380D01*
X35182380Y-36377619D01*
X35182380Y-37330000D02*
X35182380Y-37425238D01*
X35230000Y-37520476D01*
X35277619Y-37568095D01*
X35372857Y-37615714D01*
X35563333Y-37663333D01*
X35801428Y-37663333D01*
X35991904Y-37615714D01*
X36087142Y-37568095D01*
X36134761Y-37520476D01*
X36182380Y-37425238D01*
X36182380Y-37330000D01*
X36134761Y-37234761D01*
X36087142Y-37187142D01*
X35991904Y-37139523D01*
X35801428Y-37091904D01*
X35563333Y-37091904D01*
X35372857Y-37139523D01*
X35277619Y-37187142D01*
X35230000Y-37234761D01*
X35182380Y-37330000D01*
X36182380Y-38091904D02*
X35182380Y-38091904D01*
X35801428Y-38187142D02*
X36182380Y-38472857D01*
X35515714Y-38472857D02*
X35896666Y-38091904D01*
X38552380Y-36663333D02*
X38076190Y-36330000D01*
X38552380Y-36091904D02*
X37552380Y-36091904D01*
X37552380Y-36472857D01*
X37600000Y-36568095D01*
X37647619Y-36615714D01*
X37742857Y-36663333D01*
X37885714Y-36663333D01*
X37980952Y-36615714D01*
X38028571Y-36568095D01*
X38076190Y-36472857D01*
X38076190Y-36091904D01*
X38552380Y-37615714D02*
X38552380Y-37044285D01*
X38552380Y-37330000D02*
X37552380Y-37330000D01*
X37695238Y-37234761D01*
X37790476Y-37139523D01*
X37838095Y-37044285D01*
%TO.C,R2*%
X41262380Y-35758571D02*
X41262380Y-35187142D01*
X41262380Y-35472857D02*
X40262380Y-35472857D01*
X40405238Y-35377619D01*
X40500476Y-35282380D01*
X40548095Y-35187142D01*
X40262380Y-36377619D02*
X40262380Y-36472857D01*
X40310000Y-36568095D01*
X40357619Y-36615714D01*
X40452857Y-36663333D01*
X40643333Y-36710952D01*
X40881428Y-36710952D01*
X41071904Y-36663333D01*
X41167142Y-36615714D01*
X41214761Y-36568095D01*
X41262380Y-36472857D01*
X41262380Y-36377619D01*
X41214761Y-36282380D01*
X41167142Y-36234761D01*
X41071904Y-36187142D01*
X40881428Y-36139523D01*
X40643333Y-36139523D01*
X40452857Y-36187142D01*
X40357619Y-36234761D01*
X40310000Y-36282380D01*
X40262380Y-36377619D01*
X40262380Y-37330000D02*
X40262380Y-37425238D01*
X40310000Y-37520476D01*
X40357619Y-37568095D01*
X40452857Y-37615714D01*
X40643333Y-37663333D01*
X40881428Y-37663333D01*
X41071904Y-37615714D01*
X41167142Y-37568095D01*
X41214761Y-37520476D01*
X41262380Y-37425238D01*
X41262380Y-37330000D01*
X41214761Y-37234761D01*
X41167142Y-37187142D01*
X41071904Y-37139523D01*
X40881428Y-37091904D01*
X40643333Y-37091904D01*
X40452857Y-37139523D01*
X40357619Y-37187142D01*
X40310000Y-37234761D01*
X40262380Y-37330000D01*
X41262380Y-38091904D02*
X40262380Y-38091904D01*
X40881428Y-38187142D02*
X41262380Y-38472857D01*
X40595714Y-38472857D02*
X40976666Y-38091904D01*
X43632380Y-36663333D02*
X43156190Y-36330000D01*
X43632380Y-36091904D02*
X42632380Y-36091904D01*
X42632380Y-36472857D01*
X42680000Y-36568095D01*
X42727619Y-36615714D01*
X42822857Y-36663333D01*
X42965714Y-36663333D01*
X43060952Y-36615714D01*
X43108571Y-36568095D01*
X43156190Y-36472857D01*
X43156190Y-36091904D01*
X42727619Y-37044285D02*
X42680000Y-37091904D01*
X42632380Y-37187142D01*
X42632380Y-37425238D01*
X42680000Y-37520476D01*
X42727619Y-37568095D01*
X42822857Y-37615714D01*
X42918095Y-37615714D01*
X43060952Y-37568095D01*
X43632380Y-36996666D01*
X43632380Y-37615714D01*
%TO.C,R3*%
X40922380Y-75128571D02*
X40922380Y-74557142D01*
X40922380Y-74842857D02*
X39922380Y-74842857D01*
X40065238Y-74747619D01*
X40160476Y-74652380D01*
X40208095Y-74557142D01*
X39922380Y-75747619D02*
X39922380Y-75842857D01*
X39970000Y-75938095D01*
X40017619Y-75985714D01*
X40112857Y-76033333D01*
X40303333Y-76080952D01*
X40541428Y-76080952D01*
X40731904Y-76033333D01*
X40827142Y-75985714D01*
X40874761Y-75938095D01*
X40922380Y-75842857D01*
X40922380Y-75747619D01*
X40874761Y-75652380D01*
X40827142Y-75604761D01*
X40731904Y-75557142D01*
X40541428Y-75509523D01*
X40303333Y-75509523D01*
X40112857Y-75557142D01*
X40017619Y-75604761D01*
X39970000Y-75652380D01*
X39922380Y-75747619D01*
X39922380Y-76700000D02*
X39922380Y-76795238D01*
X39970000Y-76890476D01*
X40017619Y-76938095D01*
X40112857Y-76985714D01*
X40303333Y-77033333D01*
X40541428Y-77033333D01*
X40731904Y-76985714D01*
X40827142Y-76938095D01*
X40874761Y-76890476D01*
X40922380Y-76795238D01*
X40922380Y-76700000D01*
X40874761Y-76604761D01*
X40827142Y-76557142D01*
X40731904Y-76509523D01*
X40541428Y-76461904D01*
X40303333Y-76461904D01*
X40112857Y-76509523D01*
X40017619Y-76557142D01*
X39970000Y-76604761D01*
X39922380Y-76700000D01*
X40922380Y-77461904D02*
X39922380Y-77461904D01*
X40541428Y-77557142D02*
X40922380Y-77842857D01*
X40255714Y-77842857D02*
X40636666Y-77461904D01*
X38552380Y-76033333D02*
X38076190Y-75700000D01*
X38552380Y-75461904D02*
X37552380Y-75461904D01*
X37552380Y-75842857D01*
X37600000Y-75938095D01*
X37647619Y-75985714D01*
X37742857Y-76033333D01*
X37885714Y-76033333D01*
X37980952Y-75985714D01*
X38028571Y-75938095D01*
X38076190Y-75842857D01*
X38076190Y-75461904D01*
X37552380Y-76366666D02*
X37552380Y-76985714D01*
X37933333Y-76652380D01*
X37933333Y-76795238D01*
X37980952Y-76890476D01*
X38028571Y-76938095D01*
X38123809Y-76985714D01*
X38361904Y-76985714D01*
X38457142Y-76938095D01*
X38504761Y-76890476D01*
X38552380Y-76795238D01*
X38552380Y-76509523D01*
X38504761Y-76414285D01*
X38457142Y-76366666D01*
%TO.C,R4*%
X47272380Y-75128571D02*
X47272380Y-74557142D01*
X47272380Y-74842857D02*
X46272380Y-74842857D01*
X46415238Y-74747619D01*
X46510476Y-74652380D01*
X46558095Y-74557142D01*
X46272380Y-75747619D02*
X46272380Y-75842857D01*
X46320000Y-75938095D01*
X46367619Y-75985714D01*
X46462857Y-76033333D01*
X46653333Y-76080952D01*
X46891428Y-76080952D01*
X47081904Y-76033333D01*
X47177142Y-75985714D01*
X47224761Y-75938095D01*
X47272380Y-75842857D01*
X47272380Y-75747619D01*
X47224761Y-75652380D01*
X47177142Y-75604761D01*
X47081904Y-75557142D01*
X46891428Y-75509523D01*
X46653333Y-75509523D01*
X46462857Y-75557142D01*
X46367619Y-75604761D01*
X46320000Y-75652380D01*
X46272380Y-75747619D01*
X46272380Y-76700000D02*
X46272380Y-76795238D01*
X46320000Y-76890476D01*
X46367619Y-76938095D01*
X46462857Y-76985714D01*
X46653333Y-77033333D01*
X46891428Y-77033333D01*
X47081904Y-76985714D01*
X47177142Y-76938095D01*
X47224761Y-76890476D01*
X47272380Y-76795238D01*
X47272380Y-76700000D01*
X47224761Y-76604761D01*
X47177142Y-76557142D01*
X47081904Y-76509523D01*
X46891428Y-76461904D01*
X46653333Y-76461904D01*
X46462857Y-76509523D01*
X46367619Y-76557142D01*
X46320000Y-76604761D01*
X46272380Y-76700000D01*
X47272380Y-77461904D02*
X46272380Y-77461904D01*
X46891428Y-77557142D02*
X47272380Y-77842857D01*
X46605714Y-77842857D02*
X46986666Y-77461904D01*
X44902380Y-76033333D02*
X44426190Y-75700000D01*
X44902380Y-75461904D02*
X43902380Y-75461904D01*
X43902380Y-75842857D01*
X43950000Y-75938095D01*
X43997619Y-75985714D01*
X44092857Y-76033333D01*
X44235714Y-76033333D01*
X44330952Y-75985714D01*
X44378571Y-75938095D01*
X44426190Y-75842857D01*
X44426190Y-75461904D01*
X44235714Y-76890476D02*
X44902380Y-76890476D01*
X43854761Y-76652380D02*
X44569047Y-76414285D01*
X44569047Y-77033333D01*
%TO.C,R5*%
X44732380Y-114498571D02*
X44732380Y-113927142D01*
X44732380Y-114212857D02*
X43732380Y-114212857D01*
X43875238Y-114117619D01*
X43970476Y-114022380D01*
X44018095Y-113927142D01*
X43732380Y-115117619D02*
X43732380Y-115212857D01*
X43780000Y-115308095D01*
X43827619Y-115355714D01*
X43922857Y-115403333D01*
X44113333Y-115450952D01*
X44351428Y-115450952D01*
X44541904Y-115403333D01*
X44637142Y-115355714D01*
X44684761Y-115308095D01*
X44732380Y-115212857D01*
X44732380Y-115117619D01*
X44684761Y-115022380D01*
X44637142Y-114974761D01*
X44541904Y-114927142D01*
X44351428Y-114879523D01*
X44113333Y-114879523D01*
X43922857Y-114927142D01*
X43827619Y-114974761D01*
X43780000Y-115022380D01*
X43732380Y-115117619D01*
X43732380Y-116070000D02*
X43732380Y-116165238D01*
X43780000Y-116260476D01*
X43827619Y-116308095D01*
X43922857Y-116355714D01*
X44113333Y-116403333D01*
X44351428Y-116403333D01*
X44541904Y-116355714D01*
X44637142Y-116308095D01*
X44684761Y-116260476D01*
X44732380Y-116165238D01*
X44732380Y-116070000D01*
X44684761Y-115974761D01*
X44637142Y-115927142D01*
X44541904Y-115879523D01*
X44351428Y-115831904D01*
X44113333Y-115831904D01*
X43922857Y-115879523D01*
X43827619Y-115927142D01*
X43780000Y-115974761D01*
X43732380Y-116070000D01*
X44732380Y-116831904D02*
X43732380Y-116831904D01*
X44351428Y-116927142D02*
X44732380Y-117212857D01*
X44065714Y-117212857D02*
X44446666Y-116831904D01*
X42362380Y-115403333D02*
X41886190Y-115070000D01*
X42362380Y-114831904D02*
X41362380Y-114831904D01*
X41362380Y-115212857D01*
X41410000Y-115308095D01*
X41457619Y-115355714D01*
X41552857Y-115403333D01*
X41695714Y-115403333D01*
X41790952Y-115355714D01*
X41838571Y-115308095D01*
X41886190Y-115212857D01*
X41886190Y-114831904D01*
X41362380Y-116308095D02*
X41362380Y-115831904D01*
X41838571Y-115784285D01*
X41790952Y-115831904D01*
X41743333Y-115927142D01*
X41743333Y-116165238D01*
X41790952Y-116260476D01*
X41838571Y-116308095D01*
X41933809Y-116355714D01*
X42171904Y-116355714D01*
X42267142Y-116308095D01*
X42314761Y-116260476D01*
X42362380Y-116165238D01*
X42362380Y-115927142D01*
X42314761Y-115831904D01*
X42267142Y-115784285D01*
%TO.C,R6*%
X56951428Y-88082380D02*
X57522857Y-88082380D01*
X57237142Y-88082380D02*
X57237142Y-87082380D01*
X57332380Y-87225238D01*
X57427619Y-87320476D01*
X57522857Y-87368095D01*
X56332380Y-87082380D02*
X56237142Y-87082380D01*
X56141904Y-87130000D01*
X56094285Y-87177619D01*
X56046666Y-87272857D01*
X55999047Y-87463333D01*
X55999047Y-87701428D01*
X56046666Y-87891904D01*
X56094285Y-87987142D01*
X56141904Y-88034761D01*
X56237142Y-88082380D01*
X56332380Y-88082380D01*
X56427619Y-88034761D01*
X56475238Y-87987142D01*
X56522857Y-87891904D01*
X56570476Y-87701428D01*
X56570476Y-87463333D01*
X56522857Y-87272857D01*
X56475238Y-87177619D01*
X56427619Y-87130000D01*
X56332380Y-87082380D01*
X55380000Y-87082380D02*
X55284761Y-87082380D01*
X55189523Y-87130000D01*
X55141904Y-87177619D01*
X55094285Y-87272857D01*
X55046666Y-87463333D01*
X55046666Y-87701428D01*
X55094285Y-87891904D01*
X55141904Y-87987142D01*
X55189523Y-88034761D01*
X55284761Y-88082380D01*
X55380000Y-88082380D01*
X55475238Y-88034761D01*
X55522857Y-87987142D01*
X55570476Y-87891904D01*
X55618095Y-87701428D01*
X55618095Y-87463333D01*
X55570476Y-87272857D01*
X55522857Y-87177619D01*
X55475238Y-87130000D01*
X55380000Y-87082380D01*
X54618095Y-88082380D02*
X54618095Y-87082380D01*
X54522857Y-87701428D02*
X54237142Y-88082380D01*
X54237142Y-87415714D02*
X54618095Y-87796666D01*
X56046666Y-88082380D02*
X56380000Y-87606190D01*
X56618095Y-88082380D02*
X56618095Y-87082380D01*
X56237142Y-87082380D01*
X56141904Y-87130000D01*
X56094285Y-87177619D01*
X56046666Y-87272857D01*
X56046666Y-87415714D01*
X56094285Y-87510952D01*
X56141904Y-87558571D01*
X56237142Y-87606190D01*
X56618095Y-87606190D01*
X55189523Y-87082380D02*
X55380000Y-87082380D01*
X55475238Y-87130000D01*
X55522857Y-87177619D01*
X55618095Y-87320476D01*
X55665714Y-87510952D01*
X55665714Y-87891904D01*
X55618095Y-87987142D01*
X55570476Y-88034761D01*
X55475238Y-88082380D01*
X55284761Y-88082380D01*
X55189523Y-88034761D01*
X55141904Y-87987142D01*
X55094285Y-87891904D01*
X55094285Y-87653809D01*
X55141904Y-87558571D01*
X55189523Y-87510952D01*
X55284761Y-87463333D01*
X55475238Y-87463333D01*
X55570476Y-87510952D01*
X55618095Y-87558571D01*
X55665714Y-87653809D01*
%TO.C,R7*%
X54982857Y-49247619D02*
X54935238Y-49200000D01*
X54840000Y-49152380D01*
X54601904Y-49152380D01*
X54506666Y-49200000D01*
X54459047Y-49247619D01*
X54411428Y-49342857D01*
X54411428Y-49438095D01*
X54459047Y-49580952D01*
X55030476Y-50152380D01*
X54411428Y-50152380D01*
X53792380Y-49152380D02*
X53697142Y-49152380D01*
X53601904Y-49200000D01*
X53554285Y-49247619D01*
X53506666Y-49342857D01*
X53459047Y-49533333D01*
X53459047Y-49771428D01*
X53506666Y-49961904D01*
X53554285Y-50057142D01*
X53601904Y-50104761D01*
X53697142Y-50152380D01*
X53792380Y-50152380D01*
X53887619Y-50104761D01*
X53935238Y-50057142D01*
X53982857Y-49961904D01*
X54030476Y-49771428D01*
X54030476Y-49533333D01*
X53982857Y-49342857D01*
X53935238Y-49247619D01*
X53887619Y-49200000D01*
X53792380Y-49152380D01*
X52840000Y-49152380D02*
X52744761Y-49152380D01*
X52649523Y-49200000D01*
X52601904Y-49247619D01*
X52554285Y-49342857D01*
X52506666Y-49533333D01*
X52506666Y-49771428D01*
X52554285Y-49961904D01*
X52601904Y-50057142D01*
X52649523Y-50104761D01*
X52744761Y-50152380D01*
X52840000Y-50152380D01*
X52935238Y-50104761D01*
X52982857Y-50057142D01*
X53030476Y-49961904D01*
X53078095Y-49771428D01*
X53078095Y-49533333D01*
X53030476Y-49342857D01*
X52982857Y-49247619D01*
X52935238Y-49200000D01*
X52840000Y-49152380D01*
X52078095Y-50152380D02*
X52078095Y-49152380D01*
X51982857Y-49771428D02*
X51697142Y-50152380D01*
X51697142Y-49485714D02*
X52078095Y-49866666D01*
X53506666Y-52522380D02*
X53840000Y-52046190D01*
X54078095Y-52522380D02*
X54078095Y-51522380D01*
X53697142Y-51522380D01*
X53601904Y-51570000D01*
X53554285Y-51617619D01*
X53506666Y-51712857D01*
X53506666Y-51855714D01*
X53554285Y-51950952D01*
X53601904Y-51998571D01*
X53697142Y-52046190D01*
X54078095Y-52046190D01*
X53173333Y-51522380D02*
X52506666Y-51522380D01*
X52935238Y-52522380D01*
%TO.C,R8*%
X27741428Y-66322380D02*
X28312857Y-66322380D01*
X28027142Y-66322380D02*
X28027142Y-65322380D01*
X28122380Y-65465238D01*
X28217619Y-65560476D01*
X28312857Y-65608095D01*
X27122380Y-65322380D02*
X27027142Y-65322380D01*
X26931904Y-65370000D01*
X26884285Y-65417619D01*
X26836666Y-65512857D01*
X26789047Y-65703333D01*
X26789047Y-65941428D01*
X26836666Y-66131904D01*
X26884285Y-66227142D01*
X26931904Y-66274761D01*
X27027142Y-66322380D01*
X27122380Y-66322380D01*
X27217619Y-66274761D01*
X27265238Y-66227142D01*
X27312857Y-66131904D01*
X27360476Y-65941428D01*
X27360476Y-65703333D01*
X27312857Y-65512857D01*
X27265238Y-65417619D01*
X27217619Y-65370000D01*
X27122380Y-65322380D01*
X26170000Y-65322380D02*
X26074761Y-65322380D01*
X25979523Y-65370000D01*
X25931904Y-65417619D01*
X25884285Y-65512857D01*
X25836666Y-65703333D01*
X25836666Y-65941428D01*
X25884285Y-66131904D01*
X25931904Y-66227142D01*
X25979523Y-66274761D01*
X26074761Y-66322380D01*
X26170000Y-66322380D01*
X26265238Y-66274761D01*
X26312857Y-66227142D01*
X26360476Y-66131904D01*
X26408095Y-65941428D01*
X26408095Y-65703333D01*
X26360476Y-65512857D01*
X26312857Y-65417619D01*
X26265238Y-65370000D01*
X26170000Y-65322380D01*
X25408095Y-66322380D02*
X25408095Y-65322380D01*
X25312857Y-65941428D02*
X25027142Y-66322380D01*
X25027142Y-65655714D02*
X25408095Y-66036666D01*
X26836666Y-63952380D02*
X27170000Y-63476190D01*
X27408095Y-63952380D02*
X27408095Y-62952380D01*
X27027142Y-62952380D01*
X26931904Y-63000000D01*
X26884285Y-63047619D01*
X26836666Y-63142857D01*
X26836666Y-63285714D01*
X26884285Y-63380952D01*
X26931904Y-63428571D01*
X27027142Y-63476190D01*
X27408095Y-63476190D01*
X26265238Y-63380952D02*
X26360476Y-63333333D01*
X26408095Y-63285714D01*
X26455714Y-63190476D01*
X26455714Y-63142857D01*
X26408095Y-63047619D01*
X26360476Y-63000000D01*
X26265238Y-62952380D01*
X26074761Y-62952380D01*
X25979523Y-63000000D01*
X25931904Y-63047619D01*
X25884285Y-63142857D01*
X25884285Y-63190476D01*
X25931904Y-63285714D01*
X25979523Y-63333333D01*
X26074761Y-63380952D01*
X26265238Y-63380952D01*
X26360476Y-63428571D01*
X26408095Y-63476190D01*
X26455714Y-63571428D01*
X26455714Y-63761904D01*
X26408095Y-63857142D01*
X26360476Y-63904761D01*
X26265238Y-63952380D01*
X26074761Y-63952380D01*
X25979523Y-63904761D01*
X25931904Y-63857142D01*
X25884285Y-63761904D01*
X25884285Y-63571428D01*
X25931904Y-63476190D01*
X25979523Y-63428571D01*
X26074761Y-63380952D01*
%TO.C,R9*%
X27741428Y-57772380D02*
X28312857Y-57772380D01*
X28027142Y-57772380D02*
X28027142Y-56772380D01*
X28122380Y-56915238D01*
X28217619Y-57010476D01*
X28312857Y-57058095D01*
X27122380Y-56772380D02*
X27027142Y-56772380D01*
X26931904Y-56820000D01*
X26884285Y-56867619D01*
X26836666Y-56962857D01*
X26789047Y-57153333D01*
X26789047Y-57391428D01*
X26836666Y-57581904D01*
X26884285Y-57677142D01*
X26931904Y-57724761D01*
X27027142Y-57772380D01*
X27122380Y-57772380D01*
X27217619Y-57724761D01*
X27265238Y-57677142D01*
X27312857Y-57581904D01*
X27360476Y-57391428D01*
X27360476Y-57153333D01*
X27312857Y-56962857D01*
X27265238Y-56867619D01*
X27217619Y-56820000D01*
X27122380Y-56772380D01*
X26170000Y-56772380D02*
X26074761Y-56772380D01*
X25979523Y-56820000D01*
X25931904Y-56867619D01*
X25884285Y-56962857D01*
X25836666Y-57153333D01*
X25836666Y-57391428D01*
X25884285Y-57581904D01*
X25931904Y-57677142D01*
X25979523Y-57724761D01*
X26074761Y-57772380D01*
X26170000Y-57772380D01*
X26265238Y-57724761D01*
X26312857Y-57677142D01*
X26360476Y-57581904D01*
X26408095Y-57391428D01*
X26408095Y-57153333D01*
X26360476Y-56962857D01*
X26312857Y-56867619D01*
X26265238Y-56820000D01*
X26170000Y-56772380D01*
X25408095Y-57772380D02*
X25408095Y-56772380D01*
X25312857Y-57391428D02*
X25027142Y-57772380D01*
X25027142Y-57105714D02*
X25408095Y-57486666D01*
X26836666Y-60142380D02*
X27170000Y-59666190D01*
X27408095Y-60142380D02*
X27408095Y-59142380D01*
X27027142Y-59142380D01*
X26931904Y-59190000D01*
X26884285Y-59237619D01*
X26836666Y-59332857D01*
X26836666Y-59475714D01*
X26884285Y-59570952D01*
X26931904Y-59618571D01*
X27027142Y-59666190D01*
X27408095Y-59666190D01*
X26360476Y-60142380D02*
X26170000Y-60142380D01*
X26074761Y-60094761D01*
X26027142Y-60047142D01*
X25931904Y-59904285D01*
X25884285Y-59713809D01*
X25884285Y-59332857D01*
X25931904Y-59237619D01*
X25979523Y-59190000D01*
X26074761Y-59142380D01*
X26265238Y-59142380D01*
X26360476Y-59190000D01*
X26408095Y-59237619D01*
X26455714Y-59332857D01*
X26455714Y-59570952D01*
X26408095Y-59666190D01*
X26360476Y-59713809D01*
X26265238Y-59761428D01*
X26074761Y-59761428D01*
X25979523Y-59713809D01*
X25931904Y-59666190D01*
X25884285Y-59570952D01*
%TO.C,R10*%
X26789047Y-52692380D02*
X27360476Y-52692380D01*
X27074761Y-52692380D02*
X27074761Y-51692380D01*
X27170000Y-51835238D01*
X27265238Y-51930476D01*
X27360476Y-51978095D01*
X26360476Y-52692380D02*
X26360476Y-51692380D01*
X26265238Y-52311428D02*
X25979523Y-52692380D01*
X25979523Y-52025714D02*
X26360476Y-52406666D01*
X27312857Y-55062380D02*
X27646190Y-54586190D01*
X27884285Y-55062380D02*
X27884285Y-54062380D01*
X27503333Y-54062380D01*
X27408095Y-54110000D01*
X27360476Y-54157619D01*
X27312857Y-54252857D01*
X27312857Y-54395714D01*
X27360476Y-54490952D01*
X27408095Y-54538571D01*
X27503333Y-54586190D01*
X27884285Y-54586190D01*
X26360476Y-55062380D02*
X26931904Y-55062380D01*
X26646190Y-55062380D02*
X26646190Y-54062380D01*
X26741428Y-54205238D01*
X26836666Y-54300476D01*
X26931904Y-54348095D01*
X25741428Y-54062380D02*
X25646190Y-54062380D01*
X25550952Y-54110000D01*
X25503333Y-54157619D01*
X25455714Y-54252857D01*
X25408095Y-54443333D01*
X25408095Y-54681428D01*
X25455714Y-54871904D01*
X25503333Y-54967142D01*
X25550952Y-55014761D01*
X25646190Y-55062380D01*
X25741428Y-55062380D01*
X25836666Y-55014761D01*
X25884285Y-54967142D01*
X25931904Y-54871904D01*
X25979523Y-54681428D01*
X25979523Y-54443333D01*
X25931904Y-54252857D01*
X25884285Y-54157619D01*
X25836666Y-54110000D01*
X25741428Y-54062380D01*
%TO.C,R11*%
X47442380Y-92590952D02*
X47442380Y-92019523D01*
X47442380Y-92305238D02*
X46442380Y-92305238D01*
X46585238Y-92210000D01*
X46680476Y-92114761D01*
X46728095Y-92019523D01*
X47442380Y-93019523D02*
X46442380Y-93019523D01*
X47061428Y-93114761D02*
X47442380Y-93400476D01*
X46775714Y-93400476D02*
X47156666Y-93019523D01*
X47442380Y-92067142D02*
X46966190Y-91733809D01*
X47442380Y-91495714D02*
X46442380Y-91495714D01*
X46442380Y-91876666D01*
X46490000Y-91971904D01*
X46537619Y-92019523D01*
X46632857Y-92067142D01*
X46775714Y-92067142D01*
X46870952Y-92019523D01*
X46918571Y-91971904D01*
X46966190Y-91876666D01*
X46966190Y-91495714D01*
X47442380Y-93019523D02*
X47442380Y-92448095D01*
X47442380Y-92733809D02*
X46442380Y-92733809D01*
X46585238Y-92638571D01*
X46680476Y-92543333D01*
X46728095Y-92448095D01*
X47442380Y-93971904D02*
X47442380Y-93400476D01*
X47442380Y-93686190D02*
X46442380Y-93686190D01*
X46585238Y-93590952D01*
X46680476Y-93495714D01*
X46728095Y-93400476D01*
%TO.C,U1*%
X42759047Y-61472380D02*
X42187619Y-61472380D01*
X42473333Y-62472380D02*
X42473333Y-61472380D01*
X41378095Y-62472380D02*
X41854285Y-62472380D01*
X41854285Y-61472380D01*
X40854285Y-61472380D02*
X40759047Y-61472380D01*
X40663809Y-61520000D01*
X40616190Y-61567619D01*
X40568571Y-61662857D01*
X40520952Y-61853333D01*
X40520952Y-62091428D01*
X40568571Y-62281904D01*
X40616190Y-62377142D01*
X40663809Y-62424761D01*
X40759047Y-62472380D01*
X40854285Y-62472380D01*
X40949523Y-62424761D01*
X40997142Y-62377142D01*
X41044761Y-62281904D01*
X41092380Y-62091428D01*
X41092380Y-61853333D01*
X41044761Y-61662857D01*
X40997142Y-61567619D01*
X40949523Y-61520000D01*
X40854285Y-61472380D01*
X40187619Y-61472380D02*
X39520952Y-61472380D01*
X39949523Y-62472380D01*
X39187619Y-61567619D02*
X39140000Y-61520000D01*
X39044761Y-61472380D01*
X38806666Y-61472380D01*
X38711428Y-61520000D01*
X38663809Y-61567619D01*
X38616190Y-61662857D01*
X38616190Y-61758095D01*
X38663809Y-61900952D01*
X39235238Y-62472380D01*
X38616190Y-62472380D01*
X41401904Y-55332380D02*
X41401904Y-56141904D01*
X41354285Y-56237142D01*
X41306666Y-56284761D01*
X41211428Y-56332380D01*
X41020952Y-56332380D01*
X40925714Y-56284761D01*
X40878095Y-56237142D01*
X40830476Y-56141904D01*
X40830476Y-55332380D01*
X39830476Y-56332380D02*
X40401904Y-56332380D01*
X40116190Y-56332380D02*
X40116190Y-55332380D01*
X40211428Y-55475238D01*
X40306666Y-55570476D01*
X40401904Y-55618095D01*
%TD*%
M02*
