%TF.GenerationSoftware,KiCad,Pcbnew,(5.1.9)-1*%
%TF.CreationDate,2021-08-22T20:59:49+01:00*%
%TF.ProjectId,KOSMOS Simple Mixer,4b4f534d-4f53-4205-9369-6d706c65204d,rev?*%
%TF.SameCoordinates,Original*%
%TF.FileFunction,Soldermask,Bot*%
%TF.FilePolarity,Negative*%
%FSLAX46Y46*%
G04 Gerber Fmt 4.6, Leading zero omitted, Abs format (unit mm)*
G04 Created by KiCad (PCBNEW (5.1.9)-1) date 2021-08-22 20:59:49*
%MOMM*%
%LPD*%
G01*
G04 APERTURE LIST*
%ADD10C,1.600000*%
%ADD11R,1.600000X1.600000*%
%ADD12R,2.200000X2.200000*%
%ADD13O,2.200000X2.200000*%
%ADD14R,1.800000X1.800000*%
%ADD15C,1.800000*%
%ADD16R,1.700000X1.700000*%
%ADD17O,1.700000X1.700000*%
%ADD18R,1.727200X1.727200*%
%ADD19O,1.727200X1.727200*%
%ADD20C,1.500000*%
%ADD21R,1.500000X1.500000*%
%ADD22O,1.600000X1.600000*%
%ADD23C,3.240000*%
%ADD24R,2.400000X1.600000*%
%ADD25O,2.400000X1.600000*%
G04 APERTURE END LIST*
D10*
%TO.C,C1*%
X50760000Y-54610000D03*
X48260000Y-54610000D03*
%TD*%
%TO.C,C2*%
X31710000Y-57150000D03*
X29210000Y-57150000D03*
%TD*%
D11*
%TO.C,C3*%
X47150000Y-102930000D03*
D10*
X49650000Y-102930000D03*
%TD*%
%TO.C,C4*%
X59860000Y-102990000D03*
D11*
X57360000Y-102990000D03*
%TD*%
D10*
%TO.C,C5*%
X29210000Y-52070000D03*
X31710000Y-52070000D03*
%TD*%
%TO.C,C6*%
X50800000Y-59690000D03*
X48300000Y-59690000D03*
%TD*%
D12*
%TO.C,D1*%
X40640000Y-91830000D03*
D13*
X30480000Y-91830000D03*
%TD*%
%TO.C,D2*%
X40640000Y-87630000D03*
D12*
X30480000Y-87630000D03*
%TD*%
D14*
%TO.C,D3*%
X52290000Y-94190000D03*
D15*
X54830000Y-94190000D03*
%TD*%
D16*
%TO.C,J1*%
X33230000Y-124947000D03*
D17*
X35770000Y-124947000D03*
X38310000Y-124947000D03*
X40850000Y-124947000D03*
X43390000Y-124947000D03*
X45930000Y-124947000D03*
X48470000Y-124947000D03*
X51010000Y-124947000D03*
%TD*%
D18*
%TO.C,J2*%
X26750000Y-98690000D03*
D19*
X26750000Y-101230000D03*
X29290000Y-98690000D03*
X29290000Y-101230000D03*
X31830000Y-98690000D03*
X31830000Y-101230000D03*
X34370000Y-98690000D03*
X34370000Y-101230000D03*
X36910000Y-98690000D03*
X36910000Y-101230000D03*
%TD*%
D20*
%TO.C,Q1*%
X60960000Y-93980000D03*
X60960000Y-91440000D03*
D21*
X60960000Y-96520000D03*
%TD*%
D22*
%TO.C,R1*%
X38100000Y-31750000D03*
D10*
X38100000Y-41910000D03*
%TD*%
D22*
%TO.C,R2*%
X43180000Y-31750000D03*
D10*
X43180000Y-41910000D03*
%TD*%
%TO.C,R3*%
X38100000Y-71120000D03*
D22*
X38100000Y-81280000D03*
%TD*%
D10*
%TO.C,R4*%
X44450000Y-71120000D03*
D22*
X44450000Y-81280000D03*
%TD*%
%TO.C,R5*%
X41910000Y-120650000D03*
D10*
X41910000Y-110490000D03*
%TD*%
D22*
%TO.C,R6*%
X50800000Y-87630000D03*
D10*
X60960000Y-87630000D03*
%TD*%
%TO.C,R7*%
X48260000Y-52070000D03*
D22*
X58420000Y-52070000D03*
%TD*%
%TO.C,R8*%
X21590000Y-63500000D03*
D10*
X31750000Y-63500000D03*
%TD*%
%TO.C,R9*%
X21590000Y-59690000D03*
D22*
X31750000Y-59690000D03*
%TD*%
%TO.C,R10*%
X31750000Y-54610000D03*
D10*
X21590000Y-54610000D03*
%TD*%
%TO.C,R11*%
X46990000Y-87630000D03*
D22*
X46990000Y-97790000D03*
%TD*%
D23*
%TO.C,RV1*%
X24100000Y-34340000D03*
X33700000Y-34340000D03*
D15*
X31400000Y-41840000D03*
X28900000Y-41840000D03*
D14*
X26400000Y-41840000D03*
%TD*%
%TO.C,RV2*%
X51360000Y-41840000D03*
D15*
X53860000Y-41840000D03*
X56360000Y-41840000D03*
D23*
X58660000Y-34340000D03*
X49060000Y-34340000D03*
%TD*%
%TO.C,RV3*%
X24090000Y-74300000D03*
X33690000Y-74300000D03*
D15*
X31390000Y-81800000D03*
X28890000Y-81800000D03*
D14*
X26390000Y-81800000D03*
%TD*%
%TO.C,RV4*%
X51400000Y-81830000D03*
D15*
X53900000Y-81830000D03*
X56400000Y-81830000D03*
D23*
X58700000Y-74330000D03*
X49100000Y-74330000D03*
%TD*%
D14*
%TO.C,RV5*%
X26360000Y-121830000D03*
D15*
X28860000Y-121830000D03*
X31360000Y-121830000D03*
D23*
X33660000Y-114330000D03*
X24060000Y-114330000D03*
%TD*%
%TO.C,RV7*%
X49080000Y-114310000D03*
X58680000Y-114310000D03*
D15*
X56380000Y-121810000D03*
X53880000Y-121810000D03*
D14*
X51380000Y-121810000D03*
%TD*%
D24*
%TO.C,U1*%
X44450000Y-52070000D03*
D25*
X36830000Y-59690000D03*
X44450000Y-54610000D03*
X36830000Y-57150000D03*
X44450000Y-57150000D03*
X36830000Y-54610000D03*
X44450000Y-59690000D03*
X36830000Y-52070000D03*
%TD*%
M02*
