%TF.GenerationSoftware,KiCad,Pcbnew,(5.1.9)-1*%
%TF.CreationDate,2021-08-22T20:59:49+01:00*%
%TF.ProjectId,KOSMOS Simple Mixer,4b4f534d-4f53-4205-9369-6d706c65204d,rev?*%
%TF.SameCoordinates,Original*%
%TF.FileFunction,Other,User*%
%FSLAX46Y46*%
G04 Gerber Fmt 4.6, Leading zero omitted, Abs format (unit mm)*
G04 Created by KiCad (PCBNEW (5.1.9)-1) date 2021-08-22 20:59:49*
%MOMM*%
%LPD*%
G01*
G04 APERTURE LIST*
%ADD10C,0.050000*%
G04 APERTURE END LIST*
D10*
%TO.C,C1*%
X47210000Y-55660000D02*
X47210000Y-53560000D01*
X47210000Y-53560000D02*
X51810000Y-53560000D01*
X51810000Y-53560000D02*
X51810000Y-55660000D01*
X51810000Y-55660000D02*
X47210000Y-55660000D01*
%TO.C,C2*%
X28160000Y-58200000D02*
X28160000Y-56100000D01*
X28160000Y-56100000D02*
X32760000Y-56100000D01*
X32760000Y-56100000D02*
X32760000Y-58200000D01*
X32760000Y-58200000D02*
X28160000Y-58200000D01*
%TO.C,C3*%
X51800000Y-102930000D02*
G75*
G03*
X51800000Y-102930000I-3400000J0D01*
G01*
%TO.C,C4*%
X62010000Y-102990000D02*
G75*
G03*
X62010000Y-102990000I-3400000J0D01*
G01*
%TO.C,C5*%
X32760000Y-53120000D02*
X28160000Y-53120000D01*
X32760000Y-51020000D02*
X32760000Y-53120000D01*
X28160000Y-51020000D02*
X32760000Y-51020000D01*
X28160000Y-53120000D02*
X28160000Y-51020000D01*
%TO.C,C6*%
X47250000Y-58640000D02*
X51850000Y-58640000D01*
X47250000Y-60740000D02*
X47250000Y-58640000D01*
X51850000Y-60740000D02*
X47250000Y-60740000D01*
X51850000Y-58640000D02*
X51850000Y-60740000D01*
%TO.C,D1*%
X29130000Y-90230000D02*
X41990000Y-90230000D01*
X29130000Y-93430000D02*
X29130000Y-90230000D01*
X41990000Y-93430000D02*
X29130000Y-93430000D01*
X41990000Y-90230000D02*
X41990000Y-93430000D01*
%TO.C,D2*%
X29130000Y-89230000D02*
X29130000Y-86030000D01*
X29130000Y-86030000D02*
X41990000Y-86030000D01*
X41990000Y-86030000D02*
X41990000Y-89230000D01*
X41990000Y-89230000D02*
X29130000Y-89230000D01*
%TO.C,J2*%
X21400000Y-95280000D02*
X21400000Y-104640000D01*
X42260000Y-95280000D02*
X21400000Y-95280000D01*
X42260000Y-104640000D02*
X42260000Y-95280000D01*
X21400000Y-104640000D02*
X42260000Y-104640000D01*
%TO.C,Q1*%
X63690000Y-97530000D02*
X63690000Y-90430000D01*
X63690000Y-97530000D02*
X58950000Y-97530000D01*
X58950000Y-90430000D02*
X63690000Y-90430000D01*
X58950000Y-90430000D02*
X58950000Y-97530000D01*
%TO.C,R1*%
X39600000Y-42960000D02*
X36600000Y-42960000D01*
X36600000Y-42960000D02*
X36600000Y-30700000D01*
X36600000Y-30700000D02*
X39600000Y-30700000D01*
X39600000Y-30700000D02*
X39600000Y-42960000D01*
%TO.C,R2*%
X44680000Y-42960000D02*
X41680000Y-42960000D01*
X41680000Y-42960000D02*
X41680000Y-30700000D01*
X41680000Y-30700000D02*
X44680000Y-30700000D01*
X44680000Y-30700000D02*
X44680000Y-42960000D01*
%TO.C,R3*%
X36600000Y-82330000D02*
X36600000Y-70070000D01*
X39600000Y-82330000D02*
X36600000Y-82330000D01*
X39600000Y-70070000D02*
X39600000Y-82330000D01*
X36600000Y-70070000D02*
X39600000Y-70070000D01*
%TO.C,R4*%
X42950000Y-82330000D02*
X42950000Y-70070000D01*
X45950000Y-82330000D02*
X42950000Y-82330000D01*
X45950000Y-70070000D02*
X45950000Y-82330000D01*
X42950000Y-70070000D02*
X45950000Y-70070000D01*
%TO.C,R5*%
X40410000Y-109440000D02*
X43410000Y-109440000D01*
X43410000Y-109440000D02*
X43410000Y-121700000D01*
X43410000Y-121700000D02*
X40410000Y-121700000D01*
X40410000Y-121700000D02*
X40410000Y-109440000D01*
%TO.C,R6*%
X62010000Y-86130000D02*
X62010000Y-89130000D01*
X62010000Y-89130000D02*
X49750000Y-89130000D01*
X49750000Y-89130000D02*
X49750000Y-86130000D01*
X49750000Y-86130000D02*
X62010000Y-86130000D01*
%TO.C,R7*%
X59470000Y-53570000D02*
X47210000Y-53570000D01*
X59470000Y-50570000D02*
X59470000Y-53570000D01*
X47210000Y-50570000D02*
X59470000Y-50570000D01*
X47210000Y-53570000D02*
X47210000Y-50570000D01*
%TO.C,R8*%
X32800000Y-62000000D02*
X32800000Y-65000000D01*
X32800000Y-65000000D02*
X20540000Y-65000000D01*
X20540000Y-65000000D02*
X20540000Y-62000000D01*
X20540000Y-62000000D02*
X32800000Y-62000000D01*
%TO.C,R9*%
X32800000Y-61190000D02*
X20540000Y-61190000D01*
X32800000Y-58190000D02*
X32800000Y-61190000D01*
X20540000Y-58190000D02*
X32800000Y-58190000D01*
X20540000Y-61190000D02*
X20540000Y-58190000D01*
%TO.C,R10*%
X20540000Y-56110000D02*
X20540000Y-53110000D01*
X20540000Y-53110000D02*
X32800000Y-53110000D01*
X32800000Y-53110000D02*
X32800000Y-56110000D01*
X32800000Y-56110000D02*
X20540000Y-56110000D01*
%TO.C,R11*%
X45490000Y-98840000D02*
X45490000Y-86580000D01*
X48490000Y-98840000D02*
X45490000Y-98840000D01*
X48490000Y-86580000D02*
X48490000Y-98840000D01*
X45490000Y-86580000D02*
X48490000Y-86580000D01*
%TO.C,U1*%
X46000000Y-50470000D02*
X46000000Y-61270000D01*
X46000000Y-61270000D02*
X35300000Y-61270000D01*
X35300000Y-61270000D02*
X35300000Y-50470000D01*
X35300000Y-50470000D02*
X46000000Y-50470000D01*
%TD*%
M02*
