M48
; DRILL file {KiCad (5.1.9)-1} date 08/22/21 20:59:53
; FORMAT={-:-/ absolute / inch / decimal}
; #@! TF.CreationDate,2021-08-22T20:59:53+01:00
; #@! TF.GenerationSoftware,Kicad,Pcbnew,(5.1.9)-1
; #@! TF.FileFunction,Plated,1,2,PTH
FMAT,2
INCH
T1C0.0157
T2C0.0315
T3C0.0354
T4C0.0394
T5C0.0400
T6C0.0433
T7C0.0709
%
G90
G05
T1
X0.85Y-5.0
X0.9116Y-5.0711
X1.5Y-3.3
X1.65Y-3.3
X2.1Y-5.05
X2.5Y-1.8
X2.5Y-4.8
T2
X0.85Y-2.15
X0.85Y-2.35
X0.85Y-2.5
X1.15Y-2.05
X1.15Y-2.25
X1.2484Y-2.05
X1.2484Y-2.25
X1.25Y-2.15
X1.25Y-2.35
X1.25Y-2.5
X1.45Y-2.05
X1.45Y-2.15
X1.45Y-2.25
X1.45Y-2.35
X1.5Y-1.25
X1.5Y-1.65
X1.5Y-2.8
X1.5Y-3.2
X1.65Y-4.35
X1.65Y-4.75
X1.7Y-1.25
X1.7Y-1.65
X1.75Y-2.05
X1.75Y-2.15
X1.75Y-2.25
X1.75Y-2.35
X1.75Y-2.8
X1.75Y-3.2
X1.85Y-3.45
X1.85Y-3.85
X1.8563Y-4.0524
X1.9Y-2.05
X1.9Y-2.15
X1.9016Y-2.35
X1.9547Y-4.0524
X1.9984Y-2.15
X2.0Y-2.35
X2.0Y-3.45
X2.2583Y-4.0547
X2.3Y-2.05
X2.3567Y-4.0547
X2.4Y-3.45
X2.4Y-3.6
X2.4Y-3.7
X2.4Y-3.8
T3
X2.0587Y-3.7083
X2.1587Y-3.7083
T4
X1.0378Y-4.7965
X1.039Y-3.2205
X1.0394Y-1.6472
X1.1362Y-4.7965
X1.1374Y-3.2205
X1.1378Y-1.6472
X1.2346Y-4.7965
X1.2358Y-3.2205
X1.2362Y-1.6472
X1.3083Y-4.9192
X1.4083Y-4.9192
X1.5083Y-4.9192
X1.6083Y-4.9192
X1.7083Y-4.9192
X1.8083Y-4.9192
X1.9083Y-4.9192
X2.0083Y-4.9192
X2.022Y-1.6472
X2.0228Y-4.7957
X2.0236Y-3.2217
X2.1205Y-1.6472
X2.1213Y-4.7957
X2.122Y-3.2217
X2.2189Y-1.6472
X2.2197Y-4.7957
X2.2205Y-3.2217
T5
X1.0531Y-3.8854
X1.0531Y-3.9854
X1.1531Y-3.8854
X1.1531Y-3.9854
X1.2531Y-3.8854
X1.2531Y-3.9854
X1.3531Y-3.8854
X1.3531Y-3.9854
X1.4531Y-3.8854
X1.4531Y-3.9854
T6
X1.2Y-3.45
X1.2Y-3.6154
X1.6Y-3.45
X1.6Y-3.6154
T7
X0.9472Y-4.5012
X0.9484Y-2.9252
X0.9488Y-1.352
X1.3252Y-4.5012
X1.3264Y-2.9252
X1.3268Y-1.352
X1.9315Y-1.352
X1.9323Y-4.5004
X1.9331Y-2.9264
X2.3094Y-1.352
X2.3102Y-4.5004
X2.311Y-2.9264
T0
M30
