%TF.GenerationSoftware,KiCad,Pcbnew,(5.1.9)-1*%
%TF.CreationDate,2021-08-22T20:59:49+01:00*%
%TF.ProjectId,KOSMOS Simple Mixer,4b4f534d-4f53-4205-9369-6d706c65204d,rev?*%
%TF.SameCoordinates,Original*%
%TF.FileFunction,Copper,L1,Top*%
%TF.FilePolarity,Positive*%
%FSLAX46Y46*%
G04 Gerber Fmt 4.6, Leading zero omitted, Abs format (unit mm)*
G04 Created by KiCad (PCBNEW (5.1.9)-1) date 2021-08-22 20:59:49*
%MOMM*%
%LPD*%
G01*
G04 APERTURE LIST*
%TA.AperFunction,ComponentPad*%
%ADD10C,1.600000*%
%TD*%
%TA.AperFunction,ComponentPad*%
%ADD11R,1.600000X1.600000*%
%TD*%
%TA.AperFunction,ComponentPad*%
%ADD12R,2.200000X2.200000*%
%TD*%
%TA.AperFunction,ComponentPad*%
%ADD13O,2.200000X2.200000*%
%TD*%
%TA.AperFunction,ComponentPad*%
%ADD14R,1.800000X1.800000*%
%TD*%
%TA.AperFunction,ComponentPad*%
%ADD15C,1.800000*%
%TD*%
%TA.AperFunction,ComponentPad*%
%ADD16R,1.700000X1.700000*%
%TD*%
%TA.AperFunction,ComponentPad*%
%ADD17O,1.700000X1.700000*%
%TD*%
%TA.AperFunction,ComponentPad*%
%ADD18R,1.727200X1.727200*%
%TD*%
%TA.AperFunction,ComponentPad*%
%ADD19O,1.727200X1.727200*%
%TD*%
%TA.AperFunction,ComponentPad*%
%ADD20C,1.500000*%
%TD*%
%TA.AperFunction,ComponentPad*%
%ADD21R,1.500000X1.500000*%
%TD*%
%TA.AperFunction,ComponentPad*%
%ADD22O,1.600000X1.600000*%
%TD*%
%TA.AperFunction,ComponentPad*%
%ADD23C,3.240000*%
%TD*%
%TA.AperFunction,ComponentPad*%
%ADD24R,2.400000X1.600000*%
%TD*%
%TA.AperFunction,ComponentPad*%
%ADD25O,2.400000X1.600000*%
%TD*%
%TA.AperFunction,ViaPad*%
%ADD26C,0.800000*%
%TD*%
%TA.AperFunction,Conductor*%
%ADD27C,0.250000*%
%TD*%
%TA.AperFunction,Conductor*%
%ADD28C,0.254000*%
%TD*%
%TA.AperFunction,Conductor*%
%ADD29C,0.100000*%
%TD*%
G04 APERTURE END LIST*
D10*
%TO.P,C1,2*%
%TO.N,Net-(C1-Pad2)*%
X50760000Y-54610000D03*
%TO.P,C1,1*%
%TO.N,Net-(C1-Pad1)*%
X48260000Y-54610000D03*
%TD*%
%TO.P,C2,2*%
%TO.N,Net-(C2-Pad2)*%
X31710000Y-57150000D03*
%TO.P,C2,1*%
%TO.N,Net-(C2-Pad1)*%
X29210000Y-57150000D03*
%TD*%
D11*
%TO.P,C3,1*%
%TO.N,+12V*%
X47150000Y-102930000D03*
D10*
%TO.P,C3,2*%
%TO.N,GND*%
X49650000Y-102930000D03*
%TD*%
%TO.P,C4,2*%
%TO.N,-12V*%
X59860000Y-102990000D03*
D11*
%TO.P,C4,1*%
%TO.N,GND*%
X57360000Y-102990000D03*
%TD*%
D10*
%TO.P,C5,1*%
%TO.N,GND*%
X29210000Y-52070000D03*
%TO.P,C5,2*%
%TO.N,+12V*%
X31710000Y-52070000D03*
%TD*%
%TO.P,C6,1*%
%TO.N,GND*%
X50800000Y-59690000D03*
%TO.P,C6,2*%
%TO.N,-12V*%
X48300000Y-59690000D03*
%TD*%
D12*
%TO.P,D1,1*%
%TO.N,+12V*%
X40640000Y-91830000D03*
D13*
%TO.P,D1,2*%
%TO.N,Net-(D1-Pad2)*%
X30480000Y-91830000D03*
%TD*%
%TO.P,D2,2*%
%TO.N,-12V*%
X40640000Y-87630000D03*
D12*
%TO.P,D2,1*%
%TO.N,Net-(D2-Pad1)*%
X30480000Y-87630000D03*
%TD*%
D14*
%TO.P,D3,1*%
%TO.N,Net-(D3-Pad1)*%
X52290000Y-94190000D03*
D15*
%TO.P,D3,2*%
%TO.N,Net-(D3-Pad2)*%
X54830000Y-94190000D03*
%TD*%
D16*
%TO.P,J1,1*%
%TO.N,/in1*%
X33230000Y-124947000D03*
D17*
%TO.P,J1,2*%
%TO.N,/in2*%
X35770000Y-124947000D03*
%TO.P,J1,3*%
%TO.N,/in3*%
X38310000Y-124947000D03*
%TO.P,J1,4*%
%TO.N,/in4*%
X40850000Y-124947000D03*
%TO.P,J1,5*%
%TO.N,/in5*%
X43390000Y-124947000D03*
%TO.P,J1,6*%
%TO.N,Net-(J1-Pad6)*%
X45930000Y-124947000D03*
%TO.P,J1,7*%
%TO.N,/out*%
X48470000Y-124947000D03*
%TO.P,J1,8*%
%TO.N,GND*%
X51010000Y-124947000D03*
%TD*%
D18*
%TO.P,J2,1*%
%TO.N,Net-(D2-Pad1)*%
X26750000Y-98690000D03*
D19*
%TO.P,J2,2*%
X26750000Y-101230000D03*
%TO.P,J2,3*%
%TO.N,GND*%
X29290000Y-98690000D03*
%TO.P,J2,4*%
X29290000Y-101230000D03*
%TO.P,J2,5*%
X31830000Y-98690000D03*
%TO.P,J2,6*%
X31830000Y-101230000D03*
%TO.P,J2,7*%
X34370000Y-98690000D03*
%TO.P,J2,8*%
X34370000Y-101230000D03*
%TO.P,J2,9*%
%TO.N,Net-(D1-Pad2)*%
X36910000Y-98690000D03*
%TO.P,J2,10*%
X36910000Y-101230000D03*
%TD*%
D20*
%TO.P,Q1,2*%
%TO.N,Net-(Q1-Pad2)*%
X60960000Y-93980000D03*
%TO.P,Q1,3*%
%TO.N,Net-(D3-Pad1)*%
X60960000Y-91440000D03*
D21*
%TO.P,Q1,1*%
%TO.N,GND*%
X60960000Y-96520000D03*
%TD*%
D22*
%TO.P,R1,2*%
%TO.N,Net-(R1-Pad2)*%
X38100000Y-31750000D03*
D10*
%TO.P,R1,1*%
%TO.N,Net-(C1-Pad2)*%
X38100000Y-41910000D03*
%TD*%
D22*
%TO.P,R2,2*%
%TO.N,Net-(R2-Pad2)*%
X43180000Y-31750000D03*
D10*
%TO.P,R2,1*%
%TO.N,Net-(C1-Pad2)*%
X43180000Y-41910000D03*
%TD*%
%TO.P,R3,1*%
%TO.N,Net-(C1-Pad2)*%
X38100000Y-71120000D03*
D22*
%TO.P,R3,2*%
%TO.N,Net-(R3-Pad2)*%
X38100000Y-81280000D03*
%TD*%
D10*
%TO.P,R4,1*%
%TO.N,Net-(C1-Pad2)*%
X44450000Y-71120000D03*
D22*
%TO.P,R4,2*%
%TO.N,Net-(R4-Pad2)*%
X44450000Y-81280000D03*
%TD*%
%TO.P,R5,2*%
%TO.N,Net-(R5-Pad2)*%
X41910000Y-120650000D03*
D10*
%TO.P,R5,1*%
%TO.N,Net-(C1-Pad2)*%
X41910000Y-110490000D03*
%TD*%
D22*
%TO.P,R6,2*%
%TO.N,/out*%
X50800000Y-87630000D03*
D10*
%TO.P,R6,1*%
%TO.N,Net-(Q1-Pad2)*%
X60960000Y-87630000D03*
%TD*%
%TO.P,R7,1*%
%TO.N,Net-(C1-Pad1)*%
X48260000Y-52070000D03*
D22*
%TO.P,R7,2*%
%TO.N,Net-(C1-Pad2)*%
X58420000Y-52070000D03*
%TD*%
%TO.P,R8,2*%
%TO.N,Net-(R8-Pad2)*%
X21590000Y-63500000D03*
D10*
%TO.P,R8,1*%
%TO.N,Net-(C2-Pad2)*%
X31750000Y-63500000D03*
%TD*%
%TO.P,R9,1*%
%TO.N,Net-(C2-Pad1)*%
X21590000Y-59690000D03*
D22*
%TO.P,R9,2*%
%TO.N,Net-(C2-Pad2)*%
X31750000Y-59690000D03*
%TD*%
%TO.P,R10,2*%
%TO.N,Net-(C2-Pad1)*%
X31750000Y-54610000D03*
D10*
%TO.P,R10,1*%
%TO.N,/out*%
X21590000Y-54610000D03*
%TD*%
%TO.P,R11,1*%
%TO.N,+12V*%
X46990000Y-87630000D03*
D22*
%TO.P,R11,2*%
%TO.N,Net-(D3-Pad2)*%
X46990000Y-97790000D03*
%TD*%
D23*
%TO.P,RV1,*%
%TO.N,*%
X24100000Y-34340000D03*
X33700000Y-34340000D03*
D15*
%TO.P,RV1,3*%
%TO.N,/in1*%
X31400000Y-41840000D03*
%TO.P,RV1,2*%
%TO.N,Net-(R1-Pad2)*%
X28900000Y-41840000D03*
D14*
%TO.P,RV1,1*%
%TO.N,GND*%
X26400000Y-41840000D03*
%TD*%
%TO.P,RV2,1*%
%TO.N,GND*%
X51360000Y-41840000D03*
D15*
%TO.P,RV2,2*%
%TO.N,Net-(R2-Pad2)*%
X53860000Y-41840000D03*
%TO.P,RV2,3*%
%TO.N,/in2*%
X56360000Y-41840000D03*
D23*
%TO.P,RV2,*%
%TO.N,*%
X58660000Y-34340000D03*
X49060000Y-34340000D03*
%TD*%
%TO.P,RV3,*%
%TO.N,*%
X24090000Y-74300000D03*
X33690000Y-74300000D03*
D15*
%TO.P,RV3,3*%
%TO.N,/in3*%
X31390000Y-81800000D03*
%TO.P,RV3,2*%
%TO.N,Net-(R3-Pad2)*%
X28890000Y-81800000D03*
D14*
%TO.P,RV3,1*%
%TO.N,GND*%
X26390000Y-81800000D03*
%TD*%
%TO.P,RV4,1*%
%TO.N,GND*%
X51400000Y-81830000D03*
D15*
%TO.P,RV4,2*%
%TO.N,Net-(R4-Pad2)*%
X53900000Y-81830000D03*
%TO.P,RV4,3*%
%TO.N,/in4*%
X56400000Y-81830000D03*
D23*
%TO.P,RV4,*%
%TO.N,*%
X58700000Y-74330000D03*
X49100000Y-74330000D03*
%TD*%
D14*
%TO.P,RV5,1*%
%TO.N,GND*%
X26360000Y-121830000D03*
D15*
%TO.P,RV5,2*%
%TO.N,Net-(R5-Pad2)*%
X28860000Y-121830000D03*
%TO.P,RV5,3*%
%TO.N,/in5*%
X31360000Y-121830000D03*
D23*
%TO.P,RV5,*%
%TO.N,*%
X33660000Y-114330000D03*
X24060000Y-114330000D03*
%TD*%
%TO.P,RV7,*%
%TO.N,*%
X49080000Y-114310000D03*
X58680000Y-114310000D03*
D15*
%TO.P,RV7,3*%
%TO.N,Net-(C1-Pad1)*%
X56380000Y-121810000D03*
%TO.P,RV7,2*%
%TO.N,Net-(R8-Pad2)*%
X53880000Y-121810000D03*
D14*
%TO.P,RV7,1*%
%TO.N,GND*%
X51380000Y-121810000D03*
%TD*%
D24*
%TO.P,U1,1*%
%TO.N,Net-(C1-Pad1)*%
X44450000Y-52070000D03*
D25*
%TO.P,U1,5*%
%TO.N,GND*%
X36830000Y-59690000D03*
%TO.P,U1,2*%
%TO.N,Net-(C1-Pad2)*%
X44450000Y-54610000D03*
%TO.P,U1,6*%
%TO.N,Net-(C2-Pad2)*%
X36830000Y-57150000D03*
%TO.P,U1,3*%
%TO.N,GND*%
X44450000Y-57150000D03*
%TO.P,U1,7*%
%TO.N,Net-(C2-Pad1)*%
X36830000Y-54610000D03*
%TO.P,U1,4*%
%TO.N,-12V*%
X44450000Y-59690000D03*
%TO.P,U1,8*%
%TO.N,+12V*%
X36830000Y-52070000D03*
%TD*%
D26*
%TO.N,Net-(C1-Pad1)*%
X63500000Y-121920000D03*
X63500000Y-45720000D03*
%TO.N,+12V*%
X41910000Y-83820000D03*
X38100000Y-83820000D03*
%TO.N,Net-(R8-Pad2)*%
X21590000Y-127000000D03*
X23154990Y-128804990D03*
X53340000Y-128270000D03*
%TD*%
D27*
%TO.N,Net-(C1-Pad2)*%
X42709999Y-75729999D02*
X38100000Y-71120000D01*
X42709999Y-109690001D02*
X42709999Y-75729999D01*
X41910000Y-110490000D02*
X42709999Y-109690001D01*
X44450000Y-73989998D02*
X42709999Y-75729999D01*
X44450000Y-71120000D02*
X44450000Y-73989998D01*
X44450000Y-71120000D02*
X44450000Y-66040000D01*
X44450000Y-66040000D02*
X40640000Y-62230000D01*
X40640000Y-58420000D02*
X44450000Y-54610000D01*
X40640000Y-62230000D02*
X40640000Y-58420000D01*
X44450000Y-54610000D02*
X46990000Y-57150000D01*
X48220000Y-57150000D02*
X50760000Y-54610000D01*
X46990000Y-57150000D02*
X48220000Y-57150000D01*
X55880000Y-54610000D02*
X58420000Y-52070000D01*
X50760000Y-54610000D02*
X55880000Y-54610000D01*
X43180000Y-41910000D02*
X38100000Y-41910000D01*
X38100000Y-48260000D02*
X44450000Y-54610000D01*
X38100000Y-41910000D02*
X38100000Y-48260000D01*
%TO.N,Net-(C1-Pad1)*%
X44450000Y-52070000D02*
X48260000Y-52070000D01*
X48260000Y-52070000D02*
X48260000Y-54610000D01*
X63899999Y-121520001D02*
X63899999Y-46119999D01*
X63899999Y-46119999D02*
X63500000Y-45720000D01*
X63500000Y-121920000D02*
X63899999Y-121520001D01*
%TO.N,Net-(C2-Pad2)*%
X36830000Y-57150000D02*
X31710000Y-57150000D01*
X31710000Y-59650000D02*
X31750000Y-59690000D01*
X31710000Y-57150000D02*
X31710000Y-59650000D01*
X31750000Y-59690000D02*
X31750000Y-63500000D01*
%TO.N,Net-(C2-Pad1)*%
X36830000Y-54610000D02*
X31750000Y-54610000D01*
X31750000Y-54610000D02*
X29210000Y-57150000D01*
X24130000Y-57150000D02*
X21590000Y-59690000D01*
X29210000Y-57150000D02*
X24130000Y-57150000D01*
%TO.N,+12V*%
X38100000Y-83820000D02*
X41910000Y-83820000D01*
%TO.N,Net-(D3-Pad1)*%
X53890000Y-91440000D02*
X60960000Y-91440000D01*
X52290000Y-93040000D02*
X53890000Y-91440000D01*
X52290000Y-94190000D02*
X52290000Y-93040000D01*
%TO.N,Net-(D3-Pad2)*%
X51230000Y-97790000D02*
X54830000Y-94190000D01*
X46990000Y-97790000D02*
X51230000Y-97790000D01*
%TO.N,/in1*%
X20464999Y-127144999D02*
X21590000Y-128270000D01*
X20464999Y-52775001D02*
X20464999Y-127144999D01*
X31400000Y-41840000D02*
X20464999Y-52775001D01*
X21590000Y-128270000D02*
X24913000Y-124947000D01*
X24913000Y-124947000D02*
X33230000Y-124947000D01*
%TO.N,/in2*%
X37845023Y-127022023D02*
X35770000Y-124947000D01*
X54253801Y-127022023D02*
X37845023Y-127022023D01*
X63385034Y-117890790D02*
X54253801Y-127022023D01*
X63385034Y-48865034D02*
X63385034Y-117890790D01*
X56360000Y-41840000D02*
X63385034Y-48865034D01*
%TO.N,/in3*%
X22114999Y-83689999D02*
X22114999Y-124984999D01*
X30164999Y-80574999D02*
X25229999Y-80574999D01*
X25229999Y-80574999D02*
X22114999Y-83689999D01*
X31390000Y-81800000D02*
X30164999Y-80574999D01*
X37134999Y-123771999D02*
X38310000Y-124947000D01*
X23327999Y-123771999D02*
X37134999Y-123771999D01*
X22114999Y-124984999D02*
X23327999Y-123771999D01*
%TO.N,/in4*%
X56400000Y-81830000D02*
X60240000Y-81830000D01*
X54067401Y-126572012D02*
X42475012Y-126572012D01*
X62935023Y-84525023D02*
X62935023Y-117704390D01*
X62935023Y-117704390D02*
X54067401Y-126572012D01*
X42475012Y-126572012D02*
X40850000Y-124947000D01*
X60240000Y-81830000D02*
X62935023Y-84525023D01*
%TO.N,/in5*%
X40273000Y-121830000D02*
X31360000Y-121830000D01*
X43390000Y-124947000D02*
X40273000Y-121830000D01*
%TO.N,/out*%
X50800000Y-87630000D02*
X53340000Y-85090000D01*
X35415001Y-40784999D02*
X41765001Y-40784999D01*
X21590000Y-54610000D02*
X35415001Y-40784999D01*
X58960001Y-50944999D02*
X62230000Y-54214998D01*
X53880001Y-50944999D02*
X58960001Y-50944999D01*
X43720001Y-40784999D02*
X53880001Y-50944999D01*
X42639999Y-40784999D02*
X43720001Y-40784999D01*
X42054999Y-41369999D02*
X42639999Y-40784999D01*
X42054999Y-41074997D02*
X42054999Y-41369999D01*
X41765001Y-40784999D02*
X42054999Y-41074997D01*
X55125001Y-84574999D02*
X54610000Y-85090000D01*
X62230000Y-73678602D02*
X55125001Y-80783601D01*
X62230000Y-54214998D02*
X62230000Y-73678602D01*
X55125001Y-80783601D02*
X55125001Y-84574999D01*
X53340000Y-85090000D02*
X54610000Y-85090000D01*
X62149967Y-85090000D02*
X62485012Y-85425045D01*
X62485012Y-117517990D02*
X53881001Y-126122001D01*
X62485012Y-85425045D02*
X62485012Y-117517990D01*
X54610000Y-85090000D02*
X62149967Y-85090000D01*
X53881001Y-126122001D02*
X49645001Y-126122001D01*
X49645001Y-126122001D02*
X48470000Y-124947000D01*
%TO.N,Net-(Q1-Pad2)*%
X62035001Y-88705001D02*
X60960000Y-87630000D01*
X62035001Y-92904999D02*
X62035001Y-88705001D01*
X60960000Y-93980000D02*
X62035001Y-92904999D01*
%TO.N,Net-(R1-Pad2)*%
X38100000Y-32881370D02*
X38100000Y-31750000D01*
X30125001Y-40614999D02*
X30366371Y-40614999D01*
X30366371Y-40614999D02*
X38100000Y-32881370D01*
X28900000Y-41840000D02*
X30125001Y-40614999D01*
%TO.N,Net-(R2-Pad2)*%
X52044999Y-40614999D02*
X43180000Y-31750000D01*
X52634999Y-40614999D02*
X52044999Y-40614999D01*
X53860000Y-41840000D02*
X52634999Y-40614999D01*
%TO.N,Net-(R3-Pad2)*%
X38100000Y-81280000D02*
X36830000Y-81280000D01*
X30115001Y-83025001D02*
X28890000Y-81800000D01*
X35084999Y-83025001D02*
X30115001Y-83025001D01*
X36830000Y-81280000D02*
X35084999Y-83025001D01*
%TO.N,Net-(R4-Pad2)*%
X52550001Y-80480001D02*
X53900000Y-81830000D01*
X45249999Y-80480001D02*
X52550001Y-80480001D01*
X44450000Y-81280000D02*
X45249999Y-80480001D01*
%TO.N,Net-(R5-Pad2)*%
X28860000Y-121830000D02*
X31310000Y-119380000D01*
X40640000Y-119380000D02*
X41910000Y-120650000D01*
X31310000Y-119380000D02*
X40640000Y-119380000D01*
%TO.N,Net-(R8-Pad2)*%
X21590000Y-63500000D02*
X21590000Y-127000000D01*
X23689980Y-128270000D02*
X53340000Y-128270000D01*
X23154990Y-128804990D02*
X23689980Y-128270000D01*
%TD*%
D28*
%TO.N,GND*%
X63634602Y-44691497D02*
X63601939Y-44685000D01*
X63398061Y-44685000D01*
X63198102Y-44724774D01*
X63009744Y-44802795D01*
X62840226Y-44916063D01*
X62696063Y-45060226D01*
X62582795Y-45229744D01*
X62504774Y-45418102D01*
X62465000Y-45618061D01*
X62465000Y-45821939D01*
X62504774Y-46021898D01*
X62582795Y-46210256D01*
X62696063Y-46379774D01*
X62840226Y-46523937D01*
X63009744Y-46637205D01*
X63140000Y-46691159D01*
X63140000Y-47545198D01*
X57843731Y-42248930D01*
X57895000Y-41991184D01*
X57895000Y-41688816D01*
X57836011Y-41392257D01*
X57720299Y-41112905D01*
X57552312Y-40861495D01*
X57338505Y-40647688D01*
X57087095Y-40479701D01*
X56807743Y-40363989D01*
X56511184Y-40305000D01*
X56208816Y-40305000D01*
X55912257Y-40363989D01*
X55632905Y-40479701D01*
X55381495Y-40647688D01*
X55167688Y-40861495D01*
X55110000Y-40947831D01*
X55052312Y-40861495D01*
X54838505Y-40647688D01*
X54587095Y-40479701D01*
X54307743Y-40363989D01*
X54011184Y-40305000D01*
X53708816Y-40305000D01*
X53451070Y-40356269D01*
X53198803Y-40104002D01*
X53175000Y-40074998D01*
X53059275Y-39980025D01*
X52927246Y-39909453D01*
X52783985Y-39865996D01*
X52672332Y-39854999D01*
X52672321Y-39854999D01*
X52634999Y-39851323D01*
X52597677Y-39854999D01*
X52359801Y-39854999D01*
X49099802Y-36595000D01*
X49282098Y-36595000D01*
X49717759Y-36508342D01*
X50128143Y-36338355D01*
X50497479Y-36091573D01*
X50811573Y-35777479D01*
X51058355Y-35408143D01*
X51228342Y-34997759D01*
X51315000Y-34562098D01*
X51315000Y-34117902D01*
X56405000Y-34117902D01*
X56405000Y-34562098D01*
X56491658Y-34997759D01*
X56661645Y-35408143D01*
X56908427Y-35777479D01*
X57222521Y-36091573D01*
X57591857Y-36338355D01*
X58002241Y-36508342D01*
X58437902Y-36595000D01*
X58882098Y-36595000D01*
X59317759Y-36508342D01*
X59728143Y-36338355D01*
X60097479Y-36091573D01*
X60411573Y-35777479D01*
X60658355Y-35408143D01*
X60828342Y-34997759D01*
X60915000Y-34562098D01*
X60915000Y-34117902D01*
X60828342Y-33682241D01*
X60658355Y-33271857D01*
X60411573Y-32902521D01*
X60097479Y-32588427D01*
X59728143Y-32341645D01*
X59317759Y-32171658D01*
X58882098Y-32085000D01*
X58437902Y-32085000D01*
X58002241Y-32171658D01*
X57591857Y-32341645D01*
X57222521Y-32588427D01*
X56908427Y-32902521D01*
X56661645Y-33271857D01*
X56491658Y-33682241D01*
X56405000Y-34117902D01*
X51315000Y-34117902D01*
X51228342Y-33682241D01*
X51058355Y-33271857D01*
X50811573Y-32902521D01*
X50497479Y-32588427D01*
X50128143Y-32341645D01*
X49717759Y-32171658D01*
X49282098Y-32085000D01*
X48837902Y-32085000D01*
X48402241Y-32171658D01*
X47991857Y-32341645D01*
X47622521Y-32588427D01*
X47308427Y-32902521D01*
X47061645Y-33271857D01*
X46891658Y-33682241D01*
X46805000Y-34117902D01*
X46805000Y-34300199D01*
X44578688Y-32073887D01*
X44615000Y-31891335D01*
X44615000Y-31608665D01*
X44559853Y-31331426D01*
X44451680Y-31070273D01*
X44294637Y-30835241D01*
X44094759Y-30635363D01*
X43859727Y-30478320D01*
X43598574Y-30370147D01*
X43321335Y-30315000D01*
X43038665Y-30315000D01*
X42761426Y-30370147D01*
X42500273Y-30478320D01*
X42265241Y-30635363D01*
X42065363Y-30835241D01*
X41908320Y-31070273D01*
X41800147Y-31331426D01*
X41745000Y-31608665D01*
X41745000Y-31891335D01*
X41800147Y-32168574D01*
X41908320Y-32429727D01*
X42065363Y-32664759D01*
X42265241Y-32864637D01*
X42500273Y-33021680D01*
X42761426Y-33129853D01*
X43038665Y-33185000D01*
X43321335Y-33185000D01*
X43503887Y-33148688D01*
X50658117Y-40302919D01*
X50460000Y-40301928D01*
X50335518Y-40314188D01*
X50215820Y-40350498D01*
X50105506Y-40409463D01*
X50008815Y-40488815D01*
X49929463Y-40585506D01*
X49870498Y-40695820D01*
X49834188Y-40815518D01*
X49821928Y-40940000D01*
X49825000Y-41554250D01*
X49983750Y-41713000D01*
X51233000Y-41713000D01*
X51233000Y-41693000D01*
X51487000Y-41693000D01*
X51487000Y-41713000D01*
X51507000Y-41713000D01*
X51507000Y-41967000D01*
X51487000Y-41967000D01*
X51487000Y-43216250D01*
X51645750Y-43375000D01*
X52260000Y-43378072D01*
X52384482Y-43365812D01*
X52504180Y-43329502D01*
X52614494Y-43270537D01*
X52711185Y-43191185D01*
X52790537Y-43094494D01*
X52843880Y-42994697D01*
X52881495Y-43032312D01*
X53132905Y-43200299D01*
X53412257Y-43316011D01*
X53708816Y-43375000D01*
X54011184Y-43375000D01*
X54307743Y-43316011D01*
X54587095Y-43200299D01*
X54838505Y-43032312D01*
X55052312Y-42818505D01*
X55110000Y-42732169D01*
X55167688Y-42818505D01*
X55381495Y-43032312D01*
X55632905Y-43200299D01*
X55912257Y-43316011D01*
X56208816Y-43375000D01*
X56511184Y-43375000D01*
X56768930Y-43323731D01*
X62625034Y-49179836D01*
X62625034Y-53535230D01*
X59523805Y-50434002D01*
X59500002Y-50404998D01*
X59384277Y-50310025D01*
X59252248Y-50239453D01*
X59108987Y-50195996D01*
X58997334Y-50184999D01*
X58997323Y-50184999D01*
X58960001Y-50181323D01*
X58922679Y-50184999D01*
X54194803Y-50184999D01*
X46749804Y-42740000D01*
X49821928Y-42740000D01*
X49834188Y-42864482D01*
X49870498Y-42984180D01*
X49929463Y-43094494D01*
X50008815Y-43191185D01*
X50105506Y-43270537D01*
X50215820Y-43329502D01*
X50335518Y-43365812D01*
X50460000Y-43378072D01*
X51074250Y-43375000D01*
X51233000Y-43216250D01*
X51233000Y-41967000D01*
X49983750Y-41967000D01*
X49825000Y-42125750D01*
X49821928Y-42740000D01*
X46749804Y-42740000D01*
X44283805Y-40274002D01*
X44260002Y-40244998D01*
X44144277Y-40150025D01*
X44012248Y-40079453D01*
X43868987Y-40035996D01*
X43757334Y-40024999D01*
X43757323Y-40024999D01*
X43720001Y-40021323D01*
X43682679Y-40024999D01*
X42677322Y-40024999D01*
X42639999Y-40021323D01*
X42602676Y-40024999D01*
X42602666Y-40024999D01*
X42491013Y-40035996D01*
X42347752Y-40079453D01*
X42215722Y-40150025D01*
X42202500Y-40160876D01*
X42189277Y-40150025D01*
X42057248Y-40079453D01*
X41913987Y-40035996D01*
X41802334Y-40024999D01*
X41802323Y-40024999D01*
X41765001Y-40021323D01*
X41727679Y-40024999D01*
X35452324Y-40024999D01*
X35415001Y-40021323D01*
X35377678Y-40024999D01*
X35377668Y-40024999D01*
X35266015Y-40035996D01*
X35122754Y-40079453D01*
X34990724Y-40150025D01*
X34941134Y-40190723D01*
X34875000Y-40244998D01*
X34851202Y-40273996D01*
X32885584Y-42239614D01*
X32935000Y-41991184D01*
X32935000Y-41688816D01*
X32876011Y-41392257D01*
X32760299Y-41112905D01*
X32592312Y-40861495D01*
X32378505Y-40647688D01*
X32127095Y-40479701D01*
X31847743Y-40363989D01*
X31717991Y-40338180D01*
X38611004Y-33445168D01*
X38640001Y-33421371D01*
X38666332Y-33389287D01*
X38734974Y-33305647D01*
X38805546Y-33173617D01*
X38818821Y-33129853D01*
X38849003Y-33030356D01*
X38854798Y-32971519D01*
X39014759Y-32864637D01*
X39214637Y-32664759D01*
X39371680Y-32429727D01*
X39479853Y-32168574D01*
X39535000Y-31891335D01*
X39535000Y-31608665D01*
X39479853Y-31331426D01*
X39371680Y-31070273D01*
X39214637Y-30835241D01*
X39014759Y-30635363D01*
X38779727Y-30478320D01*
X38518574Y-30370147D01*
X38241335Y-30315000D01*
X37958665Y-30315000D01*
X37681426Y-30370147D01*
X37420273Y-30478320D01*
X37185241Y-30635363D01*
X36985363Y-30835241D01*
X36828320Y-31070273D01*
X36720147Y-31331426D01*
X36665000Y-31608665D01*
X36665000Y-31891335D01*
X36720147Y-32168574D01*
X36828320Y-32429727D01*
X36985363Y-32664759D01*
X37113586Y-32792982D01*
X35927404Y-33979165D01*
X35868342Y-33682241D01*
X35698355Y-33271857D01*
X35451573Y-32902521D01*
X35137479Y-32588427D01*
X34768143Y-32341645D01*
X34357759Y-32171658D01*
X33922098Y-32085000D01*
X33477902Y-32085000D01*
X33042241Y-32171658D01*
X32631857Y-32341645D01*
X32262521Y-32588427D01*
X31948427Y-32902521D01*
X31701645Y-33271857D01*
X31531658Y-33682241D01*
X31445000Y-34117902D01*
X31445000Y-34562098D01*
X31531658Y-34997759D01*
X31701645Y-35408143D01*
X31948427Y-35777479D01*
X32262521Y-36091573D01*
X32631857Y-36338355D01*
X33042241Y-36508342D01*
X33339165Y-36567404D01*
X30047626Y-39858943D01*
X29976015Y-39865996D01*
X29832754Y-39909453D01*
X29700724Y-39980025D01*
X29650403Y-40021323D01*
X29585000Y-40074998D01*
X29561202Y-40103996D01*
X29308930Y-40356269D01*
X29051184Y-40305000D01*
X28748816Y-40305000D01*
X28452257Y-40363989D01*
X28172905Y-40479701D01*
X27921495Y-40647688D01*
X27883880Y-40685303D01*
X27830537Y-40585506D01*
X27751185Y-40488815D01*
X27654494Y-40409463D01*
X27544180Y-40350498D01*
X27424482Y-40314188D01*
X27300000Y-40301928D01*
X26685750Y-40305000D01*
X26527000Y-40463750D01*
X26527000Y-41713000D01*
X26547000Y-41713000D01*
X26547000Y-41967000D01*
X26527000Y-41967000D01*
X26527000Y-43216250D01*
X26685750Y-43375000D01*
X27300000Y-43378072D01*
X27424482Y-43365812D01*
X27544180Y-43329502D01*
X27654494Y-43270537D01*
X27751185Y-43191185D01*
X27830537Y-43094494D01*
X27883880Y-42994697D01*
X27921495Y-43032312D01*
X28172905Y-43200299D01*
X28452257Y-43316011D01*
X28748816Y-43375000D01*
X28790198Y-43375000D01*
X19954002Y-52211197D01*
X19924998Y-52235000D01*
X19869870Y-52302175D01*
X19830025Y-52350725D01*
X19792927Y-52420130D01*
X19759453Y-52482755D01*
X19715996Y-52626016D01*
X19704999Y-52737669D01*
X19704999Y-52737679D01*
X19701323Y-52775001D01*
X19704999Y-52812323D01*
X19705000Y-127107666D01*
X19701323Y-127144999D01*
X19705000Y-127182332D01*
X19715997Y-127293985D01*
X19722150Y-127314269D01*
X19759453Y-127437245D01*
X19830025Y-127569275D01*
X19883986Y-127635026D01*
X19924999Y-127685000D01*
X19953997Y-127708798D01*
X21015198Y-128770000D01*
X19089868Y-128770000D01*
X19072676Y-42740000D01*
X24861928Y-42740000D01*
X24874188Y-42864482D01*
X24910498Y-42984180D01*
X24969463Y-43094494D01*
X25048815Y-43191185D01*
X25145506Y-43270537D01*
X25255820Y-43329502D01*
X25375518Y-43365812D01*
X25500000Y-43378072D01*
X26114250Y-43375000D01*
X26273000Y-43216250D01*
X26273000Y-41967000D01*
X25023750Y-41967000D01*
X24865000Y-42125750D01*
X24861928Y-42740000D01*
X19072676Y-42740000D01*
X19072317Y-40940000D01*
X24861928Y-40940000D01*
X24865000Y-41554250D01*
X25023750Y-41713000D01*
X26273000Y-41713000D01*
X26273000Y-40463750D01*
X26114250Y-40305000D01*
X25500000Y-40301928D01*
X25375518Y-40314188D01*
X25255820Y-40350498D01*
X25145506Y-40409463D01*
X25048815Y-40488815D01*
X24969463Y-40585506D01*
X24910498Y-40695820D01*
X24874188Y-40815518D01*
X24861928Y-40940000D01*
X19072317Y-40940000D01*
X19070952Y-34117902D01*
X21845000Y-34117902D01*
X21845000Y-34562098D01*
X21931658Y-34997759D01*
X22101645Y-35408143D01*
X22348427Y-35777479D01*
X22662521Y-36091573D01*
X23031857Y-36338355D01*
X23442241Y-36508342D01*
X23877902Y-36595000D01*
X24322098Y-36595000D01*
X24757759Y-36508342D01*
X25168143Y-36338355D01*
X25537479Y-36091573D01*
X25851573Y-35777479D01*
X26098355Y-35408143D01*
X26268342Y-34997759D01*
X26355000Y-34562098D01*
X26355000Y-34117902D01*
X26268342Y-33682241D01*
X26098355Y-33271857D01*
X25851573Y-32902521D01*
X25537479Y-32588427D01*
X25168143Y-32341645D01*
X24757759Y-32171658D01*
X24322098Y-32085000D01*
X23877902Y-32085000D01*
X23442241Y-32171658D01*
X23031857Y-32341645D01*
X22662521Y-32588427D01*
X22348427Y-32902521D01*
X22101645Y-33271857D01*
X21931658Y-33682241D01*
X21845000Y-34117902D01*
X19070952Y-34117902D01*
X19070129Y-30000000D01*
X63630198Y-30000000D01*
X63634602Y-44691497D01*
%TA.AperFunction,Conductor*%
D29*
G36*
X63634602Y-44691497D02*
G01*
X63601939Y-44685000D01*
X63398061Y-44685000D01*
X63198102Y-44724774D01*
X63009744Y-44802795D01*
X62840226Y-44916063D01*
X62696063Y-45060226D01*
X62582795Y-45229744D01*
X62504774Y-45418102D01*
X62465000Y-45618061D01*
X62465000Y-45821939D01*
X62504774Y-46021898D01*
X62582795Y-46210256D01*
X62696063Y-46379774D01*
X62840226Y-46523937D01*
X63009744Y-46637205D01*
X63140000Y-46691159D01*
X63140000Y-47545198D01*
X57843731Y-42248930D01*
X57895000Y-41991184D01*
X57895000Y-41688816D01*
X57836011Y-41392257D01*
X57720299Y-41112905D01*
X57552312Y-40861495D01*
X57338505Y-40647688D01*
X57087095Y-40479701D01*
X56807743Y-40363989D01*
X56511184Y-40305000D01*
X56208816Y-40305000D01*
X55912257Y-40363989D01*
X55632905Y-40479701D01*
X55381495Y-40647688D01*
X55167688Y-40861495D01*
X55110000Y-40947831D01*
X55052312Y-40861495D01*
X54838505Y-40647688D01*
X54587095Y-40479701D01*
X54307743Y-40363989D01*
X54011184Y-40305000D01*
X53708816Y-40305000D01*
X53451070Y-40356269D01*
X53198803Y-40104002D01*
X53175000Y-40074998D01*
X53059275Y-39980025D01*
X52927246Y-39909453D01*
X52783985Y-39865996D01*
X52672332Y-39854999D01*
X52672321Y-39854999D01*
X52634999Y-39851323D01*
X52597677Y-39854999D01*
X52359801Y-39854999D01*
X49099802Y-36595000D01*
X49282098Y-36595000D01*
X49717759Y-36508342D01*
X50128143Y-36338355D01*
X50497479Y-36091573D01*
X50811573Y-35777479D01*
X51058355Y-35408143D01*
X51228342Y-34997759D01*
X51315000Y-34562098D01*
X51315000Y-34117902D01*
X56405000Y-34117902D01*
X56405000Y-34562098D01*
X56491658Y-34997759D01*
X56661645Y-35408143D01*
X56908427Y-35777479D01*
X57222521Y-36091573D01*
X57591857Y-36338355D01*
X58002241Y-36508342D01*
X58437902Y-36595000D01*
X58882098Y-36595000D01*
X59317759Y-36508342D01*
X59728143Y-36338355D01*
X60097479Y-36091573D01*
X60411573Y-35777479D01*
X60658355Y-35408143D01*
X60828342Y-34997759D01*
X60915000Y-34562098D01*
X60915000Y-34117902D01*
X60828342Y-33682241D01*
X60658355Y-33271857D01*
X60411573Y-32902521D01*
X60097479Y-32588427D01*
X59728143Y-32341645D01*
X59317759Y-32171658D01*
X58882098Y-32085000D01*
X58437902Y-32085000D01*
X58002241Y-32171658D01*
X57591857Y-32341645D01*
X57222521Y-32588427D01*
X56908427Y-32902521D01*
X56661645Y-33271857D01*
X56491658Y-33682241D01*
X56405000Y-34117902D01*
X51315000Y-34117902D01*
X51228342Y-33682241D01*
X51058355Y-33271857D01*
X50811573Y-32902521D01*
X50497479Y-32588427D01*
X50128143Y-32341645D01*
X49717759Y-32171658D01*
X49282098Y-32085000D01*
X48837902Y-32085000D01*
X48402241Y-32171658D01*
X47991857Y-32341645D01*
X47622521Y-32588427D01*
X47308427Y-32902521D01*
X47061645Y-33271857D01*
X46891658Y-33682241D01*
X46805000Y-34117902D01*
X46805000Y-34300199D01*
X44578688Y-32073887D01*
X44615000Y-31891335D01*
X44615000Y-31608665D01*
X44559853Y-31331426D01*
X44451680Y-31070273D01*
X44294637Y-30835241D01*
X44094759Y-30635363D01*
X43859727Y-30478320D01*
X43598574Y-30370147D01*
X43321335Y-30315000D01*
X43038665Y-30315000D01*
X42761426Y-30370147D01*
X42500273Y-30478320D01*
X42265241Y-30635363D01*
X42065363Y-30835241D01*
X41908320Y-31070273D01*
X41800147Y-31331426D01*
X41745000Y-31608665D01*
X41745000Y-31891335D01*
X41800147Y-32168574D01*
X41908320Y-32429727D01*
X42065363Y-32664759D01*
X42265241Y-32864637D01*
X42500273Y-33021680D01*
X42761426Y-33129853D01*
X43038665Y-33185000D01*
X43321335Y-33185000D01*
X43503887Y-33148688D01*
X50658117Y-40302919D01*
X50460000Y-40301928D01*
X50335518Y-40314188D01*
X50215820Y-40350498D01*
X50105506Y-40409463D01*
X50008815Y-40488815D01*
X49929463Y-40585506D01*
X49870498Y-40695820D01*
X49834188Y-40815518D01*
X49821928Y-40940000D01*
X49825000Y-41554250D01*
X49983750Y-41713000D01*
X51233000Y-41713000D01*
X51233000Y-41693000D01*
X51487000Y-41693000D01*
X51487000Y-41713000D01*
X51507000Y-41713000D01*
X51507000Y-41967000D01*
X51487000Y-41967000D01*
X51487000Y-43216250D01*
X51645750Y-43375000D01*
X52260000Y-43378072D01*
X52384482Y-43365812D01*
X52504180Y-43329502D01*
X52614494Y-43270537D01*
X52711185Y-43191185D01*
X52790537Y-43094494D01*
X52843880Y-42994697D01*
X52881495Y-43032312D01*
X53132905Y-43200299D01*
X53412257Y-43316011D01*
X53708816Y-43375000D01*
X54011184Y-43375000D01*
X54307743Y-43316011D01*
X54587095Y-43200299D01*
X54838505Y-43032312D01*
X55052312Y-42818505D01*
X55110000Y-42732169D01*
X55167688Y-42818505D01*
X55381495Y-43032312D01*
X55632905Y-43200299D01*
X55912257Y-43316011D01*
X56208816Y-43375000D01*
X56511184Y-43375000D01*
X56768930Y-43323731D01*
X62625034Y-49179836D01*
X62625034Y-53535230D01*
X59523805Y-50434002D01*
X59500002Y-50404998D01*
X59384277Y-50310025D01*
X59252248Y-50239453D01*
X59108987Y-50195996D01*
X58997334Y-50184999D01*
X58997323Y-50184999D01*
X58960001Y-50181323D01*
X58922679Y-50184999D01*
X54194803Y-50184999D01*
X46749804Y-42740000D01*
X49821928Y-42740000D01*
X49834188Y-42864482D01*
X49870498Y-42984180D01*
X49929463Y-43094494D01*
X50008815Y-43191185D01*
X50105506Y-43270537D01*
X50215820Y-43329502D01*
X50335518Y-43365812D01*
X50460000Y-43378072D01*
X51074250Y-43375000D01*
X51233000Y-43216250D01*
X51233000Y-41967000D01*
X49983750Y-41967000D01*
X49825000Y-42125750D01*
X49821928Y-42740000D01*
X46749804Y-42740000D01*
X44283805Y-40274002D01*
X44260002Y-40244998D01*
X44144277Y-40150025D01*
X44012248Y-40079453D01*
X43868987Y-40035996D01*
X43757334Y-40024999D01*
X43757323Y-40024999D01*
X43720001Y-40021323D01*
X43682679Y-40024999D01*
X42677322Y-40024999D01*
X42639999Y-40021323D01*
X42602676Y-40024999D01*
X42602666Y-40024999D01*
X42491013Y-40035996D01*
X42347752Y-40079453D01*
X42215722Y-40150025D01*
X42202500Y-40160876D01*
X42189277Y-40150025D01*
X42057248Y-40079453D01*
X41913987Y-40035996D01*
X41802334Y-40024999D01*
X41802323Y-40024999D01*
X41765001Y-40021323D01*
X41727679Y-40024999D01*
X35452324Y-40024999D01*
X35415001Y-40021323D01*
X35377678Y-40024999D01*
X35377668Y-40024999D01*
X35266015Y-40035996D01*
X35122754Y-40079453D01*
X34990724Y-40150025D01*
X34941134Y-40190723D01*
X34875000Y-40244998D01*
X34851202Y-40273996D01*
X32885584Y-42239614D01*
X32935000Y-41991184D01*
X32935000Y-41688816D01*
X32876011Y-41392257D01*
X32760299Y-41112905D01*
X32592312Y-40861495D01*
X32378505Y-40647688D01*
X32127095Y-40479701D01*
X31847743Y-40363989D01*
X31717991Y-40338180D01*
X38611004Y-33445168D01*
X38640001Y-33421371D01*
X38666332Y-33389287D01*
X38734974Y-33305647D01*
X38805546Y-33173617D01*
X38818821Y-33129853D01*
X38849003Y-33030356D01*
X38854798Y-32971519D01*
X39014759Y-32864637D01*
X39214637Y-32664759D01*
X39371680Y-32429727D01*
X39479853Y-32168574D01*
X39535000Y-31891335D01*
X39535000Y-31608665D01*
X39479853Y-31331426D01*
X39371680Y-31070273D01*
X39214637Y-30835241D01*
X39014759Y-30635363D01*
X38779727Y-30478320D01*
X38518574Y-30370147D01*
X38241335Y-30315000D01*
X37958665Y-30315000D01*
X37681426Y-30370147D01*
X37420273Y-30478320D01*
X37185241Y-30635363D01*
X36985363Y-30835241D01*
X36828320Y-31070273D01*
X36720147Y-31331426D01*
X36665000Y-31608665D01*
X36665000Y-31891335D01*
X36720147Y-32168574D01*
X36828320Y-32429727D01*
X36985363Y-32664759D01*
X37113586Y-32792982D01*
X35927404Y-33979165D01*
X35868342Y-33682241D01*
X35698355Y-33271857D01*
X35451573Y-32902521D01*
X35137479Y-32588427D01*
X34768143Y-32341645D01*
X34357759Y-32171658D01*
X33922098Y-32085000D01*
X33477902Y-32085000D01*
X33042241Y-32171658D01*
X32631857Y-32341645D01*
X32262521Y-32588427D01*
X31948427Y-32902521D01*
X31701645Y-33271857D01*
X31531658Y-33682241D01*
X31445000Y-34117902D01*
X31445000Y-34562098D01*
X31531658Y-34997759D01*
X31701645Y-35408143D01*
X31948427Y-35777479D01*
X32262521Y-36091573D01*
X32631857Y-36338355D01*
X33042241Y-36508342D01*
X33339165Y-36567404D01*
X30047626Y-39858943D01*
X29976015Y-39865996D01*
X29832754Y-39909453D01*
X29700724Y-39980025D01*
X29650403Y-40021323D01*
X29585000Y-40074998D01*
X29561202Y-40103996D01*
X29308930Y-40356269D01*
X29051184Y-40305000D01*
X28748816Y-40305000D01*
X28452257Y-40363989D01*
X28172905Y-40479701D01*
X27921495Y-40647688D01*
X27883880Y-40685303D01*
X27830537Y-40585506D01*
X27751185Y-40488815D01*
X27654494Y-40409463D01*
X27544180Y-40350498D01*
X27424482Y-40314188D01*
X27300000Y-40301928D01*
X26685750Y-40305000D01*
X26527000Y-40463750D01*
X26527000Y-41713000D01*
X26547000Y-41713000D01*
X26547000Y-41967000D01*
X26527000Y-41967000D01*
X26527000Y-43216250D01*
X26685750Y-43375000D01*
X27300000Y-43378072D01*
X27424482Y-43365812D01*
X27544180Y-43329502D01*
X27654494Y-43270537D01*
X27751185Y-43191185D01*
X27830537Y-43094494D01*
X27883880Y-42994697D01*
X27921495Y-43032312D01*
X28172905Y-43200299D01*
X28452257Y-43316011D01*
X28748816Y-43375000D01*
X28790198Y-43375000D01*
X19954002Y-52211197D01*
X19924998Y-52235000D01*
X19869870Y-52302175D01*
X19830025Y-52350725D01*
X19792927Y-52420130D01*
X19759453Y-52482755D01*
X19715996Y-52626016D01*
X19704999Y-52737669D01*
X19704999Y-52737679D01*
X19701323Y-52775001D01*
X19704999Y-52812323D01*
X19705000Y-127107666D01*
X19701323Y-127144999D01*
X19705000Y-127182332D01*
X19715997Y-127293985D01*
X19722150Y-127314269D01*
X19759453Y-127437245D01*
X19830025Y-127569275D01*
X19883986Y-127635026D01*
X19924999Y-127685000D01*
X19953997Y-127708798D01*
X21015198Y-128770000D01*
X19089868Y-128770000D01*
X19072676Y-42740000D01*
X24861928Y-42740000D01*
X24874188Y-42864482D01*
X24910498Y-42984180D01*
X24969463Y-43094494D01*
X25048815Y-43191185D01*
X25145506Y-43270537D01*
X25255820Y-43329502D01*
X25375518Y-43365812D01*
X25500000Y-43378072D01*
X26114250Y-43375000D01*
X26273000Y-43216250D01*
X26273000Y-41967000D01*
X25023750Y-41967000D01*
X24865000Y-42125750D01*
X24861928Y-42740000D01*
X19072676Y-42740000D01*
X19072317Y-40940000D01*
X24861928Y-40940000D01*
X24865000Y-41554250D01*
X25023750Y-41713000D01*
X26273000Y-41713000D01*
X26273000Y-40463750D01*
X26114250Y-40305000D01*
X25500000Y-40301928D01*
X25375518Y-40314188D01*
X25255820Y-40350498D01*
X25145506Y-40409463D01*
X25048815Y-40488815D01*
X24969463Y-40585506D01*
X24910498Y-40695820D01*
X24874188Y-40815518D01*
X24861928Y-40940000D01*
X19072317Y-40940000D01*
X19070952Y-34117902D01*
X21845000Y-34117902D01*
X21845000Y-34562098D01*
X21931658Y-34997759D01*
X22101645Y-35408143D01*
X22348427Y-35777479D01*
X22662521Y-36091573D01*
X23031857Y-36338355D01*
X23442241Y-36508342D01*
X23877902Y-36595000D01*
X24322098Y-36595000D01*
X24757759Y-36508342D01*
X25168143Y-36338355D01*
X25537479Y-36091573D01*
X25851573Y-35777479D01*
X26098355Y-35408143D01*
X26268342Y-34997759D01*
X26355000Y-34562098D01*
X26355000Y-34117902D01*
X26268342Y-33682241D01*
X26098355Y-33271857D01*
X25851573Y-32902521D01*
X25537479Y-32588427D01*
X25168143Y-32341645D01*
X24757759Y-32171658D01*
X24322098Y-32085000D01*
X23877902Y-32085000D01*
X23442241Y-32171658D01*
X23031857Y-32341645D01*
X22662521Y-32588427D01*
X22348427Y-32902521D01*
X22101645Y-33271857D01*
X21931658Y-33682241D01*
X21845000Y-34117902D01*
X19070952Y-34117902D01*
X19070129Y-30000000D01*
X63630198Y-30000000D01*
X63634602Y-44691497D01*
G37*
%TD.AperFunction*%
D28*
X36665000Y-41768665D02*
X36665000Y-42051335D01*
X36720147Y-42328574D01*
X36828320Y-42589727D01*
X36985363Y-42824759D01*
X37185241Y-43024637D01*
X37340000Y-43128044D01*
X37340001Y-48222668D01*
X37336324Y-48260000D01*
X37340001Y-48297333D01*
X37350998Y-48408986D01*
X37360636Y-48440758D01*
X37394454Y-48552246D01*
X37465026Y-48684276D01*
X37491102Y-48716049D01*
X37560000Y-48800001D01*
X37588998Y-48823799D01*
X42754592Y-53989393D01*
X42717818Y-54058192D01*
X42635764Y-54328691D01*
X42608057Y-54610000D01*
X42635764Y-54891309D01*
X42717818Y-55161808D01*
X42754592Y-55230607D01*
X40128998Y-57856201D01*
X40100000Y-57879999D01*
X40076202Y-57908997D01*
X40076201Y-57908998D01*
X40005026Y-57995724D01*
X39934454Y-58127754D01*
X39904180Y-58227558D01*
X39890998Y-58271014D01*
X39880001Y-58382667D01*
X39876324Y-58420000D01*
X39880001Y-58457332D01*
X39880000Y-62192677D01*
X39876324Y-62230000D01*
X39880000Y-62267322D01*
X39880000Y-62267332D01*
X39890997Y-62378985D01*
X39934454Y-62522246D01*
X40005026Y-62654276D01*
X40044871Y-62702826D01*
X40099999Y-62770001D01*
X40129003Y-62793804D01*
X43690001Y-66354803D01*
X43690000Y-69901956D01*
X43535241Y-70005363D01*
X43335363Y-70205241D01*
X43178320Y-70440273D01*
X43070147Y-70701426D01*
X43015000Y-70978665D01*
X43015000Y-71261335D01*
X43070147Y-71538574D01*
X43178320Y-71799727D01*
X43335363Y-72034759D01*
X43535241Y-72234637D01*
X43690000Y-72338044D01*
X43690001Y-73675195D01*
X42709999Y-74655197D01*
X39498688Y-71443887D01*
X39535000Y-71261335D01*
X39535000Y-70978665D01*
X39479853Y-70701426D01*
X39371680Y-70440273D01*
X39214637Y-70205241D01*
X39014759Y-70005363D01*
X38779727Y-69848320D01*
X38518574Y-69740147D01*
X38241335Y-69685000D01*
X37958665Y-69685000D01*
X37681426Y-69740147D01*
X37420273Y-69848320D01*
X37185241Y-70005363D01*
X36985363Y-70205241D01*
X36828320Y-70440273D01*
X36720147Y-70701426D01*
X36665000Y-70978665D01*
X36665000Y-71261335D01*
X36720147Y-71538574D01*
X36828320Y-71799727D01*
X36985363Y-72034759D01*
X37185241Y-72234637D01*
X37420273Y-72391680D01*
X37681426Y-72499853D01*
X37958665Y-72555000D01*
X38241335Y-72555000D01*
X38423887Y-72518688D01*
X41950000Y-76044802D01*
X41950000Y-82785000D01*
X41808061Y-82785000D01*
X41608102Y-82824774D01*
X41419744Y-82902795D01*
X41250226Y-83016063D01*
X41206289Y-83060000D01*
X38803711Y-83060000D01*
X38759774Y-83016063D01*
X38590256Y-82902795D01*
X38401898Y-82824774D01*
X38201939Y-82785000D01*
X37998061Y-82785000D01*
X37798102Y-82824774D01*
X37609744Y-82902795D01*
X37440226Y-83016063D01*
X37296063Y-83160226D01*
X37182795Y-83329744D01*
X37104774Y-83518102D01*
X37065000Y-83718061D01*
X37065000Y-83921939D01*
X37104774Y-84121898D01*
X37182795Y-84310256D01*
X37296063Y-84479774D01*
X37440226Y-84623937D01*
X37609744Y-84737205D01*
X37798102Y-84815226D01*
X37998061Y-84855000D01*
X38201939Y-84855000D01*
X38401898Y-84815226D01*
X38590256Y-84737205D01*
X38759774Y-84623937D01*
X38803711Y-84580000D01*
X41206289Y-84580000D01*
X41250226Y-84623937D01*
X41419744Y-84737205D01*
X41608102Y-84815226D01*
X41808061Y-84855000D01*
X41950000Y-84855000D01*
X41950000Y-86486339D01*
X41745998Y-86282337D01*
X41461831Y-86092463D01*
X41146081Y-85961675D01*
X40810883Y-85895000D01*
X40469117Y-85895000D01*
X40133919Y-85961675D01*
X39818169Y-86092463D01*
X39534002Y-86282337D01*
X39292337Y-86524002D01*
X39102463Y-86808169D01*
X38971675Y-87123919D01*
X38905000Y-87459117D01*
X38905000Y-87800883D01*
X38971675Y-88136081D01*
X39102463Y-88451831D01*
X39292337Y-88735998D01*
X39534002Y-88977663D01*
X39818169Y-89167537D01*
X40133919Y-89298325D01*
X40469117Y-89365000D01*
X40810883Y-89365000D01*
X41146081Y-89298325D01*
X41461831Y-89167537D01*
X41745998Y-88977663D01*
X41950000Y-88773661D01*
X41950000Y-90130129D01*
X41864482Y-90104188D01*
X41740000Y-90091928D01*
X39540000Y-90091928D01*
X39415518Y-90104188D01*
X39295820Y-90140498D01*
X39185506Y-90199463D01*
X39088815Y-90278815D01*
X39009463Y-90375506D01*
X38950498Y-90485820D01*
X38914188Y-90605518D01*
X38901928Y-90730000D01*
X38901928Y-92930000D01*
X38914188Y-93054482D01*
X38950498Y-93174180D01*
X39009463Y-93284494D01*
X39088815Y-93381185D01*
X39185506Y-93460537D01*
X39295820Y-93519502D01*
X39415518Y-93555812D01*
X39540000Y-93568072D01*
X41740000Y-93568072D01*
X41864482Y-93555812D01*
X41949999Y-93529871D01*
X41949999Y-109055000D01*
X41768665Y-109055000D01*
X41491426Y-109110147D01*
X41230273Y-109218320D01*
X40995241Y-109375363D01*
X40795363Y-109575241D01*
X40638320Y-109810273D01*
X40530147Y-110071426D01*
X40475000Y-110348665D01*
X40475000Y-110631335D01*
X40530147Y-110908574D01*
X40638320Y-111169727D01*
X40795363Y-111404759D01*
X40995241Y-111604637D01*
X41230273Y-111761680D01*
X41491426Y-111869853D01*
X41768665Y-111925000D01*
X42051335Y-111925000D01*
X42328574Y-111869853D01*
X42589727Y-111761680D01*
X42824759Y-111604637D01*
X43024637Y-111404759D01*
X43181680Y-111169727D01*
X43289853Y-110908574D01*
X43345000Y-110631335D01*
X43345000Y-110348665D01*
X43307467Y-110159978D01*
X43344972Y-110114278D01*
X43344973Y-110114277D01*
X43415545Y-109982248D01*
X43459002Y-109838987D01*
X43469999Y-109727334D01*
X43469999Y-109727325D01*
X43473675Y-109690002D01*
X43469999Y-109652679D01*
X43469999Y-102130000D01*
X45711928Y-102130000D01*
X45711928Y-103730000D01*
X45724188Y-103854482D01*
X45760498Y-103974180D01*
X45819463Y-104084494D01*
X45898815Y-104181185D01*
X45995506Y-104260537D01*
X46105820Y-104319502D01*
X46225518Y-104355812D01*
X46350000Y-104368072D01*
X47950000Y-104368072D01*
X48074482Y-104355812D01*
X48194180Y-104319502D01*
X48304494Y-104260537D01*
X48401185Y-104181185D01*
X48480537Y-104084494D01*
X48539502Y-103974180D01*
X48555117Y-103922702D01*
X48836903Y-103922702D01*
X48908486Y-104166671D01*
X49163996Y-104287571D01*
X49438184Y-104356300D01*
X49720512Y-104370217D01*
X50000130Y-104328787D01*
X50266292Y-104233603D01*
X50391514Y-104166671D01*
X50463097Y-103922702D01*
X50330395Y-103790000D01*
X55921928Y-103790000D01*
X55934188Y-103914482D01*
X55970498Y-104034180D01*
X56029463Y-104144494D01*
X56108815Y-104241185D01*
X56205506Y-104320537D01*
X56315820Y-104379502D01*
X56435518Y-104415812D01*
X56560000Y-104428072D01*
X57074250Y-104425000D01*
X57233000Y-104266250D01*
X57233000Y-103117000D01*
X56083750Y-103117000D01*
X55925000Y-103275750D01*
X55921928Y-103790000D01*
X50330395Y-103790000D01*
X49650000Y-103109605D01*
X48836903Y-103922702D01*
X48555117Y-103922702D01*
X48575812Y-103854482D01*
X48588072Y-103730000D01*
X48588072Y-103722785D01*
X48657298Y-103743097D01*
X49470395Y-102930000D01*
X49829605Y-102930000D01*
X50642702Y-103743097D01*
X50886671Y-103671514D01*
X51007571Y-103416004D01*
X51076300Y-103141816D01*
X51090217Y-102859488D01*
X51048787Y-102579870D01*
X50953603Y-102313708D01*
X50887481Y-102190000D01*
X55921928Y-102190000D01*
X55925000Y-102704250D01*
X56083750Y-102863000D01*
X57233000Y-102863000D01*
X57233000Y-101713750D01*
X57487000Y-101713750D01*
X57487000Y-102863000D01*
X57507000Y-102863000D01*
X57507000Y-103117000D01*
X57487000Y-103117000D01*
X57487000Y-104266250D01*
X57645750Y-104425000D01*
X58160000Y-104428072D01*
X58284482Y-104415812D01*
X58404180Y-104379502D01*
X58514494Y-104320537D01*
X58611185Y-104241185D01*
X58690537Y-104144494D01*
X58749502Y-104034180D01*
X58778661Y-103938057D01*
X58945241Y-104104637D01*
X59180273Y-104261680D01*
X59441426Y-104369853D01*
X59718665Y-104425000D01*
X60001335Y-104425000D01*
X60278574Y-104369853D01*
X60539727Y-104261680D01*
X60774759Y-104104637D01*
X60974637Y-103904759D01*
X61131680Y-103669727D01*
X61239853Y-103408574D01*
X61295000Y-103131335D01*
X61295000Y-102848665D01*
X61239853Y-102571426D01*
X61131680Y-102310273D01*
X60974637Y-102075241D01*
X60774759Y-101875363D01*
X60539727Y-101718320D01*
X60278574Y-101610147D01*
X60001335Y-101555000D01*
X59718665Y-101555000D01*
X59441426Y-101610147D01*
X59180273Y-101718320D01*
X58945241Y-101875363D01*
X58778661Y-102041943D01*
X58749502Y-101945820D01*
X58690537Y-101835506D01*
X58611185Y-101738815D01*
X58514494Y-101659463D01*
X58404180Y-101600498D01*
X58284482Y-101564188D01*
X58160000Y-101551928D01*
X57645750Y-101555000D01*
X57487000Y-101713750D01*
X57233000Y-101713750D01*
X57074250Y-101555000D01*
X56560000Y-101551928D01*
X56435518Y-101564188D01*
X56315820Y-101600498D01*
X56205506Y-101659463D01*
X56108815Y-101738815D01*
X56029463Y-101835506D01*
X55970498Y-101945820D01*
X55934188Y-102065518D01*
X55921928Y-102190000D01*
X50887481Y-102190000D01*
X50886671Y-102188486D01*
X50642702Y-102116903D01*
X49829605Y-102930000D01*
X49470395Y-102930000D01*
X48657298Y-102116903D01*
X48588072Y-102137215D01*
X48588072Y-102130000D01*
X48575812Y-102005518D01*
X48555118Y-101937298D01*
X48836903Y-101937298D01*
X49650000Y-102750395D01*
X50463097Y-101937298D01*
X50391514Y-101693329D01*
X50136004Y-101572429D01*
X49861816Y-101503700D01*
X49579488Y-101489783D01*
X49299870Y-101531213D01*
X49033708Y-101626397D01*
X48908486Y-101693329D01*
X48836903Y-101937298D01*
X48555118Y-101937298D01*
X48539502Y-101885820D01*
X48480537Y-101775506D01*
X48401185Y-101678815D01*
X48304494Y-101599463D01*
X48194180Y-101540498D01*
X48074482Y-101504188D01*
X47950000Y-101491928D01*
X46350000Y-101491928D01*
X46225518Y-101504188D01*
X46105820Y-101540498D01*
X45995506Y-101599463D01*
X45898815Y-101678815D01*
X45819463Y-101775506D01*
X45760498Y-101885820D01*
X45724188Y-102005518D01*
X45711928Y-102130000D01*
X43469999Y-102130000D01*
X43469999Y-87488665D01*
X45555000Y-87488665D01*
X45555000Y-87771335D01*
X45610147Y-88048574D01*
X45718320Y-88309727D01*
X45875363Y-88544759D01*
X46075241Y-88744637D01*
X46310273Y-88901680D01*
X46571426Y-89009853D01*
X46848665Y-89065000D01*
X47131335Y-89065000D01*
X47408574Y-89009853D01*
X47669727Y-88901680D01*
X47904759Y-88744637D01*
X48104637Y-88544759D01*
X48261680Y-88309727D01*
X48369853Y-88048574D01*
X48425000Y-87771335D01*
X48425000Y-87488665D01*
X48369853Y-87211426D01*
X48261680Y-86950273D01*
X48104637Y-86715241D01*
X47904759Y-86515363D01*
X47669727Y-86358320D01*
X47408574Y-86250147D01*
X47131335Y-86195000D01*
X46848665Y-86195000D01*
X46571426Y-86250147D01*
X46310273Y-86358320D01*
X46075241Y-86515363D01*
X45875363Y-86715241D01*
X45718320Y-86950273D01*
X45610147Y-87211426D01*
X45555000Y-87488665D01*
X43469999Y-87488665D01*
X43469999Y-82730000D01*
X49861928Y-82730000D01*
X49874188Y-82854482D01*
X49910498Y-82974180D01*
X49969463Y-83084494D01*
X50048815Y-83181185D01*
X50145506Y-83260537D01*
X50255820Y-83319502D01*
X50375518Y-83355812D01*
X50500000Y-83368072D01*
X51114250Y-83365000D01*
X51273000Y-83206250D01*
X51273000Y-81957000D01*
X50023750Y-81957000D01*
X49865000Y-82115750D01*
X49861928Y-82730000D01*
X43469999Y-82730000D01*
X43469999Y-82329395D01*
X43535241Y-82394637D01*
X43770273Y-82551680D01*
X44031426Y-82659853D01*
X44308665Y-82715000D01*
X44591335Y-82715000D01*
X44868574Y-82659853D01*
X45129727Y-82551680D01*
X45364759Y-82394637D01*
X45564637Y-82194759D01*
X45721680Y-81959727D01*
X45829853Y-81698574D01*
X45885000Y-81421335D01*
X45885000Y-81240001D01*
X49863478Y-81240001D01*
X49865000Y-81544250D01*
X50023750Y-81703000D01*
X51273000Y-81703000D01*
X51273000Y-81683000D01*
X51527000Y-81683000D01*
X51527000Y-81703000D01*
X51547000Y-81703000D01*
X51547000Y-81957000D01*
X51527000Y-81957000D01*
X51527000Y-83206250D01*
X51685750Y-83365000D01*
X52300000Y-83368072D01*
X52424482Y-83355812D01*
X52544180Y-83319502D01*
X52654494Y-83260537D01*
X52751185Y-83181185D01*
X52830537Y-83084494D01*
X52883880Y-82984697D01*
X52921495Y-83022312D01*
X53172905Y-83190299D01*
X53452257Y-83306011D01*
X53748816Y-83365000D01*
X54051184Y-83365000D01*
X54347743Y-83306011D01*
X54365002Y-83298862D01*
X54365002Y-84260196D01*
X54295198Y-84330000D01*
X53377322Y-84330000D01*
X53339999Y-84326324D01*
X53302676Y-84330000D01*
X53302667Y-84330000D01*
X53191014Y-84340997D01*
X53047753Y-84384454D01*
X52915724Y-84455026D01*
X52915722Y-84455027D01*
X52915723Y-84455027D01*
X52828996Y-84526201D01*
X52828992Y-84526205D01*
X52799999Y-84549999D01*
X52776205Y-84578992D01*
X51123886Y-86231312D01*
X50941335Y-86195000D01*
X50658665Y-86195000D01*
X50381426Y-86250147D01*
X50120273Y-86358320D01*
X49885241Y-86515363D01*
X49685363Y-86715241D01*
X49528320Y-86950273D01*
X49420147Y-87211426D01*
X49365000Y-87488665D01*
X49365000Y-87771335D01*
X49420147Y-88048574D01*
X49528320Y-88309727D01*
X49685363Y-88544759D01*
X49885241Y-88744637D01*
X50120273Y-88901680D01*
X50381426Y-89009853D01*
X50658665Y-89065000D01*
X50941335Y-89065000D01*
X51218574Y-89009853D01*
X51479727Y-88901680D01*
X51714759Y-88744637D01*
X51914637Y-88544759D01*
X52071680Y-88309727D01*
X52179853Y-88048574D01*
X52235000Y-87771335D01*
X52235000Y-87488665D01*
X52198688Y-87306114D01*
X53654803Y-85850000D01*
X54572678Y-85850000D01*
X54610000Y-85853676D01*
X54647322Y-85850000D01*
X61725012Y-85850000D01*
X61725012Y-86415306D01*
X61639727Y-86358320D01*
X61378574Y-86250147D01*
X61101335Y-86195000D01*
X60818665Y-86195000D01*
X60541426Y-86250147D01*
X60280273Y-86358320D01*
X60045241Y-86515363D01*
X59845363Y-86715241D01*
X59688320Y-86950273D01*
X59580147Y-87211426D01*
X59525000Y-87488665D01*
X59525000Y-87771335D01*
X59580147Y-88048574D01*
X59688320Y-88309727D01*
X59845363Y-88544759D01*
X60045241Y-88744637D01*
X60280273Y-88901680D01*
X60541426Y-89009853D01*
X60818665Y-89065000D01*
X61101335Y-89065000D01*
X61275002Y-89030455D01*
X61275002Y-90090524D01*
X61096411Y-90055000D01*
X60823589Y-90055000D01*
X60556011Y-90108225D01*
X60303957Y-90212629D01*
X60077114Y-90364201D01*
X59884201Y-90557114D01*
X59802091Y-90680000D01*
X53927325Y-90680000D01*
X53890000Y-90676324D01*
X53852675Y-90680000D01*
X53852667Y-90680000D01*
X53741014Y-90690997D01*
X53597753Y-90734454D01*
X53465724Y-90805026D01*
X53349999Y-90899999D01*
X53326201Y-90928997D01*
X51778998Y-92476201D01*
X51750000Y-92499999D01*
X51726202Y-92528997D01*
X51726201Y-92528998D01*
X51655026Y-92615724D01*
X51635674Y-92651928D01*
X51390000Y-92651928D01*
X51265518Y-92664188D01*
X51145820Y-92700498D01*
X51035506Y-92759463D01*
X50938815Y-92838815D01*
X50859463Y-92935506D01*
X50800498Y-93045820D01*
X50764188Y-93165518D01*
X50751928Y-93290000D01*
X50751928Y-95090000D01*
X50764188Y-95214482D01*
X50800498Y-95334180D01*
X50859463Y-95444494D01*
X50938815Y-95541185D01*
X51035506Y-95620537D01*
X51145820Y-95679502D01*
X51265518Y-95715812D01*
X51390000Y-95728072D01*
X52217127Y-95728072D01*
X50915199Y-97030000D01*
X48208043Y-97030000D01*
X48104637Y-96875241D01*
X47904759Y-96675363D01*
X47669727Y-96518320D01*
X47408574Y-96410147D01*
X47131335Y-96355000D01*
X46848665Y-96355000D01*
X46571426Y-96410147D01*
X46310273Y-96518320D01*
X46075241Y-96675363D01*
X45875363Y-96875241D01*
X45718320Y-97110273D01*
X45610147Y-97371426D01*
X45555000Y-97648665D01*
X45555000Y-97931335D01*
X45610147Y-98208574D01*
X45718320Y-98469727D01*
X45875363Y-98704759D01*
X46075241Y-98904637D01*
X46310273Y-99061680D01*
X46571426Y-99169853D01*
X46848665Y-99225000D01*
X47131335Y-99225000D01*
X47408574Y-99169853D01*
X47669727Y-99061680D01*
X47904759Y-98904637D01*
X48104637Y-98704759D01*
X48208043Y-98550000D01*
X51192678Y-98550000D01*
X51230000Y-98553676D01*
X51267322Y-98550000D01*
X51267333Y-98550000D01*
X51378986Y-98539003D01*
X51522247Y-98495546D01*
X51654276Y-98424974D01*
X51770001Y-98330001D01*
X51793804Y-98300997D01*
X52824801Y-97270000D01*
X59571928Y-97270000D01*
X59584188Y-97394482D01*
X59620498Y-97514180D01*
X59679463Y-97624494D01*
X59758815Y-97721185D01*
X59855506Y-97800537D01*
X59965820Y-97859502D01*
X60085518Y-97895812D01*
X60210000Y-97908072D01*
X60674250Y-97905000D01*
X60833000Y-97746250D01*
X60833000Y-96647000D01*
X59733750Y-96647000D01*
X59575000Y-96805750D01*
X59571928Y-97270000D01*
X52824801Y-97270000D01*
X54421070Y-95673731D01*
X54678816Y-95725000D01*
X54981184Y-95725000D01*
X55277743Y-95666011D01*
X55557095Y-95550299D01*
X55808505Y-95382312D01*
X56022312Y-95168505D01*
X56190299Y-94917095D01*
X56306011Y-94637743D01*
X56365000Y-94341184D01*
X56365000Y-94038816D01*
X56306011Y-93742257D01*
X56190299Y-93462905D01*
X56022312Y-93211495D01*
X55808505Y-92997688D01*
X55557095Y-92829701D01*
X55277743Y-92713989D01*
X54981184Y-92655000D01*
X54678816Y-92655000D01*
X54382257Y-92713989D01*
X54102905Y-92829701D01*
X53851495Y-92997688D01*
X53785056Y-93064127D01*
X53779502Y-93045820D01*
X53720537Y-92935506D01*
X53641185Y-92838815D01*
X53599882Y-92804919D01*
X54204802Y-92200000D01*
X59802091Y-92200000D01*
X59884201Y-92322886D01*
X60077114Y-92515799D01*
X60303957Y-92667371D01*
X60406873Y-92710000D01*
X60303957Y-92752629D01*
X60077114Y-92904201D01*
X59884201Y-93097114D01*
X59732629Y-93323957D01*
X59628225Y-93576011D01*
X59575000Y-93843589D01*
X59575000Y-94116411D01*
X59628225Y-94383989D01*
X59732629Y-94636043D01*
X59884201Y-94862886D01*
X60077114Y-95055799D01*
X60193483Y-95133555D01*
X60085518Y-95144188D01*
X59965820Y-95180498D01*
X59855506Y-95239463D01*
X59758815Y-95318815D01*
X59679463Y-95415506D01*
X59620498Y-95525820D01*
X59584188Y-95645518D01*
X59571928Y-95770000D01*
X59575000Y-96234250D01*
X59733750Y-96393000D01*
X60833000Y-96393000D01*
X60833000Y-96373000D01*
X61087000Y-96373000D01*
X61087000Y-96393000D01*
X61107000Y-96393000D01*
X61107000Y-96647000D01*
X61087000Y-96647000D01*
X61087000Y-97746250D01*
X61245750Y-97905000D01*
X61710000Y-97908072D01*
X61725012Y-97906593D01*
X61725013Y-117203187D01*
X57771052Y-121157149D01*
X57740299Y-121082905D01*
X57572312Y-120831495D01*
X57358505Y-120617688D01*
X57107095Y-120449701D01*
X56827743Y-120333989D01*
X56531184Y-120275000D01*
X56228816Y-120275000D01*
X55932257Y-120333989D01*
X55652905Y-120449701D01*
X55401495Y-120617688D01*
X55187688Y-120831495D01*
X55130000Y-120917831D01*
X55072312Y-120831495D01*
X54858505Y-120617688D01*
X54607095Y-120449701D01*
X54327743Y-120333989D01*
X54031184Y-120275000D01*
X53728816Y-120275000D01*
X53432257Y-120333989D01*
X53152905Y-120449701D01*
X52901495Y-120617688D01*
X52863880Y-120655303D01*
X52810537Y-120555506D01*
X52731185Y-120458815D01*
X52634494Y-120379463D01*
X52524180Y-120320498D01*
X52404482Y-120284188D01*
X52280000Y-120271928D01*
X51665750Y-120275000D01*
X51507000Y-120433750D01*
X51507000Y-121683000D01*
X51527000Y-121683000D01*
X51527000Y-121937000D01*
X51507000Y-121937000D01*
X51507000Y-123186250D01*
X51665750Y-123345000D01*
X52280000Y-123348072D01*
X52404482Y-123335812D01*
X52524180Y-123299502D01*
X52634494Y-123240537D01*
X52731185Y-123161185D01*
X52810537Y-123064494D01*
X52863880Y-122964697D01*
X52901495Y-123002312D01*
X53152905Y-123170299D01*
X53432257Y-123286011D01*
X53728816Y-123345000D01*
X54031184Y-123345000D01*
X54327743Y-123286011D01*
X54607095Y-123170299D01*
X54858505Y-123002312D01*
X55072312Y-122788505D01*
X55130000Y-122702169D01*
X55187688Y-122788505D01*
X55401495Y-123002312D01*
X55652905Y-123170299D01*
X55727149Y-123201052D01*
X53566200Y-125362001D01*
X52430868Y-125362001D01*
X52451481Y-125303891D01*
X52330814Y-125074000D01*
X51137000Y-125074000D01*
X51137000Y-125094000D01*
X50883000Y-125094000D01*
X50883000Y-125074000D01*
X50863000Y-125074000D01*
X50863000Y-124820000D01*
X50883000Y-124820000D01*
X50883000Y-123626845D01*
X51137000Y-123626845D01*
X51137000Y-124820000D01*
X52330814Y-124820000D01*
X52451481Y-124590109D01*
X52354157Y-124315748D01*
X52205178Y-124065645D01*
X52010269Y-123849412D01*
X51776920Y-123675359D01*
X51514099Y-123550175D01*
X51366890Y-123505524D01*
X51137000Y-123626845D01*
X50883000Y-123626845D01*
X50653110Y-123505524D01*
X50505901Y-123550175D01*
X50243080Y-123675359D01*
X50009731Y-123849412D01*
X49814822Y-124065645D01*
X49745195Y-124182534D01*
X49623475Y-124000368D01*
X49416632Y-123793525D01*
X49173411Y-123631010D01*
X48903158Y-123519068D01*
X48616260Y-123462000D01*
X48323740Y-123462000D01*
X48036842Y-123519068D01*
X47766589Y-123631010D01*
X47523368Y-123793525D01*
X47316525Y-124000368D01*
X47200000Y-124174760D01*
X47083475Y-124000368D01*
X46876632Y-123793525D01*
X46633411Y-123631010D01*
X46363158Y-123519068D01*
X46076260Y-123462000D01*
X45783740Y-123462000D01*
X45496842Y-123519068D01*
X45226589Y-123631010D01*
X44983368Y-123793525D01*
X44776525Y-124000368D01*
X44660000Y-124174760D01*
X44543475Y-124000368D01*
X44336632Y-123793525D01*
X44093411Y-123631010D01*
X43823158Y-123519068D01*
X43536260Y-123462000D01*
X43243740Y-123462000D01*
X43023592Y-123505790D01*
X42227802Y-122710000D01*
X49841928Y-122710000D01*
X49854188Y-122834482D01*
X49890498Y-122954180D01*
X49949463Y-123064494D01*
X50028815Y-123161185D01*
X50125506Y-123240537D01*
X50235820Y-123299502D01*
X50355518Y-123335812D01*
X50480000Y-123348072D01*
X51094250Y-123345000D01*
X51253000Y-123186250D01*
X51253000Y-121937000D01*
X50003750Y-121937000D01*
X49845000Y-122095750D01*
X49841928Y-122710000D01*
X42227802Y-122710000D01*
X41561616Y-122043815D01*
X41768665Y-122085000D01*
X42051335Y-122085000D01*
X42328574Y-122029853D01*
X42589727Y-121921680D01*
X42824759Y-121764637D01*
X43024637Y-121564759D01*
X43181680Y-121329727D01*
X43289853Y-121068574D01*
X43321395Y-120910000D01*
X49841928Y-120910000D01*
X49845000Y-121524250D01*
X50003750Y-121683000D01*
X51253000Y-121683000D01*
X51253000Y-120433750D01*
X51094250Y-120275000D01*
X50480000Y-120271928D01*
X50355518Y-120284188D01*
X50235820Y-120320498D01*
X50125506Y-120379463D01*
X50028815Y-120458815D01*
X49949463Y-120555506D01*
X49890498Y-120665820D01*
X49854188Y-120785518D01*
X49841928Y-120910000D01*
X43321395Y-120910000D01*
X43345000Y-120791335D01*
X43345000Y-120508665D01*
X43289853Y-120231426D01*
X43181680Y-119970273D01*
X43024637Y-119735241D01*
X42824759Y-119535363D01*
X42589727Y-119378320D01*
X42328574Y-119270147D01*
X42051335Y-119215000D01*
X41768665Y-119215000D01*
X41586114Y-119251312D01*
X41203804Y-118869003D01*
X41180001Y-118839999D01*
X41064276Y-118745026D01*
X40932247Y-118674454D01*
X40788986Y-118630997D01*
X40677333Y-118620000D01*
X40677322Y-118620000D01*
X40640000Y-118616324D01*
X40602678Y-118620000D01*
X31347322Y-118620000D01*
X31309999Y-118616324D01*
X31272676Y-118620000D01*
X31272667Y-118620000D01*
X31161014Y-118630997D01*
X31017753Y-118674454D01*
X30885724Y-118745026D01*
X30769999Y-118839999D01*
X30746201Y-118868997D01*
X29268930Y-120346269D01*
X29011184Y-120295000D01*
X28708816Y-120295000D01*
X28412257Y-120353989D01*
X28132905Y-120469701D01*
X27881495Y-120637688D01*
X27843880Y-120675303D01*
X27790537Y-120575506D01*
X27711185Y-120478815D01*
X27614494Y-120399463D01*
X27504180Y-120340498D01*
X27384482Y-120304188D01*
X27260000Y-120291928D01*
X26645750Y-120295000D01*
X26487000Y-120453750D01*
X26487000Y-121703000D01*
X26507000Y-121703000D01*
X26507000Y-121957000D01*
X26487000Y-121957000D01*
X26487000Y-121977000D01*
X26233000Y-121977000D01*
X26233000Y-121957000D01*
X24983750Y-121957000D01*
X24825000Y-122115750D01*
X24821928Y-122730000D01*
X24834188Y-122854482D01*
X24870498Y-122974180D01*
X24890713Y-123011999D01*
X23365321Y-123011999D01*
X23327998Y-123008323D01*
X23290675Y-123011999D01*
X23290666Y-123011999D01*
X23179013Y-123022996D01*
X23042210Y-123064494D01*
X23035752Y-123066453D01*
X22903722Y-123137025D01*
X22874999Y-123160598D01*
X22874999Y-120930000D01*
X24821928Y-120930000D01*
X24825000Y-121544250D01*
X24983750Y-121703000D01*
X26233000Y-121703000D01*
X26233000Y-120453750D01*
X26074250Y-120295000D01*
X25460000Y-120291928D01*
X25335518Y-120304188D01*
X25215820Y-120340498D01*
X25105506Y-120399463D01*
X25008815Y-120478815D01*
X24929463Y-120575506D01*
X24870498Y-120685820D01*
X24834188Y-120805518D01*
X24821928Y-120930000D01*
X22874999Y-120930000D01*
X22874999Y-116250273D01*
X22991857Y-116328355D01*
X23402241Y-116498342D01*
X23837902Y-116585000D01*
X24282098Y-116585000D01*
X24717759Y-116498342D01*
X25128143Y-116328355D01*
X25497479Y-116081573D01*
X25811573Y-115767479D01*
X26058355Y-115398143D01*
X26228342Y-114987759D01*
X26315000Y-114552098D01*
X26315000Y-114107902D01*
X31405000Y-114107902D01*
X31405000Y-114552098D01*
X31491658Y-114987759D01*
X31661645Y-115398143D01*
X31908427Y-115767479D01*
X32222521Y-116081573D01*
X32591857Y-116328355D01*
X33002241Y-116498342D01*
X33437902Y-116585000D01*
X33882098Y-116585000D01*
X34317759Y-116498342D01*
X34728143Y-116328355D01*
X35097479Y-116081573D01*
X35411573Y-115767479D01*
X35658355Y-115398143D01*
X35828342Y-114987759D01*
X35915000Y-114552098D01*
X35915000Y-114107902D01*
X35911022Y-114087902D01*
X46825000Y-114087902D01*
X46825000Y-114532098D01*
X46911658Y-114967759D01*
X47081645Y-115378143D01*
X47328427Y-115747479D01*
X47642521Y-116061573D01*
X48011857Y-116308355D01*
X48422241Y-116478342D01*
X48857902Y-116565000D01*
X49302098Y-116565000D01*
X49737759Y-116478342D01*
X50148143Y-116308355D01*
X50517479Y-116061573D01*
X50831573Y-115747479D01*
X51078355Y-115378143D01*
X51248342Y-114967759D01*
X51335000Y-114532098D01*
X51335000Y-114087902D01*
X56425000Y-114087902D01*
X56425000Y-114532098D01*
X56511658Y-114967759D01*
X56681645Y-115378143D01*
X56928427Y-115747479D01*
X57242521Y-116061573D01*
X57611857Y-116308355D01*
X58022241Y-116478342D01*
X58457902Y-116565000D01*
X58902098Y-116565000D01*
X59337759Y-116478342D01*
X59748143Y-116308355D01*
X60117479Y-116061573D01*
X60431573Y-115747479D01*
X60678355Y-115378143D01*
X60848342Y-114967759D01*
X60935000Y-114532098D01*
X60935000Y-114087902D01*
X60848342Y-113652241D01*
X60678355Y-113241857D01*
X60431573Y-112872521D01*
X60117479Y-112558427D01*
X59748143Y-112311645D01*
X59337759Y-112141658D01*
X58902098Y-112055000D01*
X58457902Y-112055000D01*
X58022241Y-112141658D01*
X57611857Y-112311645D01*
X57242521Y-112558427D01*
X56928427Y-112872521D01*
X56681645Y-113241857D01*
X56511658Y-113652241D01*
X56425000Y-114087902D01*
X51335000Y-114087902D01*
X51248342Y-113652241D01*
X51078355Y-113241857D01*
X50831573Y-112872521D01*
X50517479Y-112558427D01*
X50148143Y-112311645D01*
X49737759Y-112141658D01*
X49302098Y-112055000D01*
X48857902Y-112055000D01*
X48422241Y-112141658D01*
X48011857Y-112311645D01*
X47642521Y-112558427D01*
X47328427Y-112872521D01*
X47081645Y-113241857D01*
X46911658Y-113652241D01*
X46825000Y-114087902D01*
X35911022Y-114087902D01*
X35828342Y-113672241D01*
X35658355Y-113261857D01*
X35411573Y-112892521D01*
X35097479Y-112578427D01*
X34728143Y-112331645D01*
X34317759Y-112161658D01*
X33882098Y-112075000D01*
X33437902Y-112075000D01*
X33002241Y-112161658D01*
X32591857Y-112331645D01*
X32222521Y-112578427D01*
X31908427Y-112892521D01*
X31661645Y-113261857D01*
X31491658Y-113672241D01*
X31405000Y-114107902D01*
X26315000Y-114107902D01*
X26228342Y-113672241D01*
X26058355Y-113261857D01*
X25811573Y-112892521D01*
X25497479Y-112578427D01*
X25128143Y-112331645D01*
X24717759Y-112161658D01*
X24282098Y-112075000D01*
X23837902Y-112075000D01*
X23402241Y-112161658D01*
X22991857Y-112331645D01*
X22874999Y-112409727D01*
X22874999Y-97826400D01*
X25248328Y-97826400D01*
X25248328Y-99553600D01*
X25260588Y-99678082D01*
X25296898Y-99797780D01*
X25355863Y-99908094D01*
X25435215Y-100004785D01*
X25531906Y-100084137D01*
X25642220Y-100143102D01*
X25700023Y-100160636D01*
X25585961Y-100274698D01*
X25421958Y-100520147D01*
X25308990Y-100792875D01*
X25251400Y-101082401D01*
X25251400Y-101377599D01*
X25308990Y-101667125D01*
X25421958Y-101939853D01*
X25585961Y-102185302D01*
X25794698Y-102394039D01*
X26040147Y-102558042D01*
X26312875Y-102671010D01*
X26602401Y-102728600D01*
X26897599Y-102728600D01*
X27187125Y-102671010D01*
X27459853Y-102558042D01*
X27705302Y-102394039D01*
X27914039Y-102185302D01*
X28024559Y-102019897D01*
X28083183Y-102118488D01*
X28279707Y-102336854D01*
X28515056Y-102512684D01*
X28780186Y-102639222D01*
X28930974Y-102684958D01*
X29163000Y-102563817D01*
X29163000Y-101357000D01*
X29417000Y-101357000D01*
X29417000Y-102563817D01*
X29649026Y-102684958D01*
X29799814Y-102639222D01*
X30064944Y-102512684D01*
X30300293Y-102336854D01*
X30496817Y-102118488D01*
X30560000Y-102012230D01*
X30623183Y-102118488D01*
X30819707Y-102336854D01*
X31055056Y-102512684D01*
X31320186Y-102639222D01*
X31470974Y-102684958D01*
X31703000Y-102563817D01*
X31703000Y-101357000D01*
X31957000Y-101357000D01*
X31957000Y-102563817D01*
X32189026Y-102684958D01*
X32339814Y-102639222D01*
X32604944Y-102512684D01*
X32840293Y-102336854D01*
X33036817Y-102118488D01*
X33100000Y-102012230D01*
X33163183Y-102118488D01*
X33359707Y-102336854D01*
X33595056Y-102512684D01*
X33860186Y-102639222D01*
X34010974Y-102684958D01*
X34243000Y-102563817D01*
X34243000Y-101357000D01*
X31957000Y-101357000D01*
X31703000Y-101357000D01*
X29417000Y-101357000D01*
X29163000Y-101357000D01*
X29143000Y-101357000D01*
X29143000Y-101103000D01*
X29163000Y-101103000D01*
X29163000Y-98817000D01*
X29417000Y-98817000D01*
X29417000Y-101103000D01*
X31703000Y-101103000D01*
X31703000Y-98817000D01*
X31957000Y-98817000D01*
X31957000Y-101103000D01*
X34243000Y-101103000D01*
X34243000Y-98817000D01*
X31957000Y-98817000D01*
X31703000Y-98817000D01*
X29417000Y-98817000D01*
X29163000Y-98817000D01*
X29143000Y-98817000D01*
X29143000Y-98563000D01*
X29163000Y-98563000D01*
X29163000Y-97356183D01*
X29417000Y-97356183D01*
X29417000Y-98563000D01*
X31703000Y-98563000D01*
X31703000Y-97356183D01*
X31957000Y-97356183D01*
X31957000Y-98563000D01*
X34243000Y-98563000D01*
X34243000Y-97356183D01*
X34497000Y-97356183D01*
X34497000Y-98563000D01*
X34517000Y-98563000D01*
X34517000Y-98817000D01*
X34497000Y-98817000D01*
X34497000Y-101103000D01*
X34517000Y-101103000D01*
X34517000Y-101357000D01*
X34497000Y-101357000D01*
X34497000Y-102563817D01*
X34729026Y-102684958D01*
X34879814Y-102639222D01*
X35144944Y-102512684D01*
X35380293Y-102336854D01*
X35576817Y-102118488D01*
X35635441Y-102019897D01*
X35745961Y-102185302D01*
X35954698Y-102394039D01*
X36200147Y-102558042D01*
X36472875Y-102671010D01*
X36762401Y-102728600D01*
X37057599Y-102728600D01*
X37347125Y-102671010D01*
X37619853Y-102558042D01*
X37865302Y-102394039D01*
X38074039Y-102185302D01*
X38238042Y-101939853D01*
X38351010Y-101667125D01*
X38408600Y-101377599D01*
X38408600Y-101082401D01*
X38351010Y-100792875D01*
X38238042Y-100520147D01*
X38074039Y-100274698D01*
X37865302Y-100065961D01*
X37706719Y-99960000D01*
X37865302Y-99854039D01*
X38074039Y-99645302D01*
X38238042Y-99399853D01*
X38351010Y-99127125D01*
X38408600Y-98837599D01*
X38408600Y-98542401D01*
X38351010Y-98252875D01*
X38238042Y-97980147D01*
X38074039Y-97734698D01*
X37865302Y-97525961D01*
X37619853Y-97361958D01*
X37347125Y-97248990D01*
X37057599Y-97191400D01*
X36762401Y-97191400D01*
X36472875Y-97248990D01*
X36200147Y-97361958D01*
X35954698Y-97525961D01*
X35745961Y-97734698D01*
X35635441Y-97900103D01*
X35576817Y-97801512D01*
X35380293Y-97583146D01*
X35144944Y-97407316D01*
X34879814Y-97280778D01*
X34729026Y-97235042D01*
X34497000Y-97356183D01*
X34243000Y-97356183D01*
X34010974Y-97235042D01*
X33860186Y-97280778D01*
X33595056Y-97407316D01*
X33359707Y-97583146D01*
X33163183Y-97801512D01*
X33100000Y-97907770D01*
X33036817Y-97801512D01*
X32840293Y-97583146D01*
X32604944Y-97407316D01*
X32339814Y-97280778D01*
X32189026Y-97235042D01*
X31957000Y-97356183D01*
X31703000Y-97356183D01*
X31470974Y-97235042D01*
X31320186Y-97280778D01*
X31055056Y-97407316D01*
X30819707Y-97583146D01*
X30623183Y-97801512D01*
X30560000Y-97907770D01*
X30496817Y-97801512D01*
X30300293Y-97583146D01*
X30064944Y-97407316D01*
X29799814Y-97280778D01*
X29649026Y-97235042D01*
X29417000Y-97356183D01*
X29163000Y-97356183D01*
X28930974Y-97235042D01*
X28780186Y-97280778D01*
X28515056Y-97407316D01*
X28279707Y-97583146D01*
X28222624Y-97646574D01*
X28203102Y-97582220D01*
X28144137Y-97471906D01*
X28064785Y-97375215D01*
X27968094Y-97295863D01*
X27857780Y-97236898D01*
X27738082Y-97200588D01*
X27613600Y-97188328D01*
X25886400Y-97188328D01*
X25761918Y-97200588D01*
X25642220Y-97236898D01*
X25531906Y-97295863D01*
X25435215Y-97375215D01*
X25355863Y-97471906D01*
X25296898Y-97582220D01*
X25260588Y-97701918D01*
X25248328Y-97826400D01*
X22874999Y-97826400D01*
X22874999Y-91659117D01*
X28745000Y-91659117D01*
X28745000Y-92000883D01*
X28811675Y-92336081D01*
X28942463Y-92651831D01*
X29132337Y-92935998D01*
X29374002Y-93177663D01*
X29658169Y-93367537D01*
X29973919Y-93498325D01*
X30309117Y-93565000D01*
X30650883Y-93565000D01*
X30986081Y-93498325D01*
X31301831Y-93367537D01*
X31585998Y-93177663D01*
X31827663Y-92935998D01*
X32017537Y-92651831D01*
X32148325Y-92336081D01*
X32215000Y-92000883D01*
X32215000Y-91659117D01*
X32148325Y-91323919D01*
X32017537Y-91008169D01*
X31827663Y-90724002D01*
X31585998Y-90482337D01*
X31301831Y-90292463D01*
X30986081Y-90161675D01*
X30650883Y-90095000D01*
X30309117Y-90095000D01*
X29973919Y-90161675D01*
X29658169Y-90292463D01*
X29374002Y-90482337D01*
X29132337Y-90724002D01*
X28942463Y-91008169D01*
X28811675Y-91323919D01*
X28745000Y-91659117D01*
X22874999Y-91659117D01*
X22874999Y-86530000D01*
X28741928Y-86530000D01*
X28741928Y-88730000D01*
X28754188Y-88854482D01*
X28790498Y-88974180D01*
X28849463Y-89084494D01*
X28928815Y-89181185D01*
X29025506Y-89260537D01*
X29135820Y-89319502D01*
X29255518Y-89355812D01*
X29380000Y-89368072D01*
X31580000Y-89368072D01*
X31704482Y-89355812D01*
X31824180Y-89319502D01*
X31934494Y-89260537D01*
X32031185Y-89181185D01*
X32110537Y-89084494D01*
X32169502Y-88974180D01*
X32205812Y-88854482D01*
X32218072Y-88730000D01*
X32218072Y-86530000D01*
X32205812Y-86405518D01*
X32169502Y-86285820D01*
X32110537Y-86175506D01*
X32031185Y-86078815D01*
X31934494Y-85999463D01*
X31824180Y-85940498D01*
X31704482Y-85904188D01*
X31580000Y-85891928D01*
X29380000Y-85891928D01*
X29255518Y-85904188D01*
X29135820Y-85940498D01*
X29025506Y-85999463D01*
X28928815Y-86078815D01*
X28849463Y-86175506D01*
X28790498Y-86285820D01*
X28754188Y-86405518D01*
X28741928Y-86530000D01*
X22874999Y-86530000D01*
X22874999Y-84004800D01*
X24952798Y-81927002D01*
X25013748Y-81927002D01*
X24855000Y-82085750D01*
X24851928Y-82700000D01*
X24864188Y-82824482D01*
X24900498Y-82944180D01*
X24959463Y-83054494D01*
X25038815Y-83151185D01*
X25135506Y-83230537D01*
X25245820Y-83289502D01*
X25365518Y-83325812D01*
X25490000Y-83338072D01*
X26104250Y-83335000D01*
X26263000Y-83176250D01*
X26263000Y-81927000D01*
X26243000Y-81927000D01*
X26243000Y-81673000D01*
X26263000Y-81673000D01*
X26263000Y-81653000D01*
X26517000Y-81653000D01*
X26517000Y-81673000D01*
X26537000Y-81673000D01*
X26537000Y-81927000D01*
X26517000Y-81927000D01*
X26517000Y-83176250D01*
X26675750Y-83335000D01*
X27290000Y-83338072D01*
X27414482Y-83325812D01*
X27534180Y-83289502D01*
X27644494Y-83230537D01*
X27741185Y-83151185D01*
X27820537Y-83054494D01*
X27873880Y-82954697D01*
X27911495Y-82992312D01*
X28162905Y-83160299D01*
X28442257Y-83276011D01*
X28738816Y-83335000D01*
X29041184Y-83335000D01*
X29298930Y-83283731D01*
X29551202Y-83536004D01*
X29575000Y-83565002D01*
X29603998Y-83588800D01*
X29690724Y-83659975D01*
X29746895Y-83689999D01*
X29822754Y-83730547D01*
X29966015Y-83774004D01*
X30077668Y-83785001D01*
X30077677Y-83785001D01*
X30115000Y-83788677D01*
X30152323Y-83785001D01*
X35047677Y-83785001D01*
X35084999Y-83788677D01*
X35122321Y-83785001D01*
X35122332Y-83785001D01*
X35233985Y-83774004D01*
X35377246Y-83730547D01*
X35509275Y-83659975D01*
X35625000Y-83565002D01*
X35648803Y-83535998D01*
X36987703Y-82197099D01*
X37185241Y-82394637D01*
X37420273Y-82551680D01*
X37681426Y-82659853D01*
X37958665Y-82715000D01*
X38241335Y-82715000D01*
X38518574Y-82659853D01*
X38779727Y-82551680D01*
X39014759Y-82394637D01*
X39214637Y-82194759D01*
X39371680Y-81959727D01*
X39479853Y-81698574D01*
X39535000Y-81421335D01*
X39535000Y-81138665D01*
X39479853Y-80861426D01*
X39371680Y-80600273D01*
X39214637Y-80365241D01*
X39014759Y-80165363D01*
X38779727Y-80008320D01*
X38518574Y-79900147D01*
X38241335Y-79845000D01*
X37958665Y-79845000D01*
X37681426Y-79900147D01*
X37420273Y-80008320D01*
X37185241Y-80165363D01*
X36985363Y-80365241D01*
X36881957Y-80520000D01*
X36867322Y-80520000D01*
X36829999Y-80516324D01*
X36792676Y-80520000D01*
X36792667Y-80520000D01*
X36681014Y-80530997D01*
X36537753Y-80574454D01*
X36405723Y-80645026D01*
X36392571Y-80655820D01*
X36289999Y-80739999D01*
X36266201Y-80768997D01*
X34770198Y-82265001D01*
X32858862Y-82265001D01*
X32866011Y-82247743D01*
X32925000Y-81951184D01*
X32925000Y-81648816D01*
X32866011Y-81352257D01*
X32750299Y-81072905D01*
X32582312Y-80821495D01*
X32368505Y-80607688D01*
X32117095Y-80439701D01*
X31837743Y-80323989D01*
X31541184Y-80265000D01*
X31238816Y-80265000D01*
X30981070Y-80316269D01*
X30728803Y-80064002D01*
X30705000Y-80034998D01*
X30589275Y-79940025D01*
X30457246Y-79869453D01*
X30313985Y-79825996D01*
X30202332Y-79814999D01*
X30202321Y-79814999D01*
X30164999Y-79811323D01*
X30127677Y-79814999D01*
X25267321Y-79814999D01*
X25229998Y-79811323D01*
X25192675Y-79814999D01*
X25192666Y-79814999D01*
X25081013Y-79825996D01*
X24937752Y-79869453D01*
X24805723Y-79940025D01*
X24689998Y-80034998D01*
X24666200Y-80063996D01*
X22350000Y-82380197D01*
X22350000Y-75749052D01*
X22652521Y-76051573D01*
X23021857Y-76298355D01*
X23432241Y-76468342D01*
X23867902Y-76555000D01*
X24312098Y-76555000D01*
X24747759Y-76468342D01*
X25158143Y-76298355D01*
X25527479Y-76051573D01*
X25841573Y-75737479D01*
X26088355Y-75368143D01*
X26258342Y-74957759D01*
X26345000Y-74522098D01*
X26345000Y-74077902D01*
X31435000Y-74077902D01*
X31435000Y-74522098D01*
X31521658Y-74957759D01*
X31691645Y-75368143D01*
X31938427Y-75737479D01*
X32252521Y-76051573D01*
X32621857Y-76298355D01*
X33032241Y-76468342D01*
X33467902Y-76555000D01*
X33912098Y-76555000D01*
X34347759Y-76468342D01*
X34758143Y-76298355D01*
X35127479Y-76051573D01*
X35441573Y-75737479D01*
X35688355Y-75368143D01*
X35858342Y-74957759D01*
X35945000Y-74522098D01*
X35945000Y-74077902D01*
X35858342Y-73642241D01*
X35688355Y-73231857D01*
X35441573Y-72862521D01*
X35127479Y-72548427D01*
X34758143Y-72301645D01*
X34347759Y-72131658D01*
X33912098Y-72045000D01*
X33467902Y-72045000D01*
X33032241Y-72131658D01*
X32621857Y-72301645D01*
X32252521Y-72548427D01*
X31938427Y-72862521D01*
X31691645Y-73231857D01*
X31521658Y-73642241D01*
X31435000Y-74077902D01*
X26345000Y-74077902D01*
X26258342Y-73642241D01*
X26088355Y-73231857D01*
X25841573Y-72862521D01*
X25527479Y-72548427D01*
X25158143Y-72301645D01*
X24747759Y-72131658D01*
X24312098Y-72045000D01*
X23867902Y-72045000D01*
X23432241Y-72131658D01*
X23021857Y-72301645D01*
X22652521Y-72548427D01*
X22350000Y-72850948D01*
X22350000Y-64718043D01*
X22504759Y-64614637D01*
X22704637Y-64414759D01*
X22861680Y-64179727D01*
X22969853Y-63918574D01*
X23025000Y-63641335D01*
X23025000Y-63358665D01*
X22969853Y-63081426D01*
X22861680Y-62820273D01*
X22704637Y-62585241D01*
X22504759Y-62385363D01*
X22269727Y-62228320D01*
X22008574Y-62120147D01*
X21731335Y-62065000D01*
X21448665Y-62065000D01*
X21224999Y-62109491D01*
X21224999Y-61080509D01*
X21448665Y-61125000D01*
X21731335Y-61125000D01*
X22008574Y-61069853D01*
X22269727Y-60961680D01*
X22504759Y-60804637D01*
X22704637Y-60604759D01*
X22861680Y-60369727D01*
X22969853Y-60108574D01*
X23025000Y-59831335D01*
X23025000Y-59548665D01*
X22988688Y-59366114D01*
X24444803Y-57910000D01*
X27991957Y-57910000D01*
X28095363Y-58064759D01*
X28295241Y-58264637D01*
X28530273Y-58421680D01*
X28791426Y-58529853D01*
X29068665Y-58585000D01*
X29351335Y-58585000D01*
X29628574Y-58529853D01*
X29889727Y-58421680D01*
X30124759Y-58264637D01*
X30324637Y-58064759D01*
X30460000Y-57862173D01*
X30595363Y-58064759D01*
X30795241Y-58264637D01*
X30950000Y-58368044D01*
X30950001Y-58498683D01*
X30835241Y-58575363D01*
X30635363Y-58775241D01*
X30478320Y-59010273D01*
X30370147Y-59271426D01*
X30315000Y-59548665D01*
X30315000Y-59831335D01*
X30370147Y-60108574D01*
X30478320Y-60369727D01*
X30635363Y-60604759D01*
X30835241Y-60804637D01*
X30990000Y-60908044D01*
X30990001Y-62281956D01*
X30835241Y-62385363D01*
X30635363Y-62585241D01*
X30478320Y-62820273D01*
X30370147Y-63081426D01*
X30315000Y-63358665D01*
X30315000Y-63641335D01*
X30370147Y-63918574D01*
X30478320Y-64179727D01*
X30635363Y-64414759D01*
X30835241Y-64614637D01*
X31070273Y-64771680D01*
X31331426Y-64879853D01*
X31608665Y-64935000D01*
X31891335Y-64935000D01*
X32168574Y-64879853D01*
X32429727Y-64771680D01*
X32664759Y-64614637D01*
X32864637Y-64414759D01*
X33021680Y-64179727D01*
X33129853Y-63918574D01*
X33185000Y-63641335D01*
X33185000Y-63358665D01*
X33129853Y-63081426D01*
X33021680Y-62820273D01*
X32864637Y-62585241D01*
X32664759Y-62385363D01*
X32510000Y-62281957D01*
X32510000Y-60908043D01*
X32664759Y-60804637D01*
X32864637Y-60604759D01*
X33021680Y-60369727D01*
X33129853Y-60108574D01*
X33143684Y-60039039D01*
X35038096Y-60039039D01*
X35055633Y-60121818D01*
X35166285Y-60381646D01*
X35325500Y-60614895D01*
X35527161Y-60812601D01*
X35763517Y-60967166D01*
X36025486Y-61072650D01*
X36303000Y-61125000D01*
X36703000Y-61125000D01*
X36703000Y-59817000D01*
X36957000Y-59817000D01*
X36957000Y-61125000D01*
X37357000Y-61125000D01*
X37634514Y-61072650D01*
X37896483Y-60967166D01*
X38132839Y-60812601D01*
X38334500Y-60614895D01*
X38493715Y-60381646D01*
X38604367Y-60121818D01*
X38621904Y-60039039D01*
X38499915Y-59817000D01*
X36957000Y-59817000D01*
X36703000Y-59817000D01*
X35160085Y-59817000D01*
X35038096Y-60039039D01*
X33143684Y-60039039D01*
X33185000Y-59831335D01*
X33185000Y-59548665D01*
X33129853Y-59271426D01*
X33021680Y-59010273D01*
X32864637Y-58775241D01*
X32664759Y-58575363D01*
X32470000Y-58445229D01*
X32470000Y-58368043D01*
X32624759Y-58264637D01*
X32824637Y-58064759D01*
X32928043Y-57910000D01*
X35209099Y-57910000D01*
X35231068Y-57951101D01*
X35410392Y-58169608D01*
X35628899Y-58348932D01*
X35756741Y-58417265D01*
X35527161Y-58567399D01*
X35325500Y-58765105D01*
X35166285Y-58998354D01*
X35055633Y-59258182D01*
X35038096Y-59340961D01*
X35160085Y-59563000D01*
X36703000Y-59563000D01*
X36703000Y-59543000D01*
X36957000Y-59543000D01*
X36957000Y-59563000D01*
X38499915Y-59563000D01*
X38621904Y-59340961D01*
X38604367Y-59258182D01*
X38493715Y-58998354D01*
X38334500Y-58765105D01*
X38132839Y-58567399D01*
X37903259Y-58417265D01*
X38031101Y-58348932D01*
X38249608Y-58169608D01*
X38428932Y-57951101D01*
X38562182Y-57701808D01*
X38644236Y-57431309D01*
X38671943Y-57150000D01*
X38644236Y-56868691D01*
X38562182Y-56598192D01*
X38428932Y-56348899D01*
X38249608Y-56130392D01*
X38031101Y-55951068D01*
X37898142Y-55880000D01*
X38031101Y-55808932D01*
X38249608Y-55629608D01*
X38428932Y-55411101D01*
X38562182Y-55161808D01*
X38644236Y-54891309D01*
X38671943Y-54610000D01*
X38644236Y-54328691D01*
X38562182Y-54058192D01*
X38428932Y-53808899D01*
X38249608Y-53590392D01*
X38031101Y-53411068D01*
X37898142Y-53340000D01*
X38031101Y-53268932D01*
X38249608Y-53089608D01*
X38428932Y-52871101D01*
X38562182Y-52621808D01*
X38644236Y-52351309D01*
X38671943Y-52070000D01*
X38644236Y-51788691D01*
X38562182Y-51518192D01*
X38428932Y-51268899D01*
X38249608Y-51050392D01*
X38031101Y-50871068D01*
X37781808Y-50737818D01*
X37511309Y-50655764D01*
X37300492Y-50635000D01*
X36359508Y-50635000D01*
X36148691Y-50655764D01*
X35878192Y-50737818D01*
X35628899Y-50871068D01*
X35410392Y-51050392D01*
X35231068Y-51268899D01*
X35097818Y-51518192D01*
X35015764Y-51788691D01*
X34988057Y-52070000D01*
X35015764Y-52351309D01*
X35097818Y-52621808D01*
X35231068Y-52871101D01*
X35410392Y-53089608D01*
X35628899Y-53268932D01*
X35761858Y-53340000D01*
X35628899Y-53411068D01*
X35410392Y-53590392D01*
X35231068Y-53808899D01*
X35209099Y-53850000D01*
X32968043Y-53850000D01*
X32864637Y-53695241D01*
X32664759Y-53495363D01*
X32429727Y-53338320D01*
X32408139Y-53329378D01*
X32624759Y-53184637D01*
X32824637Y-52984759D01*
X32981680Y-52749727D01*
X33089853Y-52488574D01*
X33145000Y-52211335D01*
X33145000Y-51928665D01*
X33089853Y-51651426D01*
X32981680Y-51390273D01*
X32824637Y-51155241D01*
X32624759Y-50955363D01*
X32389727Y-50798320D01*
X32128574Y-50690147D01*
X31851335Y-50635000D01*
X31568665Y-50635000D01*
X31291426Y-50690147D01*
X31030273Y-50798320D01*
X30795241Y-50955363D01*
X30595363Y-51155241D01*
X30461308Y-51355869D01*
X30446671Y-51328486D01*
X30202702Y-51256903D01*
X29389605Y-52070000D01*
X30202702Y-52883097D01*
X30446671Y-52811514D01*
X30460324Y-52782659D01*
X30595363Y-52984759D01*
X30795241Y-53184637D01*
X31030273Y-53341680D01*
X31051861Y-53350622D01*
X30835241Y-53495363D01*
X30635363Y-53695241D01*
X30478320Y-53930273D01*
X30370147Y-54191426D01*
X30315000Y-54468665D01*
X30315000Y-54751335D01*
X30351312Y-54933886D01*
X29533886Y-55751312D01*
X29351335Y-55715000D01*
X29068665Y-55715000D01*
X28791426Y-55770147D01*
X28530273Y-55878320D01*
X28295241Y-56035363D01*
X28095363Y-56235241D01*
X27991957Y-56390000D01*
X24167322Y-56390000D01*
X24129999Y-56386324D01*
X24092676Y-56390000D01*
X24092667Y-56390000D01*
X23981014Y-56400997D01*
X23837753Y-56444454D01*
X23705724Y-56515026D01*
X23705722Y-56515027D01*
X23705723Y-56515027D01*
X23618996Y-56586201D01*
X23618992Y-56586205D01*
X23589999Y-56609999D01*
X23566205Y-56638992D01*
X21913886Y-58291312D01*
X21731335Y-58255000D01*
X21448665Y-58255000D01*
X21224999Y-58299491D01*
X21224999Y-56000509D01*
X21448665Y-56045000D01*
X21731335Y-56045000D01*
X22008574Y-55989853D01*
X22269727Y-55881680D01*
X22504759Y-55724637D01*
X22704637Y-55524759D01*
X22861680Y-55289727D01*
X22969853Y-55028574D01*
X23025000Y-54751335D01*
X23025000Y-54468665D01*
X22988688Y-54286113D01*
X24212099Y-53062702D01*
X28396903Y-53062702D01*
X28468486Y-53306671D01*
X28723996Y-53427571D01*
X28998184Y-53496300D01*
X29280512Y-53510217D01*
X29560130Y-53468787D01*
X29826292Y-53373603D01*
X29951514Y-53306671D01*
X30023097Y-53062702D01*
X29210000Y-52249605D01*
X28396903Y-53062702D01*
X24212099Y-53062702D01*
X25134289Y-52140512D01*
X27769783Y-52140512D01*
X27811213Y-52420130D01*
X27906397Y-52686292D01*
X27973329Y-52811514D01*
X28217298Y-52883097D01*
X29030395Y-52070000D01*
X28217298Y-51256903D01*
X27973329Y-51328486D01*
X27852429Y-51583996D01*
X27783700Y-51858184D01*
X27769783Y-52140512D01*
X25134289Y-52140512D01*
X26197503Y-51077298D01*
X28396903Y-51077298D01*
X29210000Y-51890395D01*
X30023097Y-51077298D01*
X29951514Y-50833329D01*
X29696004Y-50712429D01*
X29421816Y-50643700D01*
X29139488Y-50629783D01*
X28859870Y-50671213D01*
X28593708Y-50766397D01*
X28468486Y-50833329D01*
X28396903Y-51077298D01*
X26197503Y-51077298D01*
X35729803Y-41544999D01*
X36709491Y-41544999D01*
X36665000Y-41768665D01*
%TA.AperFunction,Conductor*%
D29*
G36*
X36665000Y-41768665D02*
G01*
X36665000Y-42051335D01*
X36720147Y-42328574D01*
X36828320Y-42589727D01*
X36985363Y-42824759D01*
X37185241Y-43024637D01*
X37340000Y-43128044D01*
X37340001Y-48222668D01*
X37336324Y-48260000D01*
X37340001Y-48297333D01*
X37350998Y-48408986D01*
X37360636Y-48440758D01*
X37394454Y-48552246D01*
X37465026Y-48684276D01*
X37491102Y-48716049D01*
X37560000Y-48800001D01*
X37588998Y-48823799D01*
X42754592Y-53989393D01*
X42717818Y-54058192D01*
X42635764Y-54328691D01*
X42608057Y-54610000D01*
X42635764Y-54891309D01*
X42717818Y-55161808D01*
X42754592Y-55230607D01*
X40128998Y-57856201D01*
X40100000Y-57879999D01*
X40076202Y-57908997D01*
X40076201Y-57908998D01*
X40005026Y-57995724D01*
X39934454Y-58127754D01*
X39904180Y-58227558D01*
X39890998Y-58271014D01*
X39880001Y-58382667D01*
X39876324Y-58420000D01*
X39880001Y-58457332D01*
X39880000Y-62192677D01*
X39876324Y-62230000D01*
X39880000Y-62267322D01*
X39880000Y-62267332D01*
X39890997Y-62378985D01*
X39934454Y-62522246D01*
X40005026Y-62654276D01*
X40044871Y-62702826D01*
X40099999Y-62770001D01*
X40129003Y-62793804D01*
X43690001Y-66354803D01*
X43690000Y-69901956D01*
X43535241Y-70005363D01*
X43335363Y-70205241D01*
X43178320Y-70440273D01*
X43070147Y-70701426D01*
X43015000Y-70978665D01*
X43015000Y-71261335D01*
X43070147Y-71538574D01*
X43178320Y-71799727D01*
X43335363Y-72034759D01*
X43535241Y-72234637D01*
X43690000Y-72338044D01*
X43690001Y-73675195D01*
X42709999Y-74655197D01*
X39498688Y-71443887D01*
X39535000Y-71261335D01*
X39535000Y-70978665D01*
X39479853Y-70701426D01*
X39371680Y-70440273D01*
X39214637Y-70205241D01*
X39014759Y-70005363D01*
X38779727Y-69848320D01*
X38518574Y-69740147D01*
X38241335Y-69685000D01*
X37958665Y-69685000D01*
X37681426Y-69740147D01*
X37420273Y-69848320D01*
X37185241Y-70005363D01*
X36985363Y-70205241D01*
X36828320Y-70440273D01*
X36720147Y-70701426D01*
X36665000Y-70978665D01*
X36665000Y-71261335D01*
X36720147Y-71538574D01*
X36828320Y-71799727D01*
X36985363Y-72034759D01*
X37185241Y-72234637D01*
X37420273Y-72391680D01*
X37681426Y-72499853D01*
X37958665Y-72555000D01*
X38241335Y-72555000D01*
X38423887Y-72518688D01*
X41950000Y-76044802D01*
X41950000Y-82785000D01*
X41808061Y-82785000D01*
X41608102Y-82824774D01*
X41419744Y-82902795D01*
X41250226Y-83016063D01*
X41206289Y-83060000D01*
X38803711Y-83060000D01*
X38759774Y-83016063D01*
X38590256Y-82902795D01*
X38401898Y-82824774D01*
X38201939Y-82785000D01*
X37998061Y-82785000D01*
X37798102Y-82824774D01*
X37609744Y-82902795D01*
X37440226Y-83016063D01*
X37296063Y-83160226D01*
X37182795Y-83329744D01*
X37104774Y-83518102D01*
X37065000Y-83718061D01*
X37065000Y-83921939D01*
X37104774Y-84121898D01*
X37182795Y-84310256D01*
X37296063Y-84479774D01*
X37440226Y-84623937D01*
X37609744Y-84737205D01*
X37798102Y-84815226D01*
X37998061Y-84855000D01*
X38201939Y-84855000D01*
X38401898Y-84815226D01*
X38590256Y-84737205D01*
X38759774Y-84623937D01*
X38803711Y-84580000D01*
X41206289Y-84580000D01*
X41250226Y-84623937D01*
X41419744Y-84737205D01*
X41608102Y-84815226D01*
X41808061Y-84855000D01*
X41950000Y-84855000D01*
X41950000Y-86486339D01*
X41745998Y-86282337D01*
X41461831Y-86092463D01*
X41146081Y-85961675D01*
X40810883Y-85895000D01*
X40469117Y-85895000D01*
X40133919Y-85961675D01*
X39818169Y-86092463D01*
X39534002Y-86282337D01*
X39292337Y-86524002D01*
X39102463Y-86808169D01*
X38971675Y-87123919D01*
X38905000Y-87459117D01*
X38905000Y-87800883D01*
X38971675Y-88136081D01*
X39102463Y-88451831D01*
X39292337Y-88735998D01*
X39534002Y-88977663D01*
X39818169Y-89167537D01*
X40133919Y-89298325D01*
X40469117Y-89365000D01*
X40810883Y-89365000D01*
X41146081Y-89298325D01*
X41461831Y-89167537D01*
X41745998Y-88977663D01*
X41950000Y-88773661D01*
X41950000Y-90130129D01*
X41864482Y-90104188D01*
X41740000Y-90091928D01*
X39540000Y-90091928D01*
X39415518Y-90104188D01*
X39295820Y-90140498D01*
X39185506Y-90199463D01*
X39088815Y-90278815D01*
X39009463Y-90375506D01*
X38950498Y-90485820D01*
X38914188Y-90605518D01*
X38901928Y-90730000D01*
X38901928Y-92930000D01*
X38914188Y-93054482D01*
X38950498Y-93174180D01*
X39009463Y-93284494D01*
X39088815Y-93381185D01*
X39185506Y-93460537D01*
X39295820Y-93519502D01*
X39415518Y-93555812D01*
X39540000Y-93568072D01*
X41740000Y-93568072D01*
X41864482Y-93555812D01*
X41949999Y-93529871D01*
X41949999Y-109055000D01*
X41768665Y-109055000D01*
X41491426Y-109110147D01*
X41230273Y-109218320D01*
X40995241Y-109375363D01*
X40795363Y-109575241D01*
X40638320Y-109810273D01*
X40530147Y-110071426D01*
X40475000Y-110348665D01*
X40475000Y-110631335D01*
X40530147Y-110908574D01*
X40638320Y-111169727D01*
X40795363Y-111404759D01*
X40995241Y-111604637D01*
X41230273Y-111761680D01*
X41491426Y-111869853D01*
X41768665Y-111925000D01*
X42051335Y-111925000D01*
X42328574Y-111869853D01*
X42589727Y-111761680D01*
X42824759Y-111604637D01*
X43024637Y-111404759D01*
X43181680Y-111169727D01*
X43289853Y-110908574D01*
X43345000Y-110631335D01*
X43345000Y-110348665D01*
X43307467Y-110159978D01*
X43344972Y-110114278D01*
X43344973Y-110114277D01*
X43415545Y-109982248D01*
X43459002Y-109838987D01*
X43469999Y-109727334D01*
X43469999Y-109727325D01*
X43473675Y-109690002D01*
X43469999Y-109652679D01*
X43469999Y-102130000D01*
X45711928Y-102130000D01*
X45711928Y-103730000D01*
X45724188Y-103854482D01*
X45760498Y-103974180D01*
X45819463Y-104084494D01*
X45898815Y-104181185D01*
X45995506Y-104260537D01*
X46105820Y-104319502D01*
X46225518Y-104355812D01*
X46350000Y-104368072D01*
X47950000Y-104368072D01*
X48074482Y-104355812D01*
X48194180Y-104319502D01*
X48304494Y-104260537D01*
X48401185Y-104181185D01*
X48480537Y-104084494D01*
X48539502Y-103974180D01*
X48555117Y-103922702D01*
X48836903Y-103922702D01*
X48908486Y-104166671D01*
X49163996Y-104287571D01*
X49438184Y-104356300D01*
X49720512Y-104370217D01*
X50000130Y-104328787D01*
X50266292Y-104233603D01*
X50391514Y-104166671D01*
X50463097Y-103922702D01*
X50330395Y-103790000D01*
X55921928Y-103790000D01*
X55934188Y-103914482D01*
X55970498Y-104034180D01*
X56029463Y-104144494D01*
X56108815Y-104241185D01*
X56205506Y-104320537D01*
X56315820Y-104379502D01*
X56435518Y-104415812D01*
X56560000Y-104428072D01*
X57074250Y-104425000D01*
X57233000Y-104266250D01*
X57233000Y-103117000D01*
X56083750Y-103117000D01*
X55925000Y-103275750D01*
X55921928Y-103790000D01*
X50330395Y-103790000D01*
X49650000Y-103109605D01*
X48836903Y-103922702D01*
X48555117Y-103922702D01*
X48575812Y-103854482D01*
X48588072Y-103730000D01*
X48588072Y-103722785D01*
X48657298Y-103743097D01*
X49470395Y-102930000D01*
X49829605Y-102930000D01*
X50642702Y-103743097D01*
X50886671Y-103671514D01*
X51007571Y-103416004D01*
X51076300Y-103141816D01*
X51090217Y-102859488D01*
X51048787Y-102579870D01*
X50953603Y-102313708D01*
X50887481Y-102190000D01*
X55921928Y-102190000D01*
X55925000Y-102704250D01*
X56083750Y-102863000D01*
X57233000Y-102863000D01*
X57233000Y-101713750D01*
X57487000Y-101713750D01*
X57487000Y-102863000D01*
X57507000Y-102863000D01*
X57507000Y-103117000D01*
X57487000Y-103117000D01*
X57487000Y-104266250D01*
X57645750Y-104425000D01*
X58160000Y-104428072D01*
X58284482Y-104415812D01*
X58404180Y-104379502D01*
X58514494Y-104320537D01*
X58611185Y-104241185D01*
X58690537Y-104144494D01*
X58749502Y-104034180D01*
X58778661Y-103938057D01*
X58945241Y-104104637D01*
X59180273Y-104261680D01*
X59441426Y-104369853D01*
X59718665Y-104425000D01*
X60001335Y-104425000D01*
X60278574Y-104369853D01*
X60539727Y-104261680D01*
X60774759Y-104104637D01*
X60974637Y-103904759D01*
X61131680Y-103669727D01*
X61239853Y-103408574D01*
X61295000Y-103131335D01*
X61295000Y-102848665D01*
X61239853Y-102571426D01*
X61131680Y-102310273D01*
X60974637Y-102075241D01*
X60774759Y-101875363D01*
X60539727Y-101718320D01*
X60278574Y-101610147D01*
X60001335Y-101555000D01*
X59718665Y-101555000D01*
X59441426Y-101610147D01*
X59180273Y-101718320D01*
X58945241Y-101875363D01*
X58778661Y-102041943D01*
X58749502Y-101945820D01*
X58690537Y-101835506D01*
X58611185Y-101738815D01*
X58514494Y-101659463D01*
X58404180Y-101600498D01*
X58284482Y-101564188D01*
X58160000Y-101551928D01*
X57645750Y-101555000D01*
X57487000Y-101713750D01*
X57233000Y-101713750D01*
X57074250Y-101555000D01*
X56560000Y-101551928D01*
X56435518Y-101564188D01*
X56315820Y-101600498D01*
X56205506Y-101659463D01*
X56108815Y-101738815D01*
X56029463Y-101835506D01*
X55970498Y-101945820D01*
X55934188Y-102065518D01*
X55921928Y-102190000D01*
X50887481Y-102190000D01*
X50886671Y-102188486D01*
X50642702Y-102116903D01*
X49829605Y-102930000D01*
X49470395Y-102930000D01*
X48657298Y-102116903D01*
X48588072Y-102137215D01*
X48588072Y-102130000D01*
X48575812Y-102005518D01*
X48555118Y-101937298D01*
X48836903Y-101937298D01*
X49650000Y-102750395D01*
X50463097Y-101937298D01*
X50391514Y-101693329D01*
X50136004Y-101572429D01*
X49861816Y-101503700D01*
X49579488Y-101489783D01*
X49299870Y-101531213D01*
X49033708Y-101626397D01*
X48908486Y-101693329D01*
X48836903Y-101937298D01*
X48555118Y-101937298D01*
X48539502Y-101885820D01*
X48480537Y-101775506D01*
X48401185Y-101678815D01*
X48304494Y-101599463D01*
X48194180Y-101540498D01*
X48074482Y-101504188D01*
X47950000Y-101491928D01*
X46350000Y-101491928D01*
X46225518Y-101504188D01*
X46105820Y-101540498D01*
X45995506Y-101599463D01*
X45898815Y-101678815D01*
X45819463Y-101775506D01*
X45760498Y-101885820D01*
X45724188Y-102005518D01*
X45711928Y-102130000D01*
X43469999Y-102130000D01*
X43469999Y-87488665D01*
X45555000Y-87488665D01*
X45555000Y-87771335D01*
X45610147Y-88048574D01*
X45718320Y-88309727D01*
X45875363Y-88544759D01*
X46075241Y-88744637D01*
X46310273Y-88901680D01*
X46571426Y-89009853D01*
X46848665Y-89065000D01*
X47131335Y-89065000D01*
X47408574Y-89009853D01*
X47669727Y-88901680D01*
X47904759Y-88744637D01*
X48104637Y-88544759D01*
X48261680Y-88309727D01*
X48369853Y-88048574D01*
X48425000Y-87771335D01*
X48425000Y-87488665D01*
X48369853Y-87211426D01*
X48261680Y-86950273D01*
X48104637Y-86715241D01*
X47904759Y-86515363D01*
X47669727Y-86358320D01*
X47408574Y-86250147D01*
X47131335Y-86195000D01*
X46848665Y-86195000D01*
X46571426Y-86250147D01*
X46310273Y-86358320D01*
X46075241Y-86515363D01*
X45875363Y-86715241D01*
X45718320Y-86950273D01*
X45610147Y-87211426D01*
X45555000Y-87488665D01*
X43469999Y-87488665D01*
X43469999Y-82730000D01*
X49861928Y-82730000D01*
X49874188Y-82854482D01*
X49910498Y-82974180D01*
X49969463Y-83084494D01*
X50048815Y-83181185D01*
X50145506Y-83260537D01*
X50255820Y-83319502D01*
X50375518Y-83355812D01*
X50500000Y-83368072D01*
X51114250Y-83365000D01*
X51273000Y-83206250D01*
X51273000Y-81957000D01*
X50023750Y-81957000D01*
X49865000Y-82115750D01*
X49861928Y-82730000D01*
X43469999Y-82730000D01*
X43469999Y-82329395D01*
X43535241Y-82394637D01*
X43770273Y-82551680D01*
X44031426Y-82659853D01*
X44308665Y-82715000D01*
X44591335Y-82715000D01*
X44868574Y-82659853D01*
X45129727Y-82551680D01*
X45364759Y-82394637D01*
X45564637Y-82194759D01*
X45721680Y-81959727D01*
X45829853Y-81698574D01*
X45885000Y-81421335D01*
X45885000Y-81240001D01*
X49863478Y-81240001D01*
X49865000Y-81544250D01*
X50023750Y-81703000D01*
X51273000Y-81703000D01*
X51273000Y-81683000D01*
X51527000Y-81683000D01*
X51527000Y-81703000D01*
X51547000Y-81703000D01*
X51547000Y-81957000D01*
X51527000Y-81957000D01*
X51527000Y-83206250D01*
X51685750Y-83365000D01*
X52300000Y-83368072D01*
X52424482Y-83355812D01*
X52544180Y-83319502D01*
X52654494Y-83260537D01*
X52751185Y-83181185D01*
X52830537Y-83084494D01*
X52883880Y-82984697D01*
X52921495Y-83022312D01*
X53172905Y-83190299D01*
X53452257Y-83306011D01*
X53748816Y-83365000D01*
X54051184Y-83365000D01*
X54347743Y-83306011D01*
X54365002Y-83298862D01*
X54365002Y-84260196D01*
X54295198Y-84330000D01*
X53377322Y-84330000D01*
X53339999Y-84326324D01*
X53302676Y-84330000D01*
X53302667Y-84330000D01*
X53191014Y-84340997D01*
X53047753Y-84384454D01*
X52915724Y-84455026D01*
X52915722Y-84455027D01*
X52915723Y-84455027D01*
X52828996Y-84526201D01*
X52828992Y-84526205D01*
X52799999Y-84549999D01*
X52776205Y-84578992D01*
X51123886Y-86231312D01*
X50941335Y-86195000D01*
X50658665Y-86195000D01*
X50381426Y-86250147D01*
X50120273Y-86358320D01*
X49885241Y-86515363D01*
X49685363Y-86715241D01*
X49528320Y-86950273D01*
X49420147Y-87211426D01*
X49365000Y-87488665D01*
X49365000Y-87771335D01*
X49420147Y-88048574D01*
X49528320Y-88309727D01*
X49685363Y-88544759D01*
X49885241Y-88744637D01*
X50120273Y-88901680D01*
X50381426Y-89009853D01*
X50658665Y-89065000D01*
X50941335Y-89065000D01*
X51218574Y-89009853D01*
X51479727Y-88901680D01*
X51714759Y-88744637D01*
X51914637Y-88544759D01*
X52071680Y-88309727D01*
X52179853Y-88048574D01*
X52235000Y-87771335D01*
X52235000Y-87488665D01*
X52198688Y-87306114D01*
X53654803Y-85850000D01*
X54572678Y-85850000D01*
X54610000Y-85853676D01*
X54647322Y-85850000D01*
X61725012Y-85850000D01*
X61725012Y-86415306D01*
X61639727Y-86358320D01*
X61378574Y-86250147D01*
X61101335Y-86195000D01*
X60818665Y-86195000D01*
X60541426Y-86250147D01*
X60280273Y-86358320D01*
X60045241Y-86515363D01*
X59845363Y-86715241D01*
X59688320Y-86950273D01*
X59580147Y-87211426D01*
X59525000Y-87488665D01*
X59525000Y-87771335D01*
X59580147Y-88048574D01*
X59688320Y-88309727D01*
X59845363Y-88544759D01*
X60045241Y-88744637D01*
X60280273Y-88901680D01*
X60541426Y-89009853D01*
X60818665Y-89065000D01*
X61101335Y-89065000D01*
X61275002Y-89030455D01*
X61275002Y-90090524D01*
X61096411Y-90055000D01*
X60823589Y-90055000D01*
X60556011Y-90108225D01*
X60303957Y-90212629D01*
X60077114Y-90364201D01*
X59884201Y-90557114D01*
X59802091Y-90680000D01*
X53927325Y-90680000D01*
X53890000Y-90676324D01*
X53852675Y-90680000D01*
X53852667Y-90680000D01*
X53741014Y-90690997D01*
X53597753Y-90734454D01*
X53465724Y-90805026D01*
X53349999Y-90899999D01*
X53326201Y-90928997D01*
X51778998Y-92476201D01*
X51750000Y-92499999D01*
X51726202Y-92528997D01*
X51726201Y-92528998D01*
X51655026Y-92615724D01*
X51635674Y-92651928D01*
X51390000Y-92651928D01*
X51265518Y-92664188D01*
X51145820Y-92700498D01*
X51035506Y-92759463D01*
X50938815Y-92838815D01*
X50859463Y-92935506D01*
X50800498Y-93045820D01*
X50764188Y-93165518D01*
X50751928Y-93290000D01*
X50751928Y-95090000D01*
X50764188Y-95214482D01*
X50800498Y-95334180D01*
X50859463Y-95444494D01*
X50938815Y-95541185D01*
X51035506Y-95620537D01*
X51145820Y-95679502D01*
X51265518Y-95715812D01*
X51390000Y-95728072D01*
X52217127Y-95728072D01*
X50915199Y-97030000D01*
X48208043Y-97030000D01*
X48104637Y-96875241D01*
X47904759Y-96675363D01*
X47669727Y-96518320D01*
X47408574Y-96410147D01*
X47131335Y-96355000D01*
X46848665Y-96355000D01*
X46571426Y-96410147D01*
X46310273Y-96518320D01*
X46075241Y-96675363D01*
X45875363Y-96875241D01*
X45718320Y-97110273D01*
X45610147Y-97371426D01*
X45555000Y-97648665D01*
X45555000Y-97931335D01*
X45610147Y-98208574D01*
X45718320Y-98469727D01*
X45875363Y-98704759D01*
X46075241Y-98904637D01*
X46310273Y-99061680D01*
X46571426Y-99169853D01*
X46848665Y-99225000D01*
X47131335Y-99225000D01*
X47408574Y-99169853D01*
X47669727Y-99061680D01*
X47904759Y-98904637D01*
X48104637Y-98704759D01*
X48208043Y-98550000D01*
X51192678Y-98550000D01*
X51230000Y-98553676D01*
X51267322Y-98550000D01*
X51267333Y-98550000D01*
X51378986Y-98539003D01*
X51522247Y-98495546D01*
X51654276Y-98424974D01*
X51770001Y-98330001D01*
X51793804Y-98300997D01*
X52824801Y-97270000D01*
X59571928Y-97270000D01*
X59584188Y-97394482D01*
X59620498Y-97514180D01*
X59679463Y-97624494D01*
X59758815Y-97721185D01*
X59855506Y-97800537D01*
X59965820Y-97859502D01*
X60085518Y-97895812D01*
X60210000Y-97908072D01*
X60674250Y-97905000D01*
X60833000Y-97746250D01*
X60833000Y-96647000D01*
X59733750Y-96647000D01*
X59575000Y-96805750D01*
X59571928Y-97270000D01*
X52824801Y-97270000D01*
X54421070Y-95673731D01*
X54678816Y-95725000D01*
X54981184Y-95725000D01*
X55277743Y-95666011D01*
X55557095Y-95550299D01*
X55808505Y-95382312D01*
X56022312Y-95168505D01*
X56190299Y-94917095D01*
X56306011Y-94637743D01*
X56365000Y-94341184D01*
X56365000Y-94038816D01*
X56306011Y-93742257D01*
X56190299Y-93462905D01*
X56022312Y-93211495D01*
X55808505Y-92997688D01*
X55557095Y-92829701D01*
X55277743Y-92713989D01*
X54981184Y-92655000D01*
X54678816Y-92655000D01*
X54382257Y-92713989D01*
X54102905Y-92829701D01*
X53851495Y-92997688D01*
X53785056Y-93064127D01*
X53779502Y-93045820D01*
X53720537Y-92935506D01*
X53641185Y-92838815D01*
X53599882Y-92804919D01*
X54204802Y-92200000D01*
X59802091Y-92200000D01*
X59884201Y-92322886D01*
X60077114Y-92515799D01*
X60303957Y-92667371D01*
X60406873Y-92710000D01*
X60303957Y-92752629D01*
X60077114Y-92904201D01*
X59884201Y-93097114D01*
X59732629Y-93323957D01*
X59628225Y-93576011D01*
X59575000Y-93843589D01*
X59575000Y-94116411D01*
X59628225Y-94383989D01*
X59732629Y-94636043D01*
X59884201Y-94862886D01*
X60077114Y-95055799D01*
X60193483Y-95133555D01*
X60085518Y-95144188D01*
X59965820Y-95180498D01*
X59855506Y-95239463D01*
X59758815Y-95318815D01*
X59679463Y-95415506D01*
X59620498Y-95525820D01*
X59584188Y-95645518D01*
X59571928Y-95770000D01*
X59575000Y-96234250D01*
X59733750Y-96393000D01*
X60833000Y-96393000D01*
X60833000Y-96373000D01*
X61087000Y-96373000D01*
X61087000Y-96393000D01*
X61107000Y-96393000D01*
X61107000Y-96647000D01*
X61087000Y-96647000D01*
X61087000Y-97746250D01*
X61245750Y-97905000D01*
X61710000Y-97908072D01*
X61725012Y-97906593D01*
X61725013Y-117203187D01*
X57771052Y-121157149D01*
X57740299Y-121082905D01*
X57572312Y-120831495D01*
X57358505Y-120617688D01*
X57107095Y-120449701D01*
X56827743Y-120333989D01*
X56531184Y-120275000D01*
X56228816Y-120275000D01*
X55932257Y-120333989D01*
X55652905Y-120449701D01*
X55401495Y-120617688D01*
X55187688Y-120831495D01*
X55130000Y-120917831D01*
X55072312Y-120831495D01*
X54858505Y-120617688D01*
X54607095Y-120449701D01*
X54327743Y-120333989D01*
X54031184Y-120275000D01*
X53728816Y-120275000D01*
X53432257Y-120333989D01*
X53152905Y-120449701D01*
X52901495Y-120617688D01*
X52863880Y-120655303D01*
X52810537Y-120555506D01*
X52731185Y-120458815D01*
X52634494Y-120379463D01*
X52524180Y-120320498D01*
X52404482Y-120284188D01*
X52280000Y-120271928D01*
X51665750Y-120275000D01*
X51507000Y-120433750D01*
X51507000Y-121683000D01*
X51527000Y-121683000D01*
X51527000Y-121937000D01*
X51507000Y-121937000D01*
X51507000Y-123186250D01*
X51665750Y-123345000D01*
X52280000Y-123348072D01*
X52404482Y-123335812D01*
X52524180Y-123299502D01*
X52634494Y-123240537D01*
X52731185Y-123161185D01*
X52810537Y-123064494D01*
X52863880Y-122964697D01*
X52901495Y-123002312D01*
X53152905Y-123170299D01*
X53432257Y-123286011D01*
X53728816Y-123345000D01*
X54031184Y-123345000D01*
X54327743Y-123286011D01*
X54607095Y-123170299D01*
X54858505Y-123002312D01*
X55072312Y-122788505D01*
X55130000Y-122702169D01*
X55187688Y-122788505D01*
X55401495Y-123002312D01*
X55652905Y-123170299D01*
X55727149Y-123201052D01*
X53566200Y-125362001D01*
X52430868Y-125362001D01*
X52451481Y-125303891D01*
X52330814Y-125074000D01*
X51137000Y-125074000D01*
X51137000Y-125094000D01*
X50883000Y-125094000D01*
X50883000Y-125074000D01*
X50863000Y-125074000D01*
X50863000Y-124820000D01*
X50883000Y-124820000D01*
X50883000Y-123626845D01*
X51137000Y-123626845D01*
X51137000Y-124820000D01*
X52330814Y-124820000D01*
X52451481Y-124590109D01*
X52354157Y-124315748D01*
X52205178Y-124065645D01*
X52010269Y-123849412D01*
X51776920Y-123675359D01*
X51514099Y-123550175D01*
X51366890Y-123505524D01*
X51137000Y-123626845D01*
X50883000Y-123626845D01*
X50653110Y-123505524D01*
X50505901Y-123550175D01*
X50243080Y-123675359D01*
X50009731Y-123849412D01*
X49814822Y-124065645D01*
X49745195Y-124182534D01*
X49623475Y-124000368D01*
X49416632Y-123793525D01*
X49173411Y-123631010D01*
X48903158Y-123519068D01*
X48616260Y-123462000D01*
X48323740Y-123462000D01*
X48036842Y-123519068D01*
X47766589Y-123631010D01*
X47523368Y-123793525D01*
X47316525Y-124000368D01*
X47200000Y-124174760D01*
X47083475Y-124000368D01*
X46876632Y-123793525D01*
X46633411Y-123631010D01*
X46363158Y-123519068D01*
X46076260Y-123462000D01*
X45783740Y-123462000D01*
X45496842Y-123519068D01*
X45226589Y-123631010D01*
X44983368Y-123793525D01*
X44776525Y-124000368D01*
X44660000Y-124174760D01*
X44543475Y-124000368D01*
X44336632Y-123793525D01*
X44093411Y-123631010D01*
X43823158Y-123519068D01*
X43536260Y-123462000D01*
X43243740Y-123462000D01*
X43023592Y-123505790D01*
X42227802Y-122710000D01*
X49841928Y-122710000D01*
X49854188Y-122834482D01*
X49890498Y-122954180D01*
X49949463Y-123064494D01*
X50028815Y-123161185D01*
X50125506Y-123240537D01*
X50235820Y-123299502D01*
X50355518Y-123335812D01*
X50480000Y-123348072D01*
X51094250Y-123345000D01*
X51253000Y-123186250D01*
X51253000Y-121937000D01*
X50003750Y-121937000D01*
X49845000Y-122095750D01*
X49841928Y-122710000D01*
X42227802Y-122710000D01*
X41561616Y-122043815D01*
X41768665Y-122085000D01*
X42051335Y-122085000D01*
X42328574Y-122029853D01*
X42589727Y-121921680D01*
X42824759Y-121764637D01*
X43024637Y-121564759D01*
X43181680Y-121329727D01*
X43289853Y-121068574D01*
X43321395Y-120910000D01*
X49841928Y-120910000D01*
X49845000Y-121524250D01*
X50003750Y-121683000D01*
X51253000Y-121683000D01*
X51253000Y-120433750D01*
X51094250Y-120275000D01*
X50480000Y-120271928D01*
X50355518Y-120284188D01*
X50235820Y-120320498D01*
X50125506Y-120379463D01*
X50028815Y-120458815D01*
X49949463Y-120555506D01*
X49890498Y-120665820D01*
X49854188Y-120785518D01*
X49841928Y-120910000D01*
X43321395Y-120910000D01*
X43345000Y-120791335D01*
X43345000Y-120508665D01*
X43289853Y-120231426D01*
X43181680Y-119970273D01*
X43024637Y-119735241D01*
X42824759Y-119535363D01*
X42589727Y-119378320D01*
X42328574Y-119270147D01*
X42051335Y-119215000D01*
X41768665Y-119215000D01*
X41586114Y-119251312D01*
X41203804Y-118869003D01*
X41180001Y-118839999D01*
X41064276Y-118745026D01*
X40932247Y-118674454D01*
X40788986Y-118630997D01*
X40677333Y-118620000D01*
X40677322Y-118620000D01*
X40640000Y-118616324D01*
X40602678Y-118620000D01*
X31347322Y-118620000D01*
X31309999Y-118616324D01*
X31272676Y-118620000D01*
X31272667Y-118620000D01*
X31161014Y-118630997D01*
X31017753Y-118674454D01*
X30885724Y-118745026D01*
X30769999Y-118839999D01*
X30746201Y-118868997D01*
X29268930Y-120346269D01*
X29011184Y-120295000D01*
X28708816Y-120295000D01*
X28412257Y-120353989D01*
X28132905Y-120469701D01*
X27881495Y-120637688D01*
X27843880Y-120675303D01*
X27790537Y-120575506D01*
X27711185Y-120478815D01*
X27614494Y-120399463D01*
X27504180Y-120340498D01*
X27384482Y-120304188D01*
X27260000Y-120291928D01*
X26645750Y-120295000D01*
X26487000Y-120453750D01*
X26487000Y-121703000D01*
X26507000Y-121703000D01*
X26507000Y-121957000D01*
X26487000Y-121957000D01*
X26487000Y-121977000D01*
X26233000Y-121977000D01*
X26233000Y-121957000D01*
X24983750Y-121957000D01*
X24825000Y-122115750D01*
X24821928Y-122730000D01*
X24834188Y-122854482D01*
X24870498Y-122974180D01*
X24890713Y-123011999D01*
X23365321Y-123011999D01*
X23327998Y-123008323D01*
X23290675Y-123011999D01*
X23290666Y-123011999D01*
X23179013Y-123022996D01*
X23042210Y-123064494D01*
X23035752Y-123066453D01*
X22903722Y-123137025D01*
X22874999Y-123160598D01*
X22874999Y-120930000D01*
X24821928Y-120930000D01*
X24825000Y-121544250D01*
X24983750Y-121703000D01*
X26233000Y-121703000D01*
X26233000Y-120453750D01*
X26074250Y-120295000D01*
X25460000Y-120291928D01*
X25335518Y-120304188D01*
X25215820Y-120340498D01*
X25105506Y-120399463D01*
X25008815Y-120478815D01*
X24929463Y-120575506D01*
X24870498Y-120685820D01*
X24834188Y-120805518D01*
X24821928Y-120930000D01*
X22874999Y-120930000D01*
X22874999Y-116250273D01*
X22991857Y-116328355D01*
X23402241Y-116498342D01*
X23837902Y-116585000D01*
X24282098Y-116585000D01*
X24717759Y-116498342D01*
X25128143Y-116328355D01*
X25497479Y-116081573D01*
X25811573Y-115767479D01*
X26058355Y-115398143D01*
X26228342Y-114987759D01*
X26315000Y-114552098D01*
X26315000Y-114107902D01*
X31405000Y-114107902D01*
X31405000Y-114552098D01*
X31491658Y-114987759D01*
X31661645Y-115398143D01*
X31908427Y-115767479D01*
X32222521Y-116081573D01*
X32591857Y-116328355D01*
X33002241Y-116498342D01*
X33437902Y-116585000D01*
X33882098Y-116585000D01*
X34317759Y-116498342D01*
X34728143Y-116328355D01*
X35097479Y-116081573D01*
X35411573Y-115767479D01*
X35658355Y-115398143D01*
X35828342Y-114987759D01*
X35915000Y-114552098D01*
X35915000Y-114107902D01*
X35911022Y-114087902D01*
X46825000Y-114087902D01*
X46825000Y-114532098D01*
X46911658Y-114967759D01*
X47081645Y-115378143D01*
X47328427Y-115747479D01*
X47642521Y-116061573D01*
X48011857Y-116308355D01*
X48422241Y-116478342D01*
X48857902Y-116565000D01*
X49302098Y-116565000D01*
X49737759Y-116478342D01*
X50148143Y-116308355D01*
X50517479Y-116061573D01*
X50831573Y-115747479D01*
X51078355Y-115378143D01*
X51248342Y-114967759D01*
X51335000Y-114532098D01*
X51335000Y-114087902D01*
X56425000Y-114087902D01*
X56425000Y-114532098D01*
X56511658Y-114967759D01*
X56681645Y-115378143D01*
X56928427Y-115747479D01*
X57242521Y-116061573D01*
X57611857Y-116308355D01*
X58022241Y-116478342D01*
X58457902Y-116565000D01*
X58902098Y-116565000D01*
X59337759Y-116478342D01*
X59748143Y-116308355D01*
X60117479Y-116061573D01*
X60431573Y-115747479D01*
X60678355Y-115378143D01*
X60848342Y-114967759D01*
X60935000Y-114532098D01*
X60935000Y-114087902D01*
X60848342Y-113652241D01*
X60678355Y-113241857D01*
X60431573Y-112872521D01*
X60117479Y-112558427D01*
X59748143Y-112311645D01*
X59337759Y-112141658D01*
X58902098Y-112055000D01*
X58457902Y-112055000D01*
X58022241Y-112141658D01*
X57611857Y-112311645D01*
X57242521Y-112558427D01*
X56928427Y-112872521D01*
X56681645Y-113241857D01*
X56511658Y-113652241D01*
X56425000Y-114087902D01*
X51335000Y-114087902D01*
X51248342Y-113652241D01*
X51078355Y-113241857D01*
X50831573Y-112872521D01*
X50517479Y-112558427D01*
X50148143Y-112311645D01*
X49737759Y-112141658D01*
X49302098Y-112055000D01*
X48857902Y-112055000D01*
X48422241Y-112141658D01*
X48011857Y-112311645D01*
X47642521Y-112558427D01*
X47328427Y-112872521D01*
X47081645Y-113241857D01*
X46911658Y-113652241D01*
X46825000Y-114087902D01*
X35911022Y-114087902D01*
X35828342Y-113672241D01*
X35658355Y-113261857D01*
X35411573Y-112892521D01*
X35097479Y-112578427D01*
X34728143Y-112331645D01*
X34317759Y-112161658D01*
X33882098Y-112075000D01*
X33437902Y-112075000D01*
X33002241Y-112161658D01*
X32591857Y-112331645D01*
X32222521Y-112578427D01*
X31908427Y-112892521D01*
X31661645Y-113261857D01*
X31491658Y-113672241D01*
X31405000Y-114107902D01*
X26315000Y-114107902D01*
X26228342Y-113672241D01*
X26058355Y-113261857D01*
X25811573Y-112892521D01*
X25497479Y-112578427D01*
X25128143Y-112331645D01*
X24717759Y-112161658D01*
X24282098Y-112075000D01*
X23837902Y-112075000D01*
X23402241Y-112161658D01*
X22991857Y-112331645D01*
X22874999Y-112409727D01*
X22874999Y-97826400D01*
X25248328Y-97826400D01*
X25248328Y-99553600D01*
X25260588Y-99678082D01*
X25296898Y-99797780D01*
X25355863Y-99908094D01*
X25435215Y-100004785D01*
X25531906Y-100084137D01*
X25642220Y-100143102D01*
X25700023Y-100160636D01*
X25585961Y-100274698D01*
X25421958Y-100520147D01*
X25308990Y-100792875D01*
X25251400Y-101082401D01*
X25251400Y-101377599D01*
X25308990Y-101667125D01*
X25421958Y-101939853D01*
X25585961Y-102185302D01*
X25794698Y-102394039D01*
X26040147Y-102558042D01*
X26312875Y-102671010D01*
X26602401Y-102728600D01*
X26897599Y-102728600D01*
X27187125Y-102671010D01*
X27459853Y-102558042D01*
X27705302Y-102394039D01*
X27914039Y-102185302D01*
X28024559Y-102019897D01*
X28083183Y-102118488D01*
X28279707Y-102336854D01*
X28515056Y-102512684D01*
X28780186Y-102639222D01*
X28930974Y-102684958D01*
X29163000Y-102563817D01*
X29163000Y-101357000D01*
X29417000Y-101357000D01*
X29417000Y-102563817D01*
X29649026Y-102684958D01*
X29799814Y-102639222D01*
X30064944Y-102512684D01*
X30300293Y-102336854D01*
X30496817Y-102118488D01*
X30560000Y-102012230D01*
X30623183Y-102118488D01*
X30819707Y-102336854D01*
X31055056Y-102512684D01*
X31320186Y-102639222D01*
X31470974Y-102684958D01*
X31703000Y-102563817D01*
X31703000Y-101357000D01*
X31957000Y-101357000D01*
X31957000Y-102563817D01*
X32189026Y-102684958D01*
X32339814Y-102639222D01*
X32604944Y-102512684D01*
X32840293Y-102336854D01*
X33036817Y-102118488D01*
X33100000Y-102012230D01*
X33163183Y-102118488D01*
X33359707Y-102336854D01*
X33595056Y-102512684D01*
X33860186Y-102639222D01*
X34010974Y-102684958D01*
X34243000Y-102563817D01*
X34243000Y-101357000D01*
X31957000Y-101357000D01*
X31703000Y-101357000D01*
X29417000Y-101357000D01*
X29163000Y-101357000D01*
X29143000Y-101357000D01*
X29143000Y-101103000D01*
X29163000Y-101103000D01*
X29163000Y-98817000D01*
X29417000Y-98817000D01*
X29417000Y-101103000D01*
X31703000Y-101103000D01*
X31703000Y-98817000D01*
X31957000Y-98817000D01*
X31957000Y-101103000D01*
X34243000Y-101103000D01*
X34243000Y-98817000D01*
X31957000Y-98817000D01*
X31703000Y-98817000D01*
X29417000Y-98817000D01*
X29163000Y-98817000D01*
X29143000Y-98817000D01*
X29143000Y-98563000D01*
X29163000Y-98563000D01*
X29163000Y-97356183D01*
X29417000Y-97356183D01*
X29417000Y-98563000D01*
X31703000Y-98563000D01*
X31703000Y-97356183D01*
X31957000Y-97356183D01*
X31957000Y-98563000D01*
X34243000Y-98563000D01*
X34243000Y-97356183D01*
X34497000Y-97356183D01*
X34497000Y-98563000D01*
X34517000Y-98563000D01*
X34517000Y-98817000D01*
X34497000Y-98817000D01*
X34497000Y-101103000D01*
X34517000Y-101103000D01*
X34517000Y-101357000D01*
X34497000Y-101357000D01*
X34497000Y-102563817D01*
X34729026Y-102684958D01*
X34879814Y-102639222D01*
X35144944Y-102512684D01*
X35380293Y-102336854D01*
X35576817Y-102118488D01*
X35635441Y-102019897D01*
X35745961Y-102185302D01*
X35954698Y-102394039D01*
X36200147Y-102558042D01*
X36472875Y-102671010D01*
X36762401Y-102728600D01*
X37057599Y-102728600D01*
X37347125Y-102671010D01*
X37619853Y-102558042D01*
X37865302Y-102394039D01*
X38074039Y-102185302D01*
X38238042Y-101939853D01*
X38351010Y-101667125D01*
X38408600Y-101377599D01*
X38408600Y-101082401D01*
X38351010Y-100792875D01*
X38238042Y-100520147D01*
X38074039Y-100274698D01*
X37865302Y-100065961D01*
X37706719Y-99960000D01*
X37865302Y-99854039D01*
X38074039Y-99645302D01*
X38238042Y-99399853D01*
X38351010Y-99127125D01*
X38408600Y-98837599D01*
X38408600Y-98542401D01*
X38351010Y-98252875D01*
X38238042Y-97980147D01*
X38074039Y-97734698D01*
X37865302Y-97525961D01*
X37619853Y-97361958D01*
X37347125Y-97248990D01*
X37057599Y-97191400D01*
X36762401Y-97191400D01*
X36472875Y-97248990D01*
X36200147Y-97361958D01*
X35954698Y-97525961D01*
X35745961Y-97734698D01*
X35635441Y-97900103D01*
X35576817Y-97801512D01*
X35380293Y-97583146D01*
X35144944Y-97407316D01*
X34879814Y-97280778D01*
X34729026Y-97235042D01*
X34497000Y-97356183D01*
X34243000Y-97356183D01*
X34010974Y-97235042D01*
X33860186Y-97280778D01*
X33595056Y-97407316D01*
X33359707Y-97583146D01*
X33163183Y-97801512D01*
X33100000Y-97907770D01*
X33036817Y-97801512D01*
X32840293Y-97583146D01*
X32604944Y-97407316D01*
X32339814Y-97280778D01*
X32189026Y-97235042D01*
X31957000Y-97356183D01*
X31703000Y-97356183D01*
X31470974Y-97235042D01*
X31320186Y-97280778D01*
X31055056Y-97407316D01*
X30819707Y-97583146D01*
X30623183Y-97801512D01*
X30560000Y-97907770D01*
X30496817Y-97801512D01*
X30300293Y-97583146D01*
X30064944Y-97407316D01*
X29799814Y-97280778D01*
X29649026Y-97235042D01*
X29417000Y-97356183D01*
X29163000Y-97356183D01*
X28930974Y-97235042D01*
X28780186Y-97280778D01*
X28515056Y-97407316D01*
X28279707Y-97583146D01*
X28222624Y-97646574D01*
X28203102Y-97582220D01*
X28144137Y-97471906D01*
X28064785Y-97375215D01*
X27968094Y-97295863D01*
X27857780Y-97236898D01*
X27738082Y-97200588D01*
X27613600Y-97188328D01*
X25886400Y-97188328D01*
X25761918Y-97200588D01*
X25642220Y-97236898D01*
X25531906Y-97295863D01*
X25435215Y-97375215D01*
X25355863Y-97471906D01*
X25296898Y-97582220D01*
X25260588Y-97701918D01*
X25248328Y-97826400D01*
X22874999Y-97826400D01*
X22874999Y-91659117D01*
X28745000Y-91659117D01*
X28745000Y-92000883D01*
X28811675Y-92336081D01*
X28942463Y-92651831D01*
X29132337Y-92935998D01*
X29374002Y-93177663D01*
X29658169Y-93367537D01*
X29973919Y-93498325D01*
X30309117Y-93565000D01*
X30650883Y-93565000D01*
X30986081Y-93498325D01*
X31301831Y-93367537D01*
X31585998Y-93177663D01*
X31827663Y-92935998D01*
X32017537Y-92651831D01*
X32148325Y-92336081D01*
X32215000Y-92000883D01*
X32215000Y-91659117D01*
X32148325Y-91323919D01*
X32017537Y-91008169D01*
X31827663Y-90724002D01*
X31585998Y-90482337D01*
X31301831Y-90292463D01*
X30986081Y-90161675D01*
X30650883Y-90095000D01*
X30309117Y-90095000D01*
X29973919Y-90161675D01*
X29658169Y-90292463D01*
X29374002Y-90482337D01*
X29132337Y-90724002D01*
X28942463Y-91008169D01*
X28811675Y-91323919D01*
X28745000Y-91659117D01*
X22874999Y-91659117D01*
X22874999Y-86530000D01*
X28741928Y-86530000D01*
X28741928Y-88730000D01*
X28754188Y-88854482D01*
X28790498Y-88974180D01*
X28849463Y-89084494D01*
X28928815Y-89181185D01*
X29025506Y-89260537D01*
X29135820Y-89319502D01*
X29255518Y-89355812D01*
X29380000Y-89368072D01*
X31580000Y-89368072D01*
X31704482Y-89355812D01*
X31824180Y-89319502D01*
X31934494Y-89260537D01*
X32031185Y-89181185D01*
X32110537Y-89084494D01*
X32169502Y-88974180D01*
X32205812Y-88854482D01*
X32218072Y-88730000D01*
X32218072Y-86530000D01*
X32205812Y-86405518D01*
X32169502Y-86285820D01*
X32110537Y-86175506D01*
X32031185Y-86078815D01*
X31934494Y-85999463D01*
X31824180Y-85940498D01*
X31704482Y-85904188D01*
X31580000Y-85891928D01*
X29380000Y-85891928D01*
X29255518Y-85904188D01*
X29135820Y-85940498D01*
X29025506Y-85999463D01*
X28928815Y-86078815D01*
X28849463Y-86175506D01*
X28790498Y-86285820D01*
X28754188Y-86405518D01*
X28741928Y-86530000D01*
X22874999Y-86530000D01*
X22874999Y-84004800D01*
X24952798Y-81927002D01*
X25013748Y-81927002D01*
X24855000Y-82085750D01*
X24851928Y-82700000D01*
X24864188Y-82824482D01*
X24900498Y-82944180D01*
X24959463Y-83054494D01*
X25038815Y-83151185D01*
X25135506Y-83230537D01*
X25245820Y-83289502D01*
X25365518Y-83325812D01*
X25490000Y-83338072D01*
X26104250Y-83335000D01*
X26263000Y-83176250D01*
X26263000Y-81927000D01*
X26243000Y-81927000D01*
X26243000Y-81673000D01*
X26263000Y-81673000D01*
X26263000Y-81653000D01*
X26517000Y-81653000D01*
X26517000Y-81673000D01*
X26537000Y-81673000D01*
X26537000Y-81927000D01*
X26517000Y-81927000D01*
X26517000Y-83176250D01*
X26675750Y-83335000D01*
X27290000Y-83338072D01*
X27414482Y-83325812D01*
X27534180Y-83289502D01*
X27644494Y-83230537D01*
X27741185Y-83151185D01*
X27820537Y-83054494D01*
X27873880Y-82954697D01*
X27911495Y-82992312D01*
X28162905Y-83160299D01*
X28442257Y-83276011D01*
X28738816Y-83335000D01*
X29041184Y-83335000D01*
X29298930Y-83283731D01*
X29551202Y-83536004D01*
X29575000Y-83565002D01*
X29603998Y-83588800D01*
X29690724Y-83659975D01*
X29746895Y-83689999D01*
X29822754Y-83730547D01*
X29966015Y-83774004D01*
X30077668Y-83785001D01*
X30077677Y-83785001D01*
X30115000Y-83788677D01*
X30152323Y-83785001D01*
X35047677Y-83785001D01*
X35084999Y-83788677D01*
X35122321Y-83785001D01*
X35122332Y-83785001D01*
X35233985Y-83774004D01*
X35377246Y-83730547D01*
X35509275Y-83659975D01*
X35625000Y-83565002D01*
X35648803Y-83535998D01*
X36987703Y-82197099D01*
X37185241Y-82394637D01*
X37420273Y-82551680D01*
X37681426Y-82659853D01*
X37958665Y-82715000D01*
X38241335Y-82715000D01*
X38518574Y-82659853D01*
X38779727Y-82551680D01*
X39014759Y-82394637D01*
X39214637Y-82194759D01*
X39371680Y-81959727D01*
X39479853Y-81698574D01*
X39535000Y-81421335D01*
X39535000Y-81138665D01*
X39479853Y-80861426D01*
X39371680Y-80600273D01*
X39214637Y-80365241D01*
X39014759Y-80165363D01*
X38779727Y-80008320D01*
X38518574Y-79900147D01*
X38241335Y-79845000D01*
X37958665Y-79845000D01*
X37681426Y-79900147D01*
X37420273Y-80008320D01*
X37185241Y-80165363D01*
X36985363Y-80365241D01*
X36881957Y-80520000D01*
X36867322Y-80520000D01*
X36829999Y-80516324D01*
X36792676Y-80520000D01*
X36792667Y-80520000D01*
X36681014Y-80530997D01*
X36537753Y-80574454D01*
X36405723Y-80645026D01*
X36392571Y-80655820D01*
X36289999Y-80739999D01*
X36266201Y-80768997D01*
X34770198Y-82265001D01*
X32858862Y-82265001D01*
X32866011Y-82247743D01*
X32925000Y-81951184D01*
X32925000Y-81648816D01*
X32866011Y-81352257D01*
X32750299Y-81072905D01*
X32582312Y-80821495D01*
X32368505Y-80607688D01*
X32117095Y-80439701D01*
X31837743Y-80323989D01*
X31541184Y-80265000D01*
X31238816Y-80265000D01*
X30981070Y-80316269D01*
X30728803Y-80064002D01*
X30705000Y-80034998D01*
X30589275Y-79940025D01*
X30457246Y-79869453D01*
X30313985Y-79825996D01*
X30202332Y-79814999D01*
X30202321Y-79814999D01*
X30164999Y-79811323D01*
X30127677Y-79814999D01*
X25267321Y-79814999D01*
X25229998Y-79811323D01*
X25192675Y-79814999D01*
X25192666Y-79814999D01*
X25081013Y-79825996D01*
X24937752Y-79869453D01*
X24805723Y-79940025D01*
X24689998Y-80034998D01*
X24666200Y-80063996D01*
X22350000Y-82380197D01*
X22350000Y-75749052D01*
X22652521Y-76051573D01*
X23021857Y-76298355D01*
X23432241Y-76468342D01*
X23867902Y-76555000D01*
X24312098Y-76555000D01*
X24747759Y-76468342D01*
X25158143Y-76298355D01*
X25527479Y-76051573D01*
X25841573Y-75737479D01*
X26088355Y-75368143D01*
X26258342Y-74957759D01*
X26345000Y-74522098D01*
X26345000Y-74077902D01*
X31435000Y-74077902D01*
X31435000Y-74522098D01*
X31521658Y-74957759D01*
X31691645Y-75368143D01*
X31938427Y-75737479D01*
X32252521Y-76051573D01*
X32621857Y-76298355D01*
X33032241Y-76468342D01*
X33467902Y-76555000D01*
X33912098Y-76555000D01*
X34347759Y-76468342D01*
X34758143Y-76298355D01*
X35127479Y-76051573D01*
X35441573Y-75737479D01*
X35688355Y-75368143D01*
X35858342Y-74957759D01*
X35945000Y-74522098D01*
X35945000Y-74077902D01*
X35858342Y-73642241D01*
X35688355Y-73231857D01*
X35441573Y-72862521D01*
X35127479Y-72548427D01*
X34758143Y-72301645D01*
X34347759Y-72131658D01*
X33912098Y-72045000D01*
X33467902Y-72045000D01*
X33032241Y-72131658D01*
X32621857Y-72301645D01*
X32252521Y-72548427D01*
X31938427Y-72862521D01*
X31691645Y-73231857D01*
X31521658Y-73642241D01*
X31435000Y-74077902D01*
X26345000Y-74077902D01*
X26258342Y-73642241D01*
X26088355Y-73231857D01*
X25841573Y-72862521D01*
X25527479Y-72548427D01*
X25158143Y-72301645D01*
X24747759Y-72131658D01*
X24312098Y-72045000D01*
X23867902Y-72045000D01*
X23432241Y-72131658D01*
X23021857Y-72301645D01*
X22652521Y-72548427D01*
X22350000Y-72850948D01*
X22350000Y-64718043D01*
X22504759Y-64614637D01*
X22704637Y-64414759D01*
X22861680Y-64179727D01*
X22969853Y-63918574D01*
X23025000Y-63641335D01*
X23025000Y-63358665D01*
X22969853Y-63081426D01*
X22861680Y-62820273D01*
X22704637Y-62585241D01*
X22504759Y-62385363D01*
X22269727Y-62228320D01*
X22008574Y-62120147D01*
X21731335Y-62065000D01*
X21448665Y-62065000D01*
X21224999Y-62109491D01*
X21224999Y-61080509D01*
X21448665Y-61125000D01*
X21731335Y-61125000D01*
X22008574Y-61069853D01*
X22269727Y-60961680D01*
X22504759Y-60804637D01*
X22704637Y-60604759D01*
X22861680Y-60369727D01*
X22969853Y-60108574D01*
X23025000Y-59831335D01*
X23025000Y-59548665D01*
X22988688Y-59366114D01*
X24444803Y-57910000D01*
X27991957Y-57910000D01*
X28095363Y-58064759D01*
X28295241Y-58264637D01*
X28530273Y-58421680D01*
X28791426Y-58529853D01*
X29068665Y-58585000D01*
X29351335Y-58585000D01*
X29628574Y-58529853D01*
X29889727Y-58421680D01*
X30124759Y-58264637D01*
X30324637Y-58064759D01*
X30460000Y-57862173D01*
X30595363Y-58064759D01*
X30795241Y-58264637D01*
X30950000Y-58368044D01*
X30950001Y-58498683D01*
X30835241Y-58575363D01*
X30635363Y-58775241D01*
X30478320Y-59010273D01*
X30370147Y-59271426D01*
X30315000Y-59548665D01*
X30315000Y-59831335D01*
X30370147Y-60108574D01*
X30478320Y-60369727D01*
X30635363Y-60604759D01*
X30835241Y-60804637D01*
X30990000Y-60908044D01*
X30990001Y-62281956D01*
X30835241Y-62385363D01*
X30635363Y-62585241D01*
X30478320Y-62820273D01*
X30370147Y-63081426D01*
X30315000Y-63358665D01*
X30315000Y-63641335D01*
X30370147Y-63918574D01*
X30478320Y-64179727D01*
X30635363Y-64414759D01*
X30835241Y-64614637D01*
X31070273Y-64771680D01*
X31331426Y-64879853D01*
X31608665Y-64935000D01*
X31891335Y-64935000D01*
X32168574Y-64879853D01*
X32429727Y-64771680D01*
X32664759Y-64614637D01*
X32864637Y-64414759D01*
X33021680Y-64179727D01*
X33129853Y-63918574D01*
X33185000Y-63641335D01*
X33185000Y-63358665D01*
X33129853Y-63081426D01*
X33021680Y-62820273D01*
X32864637Y-62585241D01*
X32664759Y-62385363D01*
X32510000Y-62281957D01*
X32510000Y-60908043D01*
X32664759Y-60804637D01*
X32864637Y-60604759D01*
X33021680Y-60369727D01*
X33129853Y-60108574D01*
X33143684Y-60039039D01*
X35038096Y-60039039D01*
X35055633Y-60121818D01*
X35166285Y-60381646D01*
X35325500Y-60614895D01*
X35527161Y-60812601D01*
X35763517Y-60967166D01*
X36025486Y-61072650D01*
X36303000Y-61125000D01*
X36703000Y-61125000D01*
X36703000Y-59817000D01*
X36957000Y-59817000D01*
X36957000Y-61125000D01*
X37357000Y-61125000D01*
X37634514Y-61072650D01*
X37896483Y-60967166D01*
X38132839Y-60812601D01*
X38334500Y-60614895D01*
X38493715Y-60381646D01*
X38604367Y-60121818D01*
X38621904Y-60039039D01*
X38499915Y-59817000D01*
X36957000Y-59817000D01*
X36703000Y-59817000D01*
X35160085Y-59817000D01*
X35038096Y-60039039D01*
X33143684Y-60039039D01*
X33185000Y-59831335D01*
X33185000Y-59548665D01*
X33129853Y-59271426D01*
X33021680Y-59010273D01*
X32864637Y-58775241D01*
X32664759Y-58575363D01*
X32470000Y-58445229D01*
X32470000Y-58368043D01*
X32624759Y-58264637D01*
X32824637Y-58064759D01*
X32928043Y-57910000D01*
X35209099Y-57910000D01*
X35231068Y-57951101D01*
X35410392Y-58169608D01*
X35628899Y-58348932D01*
X35756741Y-58417265D01*
X35527161Y-58567399D01*
X35325500Y-58765105D01*
X35166285Y-58998354D01*
X35055633Y-59258182D01*
X35038096Y-59340961D01*
X35160085Y-59563000D01*
X36703000Y-59563000D01*
X36703000Y-59543000D01*
X36957000Y-59543000D01*
X36957000Y-59563000D01*
X38499915Y-59563000D01*
X38621904Y-59340961D01*
X38604367Y-59258182D01*
X38493715Y-58998354D01*
X38334500Y-58765105D01*
X38132839Y-58567399D01*
X37903259Y-58417265D01*
X38031101Y-58348932D01*
X38249608Y-58169608D01*
X38428932Y-57951101D01*
X38562182Y-57701808D01*
X38644236Y-57431309D01*
X38671943Y-57150000D01*
X38644236Y-56868691D01*
X38562182Y-56598192D01*
X38428932Y-56348899D01*
X38249608Y-56130392D01*
X38031101Y-55951068D01*
X37898142Y-55880000D01*
X38031101Y-55808932D01*
X38249608Y-55629608D01*
X38428932Y-55411101D01*
X38562182Y-55161808D01*
X38644236Y-54891309D01*
X38671943Y-54610000D01*
X38644236Y-54328691D01*
X38562182Y-54058192D01*
X38428932Y-53808899D01*
X38249608Y-53590392D01*
X38031101Y-53411068D01*
X37898142Y-53340000D01*
X38031101Y-53268932D01*
X38249608Y-53089608D01*
X38428932Y-52871101D01*
X38562182Y-52621808D01*
X38644236Y-52351309D01*
X38671943Y-52070000D01*
X38644236Y-51788691D01*
X38562182Y-51518192D01*
X38428932Y-51268899D01*
X38249608Y-51050392D01*
X38031101Y-50871068D01*
X37781808Y-50737818D01*
X37511309Y-50655764D01*
X37300492Y-50635000D01*
X36359508Y-50635000D01*
X36148691Y-50655764D01*
X35878192Y-50737818D01*
X35628899Y-50871068D01*
X35410392Y-51050392D01*
X35231068Y-51268899D01*
X35097818Y-51518192D01*
X35015764Y-51788691D01*
X34988057Y-52070000D01*
X35015764Y-52351309D01*
X35097818Y-52621808D01*
X35231068Y-52871101D01*
X35410392Y-53089608D01*
X35628899Y-53268932D01*
X35761858Y-53340000D01*
X35628899Y-53411068D01*
X35410392Y-53590392D01*
X35231068Y-53808899D01*
X35209099Y-53850000D01*
X32968043Y-53850000D01*
X32864637Y-53695241D01*
X32664759Y-53495363D01*
X32429727Y-53338320D01*
X32408139Y-53329378D01*
X32624759Y-53184637D01*
X32824637Y-52984759D01*
X32981680Y-52749727D01*
X33089853Y-52488574D01*
X33145000Y-52211335D01*
X33145000Y-51928665D01*
X33089853Y-51651426D01*
X32981680Y-51390273D01*
X32824637Y-51155241D01*
X32624759Y-50955363D01*
X32389727Y-50798320D01*
X32128574Y-50690147D01*
X31851335Y-50635000D01*
X31568665Y-50635000D01*
X31291426Y-50690147D01*
X31030273Y-50798320D01*
X30795241Y-50955363D01*
X30595363Y-51155241D01*
X30461308Y-51355869D01*
X30446671Y-51328486D01*
X30202702Y-51256903D01*
X29389605Y-52070000D01*
X30202702Y-52883097D01*
X30446671Y-52811514D01*
X30460324Y-52782659D01*
X30595363Y-52984759D01*
X30795241Y-53184637D01*
X31030273Y-53341680D01*
X31051861Y-53350622D01*
X30835241Y-53495363D01*
X30635363Y-53695241D01*
X30478320Y-53930273D01*
X30370147Y-54191426D01*
X30315000Y-54468665D01*
X30315000Y-54751335D01*
X30351312Y-54933886D01*
X29533886Y-55751312D01*
X29351335Y-55715000D01*
X29068665Y-55715000D01*
X28791426Y-55770147D01*
X28530273Y-55878320D01*
X28295241Y-56035363D01*
X28095363Y-56235241D01*
X27991957Y-56390000D01*
X24167322Y-56390000D01*
X24129999Y-56386324D01*
X24092676Y-56390000D01*
X24092667Y-56390000D01*
X23981014Y-56400997D01*
X23837753Y-56444454D01*
X23705724Y-56515026D01*
X23705722Y-56515027D01*
X23705723Y-56515027D01*
X23618996Y-56586201D01*
X23618992Y-56586205D01*
X23589999Y-56609999D01*
X23566205Y-56638992D01*
X21913886Y-58291312D01*
X21731335Y-58255000D01*
X21448665Y-58255000D01*
X21224999Y-58299491D01*
X21224999Y-56000509D01*
X21448665Y-56045000D01*
X21731335Y-56045000D01*
X22008574Y-55989853D01*
X22269727Y-55881680D01*
X22504759Y-55724637D01*
X22704637Y-55524759D01*
X22861680Y-55289727D01*
X22969853Y-55028574D01*
X23025000Y-54751335D01*
X23025000Y-54468665D01*
X22988688Y-54286113D01*
X24212099Y-53062702D01*
X28396903Y-53062702D01*
X28468486Y-53306671D01*
X28723996Y-53427571D01*
X28998184Y-53496300D01*
X29280512Y-53510217D01*
X29560130Y-53468787D01*
X29826292Y-53373603D01*
X29951514Y-53306671D01*
X30023097Y-53062702D01*
X29210000Y-52249605D01*
X28396903Y-53062702D01*
X24212099Y-53062702D01*
X25134289Y-52140512D01*
X27769783Y-52140512D01*
X27811213Y-52420130D01*
X27906397Y-52686292D01*
X27973329Y-52811514D01*
X28217298Y-52883097D01*
X29030395Y-52070000D01*
X28217298Y-51256903D01*
X27973329Y-51328486D01*
X27852429Y-51583996D01*
X27783700Y-51858184D01*
X27769783Y-52140512D01*
X25134289Y-52140512D01*
X26197503Y-51077298D01*
X28396903Y-51077298D01*
X29210000Y-51890395D01*
X30023097Y-51077298D01*
X29951514Y-50833329D01*
X29696004Y-50712429D01*
X29421816Y-50643700D01*
X29139488Y-50629783D01*
X28859870Y-50671213D01*
X28593708Y-50766397D01*
X28468486Y-50833329D01*
X28396903Y-51077298D01*
X26197503Y-51077298D01*
X35729803Y-41544999D01*
X36709491Y-41544999D01*
X36665000Y-41768665D01*
G37*
%TD.AperFunction*%
D28*
X61470000Y-54529800D02*
X61470001Y-73363799D01*
X60916990Y-73916810D01*
X60868342Y-73672241D01*
X60698355Y-73261857D01*
X60451573Y-72892521D01*
X60137479Y-72578427D01*
X59768143Y-72331645D01*
X59357759Y-72161658D01*
X58922098Y-72075000D01*
X58477902Y-72075000D01*
X58042241Y-72161658D01*
X57631857Y-72331645D01*
X57262521Y-72578427D01*
X56948427Y-72892521D01*
X56701645Y-73261857D01*
X56531658Y-73672241D01*
X56445000Y-74107902D01*
X56445000Y-74552098D01*
X56531658Y-74987759D01*
X56701645Y-75398143D01*
X56948427Y-75767479D01*
X57262521Y-76081573D01*
X57631857Y-76328355D01*
X58042241Y-76498342D01*
X58286811Y-76546990D01*
X54614004Y-80219797D01*
X54585000Y-80243600D01*
X54535277Y-80304188D01*
X54490027Y-80359325D01*
X54466570Y-80403209D01*
X54347743Y-80353989D01*
X54051184Y-80295000D01*
X53748816Y-80295000D01*
X53491070Y-80346269D01*
X53113805Y-79969004D01*
X53090002Y-79940000D01*
X52974277Y-79845027D01*
X52842248Y-79774455D01*
X52698987Y-79730998D01*
X52587334Y-79720001D01*
X52587323Y-79720001D01*
X52550001Y-79716325D01*
X52512679Y-79720001D01*
X45287321Y-79720001D01*
X45249998Y-79716325D01*
X45212675Y-79720001D01*
X45212666Y-79720001D01*
X45101013Y-79730998D01*
X44957752Y-79774455D01*
X44825723Y-79845027D01*
X44825721Y-79845028D01*
X44825722Y-79845028D01*
X44780022Y-79882533D01*
X44591335Y-79845000D01*
X44308665Y-79845000D01*
X44031426Y-79900147D01*
X43770273Y-80008320D01*
X43535241Y-80165363D01*
X43469999Y-80230605D01*
X43469999Y-76044800D01*
X44961003Y-74553797D01*
X44990001Y-74529999D01*
X45074034Y-74427605D01*
X45084974Y-74414275D01*
X45155546Y-74282245D01*
X45174851Y-74218603D01*
X45199003Y-74138984D01*
X45202064Y-74107902D01*
X46845000Y-74107902D01*
X46845000Y-74552098D01*
X46931658Y-74987759D01*
X47101645Y-75398143D01*
X47348427Y-75767479D01*
X47662521Y-76081573D01*
X48031857Y-76328355D01*
X48442241Y-76498342D01*
X48877902Y-76585000D01*
X49322098Y-76585000D01*
X49757759Y-76498342D01*
X50168143Y-76328355D01*
X50537479Y-76081573D01*
X50851573Y-75767479D01*
X51098355Y-75398143D01*
X51268342Y-74987759D01*
X51355000Y-74552098D01*
X51355000Y-74107902D01*
X51268342Y-73672241D01*
X51098355Y-73261857D01*
X50851573Y-72892521D01*
X50537479Y-72578427D01*
X50168143Y-72331645D01*
X49757759Y-72161658D01*
X49322098Y-72075000D01*
X48877902Y-72075000D01*
X48442241Y-72161658D01*
X48031857Y-72331645D01*
X47662521Y-72578427D01*
X47348427Y-72892521D01*
X47101645Y-73261857D01*
X46931658Y-73672241D01*
X46845000Y-74107902D01*
X45202064Y-74107902D01*
X45210000Y-74027331D01*
X45210000Y-74027321D01*
X45213676Y-73989999D01*
X45210000Y-73952676D01*
X45210000Y-72338043D01*
X45364759Y-72234637D01*
X45564637Y-72034759D01*
X45721680Y-71799727D01*
X45829853Y-71538574D01*
X45885000Y-71261335D01*
X45885000Y-70978665D01*
X45829853Y-70701426D01*
X45721680Y-70440273D01*
X45564637Y-70205241D01*
X45364759Y-70005363D01*
X45210000Y-69901957D01*
X45210000Y-66077325D01*
X45213676Y-66040000D01*
X45210000Y-66002675D01*
X45210000Y-66002667D01*
X45199003Y-65891014D01*
X45155546Y-65747753D01*
X45084974Y-65615724D01*
X44990001Y-65499999D01*
X44961003Y-65476201D01*
X41400000Y-61915199D01*
X41400000Y-58734801D01*
X42685327Y-57449474D01*
X42658096Y-57499039D01*
X42675633Y-57581818D01*
X42786285Y-57841646D01*
X42945500Y-58074895D01*
X43147161Y-58272601D01*
X43376741Y-58422735D01*
X43248899Y-58491068D01*
X43030392Y-58670392D01*
X42851068Y-58888899D01*
X42717818Y-59138192D01*
X42635764Y-59408691D01*
X42608057Y-59690000D01*
X42635764Y-59971309D01*
X42717818Y-60241808D01*
X42851068Y-60491101D01*
X43030392Y-60709608D01*
X43248899Y-60888932D01*
X43498192Y-61022182D01*
X43768691Y-61104236D01*
X43979508Y-61125000D01*
X44920492Y-61125000D01*
X45131309Y-61104236D01*
X45401808Y-61022182D01*
X45651101Y-60888932D01*
X45869608Y-60709608D01*
X46048932Y-60491101D01*
X46182182Y-60241808D01*
X46264236Y-59971309D01*
X46291943Y-59690000D01*
X46278023Y-59548665D01*
X46865000Y-59548665D01*
X46865000Y-59831335D01*
X46920147Y-60108574D01*
X47028320Y-60369727D01*
X47185363Y-60604759D01*
X47385241Y-60804637D01*
X47620273Y-60961680D01*
X47881426Y-61069853D01*
X48158665Y-61125000D01*
X48441335Y-61125000D01*
X48718574Y-61069853D01*
X48979727Y-60961680D01*
X49214759Y-60804637D01*
X49336694Y-60682702D01*
X49986903Y-60682702D01*
X50058486Y-60926671D01*
X50313996Y-61047571D01*
X50588184Y-61116300D01*
X50870512Y-61130217D01*
X51150130Y-61088787D01*
X51416292Y-60993603D01*
X51541514Y-60926671D01*
X51613097Y-60682702D01*
X50800000Y-59869605D01*
X49986903Y-60682702D01*
X49336694Y-60682702D01*
X49414637Y-60604759D01*
X49548692Y-60404131D01*
X49563329Y-60431514D01*
X49807298Y-60503097D01*
X50620395Y-59690000D01*
X50979605Y-59690000D01*
X51792702Y-60503097D01*
X52036671Y-60431514D01*
X52157571Y-60176004D01*
X52226300Y-59901816D01*
X52240217Y-59619488D01*
X52198787Y-59339870D01*
X52103603Y-59073708D01*
X52036671Y-58948486D01*
X51792702Y-58876903D01*
X50979605Y-59690000D01*
X50620395Y-59690000D01*
X49807298Y-58876903D01*
X49563329Y-58948486D01*
X49549676Y-58977341D01*
X49414637Y-58775241D01*
X49336694Y-58697298D01*
X49986903Y-58697298D01*
X50800000Y-59510395D01*
X51613097Y-58697298D01*
X51541514Y-58453329D01*
X51286004Y-58332429D01*
X51011816Y-58263700D01*
X50729488Y-58249783D01*
X50449870Y-58291213D01*
X50183708Y-58386397D01*
X50058486Y-58453329D01*
X49986903Y-58697298D01*
X49336694Y-58697298D01*
X49214759Y-58575363D01*
X48979727Y-58418320D01*
X48718574Y-58310147D01*
X48441335Y-58255000D01*
X48158665Y-58255000D01*
X47881426Y-58310147D01*
X47620273Y-58418320D01*
X47385241Y-58575363D01*
X47185363Y-58775241D01*
X47028320Y-59010273D01*
X46920147Y-59271426D01*
X46865000Y-59548665D01*
X46278023Y-59548665D01*
X46264236Y-59408691D01*
X46182182Y-59138192D01*
X46048932Y-58888899D01*
X45869608Y-58670392D01*
X45651101Y-58491068D01*
X45523259Y-58422735D01*
X45752839Y-58272601D01*
X45954500Y-58074895D01*
X46113715Y-57841646D01*
X46224367Y-57581818D01*
X46241904Y-57499039D01*
X46214675Y-57449478D01*
X46426205Y-57661008D01*
X46449999Y-57690001D01*
X46478992Y-57713795D01*
X46478996Y-57713799D01*
X46549685Y-57771811D01*
X46565724Y-57784974D01*
X46697753Y-57855546D01*
X46841014Y-57899003D01*
X46952667Y-57910000D01*
X46952676Y-57910000D01*
X46989999Y-57913676D01*
X47027322Y-57910000D01*
X48182678Y-57910000D01*
X48220000Y-57913676D01*
X48257322Y-57910000D01*
X48257333Y-57910000D01*
X48368986Y-57899003D01*
X48512247Y-57855546D01*
X48644276Y-57784974D01*
X48760001Y-57690001D01*
X48783804Y-57660997D01*
X50436114Y-56008688D01*
X50618665Y-56045000D01*
X50901335Y-56045000D01*
X51178574Y-55989853D01*
X51439727Y-55881680D01*
X51674759Y-55724637D01*
X51874637Y-55524759D01*
X51978043Y-55370000D01*
X55842678Y-55370000D01*
X55880000Y-55373676D01*
X55917322Y-55370000D01*
X55917333Y-55370000D01*
X56028986Y-55359003D01*
X56172247Y-55315546D01*
X56304276Y-55244974D01*
X56420001Y-55150001D01*
X56443804Y-55120997D01*
X58096114Y-53468688D01*
X58278665Y-53505000D01*
X58561335Y-53505000D01*
X58838574Y-53449853D01*
X59099727Y-53341680D01*
X59334759Y-53184637D01*
X59534637Y-52984759D01*
X59690978Y-52750777D01*
X61470000Y-54529800D01*
%TA.AperFunction,Conductor*%
D29*
G36*
X61470000Y-54529800D02*
G01*
X61470001Y-73363799D01*
X60916990Y-73916810D01*
X60868342Y-73672241D01*
X60698355Y-73261857D01*
X60451573Y-72892521D01*
X60137479Y-72578427D01*
X59768143Y-72331645D01*
X59357759Y-72161658D01*
X58922098Y-72075000D01*
X58477902Y-72075000D01*
X58042241Y-72161658D01*
X57631857Y-72331645D01*
X57262521Y-72578427D01*
X56948427Y-72892521D01*
X56701645Y-73261857D01*
X56531658Y-73672241D01*
X56445000Y-74107902D01*
X56445000Y-74552098D01*
X56531658Y-74987759D01*
X56701645Y-75398143D01*
X56948427Y-75767479D01*
X57262521Y-76081573D01*
X57631857Y-76328355D01*
X58042241Y-76498342D01*
X58286811Y-76546990D01*
X54614004Y-80219797D01*
X54585000Y-80243600D01*
X54535277Y-80304188D01*
X54490027Y-80359325D01*
X54466570Y-80403209D01*
X54347743Y-80353989D01*
X54051184Y-80295000D01*
X53748816Y-80295000D01*
X53491070Y-80346269D01*
X53113805Y-79969004D01*
X53090002Y-79940000D01*
X52974277Y-79845027D01*
X52842248Y-79774455D01*
X52698987Y-79730998D01*
X52587334Y-79720001D01*
X52587323Y-79720001D01*
X52550001Y-79716325D01*
X52512679Y-79720001D01*
X45287321Y-79720001D01*
X45249998Y-79716325D01*
X45212675Y-79720001D01*
X45212666Y-79720001D01*
X45101013Y-79730998D01*
X44957752Y-79774455D01*
X44825723Y-79845027D01*
X44825721Y-79845028D01*
X44825722Y-79845028D01*
X44780022Y-79882533D01*
X44591335Y-79845000D01*
X44308665Y-79845000D01*
X44031426Y-79900147D01*
X43770273Y-80008320D01*
X43535241Y-80165363D01*
X43469999Y-80230605D01*
X43469999Y-76044800D01*
X44961003Y-74553797D01*
X44990001Y-74529999D01*
X45074034Y-74427605D01*
X45084974Y-74414275D01*
X45155546Y-74282245D01*
X45174851Y-74218603D01*
X45199003Y-74138984D01*
X45202064Y-74107902D01*
X46845000Y-74107902D01*
X46845000Y-74552098D01*
X46931658Y-74987759D01*
X47101645Y-75398143D01*
X47348427Y-75767479D01*
X47662521Y-76081573D01*
X48031857Y-76328355D01*
X48442241Y-76498342D01*
X48877902Y-76585000D01*
X49322098Y-76585000D01*
X49757759Y-76498342D01*
X50168143Y-76328355D01*
X50537479Y-76081573D01*
X50851573Y-75767479D01*
X51098355Y-75398143D01*
X51268342Y-74987759D01*
X51355000Y-74552098D01*
X51355000Y-74107902D01*
X51268342Y-73672241D01*
X51098355Y-73261857D01*
X50851573Y-72892521D01*
X50537479Y-72578427D01*
X50168143Y-72331645D01*
X49757759Y-72161658D01*
X49322098Y-72075000D01*
X48877902Y-72075000D01*
X48442241Y-72161658D01*
X48031857Y-72331645D01*
X47662521Y-72578427D01*
X47348427Y-72892521D01*
X47101645Y-73261857D01*
X46931658Y-73672241D01*
X46845000Y-74107902D01*
X45202064Y-74107902D01*
X45210000Y-74027331D01*
X45210000Y-74027321D01*
X45213676Y-73989999D01*
X45210000Y-73952676D01*
X45210000Y-72338043D01*
X45364759Y-72234637D01*
X45564637Y-72034759D01*
X45721680Y-71799727D01*
X45829853Y-71538574D01*
X45885000Y-71261335D01*
X45885000Y-70978665D01*
X45829853Y-70701426D01*
X45721680Y-70440273D01*
X45564637Y-70205241D01*
X45364759Y-70005363D01*
X45210000Y-69901957D01*
X45210000Y-66077325D01*
X45213676Y-66040000D01*
X45210000Y-66002675D01*
X45210000Y-66002667D01*
X45199003Y-65891014D01*
X45155546Y-65747753D01*
X45084974Y-65615724D01*
X44990001Y-65499999D01*
X44961003Y-65476201D01*
X41400000Y-61915199D01*
X41400000Y-58734801D01*
X42685327Y-57449474D01*
X42658096Y-57499039D01*
X42675633Y-57581818D01*
X42786285Y-57841646D01*
X42945500Y-58074895D01*
X43147161Y-58272601D01*
X43376741Y-58422735D01*
X43248899Y-58491068D01*
X43030392Y-58670392D01*
X42851068Y-58888899D01*
X42717818Y-59138192D01*
X42635764Y-59408691D01*
X42608057Y-59690000D01*
X42635764Y-59971309D01*
X42717818Y-60241808D01*
X42851068Y-60491101D01*
X43030392Y-60709608D01*
X43248899Y-60888932D01*
X43498192Y-61022182D01*
X43768691Y-61104236D01*
X43979508Y-61125000D01*
X44920492Y-61125000D01*
X45131309Y-61104236D01*
X45401808Y-61022182D01*
X45651101Y-60888932D01*
X45869608Y-60709608D01*
X46048932Y-60491101D01*
X46182182Y-60241808D01*
X46264236Y-59971309D01*
X46291943Y-59690000D01*
X46278023Y-59548665D01*
X46865000Y-59548665D01*
X46865000Y-59831335D01*
X46920147Y-60108574D01*
X47028320Y-60369727D01*
X47185363Y-60604759D01*
X47385241Y-60804637D01*
X47620273Y-60961680D01*
X47881426Y-61069853D01*
X48158665Y-61125000D01*
X48441335Y-61125000D01*
X48718574Y-61069853D01*
X48979727Y-60961680D01*
X49214759Y-60804637D01*
X49336694Y-60682702D01*
X49986903Y-60682702D01*
X50058486Y-60926671D01*
X50313996Y-61047571D01*
X50588184Y-61116300D01*
X50870512Y-61130217D01*
X51150130Y-61088787D01*
X51416292Y-60993603D01*
X51541514Y-60926671D01*
X51613097Y-60682702D01*
X50800000Y-59869605D01*
X49986903Y-60682702D01*
X49336694Y-60682702D01*
X49414637Y-60604759D01*
X49548692Y-60404131D01*
X49563329Y-60431514D01*
X49807298Y-60503097D01*
X50620395Y-59690000D01*
X50979605Y-59690000D01*
X51792702Y-60503097D01*
X52036671Y-60431514D01*
X52157571Y-60176004D01*
X52226300Y-59901816D01*
X52240217Y-59619488D01*
X52198787Y-59339870D01*
X52103603Y-59073708D01*
X52036671Y-58948486D01*
X51792702Y-58876903D01*
X50979605Y-59690000D01*
X50620395Y-59690000D01*
X49807298Y-58876903D01*
X49563329Y-58948486D01*
X49549676Y-58977341D01*
X49414637Y-58775241D01*
X49336694Y-58697298D01*
X49986903Y-58697298D01*
X50800000Y-59510395D01*
X51613097Y-58697298D01*
X51541514Y-58453329D01*
X51286004Y-58332429D01*
X51011816Y-58263700D01*
X50729488Y-58249783D01*
X50449870Y-58291213D01*
X50183708Y-58386397D01*
X50058486Y-58453329D01*
X49986903Y-58697298D01*
X49336694Y-58697298D01*
X49214759Y-58575363D01*
X48979727Y-58418320D01*
X48718574Y-58310147D01*
X48441335Y-58255000D01*
X48158665Y-58255000D01*
X47881426Y-58310147D01*
X47620273Y-58418320D01*
X47385241Y-58575363D01*
X47185363Y-58775241D01*
X47028320Y-59010273D01*
X46920147Y-59271426D01*
X46865000Y-59548665D01*
X46278023Y-59548665D01*
X46264236Y-59408691D01*
X46182182Y-59138192D01*
X46048932Y-58888899D01*
X45869608Y-58670392D01*
X45651101Y-58491068D01*
X45523259Y-58422735D01*
X45752839Y-58272601D01*
X45954500Y-58074895D01*
X46113715Y-57841646D01*
X46224367Y-57581818D01*
X46241904Y-57499039D01*
X46214675Y-57449478D01*
X46426205Y-57661008D01*
X46449999Y-57690001D01*
X46478992Y-57713795D01*
X46478996Y-57713799D01*
X46549685Y-57771811D01*
X46565724Y-57784974D01*
X46697753Y-57855546D01*
X46841014Y-57899003D01*
X46952667Y-57910000D01*
X46952676Y-57910000D01*
X46989999Y-57913676D01*
X47027322Y-57910000D01*
X48182678Y-57910000D01*
X48220000Y-57913676D01*
X48257322Y-57910000D01*
X48257333Y-57910000D01*
X48368986Y-57899003D01*
X48512247Y-57855546D01*
X48644276Y-57784974D01*
X48760001Y-57690001D01*
X48783804Y-57660997D01*
X50436114Y-56008688D01*
X50618665Y-56045000D01*
X50901335Y-56045000D01*
X51178574Y-55989853D01*
X51439727Y-55881680D01*
X51674759Y-55724637D01*
X51874637Y-55524759D01*
X51978043Y-55370000D01*
X55842678Y-55370000D01*
X55880000Y-55373676D01*
X55917322Y-55370000D01*
X55917333Y-55370000D01*
X56028986Y-55359003D01*
X56172247Y-55315546D01*
X56304276Y-55244974D01*
X56420001Y-55150001D01*
X56443804Y-55120997D01*
X58096114Y-53468688D01*
X58278665Y-53505000D01*
X58561335Y-53505000D01*
X58838574Y-53449853D01*
X59099727Y-53341680D01*
X59334759Y-53184637D01*
X59534637Y-52984759D01*
X59690978Y-52750777D01*
X61470000Y-54529800D01*
G37*
%TD.AperFunction*%
D28*
X44577000Y-57023000D02*
X44597000Y-57023000D01*
X44597000Y-57277000D01*
X44577000Y-57277000D01*
X44577000Y-57297000D01*
X44323000Y-57297000D01*
X44323000Y-57277000D01*
X44303000Y-57277000D01*
X44303000Y-57023000D01*
X44323000Y-57023000D01*
X44323000Y-57003000D01*
X44577000Y-57003000D01*
X44577000Y-57023000D01*
%TA.AperFunction,Conductor*%
D29*
G36*
X44577000Y-57023000D02*
G01*
X44597000Y-57023000D01*
X44597000Y-57277000D01*
X44577000Y-57277000D01*
X44577000Y-57297000D01*
X44323000Y-57297000D01*
X44323000Y-57277000D01*
X44303000Y-57277000D01*
X44303000Y-57023000D01*
X44323000Y-57023000D01*
X44323000Y-57003000D01*
X44577000Y-57003000D01*
X44577000Y-57023000D01*
G37*
%TD.AperFunction*%
%TD*%
M02*
