%TF.GenerationSoftware,KiCad,Pcbnew,(5.1.9)-1*%
%TF.CreationDate,2021-08-22T21:38:48+01:00*%
%TF.ProjectId,Simple mixer jack panel,53696d70-6c65-4206-9d69-786572206a61,rev?*%
%TF.SameCoordinates,Original*%
%TF.FileFunction,OtherDrawing,Comment*%
%FSLAX46Y46*%
G04 Gerber Fmt 4.6, Leading zero omitted, Abs format (unit mm)*
G04 Created by KiCad (PCBNEW (5.1.9)-1) date 2021-08-22 21:38:48*
%MOMM*%
%LPD*%
G01*
G04 APERTURE LIST*
%ADD10C,0.312500*%
%ADD11C,0.625000*%
%ADD12C,0.200000*%
%ADD13C,0.120000*%
G04 APERTURE END LIST*
D10*
X53849107Y-64036886D02*
X53956250Y-63917839D01*
X54170536Y-63798791D01*
X54706250Y-63798791D01*
X54920536Y-63917839D01*
X55027678Y-64036886D01*
X55134821Y-64274981D01*
X55134821Y-64513077D01*
X55027678Y-64870219D01*
X53741964Y-66298791D01*
X55134821Y-66298791D01*
D11*
X37744692Y49138674D02*
X37744692Y54138674D01*
X39244692Y50567245D01*
X40744692Y54138674D01*
X40744692Y49138674D01*
X42887549Y49138674D02*
X42887549Y54138674D01*
X44601835Y54138674D02*
X47601835Y49138674D01*
X47601835Y54138674D02*
X44601835Y49138674D01*
D10*
X28181929Y8592565D02*
X29574786Y8592565D01*
X28824786Y7640184D01*
X29146215Y7640184D01*
X29360501Y7521137D01*
X29467643Y7402089D01*
X29574786Y7163994D01*
X29574786Y6568756D01*
X29467643Y6330660D01*
X29360501Y6211613D01*
X29146215Y6092565D01*
X28503358Y6092565D01*
X28289072Y6211613D01*
X28181929Y6330660D01*
X29574786Y46092565D02*
X28289072Y46092565D01*
X28931929Y46092565D02*
X28931929Y48592565D01*
X28717643Y48235422D01*
X28503358Y47997327D01*
X28289072Y47878279D01*
X29467643Y-31407434D02*
X28396215Y-31407434D01*
X28289072Y-32597910D01*
X28396215Y-32478862D01*
X28610501Y-32359815D01*
X29146215Y-32359815D01*
X29360501Y-32478862D01*
X29467643Y-32597910D01*
X29574786Y-32836005D01*
X29574786Y-33431243D01*
X29467643Y-33669339D01*
X29360501Y-33788386D01*
X29146215Y-33907434D01*
X28610501Y-33907434D01*
X28396215Y-33788386D01*
X28289072Y-33669339D01*
X29856854Y-66298791D02*
X28571140Y-66298791D01*
X29213997Y-66298791D02*
X29213997Y-63798791D01*
X28999711Y-64155934D01*
X28785426Y-64394029D01*
X28571140Y-64513077D01*
X50883794Y-107798791D02*
X51312366Y-107798791D01*
X51526651Y-107917839D01*
X51740937Y-108155934D01*
X51848080Y-108632124D01*
X51848080Y-109465458D01*
X51740937Y-109941648D01*
X51526651Y-110179743D01*
X51312366Y-110298791D01*
X50883794Y-110298791D01*
X50669509Y-110179743D01*
X50455223Y-109941648D01*
X50348080Y-109465458D01*
X50348080Y-108632124D01*
X50455223Y-108155934D01*
X50669509Y-107917839D01*
X50883794Y-107798791D01*
X52812366Y-107798791D02*
X52812366Y-109822600D01*
X52919509Y-110060696D01*
X53026651Y-110179743D01*
X53240937Y-110298791D01*
X53669509Y-110298791D01*
X53883794Y-110179743D01*
X53990937Y-110060696D01*
X54098080Y-109822600D01*
X54098080Y-107798791D01*
X54848080Y-107798791D02*
X56133794Y-107798791D01*
X55490937Y-110298791D02*
X55490937Y-107798791D01*
X54920536Y-86632124D02*
X54920536Y-88298791D01*
X54384821Y-85679743D02*
X53849107Y-87465458D01*
X55241964Y-87465458D01*
D11*
X37370255Y-133613100D02*
X36513112Y-133613100D01*
X36084540Y-133851196D01*
X35870255Y-134089291D01*
X35441683Y-134803576D01*
X35227397Y-135755957D01*
X35227397Y-137660719D01*
X35441683Y-138136910D01*
X35655969Y-138375005D01*
X36084540Y-138613100D01*
X36941683Y-138613100D01*
X37370255Y-138375005D01*
X37584540Y-138136910D01*
X37798826Y-137660719D01*
X37798826Y-136470243D01*
X37584540Y-135994053D01*
X37370255Y-135755957D01*
X36941683Y-135517862D01*
X36084540Y-135517862D01*
X35655969Y-135755957D01*
X35441683Y-135994053D01*
X35227397Y-136470243D01*
X43155969Y-136708338D02*
X46584540Y-136708338D01*
X44870255Y-138613100D02*
X44870255Y-134803576D01*
X54513112Y-138613100D02*
X51941683Y-138613100D01*
X53227397Y-138613100D02*
X53227397Y-133613100D01*
X52798826Y-134327386D01*
X52370255Y-134803576D01*
X51941683Y-135041672D01*
D10*
X29856854Y-66298791D02*
X28571140Y-66298791D01*
X29213997Y-66298791D02*
X29213997Y-63798791D01*
X28999711Y-64155934D01*
X28785426Y-64394029D01*
X28571140Y-64513077D01*
X28463997Y-85798791D02*
X29856854Y-85798791D01*
X29106854Y-86751172D01*
X29428283Y-86751172D01*
X29642569Y-86870219D01*
X29749711Y-86989267D01*
X29856854Y-87227362D01*
X29856854Y-87822600D01*
X29749711Y-88060696D01*
X29642569Y-88179743D01*
X29428283Y-88298791D01*
X28785426Y-88298791D01*
X28571140Y-88179743D01*
X28463997Y-88060696D01*
X53849107Y-64036886D02*
X53956250Y-63917839D01*
X54170536Y-63798791D01*
X54706250Y-63798791D01*
X54920536Y-63917839D01*
X55027678Y-64036886D01*
X55134821Y-64274981D01*
X55134821Y-64513077D01*
X55027678Y-64870219D01*
X53741964Y-66298791D01*
X55134821Y-66298791D01*
X50929229Y-31407434D02*
X51357801Y-31407434D01*
X51572086Y-31526482D01*
X51786372Y-31764577D01*
X51893515Y-32240767D01*
X51893515Y-33074101D01*
X51786372Y-33550291D01*
X51572086Y-33788386D01*
X51357801Y-33907434D01*
X50929229Y-33907434D01*
X50714944Y-33788386D01*
X50500658Y-33550291D01*
X50393515Y-33074101D01*
X50393515Y-32240767D01*
X50500658Y-31764577D01*
X50714944Y-31526482D01*
X50929229Y-31407434D01*
X52857801Y-31407434D02*
X52857801Y-33431243D01*
X52964944Y-33669339D01*
X53072086Y-33788386D01*
X53286372Y-33907434D01*
X53714944Y-33907434D01*
X53929229Y-33788386D01*
X54036372Y-33669339D01*
X54143515Y-33431243D01*
X54143515Y-31407434D01*
X54893515Y-31407434D02*
X56179229Y-31407434D01*
X55536372Y-33907434D02*
X55536372Y-31407434D01*
D11*
X37744692Y49138674D02*
X37744692Y54138674D01*
X39244692Y50567245D01*
X40744692Y54138674D01*
X40744692Y49138674D01*
X42887549Y49138674D02*
X42887549Y54138674D01*
X44601835Y54138674D02*
X47601835Y49138674D01*
X47601835Y54138674D02*
X44601835Y49138674D01*
X37370255Y-133613100D02*
X36513112Y-133613100D01*
X36084540Y-133851196D01*
X35870255Y-134089291D01*
X35441683Y-134803576D01*
X35227397Y-135755957D01*
X35227397Y-137660719D01*
X35441683Y-138136910D01*
X35655969Y-138375005D01*
X36084540Y-138613100D01*
X36941683Y-138613100D01*
X37370255Y-138375005D01*
X37584540Y-138136910D01*
X37798826Y-137660719D01*
X37798826Y-136470243D01*
X37584540Y-135994053D01*
X37370255Y-135755957D01*
X36941683Y-135517862D01*
X36084540Y-135517862D01*
X35655969Y-135755957D01*
X35441683Y-135994053D01*
X35227397Y-136470243D01*
X43155969Y-136708338D02*
X46584540Y-136708338D01*
X44870255Y-138613100D02*
X44870255Y-134803576D01*
X54513112Y-138613100D02*
X51941683Y-138613100D01*
X53227397Y-138613100D02*
X53227397Y-133613100D01*
X52798826Y-134327386D01*
X52370255Y-134803576D01*
X51941683Y-135041672D01*
D10*
X54360501Y7759232D02*
X54360501Y6092565D01*
X53824786Y8711613D02*
X53289072Y6925898D01*
X54681929Y6925898D01*
X50929229Y-31407434D02*
X51357801Y-31407434D01*
X51572086Y-31526482D01*
X51786372Y-31764577D01*
X51893515Y-32240767D01*
X51893515Y-33074101D01*
X51786372Y-33550291D01*
X51572086Y-33788386D01*
X51357801Y-33907434D01*
X50929229Y-33907434D01*
X50714944Y-33788386D01*
X50500658Y-33550291D01*
X50393515Y-33074101D01*
X50393515Y-32240767D01*
X50500658Y-31764577D01*
X50714944Y-31526482D01*
X50929229Y-31407434D01*
X52857801Y-31407434D02*
X52857801Y-33431243D01*
X52964944Y-33669339D01*
X53072086Y-33788386D01*
X53286372Y-33907434D01*
X53714944Y-33907434D01*
X53929229Y-33788386D01*
X54036372Y-33669339D01*
X54143515Y-33431243D01*
X54143515Y-31407434D01*
X54893515Y-31407434D02*
X56179229Y-31407434D01*
X55536372Y-33907434D02*
X55536372Y-31407434D01*
X29749711Y-107798791D02*
X28678283Y-107798791D01*
X28571140Y-108989267D01*
X28678283Y-108870219D01*
X28892569Y-108751172D01*
X29428283Y-108751172D01*
X29642569Y-108870219D01*
X29749711Y-108989267D01*
X29856854Y-109227362D01*
X29856854Y-109822600D01*
X29749711Y-110060696D01*
X29642569Y-110179743D01*
X29428283Y-110298791D01*
X28892569Y-110298791D01*
X28678283Y-110179743D01*
X28571140Y-110060696D01*
X29574786Y46092565D02*
X28289072Y46092565D01*
X28931929Y46092565D02*
X28931929Y48592565D01*
X28717643Y48235422D01*
X28503358Y47997327D01*
X28289072Y47878279D01*
X54360501Y7759232D02*
X54360501Y6092565D01*
X53824786Y8711613D02*
X53289072Y6925898D01*
X54681929Y6925898D01*
X53289072Y48354470D02*
X53396215Y48473518D01*
X53610501Y48592565D01*
X54146215Y48592565D01*
X54360501Y48473518D01*
X54467643Y48354470D01*
X54574786Y48116375D01*
X54574786Y47878279D01*
X54467643Y47521137D01*
X53181929Y46092565D01*
X54574786Y46092565D01*
X29467643Y-31407434D02*
X28396215Y-31407434D01*
X28289072Y-32597910D01*
X28396215Y-32478862D01*
X28610501Y-32359815D01*
X29146215Y-32359815D01*
X29360501Y-32478862D01*
X29467643Y-32597910D01*
X29574786Y-32836005D01*
X29574786Y-33431243D01*
X29467643Y-33669339D01*
X29360501Y-33788386D01*
X29146215Y-33907434D01*
X28610501Y-33907434D01*
X28396215Y-33788386D01*
X28289072Y-33669339D01*
X28181929Y8592565D02*
X29574786Y8592565D01*
X28824786Y7640184D01*
X29146215Y7640184D01*
X29360501Y7521137D01*
X29467643Y7402089D01*
X29574786Y7163994D01*
X29574786Y6568756D01*
X29467643Y6330660D01*
X29360501Y6211613D01*
X29146215Y6092565D01*
X28503358Y6092565D01*
X28289072Y6211613D01*
X28181929Y6330660D01*
X29749711Y-107798791D02*
X28678283Y-107798791D01*
X28571140Y-108989267D01*
X28678283Y-108870219D01*
X28892569Y-108751172D01*
X29428283Y-108751172D01*
X29642569Y-108870219D01*
X29749711Y-108989267D01*
X29856854Y-109227362D01*
X29856854Y-109822600D01*
X29749711Y-110060696D01*
X29642569Y-110179743D01*
X29428283Y-110298791D01*
X28892569Y-110298791D01*
X28678283Y-110179743D01*
X28571140Y-110060696D01*
X50883794Y-107798791D02*
X51312366Y-107798791D01*
X51526651Y-107917839D01*
X51740937Y-108155934D01*
X51848080Y-108632124D01*
X51848080Y-109465458D01*
X51740937Y-109941648D01*
X51526651Y-110179743D01*
X51312366Y-110298791D01*
X50883794Y-110298791D01*
X50669509Y-110179743D01*
X50455223Y-109941648D01*
X50348080Y-109465458D01*
X50348080Y-108632124D01*
X50455223Y-108155934D01*
X50669509Y-107917839D01*
X50883794Y-107798791D01*
X52812366Y-107798791D02*
X52812366Y-109822600D01*
X52919509Y-110060696D01*
X53026651Y-110179743D01*
X53240937Y-110298791D01*
X53669509Y-110298791D01*
X53883794Y-110179743D01*
X53990937Y-110060696D01*
X54098080Y-109822600D01*
X54098080Y-107798791D01*
X54848080Y-107798791D02*
X56133794Y-107798791D01*
X55490937Y-110298791D02*
X55490937Y-107798791D01*
X54920536Y-86632124D02*
X54920536Y-88298791D01*
X54384821Y-85679743D02*
X53849107Y-87465458D01*
X55241964Y-87465458D01*
X53289072Y48354470D02*
X53396215Y48473518D01*
X53610501Y48592565D01*
X54146215Y48592565D01*
X54360501Y48473518D01*
X54467643Y48354470D01*
X54574786Y48116375D01*
X54574786Y47878279D01*
X54467643Y47521137D01*
X53181929Y46092565D01*
X54574786Y46092565D01*
X28463997Y-85798791D02*
X29856854Y-85798791D01*
X29106854Y-86751172D01*
X29428283Y-86751172D01*
X29642569Y-86870219D01*
X29749711Y-86989267D01*
X29856854Y-87227362D01*
X29856854Y-87822600D01*
X29749711Y-88060696D01*
X29642569Y-88179743D01*
X29428283Y-88298791D01*
X28785426Y-88298791D01*
X28571140Y-88179743D01*
X28463997Y-88060696D01*
D12*
X28671800Y-38806599D02*
X29348199Y-45673399D01*
X35806300Y-51889999D02*
X35973699Y-53589999D01*
X33266299Y-51889999D02*
X33433699Y-53589999D01*
X36740000Y-52655999D02*
X35040000Y-52824000D01*
X61910000Y54760000D02*
X65110000Y54760000D01*
X38346300Y-51889999D02*
X38513699Y-53589999D01*
X53671800Y-38806599D02*
X54348199Y-45673399D01*
X57510000Y37760000D02*
G75*
G03*
X57510000Y37760000I-3500000J0D01*
G01*
X43426299Y-51889999D02*
X43593699Y-53589999D01*
X32443399Y-1901799D02*
X25576599Y-2578199D01*
X57510000Y-42240000D02*
G75*
G03*
X57510000Y-42240000I-3500000J0D01*
G01*
X32510000Y-42240000D02*
G75*
G03*
X32510000Y-42240000I-3500000J0D01*
G01*
X41820000Y-52655999D02*
X40119999Y-52824000D01*
X65110000Y-139240000D02*
G75*
G03*
X65110000Y-139240000I-1600000J0D01*
G01*
X65110000Y54760000D02*
G75*
G03*
X65110000Y54760000I-1600000J0D01*
G01*
X21110000Y54760000D02*
G75*
G03*
X21110000Y54760000I-1600000J0D01*
G01*
X19510000Y-137639999D02*
X19510000Y-140839999D01*
X39279999Y-52655999D02*
X37580000Y-52824000D01*
X32510000Y-2240000D02*
G75*
G03*
X32510000Y-2240000I-3500000J0D01*
G01*
X49439999Y-52655999D02*
X47739999Y-52824000D01*
X53456466Y-19546968D02*
X53934866Y-24403568D01*
X63510000Y-137639999D02*
X63510000Y-140839999D01*
X17910000Y54760000D02*
X21110000Y54760000D01*
X19510000Y56360001D02*
X19510000Y53160001D01*
X46899999Y-52655999D02*
X45199999Y-52824000D01*
X21110000Y-139240000D02*
G75*
G03*
X21110000Y-139240000I-1600000J0D01*
G01*
X51046299Y-51889999D02*
X51213699Y-53589999D01*
X57510000Y-2240000D02*
G75*
G03*
X57510000Y-2240000I-3500000J0D01*
G01*
X57443399Y38098201D02*
X50576599Y37421801D01*
X51257466Y-22215368D02*
X56123966Y-21749092D01*
X53671800Y1193401D02*
X54348199Y-5673399D01*
X53671800Y41193401D02*
X54348199Y34326601D01*
X61910000Y-139240000D02*
X65110000Y-139240000D01*
X51979999Y-52655999D02*
X50279999Y-52824000D01*
X48506299Y-51889999D02*
X48673699Y-53589999D01*
X40886299Y-51889999D02*
X41053700Y-53589999D01*
X32443399Y-41901799D02*
X25576599Y-42578199D01*
X63510000Y56360001D02*
X63510000Y53160001D01*
X17910000Y-139240000D02*
X21110000Y-139240000D01*
X45966299Y-51889999D02*
X46133699Y-53589999D01*
X44360000Y-52655999D02*
X42659999Y-52824000D01*
X34199999Y-52655999D02*
X32499999Y-52824000D01*
X56196299Y-21981695D02*
G75*
G03*
X56196299Y-21981695I-2500000J0D01*
G01*
X57443399Y-41901799D02*
X50576599Y-42578199D01*
X57443399Y-1901799D02*
X50576599Y-2578199D01*
X16510000Y-142240000D02*
X66510000Y-142240000D01*
X34010000Y-120240000D02*
G75*
G03*
X34010000Y-120240000I-5000000J0D01*
G01*
X64510000Y45760000D02*
X18510000Y45760000D01*
X44360000Y-49655999D02*
X42659999Y-49824000D01*
X41820000Y-49655999D02*
X40119999Y-49824000D01*
X45966299Y-48889999D02*
X46133699Y-50589999D01*
X66510000Y-142240000D02*
X66510000Y57760000D01*
X46899999Y-49655999D02*
X45199999Y-49824000D01*
X28671800Y41193401D02*
X29348199Y34326601D01*
X46388724Y-106460035D02*
X61127045Y-106460035D01*
X51979999Y-49655999D02*
X50279999Y-49824000D01*
X59010000Y-76240000D02*
G75*
G03*
X59010000Y-76240000I-5000000J0D01*
G01*
X49010000Y-120240000D02*
X59010000Y-120240000D01*
X18510000Y45760000D02*
X18510000Y-54240000D01*
X51046299Y-48889999D02*
X51213699Y-50589999D01*
X66510000Y57760000D02*
X16510000Y57760000D01*
X61127045Y-128212546D02*
X46388724Y-128212546D01*
X59010000Y-120240000D02*
G75*
G03*
X59010000Y-120240000I-5000000J0D01*
G01*
X29010000Y-115240000D02*
X29010000Y-125240000D01*
X18510000Y-130240000D02*
X64510000Y-130240000D01*
X63510000Y-137639999D02*
X63510000Y-140839999D01*
X61910000Y54760000D02*
X65110000Y54760000D01*
X48506299Y-48889999D02*
X48673699Y-50589999D01*
X29010000Y-93240000D02*
X29010000Y-103240000D01*
X59010000Y-98240000D02*
G75*
G03*
X59010000Y-98240000I-5000000J0D01*
G01*
X19510000Y56360001D02*
X19510000Y53160001D01*
X38346300Y-48889999D02*
X38513699Y-50589999D01*
X24010000Y-98240000D02*
X34010000Y-98240000D01*
X54010000Y-93240000D02*
X54010000Y-103240000D01*
X61910000Y-139240000D02*
X65110000Y-139240000D01*
X17910000Y-139240000D02*
X21110000Y-139240000D01*
X63510000Y56360001D02*
X63510000Y53160001D01*
X17910000Y54760000D02*
X21110000Y54760000D01*
X16510000Y57760000D02*
X16510000Y-142240000D01*
X18510000Y-43921839D02*
X18510000Y-130240000D01*
X28671800Y1193401D02*
X29348199Y-5673399D01*
X39279999Y-49655999D02*
X37580000Y-49824000D01*
X49010000Y-98240000D02*
X59010000Y-98240000D01*
X54010000Y-71240000D02*
X54010000Y-81240000D01*
X32510000Y37760000D02*
G75*
G03*
X32510000Y37760000I-3500000J0D01*
G01*
X34010000Y-98240000D02*
G75*
G03*
X34010000Y-98240000I-5000000J0D01*
G01*
X24010000Y-120240000D02*
X34010000Y-120240000D01*
X64510000Y-43921839D02*
X18510000Y-43921839D01*
X64510000Y-130240000D02*
X64510000Y-43921839D01*
X18510000Y-57240000D02*
X64510000Y-57240000D01*
X36740000Y-49655999D02*
X35040000Y-49824000D01*
X32443399Y38098201D02*
X25576599Y37421801D01*
X46388724Y-128212546D02*
X46388724Y-106460035D01*
X49010000Y-76240000D02*
X59010000Y-76240000D01*
X61127045Y-106460035D02*
X61127045Y-128212546D01*
X65110000Y54760000D02*
G75*
G03*
X65110000Y54760000I-1600000J0D01*
G01*
X21110000Y54760000D02*
G75*
G03*
X21110000Y54760000I-1600000J0D01*
G01*
X49439999Y-49655999D02*
X47739999Y-49824000D01*
X29010000Y-71240000D02*
X29010000Y-81240000D01*
X24010000Y-76240000D02*
X34010000Y-76240000D01*
X34010000Y-76240000D02*
G75*
G03*
X34010000Y-76240000I-5000000J0D01*
G01*
X65110000Y-139240000D02*
G75*
G03*
X65110000Y-139240000I-1600000J0D01*
G01*
X64510000Y-54240000D02*
X64510000Y45760000D01*
X19510000Y-137639999D02*
X19510000Y-140839999D01*
X21110000Y-139240000D02*
G75*
G03*
X21110000Y-139240000I-1600000J0D01*
G01*
X43426299Y-48889999D02*
X43593699Y-50589999D01*
X40886299Y-48889999D02*
X41053700Y-50589999D01*
X54010000Y-115240000D02*
X54010000Y-125240000D01*
X49010000Y-98240000D02*
X59010000Y-98240000D01*
X24010000Y-120240000D02*
X34010000Y-120240000D01*
X18510000Y-43921839D02*
X18510000Y-130240000D01*
X33266299Y-48889999D02*
X33433699Y-50589999D01*
X57443399Y-41901799D02*
X50576599Y-42578199D01*
X53671800Y41193401D02*
X54348199Y34326601D01*
X61127045Y-128212546D02*
X46388724Y-128212546D01*
X34010000Y-76240000D02*
G75*
G03*
X34010000Y-76240000I-5000000J0D01*
G01*
X54010000Y-71240000D02*
X54010000Y-81240000D01*
X32443399Y-41901799D02*
X25576599Y-42578199D01*
X28671800Y41193401D02*
X29348199Y34326601D01*
X57510000Y-42240000D02*
G75*
G03*
X57510000Y-42240000I-3500000J0D01*
G01*
X57443399Y-1901799D02*
X50576599Y-2578199D01*
X51257466Y-22215368D02*
X56123966Y-21749092D01*
X53671800Y-38806599D02*
X54348199Y-45673399D01*
X57510000Y-2240000D02*
G75*
G03*
X57510000Y-2240000I-3500000J0D01*
G01*
X64510000Y45760000D02*
X18510000Y45760000D01*
X53671800Y1193401D02*
X54348199Y-5673399D01*
X57443399Y38098201D02*
X50576599Y37421801D01*
X28671800Y-38806599D02*
X29348199Y-45673399D01*
X32443399Y-1901799D02*
X25576599Y-2578199D01*
X32510000Y37760000D02*
G75*
G03*
X32510000Y37760000I-3500000J0D01*
G01*
X46388724Y-128212546D02*
X46388724Y-106460035D01*
X29010000Y-93240000D02*
X29010000Y-103240000D01*
X24010000Y-98240000D02*
X34010000Y-98240000D01*
X29010000Y-71240000D02*
X29010000Y-81240000D01*
X54010000Y-93240000D02*
X54010000Y-103240000D01*
X59010000Y-98240000D02*
G75*
G03*
X59010000Y-98240000I-5000000J0D01*
G01*
X64510000Y-54240000D02*
X64510000Y45760000D01*
X54010000Y-115240000D02*
X54010000Y-125240000D01*
X59010000Y-76240000D02*
G75*
G03*
X59010000Y-76240000I-5000000J0D01*
G01*
X49010000Y-120240000D02*
X59010000Y-120240000D01*
X18510000Y-130240000D02*
X64510000Y-130240000D01*
X16510000Y57760000D02*
X16510000Y-142240000D01*
X29010000Y-115240000D02*
X29010000Y-125240000D01*
X64510000Y-130240000D02*
X64510000Y-43921839D01*
X57510000Y37760000D02*
G75*
G03*
X57510000Y37760000I-3500000J0D01*
G01*
X32510000Y-42240000D02*
G75*
G03*
X32510000Y-42240000I-3500000J0D01*
G01*
X24010000Y-76240000D02*
X34010000Y-76240000D01*
X34010000Y-98240000D02*
G75*
G03*
X34010000Y-98240000I-5000000J0D01*
G01*
X18510000Y-54240000D02*
X64510000Y-54240000D01*
X18510000Y45760000D02*
X18510000Y-54240000D01*
X59010000Y-120240000D02*
G75*
G03*
X59010000Y-120240000I-5000000J0D01*
G01*
X34010000Y-120240000D02*
G75*
G03*
X34010000Y-120240000I-5000000J0D01*
G01*
X66510000Y57760000D02*
X16510000Y57760000D01*
X32510000Y-2240000D02*
G75*
G03*
X32510000Y-2240000I-3500000J0D01*
G01*
X32443399Y38098201D02*
X25576599Y37421801D01*
X64510000Y-43921839D02*
X18510000Y-43921839D01*
X28671800Y1193401D02*
X29348199Y-5673399D01*
X66510000Y-142240000D02*
X66510000Y57760000D01*
X61127045Y-106460035D02*
X61127045Y-128212546D01*
X35806300Y-48889999D02*
X35973699Y-50589999D01*
X34199999Y-49655999D02*
X32499999Y-49824000D01*
X56196299Y-21981695D02*
G75*
G03*
X56196299Y-21981695I-2500000J0D01*
G01*
X53456466Y-19546968D02*
X53934866Y-24403568D01*
X46388724Y-106460035D02*
X61127045Y-106460035D01*
X49010000Y-76240000D02*
X59010000Y-76240000D01*
X16510000Y-142240000D02*
X66510000Y-142240000D01*
D13*
%TO.C,J1*%
X34324000Y-84008000D02*
X21116000Y-84008000D01*
X36864000Y-81976000D02*
X34324000Y-84008000D01*
X21116000Y-84008000D02*
X21116000Y-68260000D01*
X36864000Y-80960000D02*
X36864000Y-81976000D01*
X36864000Y-68260000D02*
X36864000Y-80960000D01*
X21116000Y-68260000D02*
X36864000Y-68260000D01*
%TO.C,J2*%
X46096000Y-68310000D02*
X61844000Y-68310000D01*
X61844000Y-68310000D02*
X61844000Y-81010000D01*
X61844000Y-81010000D02*
X61844000Y-82026000D01*
X46096000Y-84058000D02*
X46096000Y-68310000D01*
X61844000Y-82026000D02*
X59304000Y-84058000D01*
X59304000Y-84058000D02*
X46096000Y-84058000D01*
%TO.C,J3*%
X34344000Y-106078000D02*
X21136000Y-106078000D01*
X36884000Y-104046000D02*
X34344000Y-106078000D01*
X21136000Y-106078000D02*
X21136000Y-90330000D01*
X36884000Y-103030000D02*
X36884000Y-104046000D01*
X36884000Y-90330000D02*
X36884000Y-103030000D01*
X21136000Y-90330000D02*
X36884000Y-90330000D01*
%TO.C,J4*%
X46106000Y-90320000D02*
X61854000Y-90320000D01*
X61854000Y-90320000D02*
X61854000Y-103020000D01*
X61854000Y-103020000D02*
X61854000Y-104036000D01*
X46106000Y-106068000D02*
X46106000Y-90320000D01*
X61854000Y-104036000D02*
X59314000Y-106068000D01*
X59314000Y-106068000D02*
X46106000Y-106068000D01*
%TO.C,J5*%
X34304000Y-128068000D02*
X21096000Y-128068000D01*
X36844000Y-126036000D02*
X34304000Y-128068000D01*
X21096000Y-128068000D02*
X21096000Y-112320000D01*
X36844000Y-125020000D02*
X36844000Y-126036000D01*
X36844000Y-112320000D02*
X36844000Y-125020000D01*
X21096000Y-112320000D02*
X36844000Y-112320000D01*
%TO.C,J7*%
X46146000Y-112330000D02*
X61894000Y-112330000D01*
X61894000Y-112330000D02*
X61894000Y-125030000D01*
X61894000Y-125030000D02*
X61894000Y-126046000D01*
X46146000Y-128078000D02*
X46146000Y-112330000D01*
X61894000Y-126046000D02*
X59354000Y-128078000D01*
X59354000Y-128078000D02*
X46146000Y-128078000D01*
%TD*%
M02*
