%TF.GenerationSoftware,KiCad,Pcbnew,(5.1.9)-1*%
%TF.CreationDate,2021-08-22T21:38:48+01:00*%
%TF.ProjectId,Simple mixer jack panel,53696d70-6c65-4206-9d69-786572206a61,rev?*%
%TF.SameCoordinates,Original*%
%TF.FileFunction,Other,User*%
%FSLAX46Y46*%
G04 Gerber Fmt 4.6, Leading zero omitted, Abs format (unit mm)*
G04 Created by KiCad (PCBNEW (5.1.9)-1) date 2021-08-22 21:38:48*
%MOMM*%
%LPD*%
G01*
G04 APERTURE LIST*
%ADD10C,0.120000*%
%ADD11C,0.050000*%
G04 APERTURE END LIST*
D10*
%TO.C,J1*%
X20010000Y-85150000D02*
X20010000Y-67150000D01*
X38010000Y-85150000D02*
X20010000Y-85150000D01*
X38010000Y-67150000D02*
X38010000Y-85150000D01*
X20010000Y-67150000D02*
X38010000Y-67150000D01*
%TO.C,J2*%
X44990000Y-67200000D02*
X62990000Y-67200000D01*
X62990000Y-67200000D02*
X62990000Y-85200000D01*
X62990000Y-85200000D02*
X44990000Y-85200000D01*
X44990000Y-85200000D02*
X44990000Y-67200000D01*
%TO.C,J3*%
X20030000Y-107220000D02*
X20030000Y-89220000D01*
X38030000Y-107220000D02*
X20030000Y-107220000D01*
X38030000Y-89220000D02*
X38030000Y-107220000D01*
X20030000Y-89220000D02*
X38030000Y-89220000D01*
%TO.C,J4*%
X45000000Y-89210000D02*
X63000000Y-89210000D01*
X63000000Y-89210000D02*
X63000000Y-107210000D01*
X63000000Y-107210000D02*
X45000000Y-107210000D01*
X45000000Y-107210000D02*
X45000000Y-89210000D01*
%TO.C,J5*%
X19990000Y-129210000D02*
X19990000Y-111210000D01*
X37990000Y-129210000D02*
X19990000Y-129210000D01*
X37990000Y-111210000D02*
X37990000Y-129210000D01*
X19990000Y-111210000D02*
X37990000Y-111210000D01*
D11*
%TO.C,J6*%
X31560000Y-50930000D02*
X31560000Y-54530000D01*
X52910000Y-50930000D02*
X31560000Y-50930000D01*
X52910000Y-54530000D02*
X52910000Y-50930000D01*
X31560000Y-54530000D02*
X52910000Y-54530000D01*
D10*
%TO.C,J7*%
X45040000Y-111220000D02*
X63040000Y-111220000D01*
X63040000Y-111220000D02*
X63040000Y-129220000D01*
X63040000Y-129220000D02*
X45040000Y-129220000D01*
X45040000Y-129220000D02*
X45040000Y-111220000D01*
%TD*%
M02*
