M48
; DRILL file {KiCad (5.1.9)-1} date 08/22/21 21:38:51
; FORMAT={-:-/ absolute / inch / decimal}
; #@! TF.CreationDate,2021-08-22T21:38:51+01:00
; #@! TF.GenerationSoftware,Kicad,Pcbnew,(5.1.9)-1
; #@! TF.FileFunction,Plated,1,2,PTH
FMAT,2
INCH
T1C0.0394
T2C0.1063
%
G90
G05
T1
X1.3134Y-2.076
X1.4134Y-2.076
X1.5134Y-2.076
X1.6134Y-2.076
X1.7134Y-2.076
X1.8134Y-2.076
X1.9134Y-2.076
X2.0134Y-2.076
T2
X0.8894Y-4.7524
X0.8902Y-3.0177
X0.8909Y-3.8866
X1.0429Y-4.9846
X1.0437Y-3.25
X1.0445Y-4.1189
X1.161Y-4.4807
X1.1618Y-2.7461
X1.1626Y-3.615
X1.328Y-4.9193
X1.3287Y-3.1846
X1.3295Y-4.0535
X1.3933Y-4.6343
X1.3941Y-2.8996
X1.3949Y-3.7685
X1.8736Y-3.0197
X1.874Y-3.8862
X1.8756Y-4.7528
X2.0272Y-3.252
X2.0276Y-4.1185
X2.0291Y-4.985
X2.1453Y-2.748
X2.1457Y-3.6146
X2.1472Y-4.4811
X2.3122Y-3.1866
X2.3126Y-4.0531
X2.3142Y-4.9197
X2.3776Y-2.9016
X2.378Y-3.7681
X2.3795Y-4.6346
T0
M30
